<?xml version="1.0" encoding="utf-8"?>
<!-- Generator: Adobe Illustrator 17.1.0, SVG Export Plug-In . SVG Version: 6.00 Build 0)  -->
<!DOCTYPE svg PUBLIC "-//W3C//DTD SVG 1.1//EN" "http://www.w3.org/Graphics/SVG/1.1/DTD/svg11.dtd">
<svg version="1.1" xmlns="http://www.w3.org/2000/svg" xmlns:xlink="http://www.w3.org/1999/xlink" x="0px" y="0px"
	 viewBox="0 0 788.4 491.5" enable-background="new 0 0 788.4 491.5" xml:space="preserve">
<g id="Layer_2">
</g>
<g id="Layer_1">
	<g>
		<g>
			<linearGradient id="SVGID_1_" gradientUnits="userSpaceOnUse" x1="141.3275" y1="245.7639" x2="632.8551" y2="245.7639">
				<stop  offset="0" style="stop-color:#111111"/>
				<stop  offset="1" style="stop-color:#EEEEEE"/>
			</linearGradient>
			<path fill="url(#SVGID_1_)" d="M387.1,1c33,0,65.1,6.5,95.3,19.2c29.1,12.3,55.3,30,77.8,52.5c22.5,22.5,40.1,48.7,52.5,77.8
				c12.8,30.2,19.2,62.2,19.2,95.3c0,33-6.5,65.1-19.2,95.3c-12.3,29.1-30,55.3-52.5,77.8s-48.7,40.1-77.8,52.5
				c-30.2,12.8-62.2,19.2-95.3,19.2c-33,0-65.1-6.5-95.3-19.2c-29.1-12.3-55.3-30-77.8-52.5s-40.1-48.7-52.5-77.8
				c-12.8-30.2-19.2-62.2-19.2-95.3c0-33,6.5-65.1,19.2-95.3c12.3-29.1,30-55.3,52.5-77.8c22.5-22.5,48.7-40.1,77.8-52.5
				C322,7.5,354,1,387.1,1 M387.1,0C251.4,0,141.3,110,141.3,245.8s110,245.8,245.8,245.8c135.7,0,245.8-110,245.8-245.8
				S522.8,0,387.1,0L387.1,0z"/>
		</g>
	</g>
</g>
</svg>
