<?xml version="1.0" encoding="utf-8"?>
<!-- Generator: Adobe Illustrator 17.1.0, SVG Export Plug-In . SVG Version: 6.00 Build 0)  -->
<!DOCTYPE svg PUBLIC "-//W3C//DTD SVG 1.1//EN" "http://www.w3.org/Graphics/SVG/1.1/DTD/svg11.dtd">
<svg version="1.1" xmlns="http://www.w3.org/2000/svg" xmlns:xlink="http://www.w3.org/1999/xlink" x="0px" y="0px"
	 viewBox="0 0 380.7 218" enable-background="new 0 0 380.7 218" xml:space="preserve">
<g id="Layer_2">
</g>
<g id="Layer_1">
	<rect x="0" y="0" fill="#111111" width="380.7" height="218"/>
	<g>
		<path fill="#FFFFFF" d="M7.1,12.4c0.3-1.5,0.5-2.9,0.6-4h0.3c0.1,0,0.5,0,0.9,0.1c0.5,0,0.9,0.1,1.2,0.1H15c0.3,0,0.7,0,1.2-0.1
			c0.5,0,0.8-0.1,0.9-0.1h0.3c0.1,1.2,0.2,2.5,0.6,4h-0.4c-0.5-2.1-1.2-3.2-2.4-3.2h-0.3c-1,0-1.3,0.2-1.3,0.9v10.7
			c0,0.4,0.1,0.7,0.2,0.9s0.5,0.3,1,0.3H16v0.5h-0.7c-0.2,0-0.5,0-1-0.1s-0.8-0.1-1-0.1h-1.6c-0.2,0-0.5,0-1,0.1s-0.8,0.1-1,0.1H9.1
			V22h1.2c0.5,0,0.8-0.1,1-0.3s0.2-0.5,0.2-0.9V10.1c0-0.7-0.3-0.9-1.3-0.9H9.9c-1.2,0-1.9,1.1-2.4,3.2H7.1z"/>
		<path fill="#FFFFFF" d="M18.8,22.5V22c1,0,1.3-0.3,1.3-1.2V10c0-0.8-0.3-1.2-1.3-1.2V8.3h0.3c0.2,0,0.9,0.1,1.5,0.1h0.9
			c0.3,0,0.6,0,0.9-0.1c0.3,0,0.5-0.1,0.6-0.1h0.3v0.5c-1,0-1.3,0.3-1.3,1.2v4.7h4.6V10c0-0.8-0.3-1.2-1.3-1.2V8.3h0.3
			c0.2,0,0.9,0.1,1.5,0.1h0.9c0.7,0,1.3-0.1,1.5-0.1h0.3v0.5c-1,0-1.3,0.3-1.3,1.2v10.8c0,0.8,0.3,1.2,1.3,1.2v0.5h-0.3
			c-0.2,0-0.9-0.1-1.5-0.1h-0.9c-0.7,0-1.3,0.1-1.5,0.1h-0.3V22c1,0,1.3-0.3,1.3-1.2v-5.4h-4.6v5.4c0,0.8,0.3,1.2,1.3,1.2v0.5h-0.3
			c-0.2,0-0.9-0.1-1.5-0.1h-0.9c-0.7,0-1.3,0.1-1.5,0.1H18.8z"/>
		<path fill="#FFFFFF" d="M31.3,22.5V22c1,0,1.4-0.4,1.4-1.2V10.1c0-0.8-0.4-1.2-1.4-1.2V8.3h0.5c0.1,0,0.4,0,0.9,0.1
			c0.5,0,0.8,0.1,1,0.1h5c0.3,0,0.7,0,1.2-0.1c0.4,0,0.7-0.1,0.8-0.1h0.2c0,0.6,0.1,1.8,0.4,3.5h-0.4c-0.3-1-0.6-1.7-1.1-2.1
			c-0.4-0.4-1.1-0.6-1.9-0.6h-1.9c-0.8,0-1,0.1-1,0.8v4.6h2.5c0.5,0,0.8-0.3,1-0.6c0.2-0.4,0.2-0.7,0.2-1.1h0.5v0.4
			c0,0.1,0,0.3,0,0.7c0,0.4,0,0.7,0,1s0,0.6,0,1c0,0.4,0,0.6,0,0.7V17h-0.5c0-0.4-0.1-0.8-0.2-1.1c-0.2-0.4-0.5-0.6-1-0.6h-2.5v5.6
			c0,0.6,0.3,0.8,1.1,0.8h2.8c0.7,0,1.2-0.2,1.6-0.6c0.4-0.4,0.6-1.2,0.9-2.2h0.4c-0.1,1.4-0.2,2.6-0.2,3.7h-0.2c-0.2,0-0.5,0-1-0.1
			c-0.5,0-1-0.1-1.4-0.1h-5.1c-0.3,0-0.7,0-1.1,0.1s-0.6,0.1-0.8,0.1H31.3z"/>
		<path fill="#FFFFFF" d="M43.1,22.5V22c1,0,1.4-0.3,1.4-1.3V10.1c0-0.8-0.3-1.2-1.3-1.2V8.3h0.4c0.2,0,0.7,0.1,1.3,0.1
			s1.2-0.1,1.4-0.1h0.3l5.5,12V10.2c0-0.9-0.5-1.3-1.4-1.3V8.3H51c0.2,0,0.6,0.1,1.3,0.1s1.1-0.1,1.3-0.1h0.5v0.5
			c-0.9,0-1.4,0.4-1.4,1.3v12.2h-0.4c-0.7,0-1.2,0.1-1.4,0.1h-0.3l-5.5-12v10.2c0,1,0.4,1.3,1.4,1.3v0.5h-0.5
			c-0.2,0-0.6-0.1-1.3-0.1s-1.1,0.1-1.3,0.1H43.1z"/>
	</g>
	<g>
		<circle fill="#FFFFFF" cx="254.3" cy="145.3" r="54.4"/>
		<ellipse cx="241.6" cy="132.2" rx="4.7" ry="9"/>
		<ellipse cx="218.9" cy="132.2" rx="4.7" ry="9"/>
		<ellipse fill="#FFFFFF" cx="241.6" cy="127.4" rx="1.6" ry="3"/>
		<ellipse fill="#FFFFFF" cx="218.9" cy="127.4" rx="1.6" ry="3"/>
		<g>
			<path d="M250.5,167.4c0,0,1.7,0.5,3.3,1.2c0.4,0.2,0.8,0.2,1.2,0.4c0.3,0.2,0.6,0.5,0.8,0.8c0.4,0.5,0.5,1.1,0.5,1.1l-0.1,0.2
				c0,0-0.6,0.2-1.3,0.1c-0.3,0-0.7-0.2-1.1-0.4c-0.3-0.2-0.6-0.6-0.9-0.9c-1.3-1.1-2.6-2.4-2.6-2.4L250.5,167.4z"/>
		</g>
		<g>
			<path d="M221.1,167.6c0,0-1.2,1.3-2.6,2.4c-0.3,0.3-0.6,0.6-0.9,0.9c-0.3,0.2-0.7,0.3-1.1,0.4c-0.7,0.1-1.3-0.1-1.3-0.1l-0.1-0.2
				c0,0,0.1-0.6,0.5-1.1c0.2-0.3,0.5-0.6,0.8-0.8c0.3-0.2,0.8-0.3,1.2-0.4c1.6-0.7,3.3-1.2,3.3-1.2L221.1,167.6z"/>
		</g>
		<g>
			<path d="M253.6,169.4c0,0,0,0.2-0.1,0.5c-0.1,0.3-0.2,0.8-0.4,1.4c-0.1,0.3-0.2,0.6-0.3,1c-0.2,0.4-0.4,0.7-0.6,1.1
				c-0.2,0.4-0.5,0.8-0.7,1.3c-0.3,0.4-0.6,0.8-1,1.3c-0.4,0.4-0.7,0.9-1.1,1.3c-0.4,0.4-0.9,0.8-1.4,1.3c-0.5,0.5-1.1,0.8-1.6,1.2
				c-0.6,0.4-1.2,0.8-1.8,1.1c-1.3,0.6-2.7,1.2-4.2,1.5c-1.5,0.5-3,0.4-4.6,0.6l-0.3,0l-0.1,0l-0.1,0l-0.2,0l-0.5,0l-1-0.1
				c-0.4,0-0.6,0-1-0.1l-1.2-0.3c-0.8-0.2-1.6-0.3-2.3-0.7c-0.7-0.3-1.4-0.6-2-0.9c-0.7-0.3-1.2-0.7-1.8-1.1
				c-0.6-0.4-1.2-0.7-1.6-1.2c-0.5-0.4-1-0.8-1.4-1.3c-0.4-0.4-0.8-0.9-1.1-1.3c-0.3-0.4-0.7-0.8-1-1.3c-0.2-0.4-0.5-0.9-0.7-1.3
				c-0.2-0.4-0.4-0.7-0.6-1.1c-0.2-0.3-0.2-0.7-0.3-1c-0.2-0.6-0.3-1.1-0.4-1.4c-0.1-0.3-0.1-0.5-0.1-0.5l0.3-0.2
				c0,0,0.4,0.5,1.1,1.5c0.2,0.2,0.3,0.5,0.6,0.8c0.2,0.3,0.5,0.5,0.8,0.8c0.3,0.3,0.6,0.6,0.9,0.9c0.3,0.3,0.7,0.6,1.1,0.9
				c0.4,0.3,0.7,0.7,1.2,1c0.4,0.3,0.9,0.6,1.4,0.9c0.5,0.3,1,0.6,1.5,0.8c0.5,0.2,1.1,0.6,1.6,0.7c0.6,0.2,1.2,0.4,1.8,0.6
				c0.6,0.2,1.2,0.3,1.8,0.4c1.2,0.3,2.6,0.3,3.9,0.4c1.3-0.1,2.6-0.1,3.9-0.4c0.6-0.1,1.3-0.2,1.9-0.4c0.6-0.2,1.2-0.4,1.8-0.6
				c0.6-0.2,1.1-0.5,1.6-0.7c0.5-0.3,1.1-0.5,1.5-0.8c0.5-0.3,0.9-0.6,1.4-0.9c0.5-0.3,0.8-0.7,1.2-1c0.4-0.3,0.7-0.6,1.1-0.9
				c0.3-0.3,0.6-0.6,0.9-0.9c0.3-0.3,0.5-0.6,0.8-0.8c0.2-0.3,0.4-0.5,0.6-0.8c0.7-0.9,1.1-1.5,1.1-1.5L253.6,169.4z"/>
		</g>
	</g>
	<line fill="none" stroke="#FFFFFF" stroke-linecap="round" x1="94.8" y1="101" x2="201.3" y2="101"/>
	<line fill="none" stroke="#FFFFFF" stroke-linecap="round" x1="100" y1="123.3" x2="189.6" y2="123.3"/>
	<line fill="none" stroke="#FFFFFF" stroke-linecap="round" x1="102.2" y1="145.5" x2="189.6" y2="145.5"/>
	<line fill="none" stroke="#FFFFFF" stroke-linecap="round" x1="96.4" y1="167.8" x2="198.5" y2="167.8"/>
	<line fill="none" stroke="#FFFFFF" stroke-linecap="round" x1="102.1" y1="190.1" x2="210.4" y2="190.1"/>
	<line fill="none" stroke="#FFFFFF" stroke-linecap="round" x1="282.5" y1="56.8" x2="326.8" y2="56.8"/>
	<line fill="none" stroke="#FFFFFF" stroke-linecap="round" x1="190.5" y1="56.8" x2="100" y2="56.8"/>
	<g>
		<g>
			<path fill="#FFFFFF" d="M7.2,54.3c0.3-0.8,0.5-1.4,0.7-2h0.1c0.1,0,0.2,0,0.5,0c0.2,0,0.4,0,0.6,0h3.3c0.2,0,0.4,0,0.6,0
				c0.2,0,0.4,0,0.5,0h0.1c-0.1,0.5-0.2,1.1-0.2,2h-0.2c0-0.5-0.1-0.9-0.2-1.2c-0.1-0.3-0.4-0.4-0.8-0.4h-0.4c-0.2,0-0.4,0-0.5,0.1
				s-0.2,0.2-0.2,0.4l-1.3,5.4c0,0.1,0,0.2,0,0.2c0,0.3,0.2,0.4,0.5,0.4h0.6l-0.1,0.3h-0.3c-0.1,0-0.3,0-0.5,0s-0.4,0-0.5,0H8.6
				c-0.1,0-0.2,0-0.5,0c-0.2,0-0.4,0-0.5,0H7.3l0.1-0.3h0.5c0.5,0,0.7-0.2,0.8-0.7l1.3-5.3c0-0.1,0-0.1,0-0.2c0-0.2-0.2-0.3-0.6-0.3
				H9.2c-0.4,0-0.7,0.2-1,0.4c-0.3,0.3-0.6,0.7-0.8,1.2H7.2z"/>
			<path fill="#FFFFFF" d="M13.1,59.3l1.9-6.7l-0.7-0.2l0-0.2c0.4,0,0.7-0.1,0.9-0.1s0.5-0.2,0.8-0.3h0.2L15,56.1
				c0.2-0.4,0.5-0.8,0.9-1.1c0.5-0.4,1-0.6,1.3-0.6c0.5,0,0.8,0.3,0.8,0.8c0,0.1,0,0.2,0,0.3c-0.1,0.5-0.4,1.4-0.9,2.8
				c0,0.1,0,0.1,0,0.2c0,0.1,0.1,0.2,0.2,0.2c0.1,0,0.4-0.1,0.8-0.5l0.1,0.1c-0.4,0.4-0.7,0.7-0.9,0.9c-0.2,0.2-0.4,0.2-0.6,0.2
				c-0.3,0-0.5-0.2-0.5-0.6c0-0.1,0-0.2,0.1-0.4l0.3-0.8c0.1-0.3,0.2-0.6,0.2-0.8c0.1-0.2,0.1-0.4,0.2-0.6c0.1-0.2,0.1-0.5,0.2-0.7
				c0-0.1,0-0.2,0-0.2c0-0.3-0.1-0.4-0.4-0.4c-0.3,0-0.6,0.3-1,0.7c-0.3,0.3-0.5,0.7-0.7,1.1c-0.2,0.4-0.4,0.9-0.6,1.6l-0.3,0.9H14
				c-0.1,0-0.2,0-0.4,0s-0.3,0-0.4,0H13.1z"/>
			<path fill="#FFFFFF" d="M19,58.5l0.9-3.1c0-0.1,0-0.1,0-0.2c0-0.1,0-0.2-0.2-0.2c-0.2,0-0.4,0.1-0.6,0.4L19,55.2
				c0.5-0.5,1-0.8,1.4-0.8c0.3,0,0.5,0.2,0.5,0.5c0,0.1,0,0.4-0.2,0.8L20,58.4c0,0.1,0,0.1,0,0.2c0,0.1,0,0.2,0.1,0.2
				c0.2,0,0.4-0.1,0.9-0.5l0.1,0.1c-0.4,0.4-0.7,0.7-0.9,0.9s-0.5,0.2-0.7,0.2c-0.3,0-0.5-0.2-0.5-0.6C18.9,58.7,19,58.6,19,58.5z
				 M20.3,53.1c0-0.2,0.1-0.3,0.2-0.4c0.1-0.1,0.3-0.2,0.4-0.2s0.3,0.1,0.4,0.2c0.1,0.1,0.2,0.3,0.2,0.4s-0.1,0.3-0.2,0.4
				c-0.1,0.1-0.3,0.2-0.4,0.2s-0.3-0.1-0.4-0.2C20.3,53.4,20.3,53.3,20.3,53.1z"/>
			<path fill="#FFFFFF" d="M21.6,59.3c0.5-1.7,0.9-3,1.1-4.1c0-0.1,0-0.1,0-0.1c0-0.1,0-0.2-0.1-0.2c-0.1,0-0.3,0.1-0.6,0.4
				l-0.1-0.2c0.5-0.5,1-0.8,1.4-0.8c0.3,0,0.5,0.2,0.5,0.5c0,0.2-0.1,0.6-0.2,1.1c0.2-0.4,0.5-0.8,0.9-1.1c0.5-0.4,0.9-0.6,1.3-0.6
				c0.5,0,0.8,0.3,0.8,0.7c0,0.1,0,0.3-0.1,0.4l-0.2,0.7c-0.1,0.2-0.2,0.5-0.2,0.6l-0.3,0.8l-0.3,0.8c0,0.1,0,0.1,0,0.2
				c0,0.1,0.1,0.2,0.2,0.2c0.1,0,0.4-0.1,0.8-0.5l0.1,0.1c-0.4,0.4-0.7,0.7-0.9,0.9s-0.4,0.2-0.6,0.2c-0.3,0-0.6-0.2-0.6-0.6
				c0-0.1,0-0.2,0.1-0.4c0.4-1.2,0.6-2.2,0.8-2.8c0-0.1,0-0.2,0-0.2c0-0.2-0.1-0.4-0.3-0.4c-0.3,0-0.6,0.2-0.9,0.6
				c-0.2,0.2-0.3,0.3-0.3,0.4s-0.2,0.2-0.3,0.4c-0.2,0.4-0.4,1-0.7,1.8l-0.3,0.9h-0.1c-0.1,0-0.2,0-0.4,0s-0.3,0-0.4,0H21.6z"/>
			<path fill="#FFFFFF" d="M27.9,59.1c-0.4-0.2-0.5-0.4-0.5-0.7c0-0.4,0.2-0.7,0.6-1c-0.3-0.3-0.4-0.6-0.4-1c0-1,1-2,2-1.9
				c0.4,0,0.7,0.1,1,0.3c0.4-0.1,0.7-0.2,1-0.2c0.3,0,0.5,0.1,0.5,0.4c0,0.2-0.2,0.4-0.4,0.4c-0.2,0-0.3-0.1-0.4-0.2
				c-0.1-0.1-0.2-0.2-0.3-0.2c-0.1,0-0.2,0-0.3,0.1c0.2,0.2,0.3,0.6,0.3,0.9c0,1-1,1.9-2,1.9c-0.4,0-0.6-0.1-0.9-0.2
				C28,57.6,28,57.7,28,57.8c0,0.2,0.1,0.3,0.4,0.4c0.1,0,0.2,0.1,0.4,0.1l0.4,0.1c0.3,0.1,0.6,0.2,0.9,0.3c0.2,0.1,0.5,0.3,0.6,0.4
				c0.2,0.2,0.3,0.4,0.3,0.7c0,0.3-0.1,0.6-0.3,0.9s-0.5,0.5-0.9,0.6c-0.4,0.2-0.7,0.2-1.1,0.2c-0.3,0-0.7,0-1-0.1
				c-0.3-0.1-0.5-0.2-0.7-0.4c-0.2-0.2-0.3-0.4-0.3-0.7C26.7,59.8,27.1,59.3,27.9,59.1z M28.6,61.3c1,0,1.4-0.4,1.4-1
				c0-0.2-0.1-0.4-0.2-0.5c-0.1-0.1-0.3-0.2-0.5-0.3c-0.2-0.1-0.4-0.1-0.6-0.2l-0.3-0.1l-0.3-0.1c0,0,0,0,0,0
				c-0.6,0.3-0.8,0.7-0.8,1.2C27.3,61,27.8,61.3,28.6,61.3z M29,57.4c0.2,0,0.4-0.1,0.6-0.3c0.3-0.4,0.5-1,0.5-1.6
				c0-0.5-0.2-0.8-0.6-0.8c-0.2,0-0.4,0.1-0.6,0.3c-0.3,0.4-0.5,1-0.5,1.6C28.5,57.1,28.7,57.4,29,57.4z"/>
			<path fill="#FFFFFF" d="M32.4,57.9c0.2,0,0.4,0.2,0.4,0.6c0,0.2,0,0.3,0.1,0.4c0.1,0.2,0.3,0.3,0.5,0.3c0.5,0,0.7-0.3,0.7-0.8
				c0-0.2-0.1-0.4-0.2-0.6s-0.3-0.4-0.5-0.6c-0.5-0.4-0.8-0.8-0.8-1.4c0-0.4,0.2-0.7,0.5-0.9s0.7-0.4,1.1-0.4c0.4,0,0.9,0.2,1.1,0.4
				c0.2,0.2,0.2,0.3,0.2,0.5c0,0.3-0.2,0.4-0.4,0.4c-0.2,0-0.4-0.2-0.4-0.4c0-0.1,0-0.2,0-0.2c0-0.1,0-0.2-0.1-0.3
				c-0.1-0.1-0.3-0.2-0.5-0.2c-0.4,0-0.7,0.2-0.7,0.6c0,0.3,0.3,0.7,0.8,1.1c0.3,0.2,0.4,0.4,0.6,0.6s0.3,0.5,0.3,0.8
				c0,0.4-0.2,0.8-0.5,1.1s-0.7,0.4-1.2,0.4c-0.3,0-0.6-0.1-0.9-0.2s-0.5-0.4-0.6-0.6c0-0.1-0.1-0.2-0.1-0.3
				C31.9,58.1,32.1,57.9,32.4,57.9z"/>
			<path fill="#FFFFFF" d="M38.9,60.6c0.1,0,0.2,0,0.3,0.1c0.1,0.1,0.2,0.1,0.3,0.1c0.1,0,0.2,0,0.3-0.1c0.1,0,0.2-0.2,0.3-0.3
				c0.4-0.5,0.7-0.9,0.9-1.2h-0.3c-0.1-1.6-0.4-2.9-0.8-3.9c-0.1-0.3-0.2-0.4-0.4-0.4c-0.1,0-0.3,0.1-0.6,0.4l-0.1-0.2
				c0.4-0.5,0.9-0.8,1.4-0.8c0.3,0,0.6,0.2,0.7,0.6c0.3,0.9,0.5,2,0.6,3.5c0.8-1.2,1.2-2.2,1.2-2.8c0-0.2,0-0.3-0.1-0.5
				c-0.1-0.2-0.1-0.3-0.1-0.3c0-0.6,0.9-0.6,0.9,0c0,0.3-0.1,0.7-0.3,1.3c-0.2,0.5-0.5,1-0.8,1.6c-0.7,1.1-1.5,2.2-2.3,3.2
				c-0.4,0.5-0.8,0.7-1.2,0.7c-0.1,0-0.2,0-0.4-0.1s-0.2-0.2-0.2-0.3C38.4,60.8,38.6,60.6,38.9,60.6z"/>
			<path fill="#FFFFFF" d="M44.3,56.1c0.2-0.5,0.6-0.9,1-1.2s0.9-0.4,1.4-0.4c0.5,0,0.9,0.2,1.2,0.5s0.5,0.8,0.5,1.3
				s-0.1,1.1-0.4,1.5c-0.2,0.5-0.6,0.9-1,1.2c-0.4,0.3-0.9,0.4-1.4,0.4s-0.9-0.2-1.2-0.5c-0.3-0.3-0.5-0.8-0.5-1.3
				C43.9,57.1,44,56.5,44.3,56.1z M45.6,59.1c0.2,0,0.5-0.1,0.7-0.3c0.2-0.2,0.4-0.5,0.5-0.8s0.2-0.7,0.3-1c0.1-0.3,0.1-0.7,0.1-0.9
				c0-0.8-0.2-1.3-0.7-1.3c-0.4,0-0.8,0.3-1,0.8c-0.4,0.7-0.6,1.7-0.6,2.3C44.9,58.7,45.2,59.1,45.6,59.1z"/>
			<path fill="#FFFFFF" d="M48.9,55.3c0.5-0.5,1-0.8,1.4-0.8c0.3,0,0.5,0.2,0.5,0.5c0,0.1,0,0.4-0.2,0.7c-0.1,0.3-0.2,0.6-0.3,1.1
				c-0.1,0.5-0.3,0.9-0.4,1.3c0,0.1,0,0.2,0,0.2c0,0.2,0.1,0.4,0.3,0.4c0.3,0,0.6-0.3,1-0.8c0.2-0.2,0.3-0.4,0.4-0.6
				c0.2-0.3,0.5-1,0.8-2l0.3-0.9h0.1c0.1,0,0.2,0,0.4,0c0.2,0,0.3,0,0.4,0h0.1l-1.1,3.9c0,0.1,0,0.2,0,0.2c0,0.1,0.1,0.1,0.1,0.1
				c0.2,0,0.4-0.1,0.9-0.5l0.1,0.1c-0.4,0.4-0.7,0.7-0.9,0.9c-0.2,0.2-0.5,0.2-0.7,0.2c-0.3,0-0.6-0.2-0.6-0.6c0-0.1,0-0.2,0-0.3
				l0.2-0.9c-0.3,0.5-0.6,1-0.9,1.2c-0.5,0.4-0.9,0.6-1.3,0.6c-0.5,0-0.8-0.3-0.8-0.8c0-0.1,0-0.2,0-0.4c0.1-0.3,0.3-1.3,0.8-2.9
				c0-0.1,0-0.1,0-0.2c0-0.1,0-0.2-0.2-0.2c-0.2,0-0.4,0.1-0.6,0.4L48.9,55.3z"/>
			<path fill="#FFFFFF" d="M57.6,56.3c0.2-0.4,0.4-0.7,0.6-1s0.6-0.5,0.9-0.7s0.7-0.2,1-0.2c0.4,0,0.7,0.1,1,0.3s0.4,0.4,0.4,0.8
				c0,0.4-0.2,0.5-0.5,0.5c-0.2,0-0.4-0.2-0.4-0.4c0-0.1,0-0.2,0.1-0.3s0.1-0.2,0.1-0.3c0-0.2-0.3-0.3-0.6-0.3
				c-0.4,0-0.9,0.3-1.2,0.8c-0.2,0.2-0.3,0.5-0.5,0.9c-0.1,0.3-0.2,0.7-0.2,1.1c0,0.5,0.2,0.8,0.4,1c0.2,0.2,0.5,0.3,0.8,0.3
				c0.5,0,1-0.3,1.4-0.9l0.2,0.1c-0.4,0.9-1.2,1.5-2.1,1.5c-0.5,0-0.9-0.2-1.3-0.5c-0.3-0.3-0.5-0.8-0.5-1.3
				C57.3,57.1,57.4,56.7,57.6,56.3z"/>
			<path fill="#FFFFFF" d="M62.2,56.8c0.2-0.5,0.4-0.9,0.7-1.2c0.3-0.3,0.6-0.6,0.9-0.8c0.4-0.2,0.7-0.3,1-0.3
				c0.4,0,0.7,0.2,0.8,0.6l0.1-0.4c0.1,0,0.3,0,0.4,0s0.3,0,0.4,0h0.2l-1.1,3.9c0,0.1,0,0.2,0,0.2c0,0.1,0.1,0.1,0.2,0.1
				c0.1,0,0.4-0.1,0.8-0.5l0.1,0.1c-0.4,0.4-0.7,0.7-0.9,0.9c-0.2,0.1-0.4,0.2-0.6,0.2c-0.4,0-0.6-0.3-0.6-0.7c0-0.1,0-0.3,0.1-0.5
				c-0.2,0.4-0.5,0.7-0.8,0.9c-0.3,0.2-0.6,0.3-1,0.3c-0.7,0-1-0.5-1-1.2C61.9,57.7,62,57.3,62.2,56.8z M63.5,58.8
				c0.3,0,0.6-0.2,0.9-0.6c0.3-0.4,0.6-1,0.8-1.8l0.2-0.5c0.1-0.2,0.1-0.4,0.1-0.5c0-0.4-0.2-0.6-0.5-0.6c-0.3,0-0.6,0.2-1,0.5
				c-0.3,0.4-0.6,0.8-0.8,1.3c-0.2,0.5-0.3,1-0.3,1.4C62.9,58.5,63.1,58.8,63.5,58.8z"/>
			<path fill="#FFFFFF" d="M67.3,59.3c0.5-1.7,0.9-3,1.1-4.1c0-0.1,0-0.1,0-0.1c0-0.1,0-0.2-0.1-0.2c-0.1,0-0.3,0.1-0.6,0.4
				l-0.1-0.2c0.5-0.5,1-0.8,1.4-0.8c0.3,0,0.5,0.2,0.5,0.5c0,0.2-0.1,0.6-0.2,1.1c0.2-0.4,0.5-0.8,0.9-1.1c0.5-0.4,0.9-0.6,1.3-0.6
				c0.5,0,0.8,0.3,0.8,0.7c0,0.1,0,0.3-0.1,0.4l-0.2,0.7c-0.1,0.2-0.2,0.5-0.2,0.6l-0.3,0.8l-0.3,0.8c0,0.1,0,0.1,0,0.2
				c0,0.1,0.1,0.2,0.2,0.2c0.1,0,0.4-0.1,0.8-0.5l0.1,0.1c-0.4,0.4-0.7,0.7-0.9,0.9s-0.4,0.2-0.6,0.2c-0.3,0-0.6-0.2-0.6-0.6
				c0-0.1,0-0.2,0.1-0.4c0.4-1.2,0.6-2.2,0.8-2.8c0-0.1,0-0.2,0-0.2c0-0.2-0.1-0.4-0.3-0.4c-0.3,0-0.6,0.2-0.9,0.6
				c-0.2,0.2-0.3,0.3-0.3,0.4s-0.2,0.2-0.3,0.4c-0.2,0.4-0.4,1-0.7,1.8l-0.3,0.9h-0.1c-0.1,0-0.2,0-0.4,0s-0.3,0-0.4,0H67.3z"/>
			<path fill="#FFFFFF" d="M73.2,54.7c0.6-0.2,1.1-0.6,1.2-1.1c0,0-0.1,0-0.1,0c-0.1,0-0.2,0-0.4-0.1c-0.1-0.1-0.2-0.2-0.2-0.4
				c0-0.2,0.1-0.4,0.2-0.5c0.1-0.1,0.3-0.2,0.5-0.2c0.4,0,0.6,0.3,0.6,0.7c0,0.4-0.2,0.8-0.6,1.2s-0.8,0.6-1.4,0.7L73.2,54.7z"/>
			<path fill="#FFFFFF" d="M75,58.4c0.5-1.6,0.8-2.8,1.1-3.6h-0.8l0.1-0.3h0.8l0.4-1.3c0.1,0,0.3,0,0.4,0c0.2,0,0.3,0,0.4,0h0.1
				L77,54.5H78l-0.1,0.3H77l-1,3.5c0,0.1,0,0.2,0,0.3c0,0.1,0.1,0.1,0.2,0.1c0.1,0,0.3-0.1,0.4-0.2s0.4-0.3,0.7-0.5l0.1,0.1
				c-0.4,0.5-0.7,0.8-1,1c-0.3,0.2-0.5,0.3-0.8,0.3c-0.4,0-0.7-0.3-0.7-0.7C74.9,58.6,74.9,58.5,75,58.4z"/>
			<path fill="#FFFFFF" d="M81,57.9c0.2,0,0.4,0.2,0.4,0.6c0,0.2,0,0.3,0.1,0.4c0.1,0.2,0.3,0.3,0.5,0.3c0.5,0,0.7-0.3,0.7-0.8
				c0-0.2-0.1-0.4-0.2-0.6s-0.3-0.4-0.5-0.6c-0.5-0.4-0.8-0.8-0.8-1.4c0-0.4,0.2-0.7,0.5-0.9s0.7-0.4,1.1-0.4c0.4,0,0.9,0.2,1.1,0.4
				c0.2,0.2,0.2,0.3,0.2,0.5c0,0.3-0.2,0.4-0.4,0.4c-0.2,0-0.4-0.2-0.4-0.4c0-0.1,0-0.2,0-0.2c0-0.1,0-0.2-0.1-0.3
				c-0.1-0.1-0.3-0.2-0.5-0.2c-0.4,0-0.7,0.2-0.7,0.6c0,0.3,0.3,0.7,0.8,1.1c0.3,0.2,0.4,0.4,0.6,0.6s0.3,0.5,0.3,0.8
				c0,0.4-0.2,0.8-0.5,1.1s-0.7,0.4-1.2,0.4c-0.3,0-0.6-0.1-0.9-0.2s-0.5-0.4-0.6-0.6c0-0.1-0.1-0.2-0.1-0.3
				C80.5,58.1,80.7,57.9,81,57.9z"/>
			<path fill="#FFFFFF" d="M85.1,56.1c0.3-0.5,0.6-0.9,1-1.2c0.4-0.3,0.9-0.5,1.4-0.5c0.3,0,0.6,0.1,0.9,0.3
				c0.2,0.2,0.3,0.4,0.3,0.7c0,0.4-0.1,0.7-0.5,1c-0.3,0.3-0.9,0.5-1.8,0.5h-0.7c0,0.2-0.1,0.4-0.1,0.6c0,0.9,0.4,1.4,1,1.4
				c0.3,0,0.6-0.1,0.8-0.2s0.5-0.4,0.7-0.7l0.1,0.1c-0.5,0.9-1.2,1.5-2,1.5c-0.5,0-0.9-0.2-1.3-0.5c-0.3-0.3-0.5-0.8-0.5-1.4
				C84.7,57.1,84.8,56.6,85.1,56.1z M86.4,56.6c0.1,0,0.3,0,0.5-0.1c0.2,0,0.3-0.1,0.5-0.1c0.4-0.2,0.7-0.5,0.7-1.1
				c0-0.3-0.2-0.6-0.5-0.6c-0.8,0-1.4,1-1.6,1.9C86.1,56.6,86.2,56.6,86.4,56.6z"/>
			<path fill="#FFFFFF" d="M89.6,56.1c0.3-0.5,0.6-0.9,1-1.2c0.4-0.3,0.9-0.5,1.4-0.5c0.3,0,0.6,0.1,0.9,0.3
				c0.2,0.2,0.3,0.4,0.3,0.7c0,0.4-0.1,0.7-0.5,1c-0.3,0.3-0.9,0.5-1.8,0.5h-0.7c0,0.2-0.1,0.4-0.1,0.6c0,0.9,0.4,1.4,1,1.4
				c0.3,0,0.6-0.1,0.8-0.2s0.5-0.4,0.7-0.7L93,58c-0.5,0.9-1.2,1.5-2,1.5c-0.5,0-0.9-0.2-1.3-0.5c-0.3-0.3-0.5-0.8-0.5-1.4
				C89.2,57.1,89.4,56.6,89.6,56.1z M90.9,56.6c0.1,0,0.3,0,0.5-0.1c0.2,0,0.3-0.1,0.5-0.1c0.4-0.2,0.7-0.5,0.7-1.1
				c0-0.3-0.2-0.6-0.5-0.6c-0.8,0-1.4,1-1.6,1.9C90.6,56.6,90.8,56.6,90.9,56.6z"/>
			<path fill="#FFFFFF" d="M7.2,98.7c0.3-0.8,0.5-1.4,0.7-2h0.1c0.1,0,0.2,0,0.5,0c0.2,0,0.4,0,0.6,0h3.3c0.2,0,0.4,0,0.6,0
				c0.2,0,0.4,0,0.5,0h0.1c-0.1,0.5-0.2,1.1-0.2,2h-0.2c0-0.5-0.1-0.9-0.2-1.2c-0.1-0.3-0.4-0.4-0.8-0.4h-0.4c-0.2,0-0.4,0-0.5,0.1
				s-0.2,0.2-0.2,0.4l-1.3,5.4c0,0.1,0,0.2,0,0.2c0,0.3,0.2,0.4,0.5,0.4h0.6l-0.1,0.3h-0.3c-0.1,0-0.3,0-0.5,0s-0.4,0-0.5,0H8.6
				c-0.1,0-0.2,0-0.5,0c-0.2,0-0.4,0-0.5,0H7.3l0.1-0.3h0.5c0.5,0,0.7-0.2,0.8-0.7l1.3-5.3c0-0.1,0-0.1,0-0.2c0-0.2-0.2-0.3-0.6-0.3
				H9.2c-0.4,0-0.7,0.2-1,0.4c-0.3,0.3-0.6,0.7-0.8,1.2H7.2z"/>
			<path fill="#FFFFFF" d="M13.1,103.8l1.9-6.7l-0.7-0.2l0-0.2c0.4,0,0.7-0.1,0.9-0.1s0.5-0.2,0.8-0.3h0.2l-1.2,4.2
				c0.2-0.4,0.5-0.8,0.9-1.1c0.5-0.4,1-0.6,1.3-0.6c0.5,0,0.8,0.3,0.8,0.8c0,0.1,0,0.2,0,0.3c-0.1,0.5-0.4,1.4-0.9,2.8
				c0,0.1,0,0.1,0,0.2c0,0.1,0.1,0.2,0.2,0.2c0.1,0,0.4-0.1,0.8-0.5l0.1,0.1c-0.4,0.4-0.7,0.7-0.9,0.9c-0.2,0.2-0.4,0.2-0.6,0.2
				c-0.3,0-0.5-0.2-0.5-0.6c0-0.1,0-0.2,0.1-0.4l0.3-0.8c0.1-0.3,0.2-0.6,0.2-0.8c0.1-0.2,0.1-0.4,0.2-0.6c0.1-0.2,0.1-0.5,0.2-0.7
				c0-0.1,0-0.2,0-0.2c0-0.3-0.1-0.4-0.4-0.4c-0.3,0-0.6,0.3-1,0.7c-0.3,0.3-0.5,0.7-0.7,1.1c-0.2,0.4-0.4,0.9-0.6,1.6l-0.3,0.9H14
				c-0.1,0-0.2,0-0.4,0s-0.3,0-0.4,0H13.1z"/>
			<path fill="#FFFFFF" d="M19,102.9l0.9-3.1c0-0.1,0-0.1,0-0.2c0-0.1,0-0.2-0.2-0.2c-0.2,0-0.4,0.1-0.6,0.4L19,99.7
				c0.5-0.5,1-0.8,1.4-0.8c0.3,0,0.5,0.2,0.5,0.5c0,0.1,0,0.4-0.2,0.8l-0.7,2.7c0,0.1,0,0.1,0,0.2c0,0.1,0,0.2,0.1,0.2
				c0.2,0,0.4-0.1,0.9-0.5l0.1,0.1c-0.4,0.4-0.7,0.7-0.9,0.9s-0.5,0.2-0.7,0.2c-0.3,0-0.5-0.2-0.5-0.6C18.9,103.2,19,103.1,19,102.9
				z M20.3,97.5c0-0.2,0.1-0.3,0.2-0.4c0.1-0.1,0.3-0.2,0.4-0.2s0.3,0.1,0.4,0.2c0.1,0.1,0.2,0.3,0.2,0.4s-0.1,0.3-0.2,0.4
				c-0.1,0.1-0.3,0.2-0.4,0.2s-0.3-0.1-0.4-0.2C20.3,97.9,20.3,97.7,20.3,97.5z"/>
			<path fill="#FFFFFF" d="M21.6,103.8c0.5-1.7,0.9-3,1.1-4.1c0-0.1,0-0.1,0-0.1c0-0.1,0-0.2-0.1-0.2c-0.1,0-0.3,0.1-0.6,0.4
				l-0.1-0.2c0.5-0.5,1-0.8,1.4-0.8c0.3,0,0.5,0.2,0.5,0.5c0,0.2-0.1,0.6-0.2,1.1c0.2-0.4,0.5-0.8,0.9-1.1c0.5-0.4,0.9-0.6,1.3-0.6
				c0.5,0,0.8,0.3,0.8,0.7c0,0.1,0,0.3-0.1,0.4l-0.2,0.7c-0.1,0.2-0.2,0.5-0.2,0.6l-0.3,0.8l-0.3,0.8c0,0.1,0,0.1,0,0.2
				c0,0.1,0.1,0.2,0.2,0.2c0.1,0,0.4-0.1,0.8-0.5l0.1,0.1c-0.4,0.4-0.7,0.7-0.9,0.9s-0.4,0.2-0.6,0.2c-0.3,0-0.6-0.2-0.6-0.6
				c0-0.1,0-0.2,0.1-0.4c0.4-1.2,0.6-2.2,0.8-2.8c0-0.1,0-0.2,0-0.2c0-0.2-0.1-0.4-0.3-0.4c-0.3,0-0.6,0.2-0.9,0.6
				c-0.2,0.2-0.3,0.3-0.3,0.4s-0.2,0.2-0.3,0.4c-0.2,0.4-0.4,1-0.7,1.8l-0.3,0.9h-0.1c-0.1,0-0.2,0-0.4,0s-0.3,0-0.4,0H21.6z"/>
			<path fill="#FFFFFF" d="M27.9,103.5c-0.4-0.2-0.5-0.4-0.5-0.7c0-0.4,0.2-0.7,0.6-1c-0.3-0.3-0.4-0.6-0.4-1c0-1,1-2,2-1.9
				c0.4,0,0.7,0.1,1,0.3c0.4-0.1,0.7-0.2,1-0.2c0.3,0,0.5,0.1,0.5,0.4c0,0.2-0.2,0.4-0.4,0.4c-0.2,0-0.3-0.1-0.4-0.2
				c-0.1-0.1-0.2-0.2-0.3-0.2c-0.1,0-0.2,0-0.3,0.1c0.2,0.2,0.3,0.6,0.3,0.9c0,1-1,1.9-2,1.9c-0.4,0-0.6-0.1-0.9-0.2
				c-0.1,0.1-0.2,0.3-0.2,0.4c0,0.2,0.1,0.3,0.4,0.4c0.1,0,0.2,0.1,0.4,0.1l0.4,0.1c0.3,0.1,0.6,0.2,0.9,0.3
				c0.2,0.1,0.5,0.3,0.6,0.4c0.2,0.2,0.3,0.4,0.3,0.7c0,0.3-0.1,0.6-0.3,0.9s-0.5,0.5-0.9,0.6c-0.4,0.2-0.7,0.2-1.1,0.2
				c-0.3,0-0.7,0-1-0.1c-0.3-0.1-0.5-0.2-0.7-0.4c-0.2-0.2-0.3-0.4-0.3-0.7C26.7,104.3,27.1,103.8,27.9,103.5z M28.6,105.8
				c1,0,1.4-0.4,1.4-1c0-0.2-0.1-0.4-0.2-0.5c-0.1-0.1-0.3-0.2-0.5-0.3c-0.2-0.1-0.4-0.1-0.6-0.2l-0.3-0.1l-0.3-0.1c0,0,0,0,0,0
				c-0.6,0.3-0.8,0.7-0.8,1.2C27.3,105.4,27.8,105.8,28.6,105.8z M29,101.9c0.2,0,0.4-0.1,0.6-0.3c0.3-0.4,0.5-1,0.5-1.6
				c0-0.5-0.2-0.8-0.6-0.8c-0.2,0-0.4,0.1-0.6,0.3c-0.3,0.4-0.5,1-0.5,1.6C28.5,101.6,28.7,101.9,29,101.9z"/>
			<path fill="#FFFFFF" d="M32.4,102.3c0.2,0,0.4,0.2,0.4,0.6c0,0.2,0,0.3,0.1,0.4c0.1,0.2,0.3,0.3,0.5,0.3c0.5,0,0.7-0.3,0.7-0.8
				c0-0.2-0.1-0.4-0.2-0.6s-0.3-0.4-0.5-0.6c-0.5-0.4-0.8-0.8-0.8-1.4c0-0.4,0.2-0.7,0.5-0.9s0.7-0.4,1.1-0.4c0.4,0,0.9,0.2,1.1,0.4
				c0.2,0.2,0.2,0.3,0.2,0.5c0,0.3-0.2,0.4-0.4,0.4c-0.2,0-0.4-0.2-0.4-0.4c0-0.1,0-0.2,0-0.2c0-0.1,0-0.2-0.1-0.3
				c-0.1-0.1-0.3-0.2-0.5-0.2c-0.4,0-0.7,0.2-0.7,0.6c0,0.3,0.3,0.7,0.8,1.1c0.3,0.2,0.4,0.4,0.6,0.6s0.3,0.5,0.3,0.8
				c0,0.4-0.2,0.8-0.5,1.1s-0.7,0.4-1.2,0.4c-0.3,0-0.6-0.1-0.9-0.2s-0.5-0.4-0.6-0.6c0-0.1-0.1-0.2-0.1-0.3
				C31.9,102.5,32.1,102.3,32.4,102.3z"/>
			<path fill="#FFFFFF" d="M38.9,105.1c0.1,0,0.2,0,0.3,0.1c0.1,0.1,0.2,0.1,0.3,0.1c0.1,0,0.2,0,0.3-0.1c0.1,0,0.2-0.2,0.3-0.3
				c0.4-0.5,0.7-0.9,0.9-1.2h-0.3c-0.1-1.6-0.4-2.9-0.8-3.9c-0.1-0.3-0.2-0.4-0.4-0.4c-0.1,0-0.3,0.1-0.6,0.4l-0.1-0.2
				c0.4-0.5,0.9-0.8,1.4-0.8c0.3,0,0.6,0.2,0.7,0.6c0.3,0.9,0.5,2,0.6,3.5c0.8-1.2,1.2-2.2,1.2-2.8c0-0.2,0-0.3-0.1-0.5
				c-0.1-0.2-0.1-0.3-0.1-0.3c0-0.6,0.9-0.6,0.9,0c0,0.3-0.1,0.7-0.3,1.3c-0.2,0.5-0.5,1-0.8,1.6c-0.7,1.1-1.5,2.2-2.3,3.2
				c-0.4,0.5-0.8,0.7-1.2,0.7c-0.1,0-0.2,0-0.4-0.1s-0.2-0.2-0.2-0.3C38.4,105.3,38.6,105.1,38.9,105.1z"/>
			<path fill="#FFFFFF" d="M44.3,100.5c0.2-0.5,0.6-0.9,1-1.2s0.9-0.4,1.4-0.4c0.5,0,0.9,0.2,1.2,0.5s0.5,0.8,0.5,1.3
				s-0.1,1.1-0.4,1.5c-0.2,0.5-0.6,0.9-1,1.2c-0.4,0.3-0.9,0.4-1.4,0.4s-0.9-0.2-1.2-0.5c-0.3-0.3-0.5-0.8-0.5-1.3
				C43.9,101.5,44,101,44.3,100.5z M45.6,103.6c0.2,0,0.5-0.1,0.7-0.3c0.2-0.2,0.4-0.5,0.5-0.8s0.2-0.7,0.3-1
				c0.1-0.3,0.1-0.7,0.1-0.9c0-0.8-0.2-1.3-0.7-1.3c-0.4,0-0.8,0.3-1,0.8c-0.4,0.7-0.6,1.7-0.6,2.3
				C44.9,103.1,45.2,103.6,45.6,103.6z"/>
			<path fill="#FFFFFF" d="M48.9,99.7c0.5-0.5,1-0.8,1.4-0.8c0.3,0,0.5,0.2,0.5,0.5c0,0.1,0,0.4-0.2,0.7c-0.1,0.3-0.2,0.6-0.3,1.1
				c-0.1,0.5-0.3,0.9-0.4,1.3c0,0.1,0,0.2,0,0.2c0,0.2,0.1,0.4,0.3,0.4c0.3,0,0.6-0.3,1-0.8c0.2-0.2,0.3-0.4,0.4-0.6
				c0.2-0.3,0.5-1,0.8-2l0.3-0.9h0.1c0.1,0,0.2,0,0.4,0c0.2,0,0.3,0,0.4,0h0.1l-1.1,3.9c0,0.1,0,0.2,0,0.2c0,0.1,0.1,0.1,0.1,0.1
				c0.2,0,0.4-0.1,0.9-0.5l0.1,0.1c-0.4,0.4-0.7,0.7-0.9,0.9c-0.2,0.2-0.5,0.2-0.7,0.2c-0.3,0-0.6-0.2-0.6-0.6c0-0.1,0-0.2,0-0.3
				l0.2-0.9c-0.3,0.5-0.6,1-0.9,1.2c-0.5,0.4-0.9,0.6-1.3,0.6c-0.5,0-0.8-0.3-0.8-0.8c0-0.1,0-0.2,0-0.4c0.1-0.3,0.3-1.3,0.8-2.9
				c0-0.1,0-0.1,0-0.2c0-0.1,0-0.2-0.2-0.2c-0.2,0-0.4,0.1-0.6,0.4L48.9,99.7z"/>
			<path fill="#FFFFFF" d="M57.6,100.8c0.2-0.4,0.4-0.7,0.6-1s0.6-0.5,0.9-0.7s0.7-0.2,1-0.2c0.4,0,0.7,0.1,1,0.3s0.4,0.4,0.4,0.8
				c0,0.4-0.2,0.5-0.5,0.5c-0.2,0-0.4-0.2-0.4-0.4c0-0.1,0-0.2,0.1-0.3s0.1-0.2,0.1-0.3c0-0.2-0.3-0.3-0.6-0.3
				c-0.4,0-0.9,0.3-1.2,0.8c-0.2,0.2-0.3,0.5-0.5,0.9c-0.1,0.3-0.2,0.7-0.2,1.1c0,0.5,0.2,0.8,0.4,1c0.2,0.2,0.5,0.3,0.8,0.3
				c0.5,0,1-0.3,1.4-0.9l0.2,0.1c-0.4,0.9-1.2,1.5-2.1,1.5c-0.5,0-0.9-0.2-1.3-0.5c-0.3-0.3-0.5-0.8-0.5-1.3
				C57.3,101.6,57.4,101.2,57.6,100.8z"/>
			<path fill="#FFFFFF" d="M62.2,101.3c0.2-0.5,0.4-0.9,0.7-1.2c0.3-0.3,0.6-0.6,0.9-0.8c0.4-0.2,0.7-0.3,1-0.3
				c0.4,0,0.7,0.2,0.8,0.6l0.1-0.4c0.1,0,0.3,0,0.4,0s0.3,0,0.4,0h0.2l-1.1,3.9c0,0.1,0,0.2,0,0.2c0,0.1,0.1,0.1,0.2,0.1
				c0.1,0,0.4-0.1,0.8-0.5l0.1,0.1c-0.4,0.4-0.7,0.7-0.9,0.9c-0.2,0.1-0.4,0.2-0.6,0.2c-0.4,0-0.6-0.3-0.6-0.7c0-0.1,0-0.3,0.1-0.5
				c-0.2,0.4-0.5,0.7-0.8,0.9c-0.3,0.2-0.6,0.3-1,0.3c-0.7,0-1-0.5-1-1.2C61.9,102.2,62,101.7,62.2,101.3z M63.5,103.2
				c0.3,0,0.6-0.2,0.9-0.6c0.3-0.4,0.6-1,0.8-1.8l0.2-0.5c0.1-0.2,0.1-0.4,0.1-0.5c0-0.4-0.2-0.6-0.5-0.6c-0.3,0-0.6,0.2-1,0.5
				c-0.3,0.4-0.6,0.8-0.8,1.3c-0.2,0.5-0.3,1-0.3,1.4C62.9,103,63.1,103.2,63.5,103.2z"/>
			<path fill="#FFFFFF" d="M67.3,103.8c0.5-1.7,0.9-3,1.1-4.1c0-0.1,0-0.1,0-0.1c0-0.1,0-0.2-0.1-0.2c-0.1,0-0.3,0.1-0.6,0.4
				l-0.1-0.2c0.5-0.5,1-0.8,1.4-0.8c0.3,0,0.5,0.2,0.5,0.5c0,0.2-0.1,0.6-0.2,1.1c0.2-0.4,0.5-0.8,0.9-1.1c0.5-0.4,0.9-0.6,1.3-0.6
				c0.5,0,0.8,0.3,0.8,0.7c0,0.1,0,0.3-0.1,0.4l-0.2,0.7c-0.1,0.2-0.2,0.5-0.2,0.6l-0.3,0.8l-0.3,0.8c0,0.1,0,0.1,0,0.2
				c0,0.1,0.1,0.2,0.2,0.2c0.1,0,0.4-0.1,0.8-0.5l0.1,0.1c-0.4,0.4-0.7,0.7-0.9,0.9s-0.4,0.2-0.6,0.2c-0.3,0-0.6-0.2-0.6-0.6
				c0-0.1,0-0.2,0.1-0.4c0.4-1.2,0.6-2.2,0.8-2.8c0-0.1,0-0.2,0-0.2c0-0.2-0.1-0.4-0.3-0.4c-0.3,0-0.6,0.2-0.9,0.6
				c-0.2,0.2-0.3,0.3-0.3,0.4s-0.2,0.2-0.3,0.4c-0.2,0.4-0.4,1-0.7,1.8l-0.3,0.9h-0.1c-0.1,0-0.2,0-0.4,0s-0.3,0-0.4,0H67.3z"/>
			<path fill="#FFFFFF" d="M75.9,102.3c0.2,0,0.4,0.2,0.4,0.6c0,0.2,0,0.3,0.1,0.4c0.1,0.2,0.3,0.3,0.5,0.3c0.5,0,0.7-0.3,0.7-0.8
				c0-0.2-0.1-0.4-0.2-0.6s-0.3-0.4-0.5-0.6c-0.5-0.4-0.8-0.8-0.8-1.4c0-0.4,0.2-0.7,0.5-0.9s0.7-0.4,1.1-0.4c0.4,0,0.9,0.2,1.1,0.4
				c0.2,0.2,0.2,0.3,0.2,0.5c0,0.3-0.2,0.4-0.4,0.4c-0.2,0-0.4-0.2-0.4-0.4c0-0.1,0-0.2,0-0.2c0-0.1,0-0.2-0.1-0.3
				c-0.1-0.1-0.3-0.2-0.5-0.2c-0.4,0-0.7,0.2-0.7,0.6c0,0.3,0.3,0.7,0.8,1.1c0.3,0.2,0.4,0.4,0.6,0.6s0.3,0.5,0.3,0.8
				c0,0.4-0.2,0.8-0.5,1.1s-0.7,0.4-1.2,0.4c-0.3,0-0.6-0.1-0.9-0.2s-0.5-0.4-0.6-0.6c0-0.1-0.1-0.2-0.1-0.3
				C75.5,102.5,75.7,102.3,75.9,102.3z"/>
			<path fill="#FFFFFF" d="M80.1,100.5c0.3-0.5,0.6-0.9,1-1.2c0.4-0.3,0.9-0.5,1.4-0.5c0.3,0,0.6,0.1,0.9,0.3
				c0.2,0.2,0.3,0.4,0.3,0.7c0,0.4-0.1,0.7-0.5,1c-0.3,0.3-0.9,0.5-1.8,0.5h-0.7c0,0.2-0.1,0.4-0.1,0.6c0,0.9,0.4,1.4,1,1.4
				c0.3,0,0.6-0.1,0.8-0.2s0.5-0.4,0.7-0.7l0.1,0.1c-0.5,0.9-1.2,1.5-2,1.5c-0.5,0-0.9-0.2-1.3-0.5c-0.3-0.3-0.5-0.8-0.5-1.4
				C79.7,101.5,79.8,101,80.1,100.5z M81.3,101c0.1,0,0.3,0,0.5-0.1c0.2,0,0.3-0.1,0.5-0.1c0.4-0.2,0.7-0.5,0.7-1.1
				c0-0.3-0.2-0.6-0.5-0.6c-0.8,0-1.4,1-1.6,1.9C81,101,81.2,101,81.3,101z"/>
			<path fill="#FFFFFF" d="M84.6,100.5c0.3-0.5,0.6-0.9,1-1.2c0.4-0.3,0.9-0.5,1.4-0.5c0.3,0,0.6,0.1,0.9,0.3
				c0.2,0.2,0.3,0.4,0.3,0.7c0,0.4-0.1,0.7-0.5,1c-0.3,0.3-0.9,0.5-1.8,0.5h-0.7c0,0.2-0.1,0.4-0.1,0.6c0,0.9,0.4,1.4,1,1.4
				c0.3,0,0.6-0.1,0.8-0.2s0.5-0.4,0.7-0.7l0.1,0.1c-0.5,0.9-1.2,1.5-2,1.5c-0.5,0-0.9-0.2-1.3-0.5c-0.3-0.3-0.5-0.8-0.5-1.4
				C84.2,101.5,84.3,101,84.6,100.5z M85.9,101c0.1,0,0.3,0,0.5-0.1c0.2,0,0.3-0.1,0.5-0.1c0.4-0.2,0.7-0.5,0.7-1.1
				c0-0.3-0.2-0.6-0.5-0.6c-0.8,0-1.4,1-1.6,1.9C85.6,101,85.7,101,85.9,101z"/>
			<path fill="#FFFFFF" d="M7.2,121c0.3-0.8,0.5-1.4,0.7-2h0.1c0.1,0,0.2,0,0.5,0c0.2,0,0.4,0,0.6,0h3.3c0.2,0,0.4,0,0.6,0
				c0.2,0,0.4,0,0.5,0h0.1c-0.1,0.5-0.2,1.1-0.2,2h-0.2c0-0.5-0.1-0.9-0.2-1.2c-0.1-0.3-0.4-0.4-0.8-0.4h-0.4c-0.2,0-0.4,0-0.5,0.1
				s-0.2,0.2-0.2,0.4l-1.3,5.4c0,0.1,0,0.2,0,0.2c0,0.3,0.2,0.4,0.5,0.4h0.6l-0.1,0.3h-0.3c-0.1,0-0.3,0-0.5,0s-0.4,0-0.5,0H8.6
				c-0.1,0-0.2,0-0.5,0c-0.2,0-0.4,0-0.5,0H7.3l0.1-0.3h0.5c0.5,0,0.7-0.2,0.8-0.7l1.3-5.3c0-0.1,0-0.1,0-0.2c0-0.2-0.2-0.3-0.6-0.3
				H9.2c-0.4,0-0.7,0.2-1,0.4c-0.3,0.3-0.6,0.7-0.8,1.2H7.2z"/>
			<path fill="#FFFFFF" d="M13.1,126l1.9-6.7l-0.7-0.2l0-0.2c0.4,0,0.7-0.1,0.9-0.1s0.5-0.2,0.8-0.3h0.2l-1.2,4.2
				c0.2-0.4,0.5-0.8,0.9-1.1c0.5-0.4,1-0.6,1.3-0.6c0.5,0,0.8,0.3,0.8,0.8c0,0.1,0,0.2,0,0.3c-0.1,0.5-0.4,1.4-0.9,2.8
				c0,0.1,0,0.1,0,0.2c0,0.1,0.1,0.2,0.2,0.2c0.1,0,0.4-0.1,0.8-0.5l0.1,0.1c-0.4,0.4-0.7,0.7-0.9,0.9c-0.2,0.2-0.4,0.2-0.6,0.2
				c-0.3,0-0.5-0.2-0.5-0.6c0-0.1,0-0.2,0.1-0.4l0.3-0.8c0.1-0.3,0.2-0.6,0.2-0.8c0.1-0.2,0.1-0.4,0.2-0.6c0.1-0.2,0.1-0.5,0.2-0.7
				c0-0.1,0-0.2,0-0.2c0-0.3-0.1-0.4-0.4-0.4c-0.3,0-0.6,0.3-1,0.7c-0.3,0.3-0.5,0.7-0.7,1.1c-0.2,0.4-0.4,0.9-0.6,1.6l-0.3,0.9H14
				c-0.1,0-0.2,0-0.4,0s-0.3,0-0.4,0H13.1z"/>
			<path fill="#FFFFFF" d="M19,125.1l0.9-3.1c0-0.1,0-0.1,0-0.2c0-0.1,0-0.2-0.2-0.2c-0.2,0-0.4,0.1-0.6,0.4l-0.1-0.2
				c0.5-0.5,1-0.8,1.4-0.8c0.3,0,0.5,0.2,0.5,0.5c0,0.1,0,0.4-0.2,0.8l-0.7,2.7c0,0.1,0,0.1,0,0.2c0,0.1,0,0.2,0.1,0.2
				c0.2,0,0.4-0.1,0.9-0.5l0.1,0.1c-0.4,0.4-0.7,0.7-0.9,0.9s-0.5,0.2-0.7,0.2c-0.3,0-0.5-0.2-0.5-0.6C18.9,125.4,19,125.3,19,125.1
				z M20.3,119.8c0-0.2,0.1-0.3,0.2-0.4c0.1-0.1,0.3-0.2,0.4-0.2s0.3,0.1,0.4,0.2c0.1,0.1,0.2,0.3,0.2,0.4s-0.1,0.3-0.2,0.4
				c-0.1,0.1-0.3,0.2-0.4,0.2s-0.3-0.1-0.4-0.2C20.3,120.1,20.3,120,20.3,119.8z"/>
			<path fill="#FFFFFF" d="M21.6,126c0.5-1.7,0.9-3,1.1-4.1c0-0.1,0-0.1,0-0.1c0-0.1,0-0.2-0.1-0.2c-0.1,0-0.3,0.1-0.6,0.4l-0.1-0.2
				c0.5-0.5,1-0.8,1.4-0.8c0.3,0,0.5,0.2,0.5,0.5c0,0.2-0.1,0.6-0.2,1.1c0.2-0.4,0.5-0.8,0.9-1.1c0.5-0.4,0.9-0.6,1.3-0.6
				c0.5,0,0.8,0.3,0.8,0.7c0,0.1,0,0.3-0.1,0.4l-0.2,0.7c-0.1,0.2-0.2,0.5-0.2,0.6l-0.3,0.8l-0.3,0.8c0,0.1,0,0.1,0,0.2
				c0,0.1,0.1,0.2,0.2,0.2c0.1,0,0.4-0.1,0.8-0.5l0.1,0.1c-0.4,0.4-0.7,0.7-0.9,0.9s-0.4,0.2-0.6,0.2c-0.3,0-0.6-0.2-0.6-0.6
				c0-0.1,0-0.2,0.1-0.4c0.4-1.2,0.6-2.2,0.8-2.8c0-0.1,0-0.2,0-0.2c0-0.2-0.1-0.4-0.3-0.4c-0.3,0-0.6,0.2-0.9,0.6
				c-0.2,0.2-0.3,0.3-0.3,0.4s-0.2,0.2-0.3,0.4c-0.2,0.4-0.4,1-0.7,1.8l-0.3,0.9h-0.1c-0.1,0-0.2,0-0.4,0s-0.3,0-0.4,0H21.6z"/>
			<path fill="#FFFFFF" d="M27.9,125.7c-0.4-0.2-0.5-0.4-0.5-0.7c0-0.4,0.2-0.7,0.6-1c-0.3-0.3-0.4-0.6-0.4-1c0-1,1-2,2-1.9
				c0.4,0,0.7,0.1,1,0.3c0.4-0.1,0.7-0.2,1-0.2c0.3,0,0.5,0.1,0.5,0.4c0,0.2-0.2,0.4-0.4,0.4c-0.2,0-0.3-0.1-0.4-0.2
				c-0.1-0.1-0.2-0.2-0.3-0.2c-0.1,0-0.2,0-0.3,0.1c0.2,0.2,0.3,0.6,0.3,0.9c0,1-1,1.9-2,1.9c-0.4,0-0.6-0.1-0.9-0.2
				c-0.1,0.1-0.2,0.3-0.2,0.4c0,0.2,0.1,0.3,0.4,0.4c0.1,0,0.2,0.1,0.4,0.1l0.4,0.1c0.3,0.1,0.6,0.2,0.9,0.3
				c0.2,0.1,0.5,0.3,0.6,0.4c0.2,0.2,0.3,0.4,0.3,0.7c0,0.3-0.1,0.6-0.3,0.9s-0.5,0.5-0.9,0.6c-0.4,0.2-0.7,0.2-1.1,0.2
				c-0.3,0-0.7,0-1-0.1c-0.3-0.1-0.5-0.2-0.7-0.4c-0.2-0.2-0.3-0.4-0.3-0.7C26.7,126.5,27.1,126,27.9,125.7z M28.6,128
				c1,0,1.4-0.4,1.4-1c0-0.2-0.1-0.4-0.2-0.5c-0.1-0.1-0.3-0.2-0.5-0.3c-0.2-0.1-0.4-0.1-0.6-0.2l-0.3-0.1l-0.3-0.1c0,0,0,0,0,0
				c-0.6,0.3-0.8,0.7-0.8,1.2C27.3,127.6,27.8,128,28.6,128z M29,124.1c0.2,0,0.4-0.1,0.6-0.3c0.3-0.4,0.5-1,0.5-1.6
				c0-0.5-0.2-0.8-0.6-0.8c-0.2,0-0.4,0.1-0.6,0.3c-0.3,0.4-0.5,1-0.5,1.6C28.5,123.8,28.7,124.1,29,124.1z"/>
			<path fill="#FFFFFF" d="M32.4,124.6c0.2,0,0.4,0.2,0.4,0.6c0,0.2,0,0.3,0.1,0.4c0.1,0.2,0.3,0.3,0.5,0.3c0.5,0,0.7-0.3,0.7-0.8
				c0-0.2-0.1-0.4-0.2-0.6s-0.3-0.4-0.5-0.6c-0.5-0.4-0.8-0.8-0.8-1.4c0-0.4,0.2-0.7,0.5-0.9s0.7-0.4,1.1-0.4c0.4,0,0.9,0.2,1.1,0.4
				c0.2,0.2,0.2,0.3,0.2,0.5c0,0.3-0.2,0.4-0.4,0.4c-0.2,0-0.4-0.2-0.4-0.4c0-0.1,0-0.2,0-0.2c0-0.1,0-0.2-0.1-0.3
				c-0.1-0.1-0.3-0.2-0.5-0.2c-0.4,0-0.7,0.2-0.7,0.6c0,0.3,0.3,0.7,0.8,1.1c0.3,0.2,0.4,0.4,0.6,0.6s0.3,0.5,0.3,0.8
				c0,0.4-0.2,0.8-0.5,1.1s-0.7,0.4-1.2,0.4c-0.3,0-0.6-0.1-0.9-0.2s-0.5-0.4-0.6-0.6c0-0.1-0.1-0.2-0.1-0.3
				C31.9,124.7,32.1,124.6,32.4,124.6z"/>
			<path fill="#FFFFFF" d="M38.9,127.3c0.1,0,0.2,0,0.3,0.1c0.1,0.1,0.2,0.1,0.3,0.1c0.1,0,0.2,0,0.3-0.1c0.1,0,0.2-0.2,0.3-0.3
				c0.4-0.5,0.7-0.9,0.9-1.2h-0.3c-0.1-1.6-0.4-2.9-0.8-3.9c-0.1-0.3-0.2-0.4-0.4-0.4c-0.1,0-0.3,0.1-0.6,0.4l-0.1-0.2
				c0.4-0.5,0.9-0.8,1.4-0.8c0.3,0,0.6,0.2,0.7,0.6c0.3,0.9,0.5,2,0.6,3.5c0.8-1.2,1.2-2.2,1.2-2.8c0-0.2,0-0.3-0.1-0.5
				c-0.1-0.2-0.1-0.3-0.1-0.3c0-0.6,0.9-0.6,0.9,0c0,0.3-0.1,0.7-0.3,1.3c-0.2,0.5-0.5,1-0.8,1.6c-0.7,1.1-1.5,2.2-2.3,3.2
				c-0.4,0.5-0.8,0.7-1.2,0.7c-0.1,0-0.2,0-0.4-0.1s-0.2-0.2-0.2-0.3C38.4,127.5,38.6,127.3,38.9,127.3z"/>
			<path fill="#FFFFFF" d="M44.3,122.7c0.2-0.5,0.6-0.9,1-1.2s0.9-0.4,1.4-0.4c0.5,0,0.9,0.2,1.2,0.5s0.5,0.8,0.5,1.3
				s-0.1,1.1-0.4,1.5c-0.2,0.5-0.6,0.9-1,1.2c-0.4,0.3-0.9,0.4-1.4,0.4s-0.9-0.2-1.2-0.5c-0.3-0.3-0.5-0.8-0.5-1.3
				C43.9,123.7,44,123.2,44.3,122.7z M45.6,125.8c0.2,0,0.5-0.1,0.7-0.3c0.2-0.2,0.4-0.5,0.5-0.8s0.2-0.7,0.3-1
				c0.1-0.3,0.1-0.7,0.1-0.9c0-0.8-0.2-1.3-0.7-1.3c-0.4,0-0.8,0.3-1,0.8c-0.4,0.7-0.6,1.7-0.6,2.3
				C44.9,125.4,45.2,125.8,45.6,125.8z"/>
			<path fill="#FFFFFF" d="M48.9,121.9c0.5-0.5,1-0.8,1.4-0.8c0.3,0,0.5,0.2,0.5,0.5c0,0.1,0,0.4-0.2,0.7c-0.1,0.3-0.2,0.6-0.3,1.1
				c-0.1,0.5-0.3,0.9-0.4,1.3c0,0.1,0,0.2,0,0.2c0,0.2,0.1,0.4,0.3,0.4c0.3,0,0.6-0.3,1-0.8c0.2-0.2,0.3-0.4,0.4-0.6
				c0.2-0.3,0.5-1,0.8-2l0.3-0.9h0.1c0.1,0,0.2,0,0.4,0c0.2,0,0.3,0,0.4,0h0.1l-1.1,3.9c0,0.1,0,0.2,0,0.2c0,0.1,0.1,0.1,0.1,0.1
				c0.2,0,0.4-0.1,0.9-0.5l0.1,0.1c-0.4,0.4-0.7,0.7-0.9,0.9c-0.2,0.2-0.5,0.2-0.7,0.2c-0.3,0-0.6-0.2-0.6-0.6c0-0.1,0-0.2,0-0.3
				l0.2-0.9c-0.3,0.5-0.6,1-0.9,1.2c-0.5,0.4-0.9,0.6-1.3,0.6c-0.5,0-0.8-0.3-0.8-0.8c0-0.1,0-0.2,0-0.4c0.1-0.3,0.3-1.3,0.8-2.9
				c0-0.1,0-0.1,0-0.2c0-0.1,0-0.2-0.2-0.2c-0.2,0-0.4,0.1-0.6,0.4L48.9,121.9z"/>
			<path fill="#FFFFFF" d="M57.6,123c0.2-0.4,0.4-0.7,0.6-1s0.6-0.5,0.9-0.7s0.7-0.2,1-0.2c0.4,0,0.7,0.1,1,0.3s0.4,0.4,0.4,0.8
				c0,0.4-0.2,0.5-0.5,0.5c-0.2,0-0.4-0.2-0.4-0.4c0-0.1,0-0.2,0.1-0.3s0.1-0.2,0.1-0.3c0-0.2-0.3-0.3-0.6-0.3
				c-0.4,0-0.9,0.3-1.2,0.8c-0.2,0.2-0.3,0.5-0.5,0.9c-0.1,0.3-0.2,0.7-0.2,1.1c0,0.5,0.2,0.8,0.4,1c0.2,0.2,0.5,0.3,0.8,0.3
				c0.5,0,1-0.3,1.4-0.9l0.2,0.1c-0.4,0.9-1.2,1.5-2.1,1.5c-0.5,0-0.9-0.2-1.3-0.5c-0.3-0.3-0.5-0.8-0.5-1.3
				C57.3,123.8,57.4,123.4,57.6,123z"/>
			<path fill="#FFFFFF" d="M62.2,123.5c0.2-0.5,0.4-0.9,0.7-1.2c0.3-0.3,0.6-0.6,0.9-0.8c0.4-0.2,0.7-0.3,1-0.3
				c0.4,0,0.7,0.2,0.8,0.6l0.1-0.4c0.1,0,0.3,0,0.4,0s0.3,0,0.4,0h0.2l-1.1,3.9c0,0.1,0,0.2,0,0.2c0,0.1,0.1,0.1,0.2,0.1
				c0.1,0,0.4-0.1,0.8-0.5l0.1,0.1c-0.4,0.4-0.7,0.7-0.9,0.9c-0.2,0.1-0.4,0.2-0.6,0.2c-0.4,0-0.6-0.3-0.6-0.7c0-0.1,0-0.3,0.1-0.5
				c-0.2,0.4-0.5,0.7-0.8,0.9c-0.3,0.2-0.6,0.3-1,0.3c-0.7,0-1-0.5-1-1.2C61.9,124.4,62,123.9,62.2,123.5z M63.5,125.5
				c0.3,0,0.6-0.2,0.9-0.6c0.3-0.4,0.6-1,0.8-1.8l0.2-0.5c0.1-0.2,0.1-0.4,0.1-0.5c0-0.4-0.2-0.6-0.5-0.6c-0.3,0-0.6,0.2-1,0.5
				c-0.3,0.4-0.6,0.8-0.8,1.3c-0.2,0.5-0.3,1-0.3,1.4C62.9,125.2,63.1,125.5,63.5,125.5z"/>
			<path fill="#FFFFFF" d="M67.3,126c0.5-1.7,0.9-3,1.1-4.1c0-0.1,0-0.1,0-0.1c0-0.1,0-0.2-0.1-0.2c-0.1,0-0.3,0.1-0.6,0.4l-0.1-0.2
				c0.5-0.5,1-0.8,1.4-0.8c0.3,0,0.5,0.2,0.5,0.5c0,0.2-0.1,0.6-0.2,1.1c0.2-0.4,0.5-0.8,0.9-1.1c0.5-0.4,0.9-0.6,1.3-0.6
				c0.5,0,0.8,0.3,0.8,0.7c0,0.1,0,0.3-0.1,0.4l-0.2,0.7c-0.1,0.2-0.2,0.5-0.2,0.6l-0.3,0.8l-0.3,0.8c0,0.1,0,0.1,0,0.2
				c0,0.1,0.1,0.2,0.2,0.2c0.1,0,0.4-0.1,0.8-0.5l0.1,0.1c-0.4,0.4-0.7,0.7-0.9,0.9s-0.4,0.2-0.6,0.2c-0.3,0-0.6-0.2-0.6-0.6
				c0-0.1,0-0.2,0.1-0.4c0.4-1.2,0.6-2.2,0.8-2.8c0-0.1,0-0.2,0-0.2c0-0.2-0.1-0.4-0.3-0.4c-0.3,0-0.6,0.2-0.9,0.6
				c-0.2,0.2-0.3,0.3-0.3,0.4s-0.2,0.2-0.3,0.4c-0.2,0.4-0.4,1-0.7,1.8l-0.3,0.9h-0.1c-0.1,0-0.2,0-0.4,0s-0.3,0-0.4,0H67.3z"/>
			<path fill="#FFFFFF" d="M75.5,126l1.9-6.7l-0.7-0.2l0-0.2c0.4,0,0.7-0.1,0.9-0.1s0.5-0.2,0.8-0.3h0.2l-1.2,4.2
				c0.2-0.4,0.5-0.8,0.9-1.1c0.5-0.4,1-0.6,1.3-0.6c0.5,0,0.8,0.3,0.8,0.8c0,0.1,0,0.2,0,0.3c-0.1,0.5-0.4,1.4-0.9,2.8
				c0,0.1,0,0.1,0,0.2c0,0.1,0.1,0.2,0.2,0.2c0.1,0,0.4-0.1,0.8-0.5l0.1,0.1c-0.4,0.4-0.7,0.7-0.9,0.9c-0.2,0.2-0.4,0.2-0.6,0.2
				c-0.3,0-0.5-0.2-0.5-0.6c0-0.1,0-0.2,0.1-0.4l0.3-0.8c0.1-0.3,0.2-0.6,0.2-0.8c0.1-0.2,0.1-0.4,0.2-0.6c0.1-0.2,0.1-0.5,0.2-0.7
				c0-0.1,0-0.2,0-0.2c0-0.3-0.1-0.4-0.4-0.4c-0.3,0-0.6,0.3-1,0.7c-0.3,0.3-0.5,0.7-0.7,1.1c-0.2,0.4-0.4,0.9-0.6,1.6l-0.3,0.9
				h-0.1c-0.1,0-0.2,0-0.4,0s-0.3,0-0.4,0H75.5z"/>
			<path fill="#FFFFFF" d="M81.7,122.8c0.3-0.5,0.6-0.9,1-1.2c0.4-0.3,0.9-0.5,1.4-0.5c0.3,0,0.6,0.1,0.9,0.3
				c0.2,0.2,0.3,0.4,0.3,0.7c0,0.4-0.1,0.7-0.5,1c-0.3,0.3-0.9,0.5-1.8,0.5h-0.7c0,0.2-0.1,0.4-0.1,0.6c0,0.9,0.4,1.4,1,1.4
				c0.3,0,0.6-0.1,0.8-0.2s0.5-0.4,0.7-0.7l0.1,0.1c-0.5,0.9-1.2,1.5-2,1.5c-0.5,0-0.9-0.2-1.3-0.5c-0.3-0.3-0.5-0.8-0.5-1.4
				C81.3,123.7,81.4,123.2,81.7,122.8z M83,123.3c0.1,0,0.3,0,0.5-0.1c0.2,0,0.3-0.1,0.5-0.1c0.4-0.2,0.7-0.5,0.7-1.1
				c0-0.3-0.2-0.6-0.5-0.6c-0.8,0-1.4,1-1.6,1.9C82.7,123.3,82.8,123.3,83,123.3z"/>
			<path fill="#FFFFFF" d="M86,123.5c0.2-0.5,0.4-0.9,0.7-1.2c0.3-0.3,0.6-0.6,0.9-0.8s0.7-0.3,1-0.3c0.4,0,0.7,0.2,0.8,0.6l0.1-0.4
				c0.1,0,0.3,0,0.4,0s0.3,0,0.4,0h0.2l-1.1,3.9c0,0.1,0,0.2,0,0.2c0,0.1,0.1,0.1,0.2,0.1c0.1,0,0.4-0.1,0.8-0.5l0.1,0.1
				c-0.4,0.4-0.7,0.7-0.9,0.9c-0.2,0.1-0.4,0.2-0.6,0.2c-0.4,0-0.6-0.3-0.6-0.7c0-0.1,0-0.3,0.1-0.5c-0.2,0.4-0.5,0.7-0.8,0.9
				s-0.6,0.3-1,0.3c-0.7,0-1-0.5-1-1.2C85.8,124.4,85.9,123.9,86,123.5z M87.4,125.5c0.3,0,0.6-0.2,0.9-0.6c0.3-0.4,0.6-1,0.8-1.8
				l0.2-0.5c0.1-0.2,0.1-0.4,0.1-0.5c0-0.4-0.2-0.6-0.5-0.6c-0.3,0-0.6,0.2-1,0.5s-0.6,0.8-0.8,1.3c-0.2,0.5-0.3,1-0.3,1.4
				C86.7,125.2,86.9,125.5,87.4,125.5z"/>
			<path fill="#FFFFFF" d="M91.2,126l1.1-4c0-0.1,0-0.1,0-0.2c0-0.1,0-0.2-0.2-0.2c-0.2,0-0.4,0.1-0.6,0.4l-0.1-0.1
				c0.5-0.5,1-0.8,1.4-0.8c0.4,0,0.5,0.2,0.5,0.5c0,0.1,0,0.4-0.2,0.7l-0.1,0.4c0.3-0.5,0.6-0.9,0.9-1.2c0.3-0.3,0.7-0.5,1-0.5
				c0.4,0,0.7,0.2,0.7,0.6c0,0.1,0,0.3-0.1,0.4c-0.1,0.1-0.2,0.1-0.3,0.1c-0.2,0-0.3-0.1-0.4-0.3c0-0.1-0.1-0.2-0.3-0.2
				c-0.2,0-0.5,0.2-0.7,0.6c-0.5,0.7-0.9,1.5-1.1,2.3l-0.4,1.4H92c-0.1,0-0.2,0-0.4,0s-0.3,0-0.4,0H91.2z"/>
			<path fill="#FFFFFF" d="M7.2,143.2c0.3-0.8,0.5-1.4,0.7-2h0.1c0.1,0,0.2,0,0.5,0c0.2,0,0.4,0,0.6,0h3.3c0.2,0,0.4,0,0.6,0
				c0.2,0,0.4,0,0.5,0h0.1c-0.1,0.5-0.2,1.1-0.2,2h-0.2c0-0.5-0.1-0.9-0.2-1.2c-0.1-0.3-0.4-0.4-0.8-0.4h-0.4c-0.2,0-0.4,0-0.5,0.1
				s-0.2,0.2-0.2,0.4l-1.3,5.4c0,0.1,0,0.2,0,0.2c0,0.3,0.2,0.4,0.5,0.4h0.6l-0.1,0.3h-0.3c-0.1,0-0.3,0-0.5,0s-0.4,0-0.5,0H8.6
				c-0.1,0-0.2,0-0.5,0c-0.2,0-0.4,0-0.5,0H7.3l0.1-0.3h0.5c0.5,0,0.7-0.2,0.8-0.7L10,142c0-0.1,0-0.1,0-0.2c0-0.2-0.2-0.3-0.6-0.3
				H9.2c-0.4,0-0.7,0.2-1,0.4c-0.3,0.3-0.6,0.7-0.8,1.2H7.2z"/>
			<path fill="#FFFFFF" d="M13.1,148.3l1.9-6.7l-0.7-0.2l0-0.2c0.4,0,0.7-0.1,0.9-0.1s0.5-0.2,0.8-0.3h0.2L15,145
				c0.2-0.4,0.5-0.8,0.9-1.1c0.5-0.4,1-0.6,1.3-0.6c0.5,0,0.8,0.3,0.8,0.8c0,0.1,0,0.2,0,0.3c-0.1,0.5-0.4,1.4-0.9,2.8
				c0,0.1,0,0.1,0,0.2c0,0.1,0.1,0.2,0.2,0.2c0.1,0,0.4-0.1,0.8-0.5l0.1,0.1c-0.4,0.4-0.7,0.7-0.9,0.9c-0.2,0.2-0.4,0.2-0.6,0.2
				c-0.3,0-0.5-0.2-0.5-0.6c0-0.1,0-0.2,0.1-0.4l0.3-0.8c0.1-0.3,0.2-0.6,0.2-0.8c0.1-0.2,0.1-0.4,0.2-0.6c0.1-0.2,0.1-0.5,0.2-0.7
				c0-0.1,0-0.2,0-0.2c0-0.3-0.1-0.4-0.4-0.4c-0.3,0-0.6,0.3-1,0.7c-0.3,0.3-0.5,0.7-0.7,1.1c-0.2,0.4-0.4,0.9-0.6,1.6l-0.3,0.9H14
				c-0.1,0-0.2,0-0.4,0s-0.3,0-0.4,0H13.1z"/>
			<path fill="#FFFFFF" d="M19,147.4l0.9-3.1c0-0.1,0-0.1,0-0.2c0-0.1,0-0.2-0.2-0.2c-0.2,0-0.4,0.1-0.6,0.4l-0.1-0.2
				c0.5-0.5,1-0.8,1.4-0.8c0.3,0,0.5,0.2,0.5,0.5c0,0.1,0,0.4-0.2,0.8l-0.7,2.7c0,0.1,0,0.1,0,0.2c0,0.1,0,0.2,0.1,0.2
				c0.2,0,0.4-0.1,0.9-0.5l0.1,0.1c-0.4,0.4-0.7,0.7-0.9,0.9s-0.5,0.2-0.7,0.2c-0.3,0-0.5-0.2-0.5-0.6C18.9,147.6,19,147.5,19,147.4
				z M20.3,142c0-0.2,0.1-0.3,0.2-0.4c0.1-0.1,0.3-0.2,0.4-0.2s0.3,0.1,0.4,0.2c0.1,0.1,0.2,0.3,0.2,0.4s-0.1,0.3-0.2,0.4
				c-0.1,0.1-0.3,0.2-0.4,0.2s-0.3-0.1-0.4-0.2C20.3,142.3,20.3,142.2,20.3,142z"/>
			<path fill="#FFFFFF" d="M21.6,148.3c0.5-1.7,0.9-3,1.1-4.1c0-0.1,0-0.1,0-0.1c0-0.1,0-0.2-0.1-0.2c-0.1,0-0.3,0.1-0.6,0.4
				l-0.1-0.2c0.5-0.5,1-0.8,1.4-0.8c0.3,0,0.5,0.2,0.5,0.5c0,0.2-0.1,0.6-0.2,1.1c0.2-0.4,0.5-0.8,0.9-1.1c0.5-0.4,0.9-0.6,1.3-0.6
				c0.5,0,0.8,0.3,0.8,0.7c0,0.1,0,0.3-0.1,0.4l-0.2,0.7c-0.1,0.2-0.2,0.5-0.2,0.6l-0.3,0.8l-0.3,0.8c0,0.1,0,0.1,0,0.2
				c0,0.1,0.1,0.2,0.2,0.2c0.1,0,0.4-0.1,0.8-0.5l0.1,0.1c-0.4,0.4-0.7,0.7-0.9,0.9s-0.4,0.2-0.6,0.2c-0.3,0-0.6-0.2-0.6-0.6
				c0-0.1,0-0.2,0.1-0.4c0.4-1.2,0.6-2.2,0.8-2.8c0-0.1,0-0.2,0-0.2c0-0.2-0.1-0.4-0.3-0.4c-0.3,0-0.6,0.2-0.9,0.6
				c-0.2,0.2-0.3,0.3-0.3,0.4s-0.2,0.2-0.3,0.4c-0.2,0.4-0.4,1-0.7,1.8l-0.3,0.9h-0.1c-0.1,0-0.2,0-0.4,0s-0.3,0-0.4,0H21.6z"/>
			<path fill="#FFFFFF" d="M27.9,148c-0.4-0.2-0.5-0.4-0.5-0.7c0-0.4,0.2-0.7,0.6-1c-0.3-0.3-0.4-0.6-0.4-1c0-1,1-2,2-1.9
				c0.4,0,0.7,0.1,1,0.3c0.4-0.1,0.7-0.2,1-0.2c0.3,0,0.5,0.1,0.5,0.4c0,0.2-0.2,0.4-0.4,0.4c-0.2,0-0.3-0.1-0.4-0.2
				c-0.1-0.1-0.2-0.2-0.3-0.2c-0.1,0-0.2,0-0.3,0.1c0.2,0.2,0.3,0.6,0.3,0.9c0,1-1,1.9-2,1.9c-0.4,0-0.6-0.1-0.9-0.2
				c-0.1,0.1-0.2,0.3-0.2,0.4c0,0.2,0.1,0.3,0.4,0.4c0.1,0,0.2,0.1,0.4,0.1l0.4,0.1c0.3,0.1,0.6,0.2,0.9,0.3
				c0.2,0.1,0.5,0.3,0.6,0.4c0.2,0.2,0.3,0.4,0.3,0.7c0,0.3-0.1,0.6-0.3,0.9s-0.5,0.5-0.9,0.6c-0.4,0.2-0.7,0.2-1.1,0.2
				c-0.3,0-0.7,0-1-0.1c-0.3-0.1-0.5-0.2-0.7-0.4c-0.2-0.2-0.3-0.4-0.3-0.7C26.7,148.7,27.1,148.3,27.9,148z M28.6,150.2
				c1,0,1.4-0.4,1.4-1c0-0.2-0.1-0.4-0.2-0.5c-0.1-0.1-0.3-0.2-0.5-0.3c-0.2-0.1-0.4-0.1-0.6-0.2l-0.3-0.1l-0.3-0.1c0,0,0,0,0,0
				c-0.6,0.3-0.8,0.7-0.8,1.2C27.3,149.9,27.8,150.2,28.6,150.2z M29,146.3c0.2,0,0.4-0.1,0.6-0.3c0.3-0.4,0.5-1,0.5-1.6
				c0-0.5-0.2-0.8-0.6-0.8c-0.2,0-0.4,0.1-0.6,0.3c-0.3,0.4-0.5,1-0.5,1.6C28.5,146,28.7,146.3,29,146.3z"/>
			<path fill="#FFFFFF" d="M32.4,146.8c0.2,0,0.4,0.2,0.4,0.6c0,0.2,0,0.3,0.1,0.4c0.1,0.2,0.3,0.3,0.5,0.3c0.5,0,0.7-0.3,0.7-0.8
				c0-0.2-0.1-0.4-0.2-0.6s-0.3-0.4-0.5-0.6c-0.5-0.4-0.8-0.8-0.8-1.4c0-0.4,0.2-0.7,0.5-0.9s0.7-0.4,1.1-0.4c0.4,0,0.9,0.2,1.1,0.4
				c0.2,0.2,0.2,0.3,0.2,0.5c0,0.3-0.2,0.4-0.4,0.4c-0.2,0-0.4-0.2-0.4-0.4c0-0.1,0-0.2,0-0.2c0-0.1,0-0.2-0.1-0.3
				c-0.1-0.1-0.3-0.2-0.5-0.2c-0.4,0-0.7,0.2-0.7,0.6c0,0.3,0.3,0.7,0.8,1.1c0.3,0.2,0.4,0.4,0.6,0.6s0.3,0.5,0.3,0.8
				c0,0.4-0.2,0.8-0.5,1.1s-0.7,0.4-1.2,0.4c-0.3,0-0.6-0.1-0.9-0.2s-0.5-0.4-0.6-0.6c0-0.1-0.1-0.2-0.1-0.3
				C31.9,147,32.1,146.8,32.4,146.8z"/>
			<path fill="#FFFFFF" d="M38.9,149.6c0.1,0,0.2,0,0.3,0.1c0.1,0.1,0.2,0.1,0.3,0.1c0.1,0,0.2,0,0.3-0.1c0.1,0,0.2-0.2,0.3-0.3
				c0.4-0.5,0.7-0.9,0.9-1.2h-0.3c-0.1-1.6-0.4-2.9-0.8-3.9c-0.1-0.3-0.2-0.4-0.4-0.4c-0.1,0-0.3,0.1-0.6,0.4l-0.1-0.2
				c0.4-0.5,0.9-0.8,1.4-0.8c0.3,0,0.6,0.2,0.7,0.6c0.3,0.9,0.5,2,0.6,3.5c0.8-1.2,1.2-2.2,1.2-2.8c0-0.2,0-0.3-0.1-0.5
				c-0.1-0.2-0.1-0.3-0.1-0.3c0-0.6,0.9-0.6,0.9,0c0,0.3-0.1,0.7-0.3,1.3c-0.2,0.5-0.5,1-0.8,1.6c-0.7,1.1-1.5,2.2-2.3,3.2
				c-0.4,0.5-0.8,0.7-1.2,0.7c-0.1,0-0.2,0-0.4-0.1s-0.2-0.2-0.2-0.3C38.4,149.8,38.6,149.6,38.9,149.6z"/>
			<path fill="#FFFFFF" d="M44.3,145c0.2-0.5,0.6-0.9,1-1.2s0.9-0.4,1.4-0.4c0.5,0,0.9,0.2,1.2,0.5s0.5,0.8,0.5,1.3
				s-0.1,1.1-0.4,1.5c-0.2,0.5-0.6,0.9-1,1.2c-0.4,0.3-0.9,0.4-1.4,0.4s-0.9-0.2-1.2-0.5c-0.3-0.3-0.5-0.8-0.5-1.3
				C43.9,146,44,145.5,44.3,145z M45.6,148c0.2,0,0.5-0.1,0.7-0.3c0.2-0.2,0.4-0.5,0.5-0.8s0.2-0.7,0.3-1c0.1-0.3,0.1-0.7,0.1-0.9
				c0-0.8-0.2-1.3-0.7-1.3c-0.4,0-0.8,0.3-1,0.8c-0.4,0.7-0.6,1.7-0.6,2.3C44.9,147.6,45.2,148,45.6,148z"/>
			<path fill="#FFFFFF" d="M48.9,144.2c0.5-0.5,1-0.8,1.4-0.8c0.3,0,0.5,0.2,0.5,0.5c0,0.1,0,0.4-0.2,0.7c-0.1,0.3-0.2,0.6-0.3,1.1
				c-0.1,0.5-0.3,0.9-0.4,1.3c0,0.1,0,0.2,0,0.2c0,0.2,0.1,0.4,0.3,0.4c0.3,0,0.6-0.3,1-0.8c0.2-0.2,0.3-0.4,0.4-0.6
				c0.2-0.3,0.5-1,0.8-2l0.3-0.9h0.1c0.1,0,0.2,0,0.4,0c0.2,0,0.3,0,0.4,0h0.1l-1.1,3.9c0,0.1,0,0.2,0,0.2c0,0.1,0.1,0.1,0.1,0.1
				c0.2,0,0.4-0.1,0.9-0.5l0.1,0.1c-0.4,0.4-0.7,0.7-0.9,0.9c-0.2,0.2-0.5,0.2-0.7,0.2c-0.3,0-0.6-0.2-0.6-0.6c0-0.1,0-0.2,0-0.3
				l0.2-0.9c-0.3,0.5-0.6,1-0.9,1.2c-0.5,0.4-0.9,0.6-1.3,0.6c-0.5,0-0.8-0.3-0.8-0.8c0-0.1,0-0.2,0-0.4c0.1-0.3,0.3-1.3,0.8-2.9
				c0-0.1,0-0.1,0-0.2c0-0.1,0-0.2-0.2-0.2c-0.2,0-0.4,0.1-0.6,0.4L48.9,144.2z"/>
			<path fill="#FFFFFF" d="M57.6,145.3c0.2-0.4,0.4-0.7,0.6-1s0.6-0.5,0.9-0.7s0.7-0.2,1-0.2c0.4,0,0.7,0.1,1,0.3s0.4,0.4,0.4,0.8
				c0,0.4-0.2,0.5-0.5,0.5c-0.2,0-0.4-0.2-0.4-0.4c0-0.1,0-0.2,0.1-0.3s0.1-0.2,0.1-0.3c0-0.2-0.3-0.3-0.6-0.3
				c-0.4,0-0.9,0.3-1.2,0.8c-0.2,0.2-0.3,0.5-0.5,0.9c-0.1,0.3-0.2,0.7-0.2,1.1c0,0.5,0.2,0.8,0.4,1c0.2,0.2,0.5,0.3,0.8,0.3
				c0.5,0,1-0.3,1.4-0.9l0.2,0.1c-0.4,0.9-1.2,1.5-2.1,1.5c-0.5,0-0.9-0.2-1.3-0.5c-0.3-0.3-0.5-0.8-0.5-1.3
				C57.3,146,57.4,145.6,57.6,145.3z"/>
			<path fill="#FFFFFF" d="M62.2,145.7c0.2-0.5,0.4-0.9,0.7-1.2c0.3-0.3,0.6-0.6,0.9-0.8c0.4-0.2,0.7-0.3,1-0.3
				c0.4,0,0.7,0.2,0.8,0.6l0.1-0.4c0.1,0,0.3,0,0.4,0s0.3,0,0.4,0h0.2l-1.1,3.9c0,0.1,0,0.2,0,0.2c0,0.1,0.1,0.1,0.2,0.1
				c0.1,0,0.4-0.1,0.8-0.5l0.1,0.1c-0.4,0.4-0.7,0.7-0.9,0.9c-0.2,0.1-0.4,0.2-0.6,0.2c-0.4,0-0.6-0.3-0.6-0.7c0-0.1,0-0.3,0.1-0.5
				c-0.2,0.4-0.5,0.7-0.8,0.9c-0.3,0.2-0.6,0.3-1,0.3c-0.7,0-1-0.5-1-1.2C61.9,146.6,62,146.2,62.2,145.7z M63.5,147.7
				c0.3,0,0.6-0.2,0.9-0.6c0.3-0.4,0.6-1,0.8-1.8l0.2-0.5c0.1-0.2,0.1-0.4,0.1-0.5c0-0.4-0.2-0.6-0.5-0.6c-0.3,0-0.6,0.2-1,0.5
				c-0.3,0.4-0.6,0.8-0.8,1.3c-0.2,0.5-0.3,1-0.3,1.4C62.9,147.4,63.1,147.7,63.5,147.7z"/>
			<path fill="#FFFFFF" d="M67.3,148.3c0.5-1.7,0.9-3,1.1-4.1c0-0.1,0-0.1,0-0.1c0-0.1,0-0.2-0.1-0.2c-0.1,0-0.3,0.1-0.6,0.4
				l-0.1-0.2c0.5-0.5,1-0.8,1.4-0.8c0.3,0,0.5,0.2,0.5,0.5c0,0.2-0.1,0.6-0.2,1.1c0.2-0.4,0.5-0.8,0.9-1.1c0.5-0.4,0.9-0.6,1.3-0.6
				c0.5,0,0.8,0.3,0.8,0.7c0,0.1,0,0.3-0.1,0.4l-0.2,0.7c-0.1,0.2-0.2,0.5-0.2,0.6l-0.3,0.8l-0.3,0.8c0,0.1,0,0.1,0,0.2
				c0,0.1,0.1,0.2,0.2,0.2c0.1,0,0.4-0.1,0.8-0.5l0.1,0.1c-0.4,0.4-0.7,0.7-0.9,0.9s-0.4,0.2-0.6,0.2c-0.3,0-0.6-0.2-0.6-0.6
				c0-0.1,0-0.2,0.1-0.4c0.4-1.2,0.6-2.2,0.8-2.8c0-0.1,0-0.2,0-0.2c0-0.2-0.1-0.4-0.3-0.4c-0.3,0-0.6,0.2-0.9,0.6
				c-0.2,0.2-0.3,0.3-0.3,0.4s-0.2,0.2-0.3,0.4c-0.2,0.4-0.4,1-0.7,1.8l-0.3,0.9h-0.1c-0.1,0-0.2,0-0.4,0s-0.3,0-0.4,0H67.3z"/>
			<path fill="#FFFFFF" d="M75.9,146.8c0.2,0,0.4,0.2,0.4,0.6c0,0.2,0,0.3,0.1,0.4c0.1,0.2,0.3,0.3,0.5,0.3c0.5,0,0.7-0.3,0.7-0.8
				c0-0.2-0.1-0.4-0.2-0.6s-0.3-0.4-0.5-0.6c-0.5-0.4-0.8-0.8-0.8-1.4c0-0.4,0.2-0.7,0.5-0.9s0.7-0.4,1.1-0.4c0.4,0,0.9,0.2,1.1,0.4
				c0.2,0.2,0.2,0.3,0.2,0.5c0,0.3-0.2,0.4-0.4,0.4c-0.2,0-0.4-0.2-0.4-0.4c0-0.1,0-0.2,0-0.2c0-0.1,0-0.2-0.1-0.3
				c-0.1-0.1-0.3-0.2-0.5-0.2c-0.4,0-0.7,0.2-0.7,0.6c0,0.3,0.3,0.7,0.8,1.1c0.3,0.2,0.4,0.4,0.6,0.6s0.3,0.5,0.3,0.8
				c0,0.4-0.2,0.8-0.5,1.1s-0.7,0.4-1.2,0.4c-0.3,0-0.6-0.1-0.9-0.2s-0.5-0.4-0.6-0.6c0-0.1-0.1-0.2-0.1-0.3
				C75.5,147,75.7,146.8,75.9,146.8z"/>
			<path fill="#FFFFFF" d="M79.5,148.3c0.5-1.7,0.9-3.1,1.1-4.1c0-0.1,0-0.1,0-0.1c0-0.1,0-0.2-0.1-0.2c-0.1,0-0.3,0.1-0.6,0.4
				l-0.1-0.1c0.5-0.5,1-0.8,1.4-0.8c0.3,0,0.5,0.2,0.5,0.5c0,0.2-0.1,0.6-0.3,1.3c0.2-0.4,0.5-0.8,0.8-1.2c0.4-0.4,0.8-0.7,1.3-0.7
				c0.5,0,0.7,0.3,0.7,0.8c0,0.1,0,0.2,0,0.4l-0.1,0.2c0.6-0.9,1.2-1.4,1.8-1.4c0.5,0,0.7,0.3,0.7,0.7c0,0.1,0,0.3-0.1,0.4
				c-0.1,0.3-0.2,0.6-0.3,0.8c-0.1,0.3-0.2,0.7-0.4,1.1l-0.3,0.9c0,0.1,0,0.1,0,0.2c0,0.1,0.1,0.2,0.2,0.2c0.1,0,0.4-0.1,0.8-0.5
				l0.1,0.1c-0.4,0.4-0.7,0.7-0.9,0.9c-0.2,0.2-0.4,0.2-0.6,0.2c-0.3,0-0.5-0.2-0.5-0.6c0-0.1,0-0.2,0.1-0.4c0.1-0.3,0.2-0.6,0.3-1
				c0.3-0.8,0.5-1.3,0.6-1.9c0-0.1,0-0.2,0-0.3c0-0.2-0.1-0.3-0.3-0.3c-0.2,0-0.5,0.2-0.9,0.7c-0.2,0.3-0.4,0.6-0.6,0.9
				c-0.2,0.3-0.3,0.7-0.5,1.2l-0.5,1.4c-0.1,0-0.2,0-0.4,0s-0.3,0-0.4,0H82c0.1-0.2,0.2-0.6,0.4-1.2s0.4-1,0.5-1.4
				c0.1-0.4,0.2-0.7,0.3-1c0-0.2,0.1-0.3,0.1-0.4c0-0.2-0.1-0.3-0.3-0.3c-0.2,0-0.5,0.3-0.9,0.8c-0.3,0.4-0.5,0.7-0.6,1.1
				c-0.2,0.4-0.3,0.9-0.5,1.5l-0.3,0.9h-0.1c-0.1,0-0.2,0-0.4,0s-0.3,0-0.4,0H79.5z"/>
			<path fill="#FFFFFF" d="M87.7,145c0.3-0.5,0.6-0.9,1-1.2c0.4-0.3,0.9-0.5,1.4-0.5c0.3,0,0.6,0.1,0.9,0.3c0.2,0.2,0.3,0.4,0.3,0.7
				c0,0.4-0.1,0.7-0.5,1c-0.3,0.3-0.9,0.5-1.8,0.5h-0.7c0,0.2-0.1,0.4-0.1,0.6c0,0.9,0.4,1.4,1,1.4c0.3,0,0.6-0.1,0.8-0.2
				s0.5-0.4,0.7-0.7l0.1,0.1c-0.5,0.9-1.2,1.5-2,1.5c-0.5,0-0.9-0.2-1.3-0.5c-0.3-0.3-0.5-0.8-0.5-1.4C87.4,146,87.5,145.5,87.7,145
				z M89,145.5c0.1,0,0.3,0,0.5-0.1c0.2,0,0.3-0.1,0.5-0.1c0.4-0.2,0.7-0.5,0.7-1.1c0-0.3-0.2-0.6-0.5-0.6c-0.8,0-1.4,1-1.6,1.9
				C88.7,145.5,88.9,145.5,89,145.5z"/>
			<path fill="#FFFFFF" d="M91.9,147.3l1.5-5.7l-0.7-0.2l0-0.2c0.4,0,0.7-0.1,0.9-0.1c0.3-0.1,0.5-0.2,0.8-0.3h0.2l-1.7,6.5
				c0,0.1,0,0.1,0,0.1c0,0.1,0.1,0.2,0.2,0.2c0.1,0,0.4-0.2,0.8-0.5l0.1,0.1c-0.6,0.7-1.2,1.1-1.6,1.1c-0.3,0-0.6-0.2-0.6-0.6
				C91.8,147.6,91.9,147.5,91.9,147.3z"/>
			<path fill="#FFFFFF" d="M94.8,147.3l1.5-5.7l-0.7-0.2l0-0.2c0.4,0,0.7-0.1,0.9-0.1c0.3-0.1,0.5-0.2,0.8-0.3h0.2l-1.7,6.5
				c0,0.1,0,0.1,0,0.1c0,0.1,0.1,0.2,0.2,0.2c0.1,0,0.4-0.2,0.8-0.5l0.1,0.1c-0.6,0.7-1.2,1.1-1.6,1.1c-0.3,0-0.6-0.2-0.6-0.6
				C94.7,147.6,94.7,147.5,94.8,147.3z"/>
			<path fill="#FFFFFF" d="M7.2,165.4c0.3-0.8,0.5-1.4,0.7-2h0.1c0.1,0,0.2,0,0.5,0c0.2,0,0.4,0,0.6,0h3.3c0.2,0,0.4,0,0.6,0
				c0.2,0,0.4,0,0.5,0h0.1c-0.1,0.5-0.2,1.1-0.2,2h-0.2c0-0.5-0.1-0.9-0.2-1.2c-0.1-0.3-0.4-0.4-0.8-0.4h-0.4c-0.2,0-0.4,0-0.5,0.1
				s-0.2,0.2-0.2,0.4l-1.3,5.4c0,0.1,0,0.2,0,0.2c0,0.3,0.2,0.4,0.5,0.4h0.6l-0.1,0.3h-0.3c-0.1,0-0.3,0-0.5,0s-0.4,0-0.5,0H8.6
				c-0.1,0-0.2,0-0.5,0c-0.2,0-0.4,0-0.5,0H7.3l0.1-0.3h0.5c0.5,0,0.7-0.2,0.8-0.7l1.3-5.3c0-0.1,0-0.1,0-0.2c0-0.2-0.2-0.3-0.6-0.3
				H9.2c-0.4,0-0.7,0.2-1,0.4c-0.3,0.3-0.6,0.7-0.8,1.2H7.2z"/>
			<path fill="#FFFFFF" d="M13.1,170.5l1.9-6.7l-0.7-0.2l0-0.2c0.4,0,0.7-0.1,0.9-0.1s0.5-0.2,0.8-0.3h0.2l-1.2,4.2
				c0.2-0.4,0.5-0.8,0.9-1.1c0.5-0.4,1-0.6,1.3-0.6c0.5,0,0.8,0.3,0.8,0.8c0,0.1,0,0.2,0,0.3c-0.1,0.5-0.4,1.4-0.9,2.8
				c0,0.1,0,0.1,0,0.2c0,0.1,0.1,0.2,0.2,0.2c0.1,0,0.4-0.1,0.8-0.5l0.1,0.1c-0.4,0.4-0.7,0.7-0.9,0.9c-0.2,0.2-0.4,0.2-0.6,0.2
				c-0.3,0-0.5-0.2-0.5-0.6c0-0.1,0-0.2,0.1-0.4l0.3-0.8c0.1-0.3,0.2-0.6,0.2-0.8c0.1-0.2,0.1-0.4,0.2-0.6c0.1-0.2,0.1-0.5,0.2-0.7
				c0-0.1,0-0.2,0-0.2c0-0.3-0.1-0.4-0.4-0.4c-0.3,0-0.6,0.3-1,0.7c-0.3,0.3-0.5,0.7-0.7,1.1c-0.2,0.4-0.4,0.9-0.6,1.6l-0.3,0.9H14
				c-0.1,0-0.2,0-0.4,0s-0.3,0-0.4,0H13.1z"/>
			<path fill="#FFFFFF" d="M19,169.6l0.9-3.1c0-0.1,0-0.1,0-0.2c0-0.1,0-0.2-0.2-0.2c-0.2,0-0.4,0.1-0.6,0.4l-0.1-0.2
				c0.5-0.5,1-0.8,1.4-0.8c0.3,0,0.5,0.2,0.5,0.5c0,0.1,0,0.4-0.2,0.8l-0.7,2.7c0,0.1,0,0.1,0,0.2c0,0.1,0,0.2,0.1,0.2
				c0.2,0,0.4-0.1,0.9-0.5l0.1,0.1c-0.4,0.4-0.7,0.7-0.9,0.9s-0.5,0.2-0.7,0.2c-0.3,0-0.5-0.2-0.5-0.6C18.9,169.9,19,169.7,19,169.6
				z M20.3,164.2c0-0.2,0.1-0.3,0.2-0.4c0.1-0.1,0.3-0.2,0.4-0.2s0.3,0.1,0.4,0.2c0.1,0.1,0.2,0.3,0.2,0.4s-0.1,0.3-0.2,0.4
				c-0.1,0.1-0.3,0.2-0.4,0.2s-0.3-0.1-0.4-0.2C20.3,164.6,20.3,164.4,20.3,164.2z"/>
			<path fill="#FFFFFF" d="M21.6,170.5c0.5-1.7,0.9-3,1.1-4.1c0-0.1,0-0.1,0-0.1c0-0.1,0-0.2-0.1-0.2c-0.1,0-0.3,0.1-0.6,0.4
				l-0.1-0.2c0.5-0.5,1-0.8,1.4-0.8c0.3,0,0.5,0.2,0.5,0.5c0,0.2-0.1,0.6-0.2,1.1c0.2-0.4,0.5-0.8,0.9-1.1c0.5-0.4,0.9-0.6,1.3-0.6
				c0.5,0,0.8,0.3,0.8,0.7c0,0.1,0,0.3-0.1,0.4l-0.2,0.7c-0.1,0.2-0.2,0.5-0.2,0.6l-0.3,0.8l-0.3,0.8c0,0.1,0,0.1,0,0.2
				c0,0.1,0.1,0.2,0.2,0.2c0.1,0,0.4-0.1,0.8-0.5l0.1,0.1c-0.4,0.4-0.7,0.7-0.9,0.9s-0.4,0.2-0.6,0.2c-0.3,0-0.6-0.2-0.6-0.6
				c0-0.1,0-0.2,0.1-0.4c0.4-1.2,0.6-2.2,0.8-2.8c0-0.1,0-0.2,0-0.2c0-0.2-0.1-0.4-0.3-0.4c-0.3,0-0.6,0.2-0.9,0.6
				c-0.2,0.2-0.3,0.3-0.3,0.4s-0.2,0.2-0.3,0.4c-0.2,0.4-0.4,1-0.7,1.8l-0.3,0.9h-0.1c-0.1,0-0.2,0-0.4,0s-0.3,0-0.4,0H21.6z"/>
			<path fill="#FFFFFF" d="M27.9,170.2c-0.4-0.2-0.5-0.4-0.5-0.7c0-0.4,0.2-0.7,0.6-1c-0.3-0.3-0.4-0.6-0.4-1c0-1,1-2,2-1.9
				c0.4,0,0.7,0.1,1,0.3c0.4-0.1,0.7-0.2,1-0.2c0.3,0,0.5,0.1,0.5,0.4c0,0.2-0.2,0.4-0.4,0.4c-0.2,0-0.3-0.1-0.4-0.2
				c-0.1-0.1-0.2-0.2-0.3-0.2c-0.1,0-0.2,0-0.3,0.1c0.2,0.2,0.3,0.6,0.3,0.9c0,1-1,1.9-2,1.9c-0.4,0-0.6-0.1-0.9-0.2
				c-0.1,0.1-0.2,0.3-0.2,0.4c0,0.2,0.1,0.3,0.4,0.4c0.1,0,0.2,0.1,0.4,0.1l0.4,0.1c0.3,0.1,0.6,0.2,0.9,0.3
				c0.2,0.1,0.5,0.3,0.6,0.4c0.2,0.2,0.3,0.4,0.3,0.7c0,0.3-0.1,0.6-0.3,0.9s-0.5,0.5-0.9,0.6c-0.4,0.2-0.7,0.2-1.1,0.2
				c-0.3,0-0.7,0-1-0.1c-0.3-0.1-0.5-0.2-0.7-0.4c-0.2-0.2-0.3-0.4-0.3-0.7C26.7,170.9,27.1,170.5,27.9,170.2z M28.6,172.5
				c1,0,1.4-0.4,1.4-1c0-0.2-0.1-0.4-0.2-0.5c-0.1-0.1-0.3-0.2-0.5-0.3c-0.2-0.1-0.4-0.1-0.6-0.2l-0.3-0.1l-0.3-0.1c0,0,0,0,0,0
				c-0.6,0.3-0.8,0.7-0.8,1.2C27.3,172.1,27.8,172.5,28.6,172.5z M29,168.5c0.2,0,0.4-0.1,0.6-0.3c0.3-0.4,0.5-1,0.5-1.6
				c0-0.5-0.2-0.8-0.6-0.8c-0.2,0-0.4,0.1-0.6,0.3c-0.3,0.4-0.5,1-0.5,1.6C28.5,168.3,28.7,168.5,29,168.5z"/>
			<path fill="#FFFFFF" d="M32.4,169c0.2,0,0.4,0.2,0.4,0.6c0,0.2,0,0.3,0.1,0.4c0.1,0.2,0.3,0.3,0.5,0.3c0.5,0,0.7-0.3,0.7-0.8
				c0-0.2-0.1-0.4-0.2-0.6s-0.3-0.4-0.5-0.6c-0.5-0.4-0.8-0.8-0.8-1.4c0-0.4,0.2-0.7,0.5-0.9s0.7-0.4,1.1-0.4c0.4,0,0.9,0.2,1.1,0.4
				c0.2,0.2,0.2,0.3,0.2,0.5c0,0.3-0.2,0.4-0.4,0.4c-0.2,0-0.4-0.2-0.4-0.4c0-0.1,0-0.2,0-0.2c0-0.1,0-0.2-0.1-0.3
				c-0.1-0.1-0.3-0.2-0.5-0.2c-0.4,0-0.7,0.2-0.7,0.6c0,0.3,0.3,0.7,0.8,1.1c0.3,0.2,0.4,0.4,0.6,0.6s0.3,0.5,0.3,0.8
				c0,0.4-0.2,0.8-0.5,1.1s-0.7,0.4-1.2,0.4c-0.3,0-0.6-0.1-0.9-0.2s-0.5-0.4-0.6-0.6c0-0.1-0.1-0.2-0.1-0.3
				C31.9,169.2,32.1,169,32.4,169z"/>
			<path fill="#FFFFFF" d="M38.9,171.8c0.1,0,0.2,0,0.3,0.1c0.1,0.1,0.2,0.1,0.3,0.1c0.1,0,0.2,0,0.3-0.1c0.1,0,0.2-0.2,0.3-0.3
				c0.4-0.5,0.7-0.9,0.9-1.2h-0.3c-0.1-1.6-0.4-2.9-0.8-3.9c-0.1-0.3-0.2-0.4-0.4-0.4c-0.1,0-0.3,0.1-0.6,0.4l-0.1-0.2
				c0.4-0.5,0.9-0.8,1.4-0.8c0.3,0,0.6,0.2,0.7,0.6c0.3,0.9,0.5,2,0.6,3.5c0.8-1.2,1.2-2.2,1.2-2.8c0-0.2,0-0.3-0.1-0.5
				c-0.1-0.2-0.1-0.3-0.1-0.3c0-0.6,0.9-0.6,0.9,0c0,0.3-0.1,0.7-0.3,1.3c-0.2,0.5-0.5,1-0.8,1.6c-0.7,1.1-1.5,2.2-2.3,3.2
				c-0.4,0.5-0.8,0.7-1.2,0.7c-0.1,0-0.2,0-0.4-0.1s-0.2-0.2-0.2-0.3C38.4,172,38.6,171.8,38.9,171.8z"/>
			<path fill="#FFFFFF" d="M44.3,167.2c0.2-0.5,0.6-0.9,1-1.2s0.9-0.4,1.4-0.4c0.5,0,0.9,0.2,1.2,0.5s0.5,0.8,0.5,1.3
				s-0.1,1.1-0.4,1.5c-0.2,0.5-0.6,0.9-1,1.2c-0.4,0.3-0.9,0.4-1.4,0.4s-0.9-0.2-1.2-0.5c-0.3-0.3-0.5-0.8-0.5-1.3
				C43.9,168.2,44,167.7,44.3,167.2z M45.6,170.2c0.2,0,0.5-0.1,0.7-0.3c0.2-0.2,0.4-0.5,0.5-0.8s0.2-0.7,0.3-1
				c0.1-0.3,0.1-0.7,0.1-0.9c0-0.8-0.2-1.3-0.7-1.3c-0.4,0-0.8,0.3-1,0.8c-0.4,0.7-0.6,1.7-0.6,2.3
				C44.9,169.8,45.2,170.2,45.6,170.2z"/>
			<path fill="#FFFFFF" d="M48.9,166.4c0.5-0.5,1-0.8,1.4-0.8c0.3,0,0.5,0.2,0.5,0.5c0,0.1,0,0.4-0.2,0.7c-0.1,0.3-0.2,0.6-0.3,1.1
				c-0.1,0.5-0.3,0.9-0.4,1.3c0,0.1,0,0.2,0,0.2c0,0.2,0.1,0.4,0.3,0.4c0.3,0,0.6-0.3,1-0.8c0.2-0.2,0.3-0.4,0.4-0.6
				c0.2-0.3,0.5-1,0.8-2l0.3-0.9h0.1c0.1,0,0.2,0,0.4,0c0.2,0,0.3,0,0.4,0h0.1l-1.1,3.9c0,0.1,0,0.2,0,0.2c0,0.1,0.1,0.1,0.1,0.1
				c0.2,0,0.4-0.1,0.9-0.5l0.1,0.1c-0.4,0.4-0.7,0.7-0.9,0.9c-0.2,0.2-0.5,0.2-0.7,0.2c-0.3,0-0.6-0.2-0.6-0.6c0-0.1,0-0.2,0-0.3
				l0.2-0.9c-0.3,0.5-0.6,1-0.9,1.2c-0.5,0.4-0.9,0.6-1.3,0.6c-0.5,0-0.8-0.3-0.8-0.8c0-0.1,0-0.2,0-0.4c0.1-0.3,0.3-1.3,0.8-2.9
				c0-0.1,0-0.1,0-0.2c0-0.1,0-0.2-0.2-0.2c-0.2,0-0.4,0.1-0.6,0.4L48.9,166.4z"/>
			<path fill="#FFFFFF" d="M57.6,167.5c0.2-0.4,0.4-0.7,0.6-1s0.6-0.5,0.9-0.7s0.7-0.2,1-0.2c0.4,0,0.7,0.1,1,0.3s0.4,0.4,0.4,0.8
				c0,0.4-0.2,0.5-0.5,0.5c-0.2,0-0.4-0.2-0.4-0.4c0-0.1,0-0.2,0.1-0.3s0.1-0.2,0.1-0.3c0-0.2-0.3-0.3-0.6-0.3
				c-0.4,0-0.9,0.3-1.2,0.8c-0.2,0.2-0.3,0.5-0.5,0.9c-0.1,0.3-0.2,0.7-0.2,1.1c0,0.5,0.2,0.8,0.4,1c0.2,0.2,0.5,0.3,0.8,0.3
				c0.5,0,1-0.3,1.4-0.9l0.2,0.1c-0.4,0.9-1.2,1.5-2.1,1.5c-0.5,0-0.9-0.2-1.3-0.5c-0.3-0.3-0.5-0.8-0.5-1.3
				C57.3,168.3,57.4,167.9,57.6,167.5z"/>
			<path fill="#FFFFFF" d="M62.2,167.9c0.2-0.5,0.4-0.9,0.7-1.2c0.3-0.3,0.6-0.6,0.9-0.8c0.4-0.2,0.7-0.3,1-0.3
				c0.4,0,0.7,0.2,0.8,0.6l0.1-0.4c0.1,0,0.3,0,0.4,0s0.3,0,0.4,0h0.2l-1.1,3.9c0,0.1,0,0.2,0,0.2c0,0.1,0.1,0.1,0.2,0.1
				c0.1,0,0.4-0.1,0.8-0.5l0.1,0.1c-0.4,0.4-0.7,0.7-0.9,0.9c-0.2,0.1-0.4,0.2-0.6,0.2c-0.4,0-0.6-0.3-0.6-0.7c0-0.1,0-0.3,0.1-0.5
				c-0.2,0.4-0.5,0.7-0.8,0.9c-0.3,0.2-0.6,0.3-1,0.3c-0.7,0-1-0.5-1-1.2C61.9,168.9,62,168.4,62.2,167.9z M63.5,169.9
				c0.3,0,0.6-0.2,0.9-0.6c0.3-0.4,0.6-1,0.8-1.8l0.2-0.5c0.1-0.2,0.1-0.4,0.1-0.5c0-0.4-0.2-0.6-0.5-0.6c-0.3,0-0.6,0.2-1,0.5
				c-0.3,0.4-0.6,0.8-0.8,1.3c-0.2,0.5-0.3,1-0.3,1.4C62.9,169.7,63.1,169.9,63.5,169.9z"/>
			<path fill="#FFFFFF" d="M67.3,170.5c0.5-1.7,0.9-3,1.1-4.1c0-0.1,0-0.1,0-0.1c0-0.1,0-0.2-0.1-0.2c-0.1,0-0.3,0.1-0.6,0.4
				l-0.1-0.2c0.5-0.5,1-0.8,1.4-0.8c0.3,0,0.5,0.2,0.5,0.5c0,0.2-0.1,0.6-0.2,1.1c0.2-0.4,0.5-0.8,0.9-1.1c0.5-0.4,0.9-0.6,1.3-0.6
				c0.5,0,0.8,0.3,0.8,0.7c0,0.1,0,0.3-0.1,0.4l-0.2,0.7c-0.1,0.2-0.2,0.5-0.2,0.6l-0.3,0.8l-0.3,0.8c0,0.1,0,0.1,0,0.2
				c0,0.1,0.1,0.2,0.2,0.2c0.1,0,0.4-0.1,0.8-0.5l0.1,0.1c-0.4,0.4-0.7,0.7-0.9,0.9s-0.4,0.2-0.6,0.2c-0.3,0-0.6-0.2-0.6-0.6
				c0-0.1,0-0.2,0.1-0.4c0.4-1.2,0.6-2.2,0.8-2.8c0-0.1,0-0.2,0-0.2c0-0.2-0.1-0.4-0.3-0.4c-0.3,0-0.6,0.2-0.9,0.6
				c-0.2,0.2-0.3,0.3-0.3,0.4s-0.2,0.2-0.3,0.4c-0.2,0.4-0.4,1-0.7,1.8l-0.3,0.9h-0.1c-0.1,0-0.2,0-0.4,0s-0.3,0-0.4,0H67.3z"/>
			<path fill="#FFFFFF" d="M74,171.9c0.2,0,0.3,0.1,0.4,0.3c0.1,0.2,0.3,0.3,0.5,0.3c0.6,0,0.9-0.5,1-1.6l0.7-4.5
				c0-0.1,0-0.2,0.1-0.4h-0.6l0.1-0.3h0.6c0.2-0.7,0.6-1.3,1.1-1.8c0.6-0.5,1.2-0.8,1.7-0.8c0.4,0,0.7,0.2,0.7,0.5
				c0,0.3-0.2,0.5-0.4,0.5c-0.1,0-0.2,0-0.3-0.1c0,0-0.1-0.1-0.1-0.2c-0.1-0.2-0.2-0.2-0.4-0.2c-0.2,0-0.5,0.1-0.7,0.4
				c-0.1,0.2-0.2,0.4-0.3,0.6s-0.2,0.6-0.2,1.2h0.9l-0.1,0.3h-0.9l-0.1,0.3l-0.1,0.3l-1,4.1c-0.3,1.4-1,2-2,2c-0.3,0-0.5,0-0.7-0.1
				s-0.3-0.2-0.3-0.4C73.6,172,73.8,171.9,74,171.9z"/>
			<path fill="#FFFFFF" d="M79,167.2c0.3-0.5,0.6-0.9,1-1.2c0.4-0.3,0.9-0.5,1.4-0.5c0.3,0,0.6,0.1,0.9,0.3c0.2,0.2,0.3,0.4,0.3,0.7
				c0,0.4-0.1,0.7-0.5,1c-0.3,0.3-0.9,0.5-1.8,0.5h-0.7c0,0.2-0.1,0.4-0.1,0.6c0,0.9,0.4,1.4,1,1.4c0.3,0,0.6-0.1,0.8-0.2
				s0.5-0.4,0.7-0.7l0.1,0.1c-0.5,0.9-1.2,1.5-2,1.5c-0.5,0-0.9-0.2-1.3-0.5c-0.3-0.3-0.5-0.8-0.5-1.4
				C78.6,168.2,78.7,167.7,79,167.2z M80.3,167.7c0.1,0,0.3,0,0.5-0.1c0.2,0,0.3-0.1,0.5-0.1c0.4-0.2,0.7-0.5,0.7-1.1
				c0-0.3-0.2-0.6-0.5-0.6c-0.8,0-1.4,1-1.6,1.9C80,167.7,80.1,167.7,80.3,167.7z"/>
			<path fill="#FFFFFF" d="M83.5,167.2c0.3-0.5,0.6-0.9,1-1.2c0.4-0.3,0.9-0.5,1.4-0.5c0.3,0,0.6,0.1,0.9,0.3
				c0.2,0.2,0.3,0.4,0.3,0.7c0,0.4-0.1,0.7-0.5,1c-0.3,0.3-0.9,0.5-1.8,0.5h-0.7c0,0.2-0.1,0.4-0.1,0.6c0,0.9,0.4,1.4,1,1.4
				c0.3,0,0.6-0.1,0.8-0.2s0.5-0.4,0.7-0.7l0.1,0.1c-0.5,0.9-1.2,1.5-2,1.5c-0.5,0-0.9-0.2-1.3-0.5c-0.3-0.3-0.5-0.8-0.5-1.4
				C83.1,168.2,83.2,167.7,83.5,167.2z M84.8,167.7c0.1,0,0.3,0,0.5-0.1c0.2,0,0.3-0.1,0.5-0.1c0.4-0.2,0.7-0.5,0.7-1.1
				c0-0.3-0.2-0.6-0.5-0.6c-0.8,0-1.4,1-1.6,1.9C84.5,167.7,84.6,167.7,84.8,167.7z"/>
			<path fill="#FFFFFF" d="M87.7,169.5l1.5-5.7l-0.7-0.2l0-0.2c0.4,0,0.7-0.1,0.9-0.1c0.3-0.1,0.5-0.2,0.8-0.3h0.2l-1.7,6.5
				c0,0.1,0,0.1,0,0.1c0,0.1,0.1,0.2,0.2,0.2c0.1,0,0.4-0.2,0.8-0.5l0.1,0.1c-0.6,0.7-1.2,1.1-1.6,1.1c-0.3,0-0.6-0.2-0.6-0.6
				C87.6,169.9,87.6,169.7,87.7,169.5z"/>
			<path fill="#FFFFFF" d="M7.2,187.6c0.3-0.8,0.5-1.4,0.7-2h0.1c0.1,0,0.2,0,0.5,0c0.2,0,0.4,0,0.6,0h3.3c0.2,0,0.4,0,0.6,0
				c0.2,0,0.4,0,0.5,0h0.1c-0.1,0.5-0.2,1.1-0.2,2h-0.2c0-0.5-0.1-0.9-0.2-1.2c-0.1-0.3-0.4-0.4-0.8-0.4h-0.4c-0.2,0-0.4,0-0.5,0.1
				s-0.2,0.2-0.2,0.4l-1.3,5.4c0,0.1,0,0.2,0,0.2c0,0.3,0.2,0.4,0.5,0.4h0.6l-0.1,0.3h-0.3c-0.1,0-0.3,0-0.5,0s-0.4,0-0.5,0H8.6
				c-0.1,0-0.2,0-0.5,0c-0.2,0-0.4,0-0.5,0H7.3l0.1-0.3h0.5c0.5,0,0.7-0.2,0.8-0.7l1.3-5.3c0-0.1,0-0.1,0-0.2c0-0.2-0.2-0.3-0.6-0.3
				H9.2c-0.4,0-0.7,0.2-1,0.4c-0.3,0.3-0.6,0.7-0.8,1.2H7.2z"/>
			<path fill="#FFFFFF" d="M13.1,192.7l1.9-6.7l-0.7-0.2l0-0.2c0.4,0,0.7-0.1,0.9-0.1s0.5-0.2,0.8-0.3h0.2l-1.2,4.2
				c0.2-0.4,0.5-0.8,0.9-1.1c0.5-0.4,1-0.6,1.3-0.6c0.5,0,0.8,0.3,0.8,0.8c0,0.1,0,0.2,0,0.3c-0.1,0.5-0.4,1.4-0.9,2.8
				c0,0.1,0,0.1,0,0.2c0,0.1,0.1,0.2,0.2,0.2c0.1,0,0.4-0.1,0.8-0.5l0.1,0.1c-0.4,0.4-0.7,0.7-0.9,0.9c-0.2,0.2-0.4,0.2-0.6,0.2
				c-0.3,0-0.5-0.2-0.5-0.6c0-0.1,0-0.2,0.1-0.4l0.3-0.8c0.1-0.3,0.2-0.6,0.2-0.8c0.1-0.2,0.1-0.4,0.2-0.6c0.1-0.2,0.1-0.5,0.2-0.7
				c0-0.1,0-0.2,0-0.2c0-0.3-0.1-0.4-0.4-0.4c-0.3,0-0.6,0.3-1,0.7c-0.3,0.3-0.5,0.7-0.7,1.1c-0.2,0.4-0.4,0.9-0.6,1.6l-0.3,0.9H14
				c-0.1,0-0.2,0-0.4,0s-0.3,0-0.4,0H13.1z"/>
			<path fill="#FFFFFF" d="M19,191.8l0.9-3.1c0-0.1,0-0.1,0-0.2c0-0.1,0-0.2-0.2-0.2c-0.2,0-0.4,0.1-0.6,0.4l-0.1-0.2
				c0.5-0.5,1-0.8,1.4-0.8c0.3,0,0.5,0.2,0.5,0.5c0,0.1,0,0.4-0.2,0.8l-0.7,2.7c0,0.1,0,0.1,0,0.2c0,0.1,0,0.2,0.1,0.2
				c0.2,0,0.4-0.1,0.9-0.5l0.1,0.1c-0.4,0.4-0.7,0.7-0.9,0.9s-0.5,0.2-0.7,0.2c-0.3,0-0.5-0.2-0.5-0.6C18.9,192.1,19,192,19,191.8z
				 M20.3,186.5c0-0.2,0.1-0.3,0.2-0.4c0.1-0.1,0.3-0.2,0.4-0.2s0.3,0.1,0.4,0.2c0.1,0.1,0.2,0.3,0.2,0.4s-0.1,0.3-0.2,0.4
				c-0.1,0.1-0.3,0.2-0.4,0.2s-0.3-0.1-0.4-0.2C20.3,186.8,20.3,186.6,20.3,186.5z"/>
			<path fill="#FFFFFF" d="M21.6,192.7c0.5-1.7,0.9-3,1.1-4.1c0-0.1,0-0.1,0-0.1c0-0.1,0-0.2-0.1-0.2c-0.1,0-0.3,0.1-0.6,0.4
				l-0.1-0.2c0.5-0.5,1-0.8,1.4-0.8c0.3,0,0.5,0.2,0.5,0.5c0,0.2-0.1,0.6-0.2,1.1c0.2-0.4,0.5-0.8,0.9-1.1c0.5-0.4,0.9-0.6,1.3-0.6
				c0.5,0,0.8,0.3,0.8,0.7c0,0.1,0,0.3-0.1,0.4l-0.2,0.7c-0.1,0.2-0.2,0.5-0.2,0.6l-0.3,0.8l-0.3,0.8c0,0.1,0,0.1,0,0.2
				c0,0.1,0.1,0.2,0.2,0.2c0.1,0,0.4-0.1,0.8-0.5l0.1,0.1c-0.4,0.4-0.7,0.7-0.9,0.9s-0.4,0.2-0.6,0.2c-0.3,0-0.6-0.2-0.6-0.6
				c0-0.1,0-0.2,0.1-0.4c0.4-1.2,0.6-2.2,0.8-2.8c0-0.1,0-0.2,0-0.2c0-0.2-0.1-0.4-0.3-0.4c-0.3,0-0.6,0.2-0.9,0.6
				c-0.2,0.2-0.3,0.3-0.3,0.4s-0.2,0.2-0.3,0.4c-0.2,0.4-0.4,1-0.7,1.8l-0.3,0.9h-0.1c-0.1,0-0.2,0-0.4,0s-0.3,0-0.4,0H21.6z"/>
			<path fill="#FFFFFF" d="M27.9,192.4c-0.4-0.2-0.5-0.4-0.5-0.7c0-0.4,0.2-0.7,0.6-1c-0.3-0.3-0.4-0.6-0.4-1c0-1,1-2,2-1.9
				c0.4,0,0.7,0.1,1,0.3c0.4-0.1,0.7-0.2,1-0.2c0.3,0,0.5,0.1,0.5,0.4c0,0.2-0.2,0.4-0.4,0.4c-0.2,0-0.3-0.1-0.4-0.2
				c-0.1-0.1-0.2-0.2-0.3-0.2c-0.1,0-0.2,0-0.3,0.1c0.2,0.2,0.3,0.6,0.3,0.9c0,1-1,1.9-2,1.9c-0.4,0-0.6-0.1-0.9-0.2
				c-0.1,0.1-0.2,0.3-0.2,0.4c0,0.2,0.1,0.3,0.4,0.4c0.1,0,0.2,0.1,0.4,0.1l0.4,0.1c0.3,0.1,0.6,0.2,0.9,0.3
				c0.2,0.1,0.5,0.3,0.6,0.4c0.2,0.2,0.3,0.4,0.3,0.7c0,0.3-0.1,0.6-0.3,0.9s-0.5,0.5-0.9,0.6c-0.4,0.2-0.7,0.2-1.1,0.2
				c-0.3,0-0.7,0-1-0.1c-0.3-0.1-0.5-0.2-0.7-0.4c-0.2-0.2-0.3-0.4-0.3-0.7C26.7,193.2,27.1,192.7,27.9,192.4z M28.6,194.7
				c1,0,1.4-0.4,1.4-1c0-0.2-0.1-0.4-0.2-0.5c-0.1-0.1-0.3-0.2-0.5-0.3c-0.2-0.1-0.4-0.1-0.6-0.2l-0.3-0.1l-0.3-0.1c0,0,0,0,0,0
				c-0.6,0.3-0.8,0.7-0.8,1.2C27.3,194.3,27.8,194.7,28.6,194.7z M29,190.8c0.2,0,0.4-0.1,0.6-0.3c0.3-0.4,0.5-1,0.5-1.6
				c0-0.5-0.2-0.8-0.6-0.8c-0.2,0-0.4,0.1-0.6,0.3c-0.3,0.4-0.5,1-0.5,1.6C28.5,190.5,28.7,190.8,29,190.8z"/>
			<path fill="#FFFFFF" d="M32.4,191.2c0.2,0,0.4,0.2,0.4,0.6c0,0.2,0,0.3,0.1,0.4c0.1,0.2,0.3,0.3,0.5,0.3c0.5,0,0.7-0.3,0.7-0.8
				c0-0.2-0.1-0.4-0.2-0.6s-0.3-0.4-0.5-0.6c-0.5-0.4-0.8-0.8-0.8-1.4c0-0.4,0.2-0.7,0.5-0.9s0.7-0.4,1.1-0.4c0.4,0,0.9,0.2,1.1,0.4
				c0.2,0.2,0.2,0.3,0.2,0.5c0,0.3-0.2,0.4-0.4,0.4c-0.2,0-0.4-0.2-0.4-0.4c0-0.1,0-0.2,0-0.2c0-0.1,0-0.2-0.1-0.3
				c-0.1-0.1-0.3-0.2-0.5-0.2c-0.4,0-0.7,0.2-0.7,0.6c0,0.3,0.3,0.7,0.8,1.1c0.3,0.2,0.4,0.4,0.6,0.6s0.3,0.5,0.3,0.8
				c0,0.4-0.2,0.8-0.5,1.1s-0.7,0.4-1.2,0.4c-0.3,0-0.6-0.1-0.9-0.2s-0.5-0.4-0.6-0.6c0-0.1-0.1-0.2-0.1-0.3
				C31.9,191.4,32.1,191.2,32.4,191.2z"/>
			<path fill="#FFFFFF" d="M38.9,194c0.1,0,0.2,0,0.3,0.1c0.1,0.1,0.2,0.1,0.3,0.1c0.1,0,0.2,0,0.3-0.1c0.1,0,0.2-0.2,0.3-0.3
				c0.4-0.5,0.7-0.9,0.9-1.2h-0.3c-0.1-1.6-0.4-2.9-0.8-3.9c-0.1-0.3-0.2-0.4-0.4-0.4c-0.1,0-0.3,0.1-0.6,0.4l-0.1-0.2
				c0.4-0.5,0.9-0.8,1.4-0.8c0.3,0,0.6,0.2,0.7,0.6c0.3,0.9,0.5,2,0.6,3.5c0.8-1.2,1.2-2.2,1.2-2.8c0-0.2,0-0.3-0.1-0.5
				c-0.1-0.2-0.1-0.3-0.1-0.3c0-0.6,0.9-0.6,0.9,0c0,0.3-0.1,0.7-0.3,1.3c-0.2,0.5-0.5,1-0.8,1.6c-0.7,1.1-1.5,2.2-2.3,3.2
				c-0.4,0.5-0.8,0.7-1.2,0.7c-0.1,0-0.2,0-0.4-0.1s-0.2-0.2-0.2-0.3C38.4,194.2,38.6,194,38.9,194z"/>
			<path fill="#FFFFFF" d="M44.3,189.4c0.2-0.5,0.6-0.9,1-1.2s0.9-0.4,1.4-0.4c0.5,0,0.9,0.2,1.2,0.5s0.5,0.8,0.5,1.3
				s-0.1,1.1-0.4,1.5c-0.2,0.5-0.6,0.9-1,1.2c-0.4,0.3-0.9,0.4-1.4,0.4s-0.9-0.2-1.2-0.5c-0.3-0.3-0.5-0.8-0.5-1.3
				C43.9,190.4,44,189.9,44.3,189.4z M45.6,192.5c0.2,0,0.5-0.1,0.7-0.3c0.2-0.2,0.4-0.5,0.5-0.8s0.2-0.7,0.3-1
				c0.1-0.3,0.1-0.7,0.1-0.9c0-0.8-0.2-1.3-0.7-1.3c-0.4,0-0.8,0.3-1,0.8c-0.4,0.7-0.6,1.7-0.6,2.3C44.9,192,45.2,192.5,45.6,192.5z
				"/>
			<path fill="#FFFFFF" d="M48.9,188.6c0.5-0.5,1-0.8,1.4-0.8c0.3,0,0.5,0.2,0.5,0.5c0,0.1,0,0.4-0.2,0.7c-0.1,0.3-0.2,0.6-0.3,1.1
				c-0.1,0.5-0.3,0.9-0.4,1.3c0,0.1,0,0.2,0,0.2c0,0.2,0.1,0.4,0.3,0.4c0.3,0,0.6-0.3,1-0.8c0.2-0.2,0.3-0.4,0.4-0.6
				c0.2-0.3,0.5-1,0.8-2l0.3-0.9h0.1c0.1,0,0.2,0,0.4,0c0.2,0,0.3,0,0.4,0h0.1l-1.1,3.9c0,0.1,0,0.2,0,0.2c0,0.1,0.1,0.1,0.1,0.1
				c0.2,0,0.4-0.1,0.9-0.5l0.1,0.1c-0.4,0.4-0.7,0.7-0.9,0.9c-0.2,0.2-0.5,0.2-0.7,0.2c-0.3,0-0.6-0.2-0.6-0.6c0-0.1,0-0.2,0-0.3
				l0.2-0.9c-0.3,0.5-0.6,1-0.9,1.2c-0.5,0.4-0.9,0.6-1.3,0.6c-0.5,0-0.8-0.3-0.8-0.8c0-0.1,0-0.2,0-0.4c0.1-0.3,0.3-1.3,0.8-2.9
				c0-0.1,0-0.1,0-0.2c0-0.1,0-0.2-0.2-0.2c-0.2,0-0.4,0.1-0.6,0.4L48.9,188.6z"/>
			<path fill="#FFFFFF" d="M57.6,189.7c0.2-0.4,0.4-0.7,0.6-1s0.6-0.5,0.9-0.7s0.7-0.2,1-0.2c0.4,0,0.7,0.1,1,0.3s0.4,0.4,0.4,0.8
				c0,0.4-0.2,0.5-0.5,0.5c-0.2,0-0.4-0.2-0.4-0.4c0-0.1,0-0.2,0.1-0.3s0.1-0.2,0.1-0.3c0-0.2-0.3-0.3-0.6-0.3
				c-0.4,0-0.9,0.3-1.2,0.8c-0.2,0.2-0.3,0.5-0.5,0.9c-0.1,0.3-0.2,0.7-0.2,1.1c0,0.5,0.2,0.8,0.4,1c0.2,0.2,0.5,0.3,0.8,0.3
				c0.5,0,1-0.3,1.4-0.9l0.2,0.1c-0.4,0.9-1.2,1.5-2.1,1.5c-0.5,0-0.9-0.2-1.3-0.5c-0.3-0.3-0.5-0.8-0.5-1.3
				C57.3,190.5,57.4,190.1,57.6,189.7z"/>
			<path fill="#FFFFFF" d="M62.2,190.2c0.2-0.5,0.4-0.9,0.7-1.2c0.3-0.3,0.6-0.6,0.9-0.8c0.4-0.2,0.7-0.3,1-0.3
				c0.4,0,0.7,0.2,0.8,0.6l0.1-0.4c0.1,0,0.3,0,0.4,0s0.3,0,0.4,0h0.2l-1.1,3.9c0,0.1,0,0.2,0,0.2c0,0.1,0.1,0.1,0.2,0.1
				c0.1,0,0.4-0.1,0.8-0.5l0.1,0.1c-0.4,0.4-0.7,0.7-0.9,0.9c-0.2,0.1-0.4,0.2-0.6,0.2c-0.4,0-0.6-0.3-0.6-0.7c0-0.1,0-0.3,0.1-0.5
				c-0.2,0.4-0.5,0.7-0.8,0.9c-0.3,0.2-0.6,0.3-1,0.3c-0.7,0-1-0.5-1-1.2C61.9,191.1,62,190.6,62.2,190.2z M63.5,192.2
				c0.3,0,0.6-0.2,0.9-0.6c0.3-0.4,0.6-1,0.8-1.8l0.2-0.5c0.1-0.2,0.1-0.4,0.1-0.5c0-0.4-0.2-0.6-0.5-0.6c-0.3,0-0.6,0.2-1,0.5
				c-0.3,0.4-0.6,0.8-0.8,1.3c-0.2,0.5-0.3,1-0.3,1.4C62.9,191.9,63.1,192.2,63.5,192.2z"/>
			<path fill="#FFFFFF" d="M67.3,192.7c0.5-1.7,0.9-3,1.1-4.1c0-0.1,0-0.1,0-0.1c0-0.1,0-0.2-0.1-0.2c-0.1,0-0.3,0.1-0.6,0.4
				l-0.1-0.2c0.5-0.5,1-0.8,1.4-0.8c0.3,0,0.5,0.2,0.5,0.5c0,0.2-0.1,0.6-0.2,1.1c0.2-0.4,0.5-0.8,0.9-1.1c0.5-0.4,0.9-0.6,1.3-0.6
				c0.5,0,0.8,0.3,0.8,0.7c0,0.1,0,0.3-0.1,0.4l-0.2,0.7c-0.1,0.2-0.2,0.5-0.2,0.6l-0.3,0.8l-0.3,0.8c0,0.1,0,0.1,0,0.2
				c0,0.1,0.1,0.2,0.2,0.2c0.1,0,0.4-0.1,0.8-0.5l0.1,0.1c-0.4,0.4-0.7,0.7-0.9,0.9s-0.4,0.2-0.6,0.2c-0.3,0-0.6-0.2-0.6-0.6
				c0-0.1,0-0.2,0.1-0.4c0.4-1.2,0.6-2.2,0.8-2.8c0-0.1,0-0.2,0-0.2c0-0.2-0.1-0.4-0.3-0.4c-0.3,0-0.6,0.2-0.9,0.6
				c-0.2,0.2-0.3,0.3-0.3,0.4s-0.2,0.2-0.3,0.4c-0.2,0.4-0.4,1-0.7,1.8l-0.3,0.9h-0.1c-0.1,0-0.2,0-0.4,0s-0.3,0-0.4,0H67.3z"/>
			<path fill="#FFFFFF" d="M75.7,191.8c0.5-1.6,0.8-2.8,1.1-3.6H76l0.1-0.3h0.8l0.4-1.3c0.1,0,0.3,0,0.4,0c0.2,0,0.3,0,0.4,0h0.1
				l-0.4,1.4h0.9l-0.1,0.3h-0.9l-1,3.5c0,0.1,0,0.2,0,0.3c0,0.1,0.1,0.1,0.2,0.1c0.1,0,0.3-0.1,0.4-0.2s0.4-0.3,0.7-0.5l0.1,0.1
				c-0.4,0.5-0.7,0.8-1,1c-0.3,0.2-0.5,0.3-0.8,0.3c-0.4,0-0.7-0.3-0.7-0.7C75.7,192,75.7,191.9,75.7,191.8z"/>
			<path fill="#FFFFFF" d="M79,190.2c0.2-0.5,0.4-0.9,0.7-1.2c0.3-0.3,0.6-0.6,0.9-0.8s0.7-0.3,1-0.3c0.4,0,0.7,0.2,0.8,0.6l0.1-0.4
				c0.1,0,0.3,0,0.4,0s0.3,0,0.4,0h0.2l-1.1,3.9c0,0.1,0,0.2,0,0.2c0,0.1,0.1,0.1,0.2,0.1c0.1,0,0.4-0.1,0.8-0.5l0.1,0.1
				c-0.4,0.4-0.7,0.7-0.9,0.9c-0.2,0.1-0.4,0.2-0.6,0.2c-0.4,0-0.6-0.3-0.6-0.7c0-0.1,0-0.3,0.1-0.5c-0.2,0.4-0.5,0.7-0.8,0.9
				s-0.6,0.3-1,0.3c-0.7,0-1-0.5-1-1.2C78.7,191.1,78.8,190.6,79,190.2z M80.3,192.2c0.3,0,0.6-0.2,0.9-0.6c0.3-0.4,0.6-1,0.8-1.8
				l0.2-0.5c0.1-0.2,0.1-0.4,0.1-0.5c0-0.4-0.2-0.6-0.5-0.6c-0.3,0-0.6,0.2-1,0.5s-0.6,0.8-0.8,1.3c-0.2,0.5-0.3,1-0.3,1.4
				C79.7,191.9,79.9,192.2,80.3,192.2z"/>
			<path fill="#FFFFFF" d="M84.5,191.2c0.2,0,0.4,0.2,0.4,0.6c0,0.2,0,0.3,0.1,0.4c0.1,0.2,0.3,0.3,0.5,0.3c0.5,0,0.7-0.3,0.7-0.8
				c0-0.2-0.1-0.4-0.2-0.6s-0.3-0.4-0.5-0.6c-0.5-0.4-0.8-0.8-0.8-1.4c0-0.4,0.2-0.7,0.5-0.9s0.7-0.4,1.1-0.4c0.4,0,0.9,0.2,1.1,0.4
				c0.2,0.2,0.2,0.3,0.2,0.5c0,0.3-0.2,0.4-0.4,0.4c-0.2,0-0.4-0.2-0.4-0.4c0-0.1,0-0.2,0-0.2c0-0.1,0-0.2-0.1-0.3
				c-0.1-0.1-0.3-0.2-0.5-0.2c-0.4,0-0.7,0.2-0.7,0.6c0,0.3,0.3,0.7,0.8,1.1c0.3,0.2,0.4,0.4,0.6,0.6s0.3,0.5,0.3,0.8
				c0,0.4-0.2,0.8-0.5,1.1s-0.7,0.4-1.2,0.4c-0.3,0-0.6-0.1-0.9-0.2s-0.5-0.4-0.6-0.6c0-0.1-0.1-0.2-0.1-0.3
				C84.1,191.4,84.3,191.2,84.5,191.2z"/>
			<path fill="#FFFFFF" d="M88.3,191.8c0.5-1.6,0.8-2.8,1.1-3.6h-0.8l0.1-0.3h0.8l0.4-1.3c0.1,0,0.3,0,0.4,0c0.2,0,0.3,0,0.4,0h0.1
				l-0.4,1.4h0.9l-0.1,0.3h-0.9l-1,3.5c0,0.1,0,0.2,0,0.3c0,0.1,0.1,0.1,0.2,0.1c0.1,0,0.3-0.1,0.4-0.2s0.4-0.3,0.7-0.5l0.1,0.1
				c-0.4,0.5-0.7,0.8-1,1c-0.3,0.2-0.5,0.3-0.8,0.3c-0.4,0-0.7-0.3-0.7-0.7C88.3,192,88.3,191.9,88.3,191.8z"/>
			<path fill="#FFFFFF" d="M91.7,189.4c0.3-0.5,0.6-0.9,1-1.2c0.4-0.3,0.9-0.5,1.4-0.5c0.3,0,0.6,0.1,0.9,0.3
				c0.2,0.2,0.3,0.4,0.3,0.7c0,0.4-0.1,0.7-0.5,1c-0.3,0.3-0.9,0.5-1.8,0.5h-0.7c0,0.2-0.1,0.4-0.1,0.6c0,0.9,0.4,1.4,1,1.4
				c0.3,0,0.6-0.1,0.8-0.2s0.5-0.4,0.7-0.7l0.1,0.1c-0.5,0.9-1.2,1.5-2,1.5c-0.5,0-0.9-0.2-1.3-0.5c-0.3-0.3-0.5-0.8-0.5-1.4
				C91.3,190.4,91.4,189.9,91.7,189.4z M93,189.9c0.1,0,0.3,0,0.5-0.1c0.2,0,0.3-0.1,0.5-0.1c0.4-0.2,0.7-0.5,0.7-1.1
				c0-0.3-0.2-0.6-0.5-0.6c-0.8,0-1.4,1-1.6,1.9C92.7,190,92.8,190,93,189.9z"/>
		</g>
	</g>
	<g>
		<g>
			<path fill="#FFFFFF" d="M193.2,59.3v-0.3h0.3c0.3,0,0.4-0.2,0.4-0.5v-5.4c0-0.4-0.1-0.5-0.5-0.5h-0.3v-0.3h0.3c0.1,0,0.2,0,0.4,0
				c0.2,0,0.3,0,0.4,0h0.8v6.2c0,0.4,0.1,0.5,0.4,0.5h0.3v0.3h-0.2c-0.1,0-0.2,0-0.4,0s-0.3,0-0.4,0h-0.8c-0.1,0-0.2,0-0.4,0
				c-0.2,0-0.3,0-0.4,0H193.2z"/>
			<path fill="#FFFFFF" d="M196.4,59.3v-0.3h0.3c0.3,0,0.4-0.2,0.4-0.5v-3.2c0-0.4-0.1-0.6-0.5-0.6h-0.3v-0.3h0.3c0.1,0,0.2,0,0.4,0
				s0.3,0,0.4,0h0.8v4c0,0.4,0.1,0.5,0.4,0.5h0.3v0.3H199c-0.1,0-0.2,0-0.4,0s-0.3,0-0.4,0h-0.8c-0.1,0-0.2,0-0.4,0
				c-0.2,0-0.3,0-0.4,0H196.4z M197,53.1c0-0.2,0.1-0.4,0.2-0.5c0.1-0.1,0.3-0.2,0.5-0.2s0.4,0.1,0.5,0.2s0.2,0.3,0.2,0.5
				s-0.1,0.4-0.2,0.5c-0.1,0.1-0.3,0.2-0.5,0.2s-0.4-0.1-0.5-0.2C197.1,53.5,197,53.3,197,53.1z"/>
			<path fill="#FFFFFF" d="M199.4,54.9v-0.3c0.5-0.1,0.8-0.2,1.1-0.5s0.4-0.6,0.6-1.2h0.3v1.6h1v0.3h-1v3.4c0,0.5,0.2,0.8,0.6,0.8
				c0.3,0,0.5-0.2,0.6-0.5l0.2,0.1c-0.2,0.2-0.3,0.4-0.5,0.5s-0.4,0.2-0.7,0.2c-0.7,0-1.4-0.4-1.4-1.5c0-0.3,0-0.8,0.1-1.5
				c0-0.7,0.1-1.2,0.1-1.5H199.4z"/>
			<path fill="#FFFFFF" d="M203.2,54.9v-0.3c0.5-0.1,0.8-0.2,1.1-0.5s0.4-0.6,0.6-1.2h0.3v1.6h1v0.3h-1v3.4c0,0.5,0.2,0.8,0.6,0.8
				c0.3,0,0.5-0.2,0.6-0.5l0.2,0.1c-0.2,0.2-0.3,0.4-0.5,0.5s-0.4,0.2-0.7,0.2c-0.7,0-1.4-0.4-1.4-1.5c0-0.3,0-0.8,0.1-1.5
				c0-0.7,0.1-1.2,0.1-1.5H203.2z"/>
			<path fill="#FFFFFF" d="M206.9,59.3v-0.3h0.3c0.3,0,0.4-0.2,0.4-0.5v-5.4c0-0.4-0.1-0.5-0.5-0.5h-0.3v-0.3h0.3c0.1,0,0.2,0,0.4,0
				c0.2,0,0.3,0,0.4,0h0.8v6.2c0,0.4,0.1,0.5,0.4,0.5h0.3v0.3h-0.2c-0.1,0-0.2,0-0.4,0s-0.3,0-0.4,0h-0.8c-0.1,0-0.2,0-0.4,0
				c-0.2,0-0.3,0-0.4,0H206.9z"/>
			<path fill="#FFFFFF" d="M210.6,55.7c0.2-0.4,0.5-0.7,0.9-0.9c0.4-0.2,0.8-0.3,1.3-0.3c0.7,0,1.2,0.2,1.5,0.6
				c0.4,0.4,0.6,1,0.6,1.6v0.1h-3.4c0,0.6,0.2,1.1,0.4,1.5s0.7,0.6,1.2,0.6c0.6,0,1.1-0.4,1.5-1.1l0.2,0.1c-0.2,0.5-0.6,0.9-0.9,1.1
				c-0.4,0.3-0.8,0.4-1.3,0.4c-0.6,0-1.2-0.2-1.7-0.6c-0.5-0.4-0.8-1-0.8-1.8C210.3,56.5,210.4,56,210.6,55.7z M213.3,56.5
				c0.4,0,0.5-0.1,0.5-0.5c0-0.4-0.1-0.7-0.3-0.9s-0.4-0.3-0.7-0.3c-0.3,0-0.6,0.2-0.9,0.5c-0.2,0.3-0.4,0.7-0.4,1.2H213.3z"/>
			<path fill="#FFFFFF" d="M218.3,54.9v-0.3c0.5-0.1,0.8-0.2,1.1-0.5s0.4-0.6,0.6-1.2h0.3v1.6h1v0.3h-1v3.4c0,0.5,0.2,0.8,0.6,0.8
				c0.3,0,0.5-0.2,0.6-0.5l0.2,0.1c-0.2,0.2-0.3,0.4-0.5,0.5s-0.4,0.2-0.7,0.2c-0.7,0-1.4-0.4-1.4-1.5c0-0.3,0-0.8,0.1-1.5
				c0-0.7,0.1-1.2,0.1-1.5H218.3z"/>
			<path fill="#FFFFFF" d="M223.2,59.1c-0.4-0.2-0.7-0.5-0.9-0.9c-0.2-0.4-0.3-0.8-0.3-1.3s0.1-0.9,0.3-1.3c0.2-0.4,0.5-0.7,0.9-0.9
				s0.8-0.3,1.2-0.3c1.3,0,2.5,1.1,2.5,2.5c0,0.5-0.1,0.9-0.3,1.3c-0.2,0.4-0.5,0.7-0.9,0.9s-0.8,0.3-1.2,0.3
				C224,59.4,223.6,59.3,223.2,59.1z M223.3,56.9c0,0.3,0,0.6,0.1,0.8c0.1,0.5,0.2,0.9,0.5,1.2c0.2,0.1,0.3,0.2,0.6,0.2
				s0.4-0.1,0.5-0.2c0.3-0.2,0.5-0.7,0.5-1.2s0.1-1.1,0-1.6s-0.2-0.9-0.5-1.2c-0.2-0.1-0.3-0.2-0.5-0.2s-0.4,0.1-0.6,0.2
				c-0.3,0.2-0.5,0.7-0.5,1.2C223.3,56.4,223.3,56.6,223.3,56.9z"/>
			<path fill="#FFFFFF" d="M230.4,59.3v-0.3h0.2c0.3,0,0.4-0.1,0.4-0.5v-3.2c0-0.4-0.1-0.5-0.4-0.5h-0.2v-0.3h0.2c0.1,0,0.2,0,0.4,0
				s0.3,0,0.4,0h0.9v0.6c0.6-0.5,1.2-0.7,1.8-0.7c0.8,0,1.3,0.4,1.3,1.2v2.9c0,0.4,0.1,0.5,0.4,0.5h0.2v0.3h-0.1c-0.1,0-0.2,0-0.4,0
				c-0.2,0-0.3,0-0.4,0h-0.8c-0.1,0-0.2,0-0.4,0c-0.2,0-0.3,0-0.4,0h-0.1v-0.3h0.2c0.3,0,0.4-0.1,0.4-0.5v-3c0-0.5-0.2-0.7-0.6-0.7
				c-0.4,0-0.9,0.2-1.3,0.7v3c0,0.4,0.1,0.5,0.4,0.5h0.2v0.3h-0.1c-0.1,0-0.2,0-0.4,0s-0.3,0-0.4,0h-0.8c-0.1,0-0.2,0-0.4,0
				C230.7,59.3,230.6,59.3,230.4,59.3L230.4,59.3z"/>
			<path fill="#FFFFFF" d="M237.9,59.1c-0.4-0.2-0.7-0.5-0.9-0.9c-0.2-0.4-0.3-0.8-0.3-1.3s0.1-0.9,0.3-1.3c0.2-0.4,0.5-0.7,0.9-0.9
				s0.8-0.3,1.2-0.3c1.3,0,2.5,1.1,2.5,2.5c0,0.5-0.1,0.9-0.3,1.3c-0.2,0.4-0.5,0.7-0.9,0.9s-0.8,0.3-1.2,0.3
				C238.7,59.4,238.3,59.3,237.9,59.1z M238,56.9c0,0.3,0,0.6,0.1,0.8c0.1,0.5,0.2,0.9,0.5,1.2c0.2,0.1,0.3,0.2,0.6,0.2
				s0.4-0.1,0.5-0.2c0.3-0.2,0.5-0.7,0.5-1.2s0.1-1.1,0-1.6s-0.2-0.9-0.5-1.2c-0.2-0.1-0.3-0.2-0.5-0.2s-0.4,0.1-0.6,0.2
				c-0.3,0.2-0.5,0.7-0.5,1.2C238,56.4,238,56.6,238,56.9z"/>
			<path fill="#FFFFFF" d="M244.9,59.3v-0.3h0.3c0.3,0,0.4-0.2,0.4-0.5v-3.2c0-0.4-0.1-0.6-0.5-0.6H245v-0.3h0.3c0.1,0,0.2,0,0.4,0
				s0.3,0,0.4,0h0.8v4c0,0.4,0.1,0.5,0.4,0.5h0.3v0.3h-0.2c-0.1,0-0.2,0-0.4,0s-0.3,0-0.4,0h-0.8c-0.1,0-0.2,0-0.4,0
				c-0.2,0-0.3,0-0.4,0H244.9z M245.6,53.1c0-0.2,0.1-0.4,0.2-0.5c0.1-0.1,0.3-0.2,0.5-0.2s0.4,0.1,0.5,0.2s0.2,0.3,0.2,0.5
				s-0.1,0.4-0.2,0.5c-0.1,0.1-0.3,0.2-0.5,0.2s-0.4-0.1-0.5-0.2C245.6,53.5,245.6,53.3,245.6,53.1z"/>
			<path fill="#FFFFFF" d="M248.2,54.8v-0.3h0.3c0.1,0,0.2,0,0.4,0c0.2,0,0.3,0,0.4,0h0.9v0.6c0.2-0.2,0.5-0.4,0.8-0.5
				s0.6-0.2,0.9-0.2c0.6,0,1,0.2,1.2,0.7c0.4-0.4,0.9-0.7,1.6-0.7c0.8,0,1.3,0.4,1.3,1.3v2.8c0,0.4,0.1,0.5,0.4,0.5h0.1v0.3h-0.1
				c-0.1,0-0.2,0-0.4,0s-0.3,0-0.3,0h-0.8c-0.1,0-0.2,0-0.3,0s-0.2,0-0.3,0h-0.1v-0.3h0.1c0.3,0,0.4-0.1,0.4-0.5v-2.9
				c0-0.5-0.2-0.7-0.5-0.7c-0.2,0-0.4,0.1-0.6,0.2s-0.4,0.3-0.5,0.4v3c0,0.4,0.1,0.5,0.4,0.5h0.1v0.3h-0.1c-0.1,0-0.2,0-0.4,0
				c-0.1,0-0.3,0-0.3,0H252c-0.1,0-0.2,0-0.4,0c-0.2,0-0.3,0-0.4,0h-0.1v-0.3h0.1c0.3,0,0.4-0.1,0.4-0.5v-2.9c0-0.5-0.2-0.7-0.6-0.7
				c-0.3,0-0.7,0.2-1.1,0.6v3c0,0.4,0.1,0.5,0.4,0.5h0.1v0.3h-0.1c-0.2,0-0.5-0.1-0.6-0.1h-0.9c-0.1,0-0.2,0-0.3,0
				c-0.1,0-0.3,0-0.4,0h-0.1v-0.3h0.1c0.3,0,0.4-0.1,0.4-0.5v-3.2c0-0.4-0.1-0.5-0.4-0.5H248.2z"/>
			<path fill="#FFFFFF" d="M256.8,61.3h0.3c0.3,0,0.4-0.2,0.4-0.5v-5.4c0-0.4-0.1-0.5-0.4-0.5h-0.3v-0.3h0.2c0.1,0,0.2,0,0.4,0
				c0.2,0,0.3,0,0.4,0h1V55c0.3-0.4,0.9-0.6,1.4-0.6c0.6,0,1,0.2,1.4,0.7c0.4,0.4,0.6,1,0.6,1.8s-0.3,1.4-0.7,1.8
				c-0.4,0.4-1,0.7-1.6,0.7c-0.5,0-0.9-0.2-1.2-0.5v1.8c0,0.4,0.1,0.5,0.4,0.5h0.3v0.3h-0.4c-0.1,0-0.2,0-0.4,0s-0.3,0-0.4,0H258
				c-0.1,0-0.2,0-0.4,0s-0.3,0-0.4,0h-0.4V61.3z M258.7,57.8c0,0.8,0.4,1.3,1,1.3c0.3,0,0.6-0.2,0.8-0.6s0.3-0.9,0.3-1.5v0
				c0-0.7-0.1-1.2-0.3-1.5s-0.4-0.5-0.8-0.5c-0.4,0-0.8,0.2-1.1,0.6V57.8z"/>
			<path fill="#FFFFFF" d="M264.5,56.6l1-0.4v-0.8c0-0.4-0.2-0.7-0.7-0.7c-0.3,0-0.7,0.2-1,0.4c-0.1,0.1-0.1,0.1-0.1,0.2
				c0,0,0,0.1,0.1,0.2c0.1,0.1,0.1,0.2,0.1,0.3c0,0.3-0.2,0.5-0.5,0.5c-0.3,0-0.5-0.2-0.5-0.5c0-0.3,0.2-0.6,0.5-0.8
				c0.5-0.3,1.1-0.5,1.7-0.5c0.4,0,0.8,0.1,1.1,0.3s0.4,0.5,0.4,0.8v3c0,0.3,0.1,0.4,0.3,0.4c0.2,0,0.3-0.1,0.5-0.3l0.2,0.1
				c-0.3,0.4-0.6,0.7-1.1,0.7c-0.5,0-0.9-0.3-1-0.7c-0.3,0.4-0.8,0.7-1.4,0.7c-0.4,0-0.7-0.1-1-0.3s-0.4-0.5-0.4-0.9
				C262.8,57.4,263.5,57,264.5,56.6z M264.2,58.6c0.1,0.2,0.3,0.2,0.5,0.2c0.3,0,0.6-0.2,0.8-0.4v-1.9l-0.6,0.2
				c-0.6,0.2-1,0.7-1,1.3C264,58.3,264.1,58.5,264.2,58.6z"/>
			<path fill="#FFFFFF" d="M268.8,55.1c0.5-0.4,1.2-0.7,1.8-0.7c0.5,0,0.9,0.1,1.2,0.3c0.3,0.2,0.5,0.5,0.5,0.8
				c0,0.4-0.2,0.6-0.5,0.6c-0.3,0-0.5-0.2-0.5-0.5c0-0.3,0.2-0.4,0.2-0.5c0-0.1,0-0.1-0.1-0.2c-0.2-0.1-0.4-0.2-0.7-0.2
				c-0.4,0-0.8,0.2-1.1,0.6c-0.3,0.4-0.4,0.9-0.4,1.5c0,0.6,0.1,1.1,0.4,1.4c0.3,0.4,0.7,0.5,1.2,0.5c0.6,0,1-0.3,1.4-0.8l0.2,0.1
				c-0.5,0.9-1.2,1.3-2.1,1.3c-0.6,0-1.3-0.2-1.7-0.7s-0.7-1-0.7-1.8C268,56.3,268.3,55.6,268.8,55.1z"/>
			<path fill="#FFFFFF" d="M273,54.9v-0.3c0.5-0.1,0.8-0.2,1.1-0.5s0.4-0.6,0.6-1.2h0.3v1.6h1v0.3h-1v3.4c0,0.5,0.2,0.8,0.6,0.8
				c0.3,0,0.5-0.2,0.6-0.5l0.2,0.1c-0.2,0.2-0.3,0.4-0.5,0.5s-0.4,0.2-0.7,0.2c-0.7,0-1.4-0.4-1.4-1.5c0-0.3,0-0.8,0.1-1.5
				c0-0.7,0.1-1.2,0.1-1.5H273z"/>
			<path fill="#FFFFFF" d="M278.1,52.3c0.4,0,0.6,0.3,0.6,0.7c0,1.2-0.4,2.6-0.4,4.4c0,0.2-0.1,0.3-0.2,0.3c-0.1,0-0.2-0.1-0.2-0.3
				c0-0.5,0-0.9-0.1-1.4c0-0.4-0.1-0.8-0.1-1.1c0-0.3-0.1-0.6-0.1-0.9s-0.1-0.7-0.1-1C277.5,52.5,277.8,52.3,278.1,52.3z
				 M277.5,58.8c0-0.2,0.1-0.3,0.2-0.4c0.1-0.1,0.3-0.2,0.4-0.2s0.3,0.1,0.4,0.2c0.1,0.1,0.2,0.3,0.2,0.4s-0.1,0.3-0.2,0.4
				c-0.1,0.1-0.3,0.2-0.4,0.2s-0.3-0.1-0.4-0.2C277.6,59.1,277.5,59,277.5,58.8z"/>
		</g>
	</g>
	<g>
		<circle fill="#111111" stroke="#FFFFFF" stroke-linecap="round" cx="211.4" cy="101" r="10.8"/>
		<polyline stroke="#FFFFFF" stroke-linecap="round" points="204.6,102 208.5,106 216.2,98.3 		"/>
	</g>
	<g>
		<circle fill="#111111" stroke="#FFFFFF" stroke-linecap="round" cx="201.3" cy="123.3" r="10.8"/>
		<polyline stroke="#FFFFFF" stroke-linecap="round" points="194.5,124.3 198.5,128.2 206.2,120.5 		"/>
	</g>
	<g>
		<circle fill="#111111" stroke="#FFFFFF" stroke-linecap="round" cx="193" cy="145.5" r="10.8"/>
		<polyline stroke="#FFFFFF" stroke-linecap="round" points="186.2,146.5 190.2,150.5 197.9,142.8 		"/>
	</g>
	<g>
		<circle fill="#111111" stroke="#FFFFFF" stroke-linecap="round" cx="201.3" cy="167.8" r="10.8"/>
		<polyline stroke="#FFFFFF" stroke-linecap="round" points="194.5,168.8 198.5,172.8 206.2,165.1 		"/>
	</g>
	<g>
		<circle fill="#111111" stroke="#FFFFFF" stroke-linecap="round" cx="211.4" cy="190.1" r="10.8"/>
		<polyline stroke="#FFFFFF" stroke-linecap="round" points="204.6,191.1 208.5,195 216.2,187.3 		"/>
	</g>
	<polyline fill="none" stroke="#FFFFFF" stroke-linecap="round" points="367.9,7.3 376,7.3 376,15.4 	"/>
	<g>
		<path fill="#FFFFFF" d="M147.6,133.9c-0.6-0.6-0.6-1.5,0-2l62.3-62.3c0.6-0.6,1.5-0.6,2,0l9.6,9.6c0.6,0.6,0.6,1.5,0,2l-62.3,62.3
			c-0.6,0.6-1.5,0.6-2,0L147.6,133.9z"/>
	</g>
	<g>
		<g>
			<path fill="#000111" d="M155.5,133.7c0-0.2,0.1-0.4,0.2-0.5c0.3-0.3,0.7-0.3,1,0c0.1,0.1,0.2,0.3,0.2,0.5c0,0.2-0.1,0.3-0.2,0.5
				c-0.1,0.1-0.3,0.2-0.5,0.2c-0.2,0-0.3-0.1-0.5-0.2C155.6,134,155.5,133.9,155.5,133.7z M158.1,136.2c0-0.2,0.1-0.4,0.2-0.5
				c0.3-0.3,0.7-0.3,1,0c0.1,0.1,0.2,0.3,0.2,0.5c0,0.2-0.1,0.3-0.2,0.5c-0.1,0.1-0.3,0.2-0.5,0.2c-0.2,0-0.3-0.1-0.5-0.2
				C158.1,136.6,158.1,136.4,158.1,136.2z"/>
			<path fill="#000111" d="M161.5,136.6c-0.1-0.6-0.3-1.3-0.7-2s-0.9-1.4-1.6-2c-0.6-0.6-1.3-1.2-2-1.6c-0.7-0.4-1.4-0.6-2-0.7
				l0-0.2c0.8-0.1,1.7,0,2.5,0.3c0.9,0.3,1.6,0.8,2.3,1.4c0.7,0.7,1.1,1.4,1.4,2.3c0.3,0.9,0.4,1.7,0.3,2.5L161.5,136.6z"/>
			<path fill="#000111" d="M161.4,128l-0.2-0.2l0.1-0.1c0.1-0.1,0.2-0.2,0.3-0.3c0.1-0.1,0.2-0.2,0.3-0.3l0.7-0.7l2.7,2.7
				c0.3,0.3,0.6,0.4,0.9,0.1c0.3-0.3,0.5-0.8,0.5-1.4l-2.2-2.2c-0.3-0.3-0.5-0.3-0.7-0.1l-0.2,0.2l-0.2-0.2l0.1-0.1
				c0.1-0.1,0.2-0.2,0.3-0.3c0.1-0.1,0.2-0.2,0.3-0.3l0.7-0.7l2.9,2.9c0.3,0.3,0.5,0.3,0.7,0.1l0.2-0.2l0.2,0.2l-0.2,0.2
				c-0.1,0.1-0.2,0.2-0.3,0.3c-0.1,0.1-0.2,0.2-0.3,0.3l-0.6,0.6l-0.4-0.4c-0.1,0.8-0.4,1.4-0.8,1.8c-0.6,0.6-1.2,0.6-1.8,0
				l-2.1-2.1c-0.3-0.3-0.5-0.3-0.7-0.1L161.4,128z"/>
			<path fill="#000111" d="M169.2,126.8l-0.2-0.2l0.2-0.2c0.2-0.2,0.2-0.4-0.1-0.7l-2.3-2.3c-0.3-0.3-0.5-0.3-0.7-0.1l-0.2,0.2
				l-0.2-0.2l0.2-0.2c0.1-0.1,0.2-0.2,0.3-0.3c0.1-0.1,0.2-0.2,0.3-0.3l0.6-0.6l0.4,0.4c0.1-0.8,0.4-1.4,0.8-1.8
				c0.6-0.6,1.2-0.6,1.8,0l2.1,2.1c0.3,0.3,0.5,0.3,0.7,0.1l0.2-0.2l0.2,0.2l-0.1,0.1c-0.1,0.1-0.2,0.2-0.3,0.3
				c-0.1,0.1-0.2,0.2-0.3,0.3l-0.6,0.6c-0.1,0.1-0.1,0.2-0.3,0.3c-0.1,0.1-0.2,0.2-0.3,0.3l-0.1,0.1l-0.2-0.2l0.1-0.1
				c0.2-0.2,0.2-0.4-0.1-0.7l-2.2-2.2c-0.3-0.3-0.6-0.4-0.9-0.1c-0.3,0.3-0.5,0.8-0.5,1.4l2.2,2.2c0.3,0.3,0.5,0.3,0.7,0.1l0.2-0.2
				l0.2,0.2L171,125c-0.1,0.1-0.2,0.2-0.3,0.3c-0.1,0.1-0.2,0.2-0.3,0.3l-0.6,0.6c-0.1,0.1-0.1,0.2-0.3,0.3
				C169.4,126.5,169.4,126.6,169.2,126.8L169.2,126.8z"/>
			<path fill="#000111" d="M171.2,118.7c0-0.6,0.2-1.2,0.6-1.6c0.3-0.3,0.7-0.5,1.2-0.6l-1.3-1.3c-0.2-0.2-0.4-0.2-0.7,0l-0.2,0.2
				l-0.2-0.2l0.4-0.4c0.1-0.1,0.2-0.1,0.3-0.2c0.1-0.1,0.2-0.2,0.3-0.2l0.5-0.5l4.5,4.5c0.3,0.3,0.5,0.3,0.7,0.1l0.2-0.2l0.2,0.2
				l-0.1,0.1c-0.1,0.1-0.2,0.2-0.3,0.3c-0.1,0.1-0.2,0.2-0.3,0.3l-0.7,0.7l-0.3-0.3c0,0.2,0,0.4-0.1,0.6c-0.1,0.2-0.2,0.5-0.4,0.6
				c-0.5,0.5-1,0.7-1.6,0.6c-0.6,0-1.2-0.3-1.8-0.9S171.2,119.3,171.2,118.7z M173,119.5c0.9,0.9,1.9,1.3,2.4,0.7
				c0.2-0.2,0.3-0.4,0.2-0.7c0-0.3-0.2-0.6-0.4-0.8l-1.9-1.9c-0.2,0-0.4,0-0.6,0c-0.2,0.1-0.4,0.1-0.5,0.3c-0.3,0.3-0.3,0.6-0.2,1.1
				C172.2,118.6,172.5,119,173,119.5L173,119.5z"/>
			<path fill="#000111" d="M175.7,115c-0.1-0.5-0.1-0.9,0-1.3c0.1-0.4,0.4-0.8,0.7-1.1c0.5-0.5,1-0.7,1.6-0.7c0.6,0,1.1,0.3,1.6,0.7
				l0.1,0.1l-2.4,2.4c0.4,0.4,0.9,0.7,1.4,0.7c0.5,0.1,0.9-0.1,1.3-0.5c0.5-0.5,0.5-1.1,0.4-1.9l0.2,0c0.2,0.5,0.2,1,0.2,1.5
				c-0.1,0.4-0.3,0.9-0.7,1.2c-0.5,0.5-1.1,0.7-1.7,0.8c-0.6,0-1.3-0.2-1.9-0.8C176,115.8,175.8,115.4,175.7,115z M178.2,113.6
				c0.3-0.3,0.3-0.5,0-0.7c-0.3-0.3-0.6-0.4-0.9-0.5c-0.3,0-0.5,0-0.8,0.3c-0.2,0.2-0.3,0.6-0.3,1c0.1,0.4,0.3,0.8,0.6,1.2
				L178.2,113.6z"/>
			<path fill="#000111" d="M182,114l-0.2-0.2l0.2-0.2c0.2-0.2,0.2-0.4-0.1-0.7l-2.3-2.3c-0.3-0.3-0.5-0.3-0.7-0.1l-0.2,0.2l-0.2-0.2
				l0.2-0.2c0.1-0.1,0.2-0.2,0.3-0.3c0.1-0.1,0.2-0.2,0.3-0.3l0.6-0.6l0.5,0.5c-0.1-0.7,0-1.3,0.5-1.7c0.4-0.4,0.9-0.4,1.2-0.1
				c0.3,0.3,0.3,0.6,0.1,0.8c-0.2,0.2-0.5,0.2-0.6,0c-0.1-0.1-0.1-0.3-0.2-0.4c0,0-0.1-0.1-0.2,0c-0.1,0-0.2,0.1-0.3,0.2
				c-0.1,0.1-0.2,0.4-0.2,0.7c0,0.3,0,0.6,0.1,0.9l2,2c0.3,0.3,0.5,0.3,0.7,0.1l0.2-0.2l0.2,0.2l-0.1,0.1c-0.1,0.1-0.2,0.2-0.3,0.3
				c-0.1,0.1-0.2,0.2-0.3,0.3l-0.6,0.6c-0.1,0.1-0.1,0.2-0.3,0.3C182.2,113.8,182.1,113.9,182,114L182,114z"/>
			<path fill="#000111" d="M185.3,110.6c-0.3-0.4-0.7-0.9-1.2-1.4l0.1-0.1c0.9,0.6,1.7,0.7,2.2,0.1c0.4-0.4,0.4-0.8,0-1.1
				c-0.2-0.2-0.5-0.3-0.7-0.3c-0.3,0-0.5,0.1-0.9,0.3c-0.4,0.2-0.8,0.3-1.1,0.3c-0.3,0-0.6-0.1-0.9-0.4c-0.3-0.3-0.4-0.6-0.4-1
				c0-0.4,0.3-0.8,0.6-1.2c0.3-0.3,0.7-0.5,1.2-0.6l-0.1-0.3l0.1-0.1c0.3,0.3,0.7,0.7,1.2,1.1l-0.1,0.1c-0.4-0.2-0.7-0.4-1.1-0.4
				c-0.3,0-0.6,0.1-0.9,0.4c-0.1,0.1-0.2,0.3-0.2,0.5c0,0.2,0,0.3,0.2,0.4c0.3,0.3,0.8,0.3,1.4,0c0.4-0.2,0.6-0.3,0.9-0.3
				c0.5-0.1,0.8,0,1.3,0.4c0.3,0.3,0.5,0.7,0.4,1.2c0,0.5-0.3,0.9-0.7,1.3c-0.4,0.4-1,0.6-1.4,0.7l0.2,0.4L185.3,110.6z"/>
			<path fill="#000111" d="M185.2,104.3L185,104c0.3-0.4,0.5-0.8,0.5-1.1c0-0.4-0.1-0.8-0.4-1.2l0.2-0.2l1.2,1.2l0.7-0.7l0.2,0.2
				l-0.7,0.7l2.5,2.5c0.4,0.4,0.7,0.4,1,0.1c0.2-0.2,0.2-0.5,0.1-0.8l0.2,0c0.1,0.3,0.1,0.5,0,0.8c-0.1,0.2-0.2,0.4-0.4,0.6
				c-0.5,0.5-1.3,0.8-2.1,0c-0.2-0.2-0.6-0.6-1.1-1.2c-0.5-0.5-0.8-0.9-1.1-1.1L185.2,104.3z"/>
			<path fill="#000111" d="M190.5,101.5l0.5-1l-0.6-0.6c-0.3-0.3-0.6-0.3-1,0c-0.2,0.2-0.4,0.6-0.4,0.9c0,0.1,0,0.2,0,0.2
				c0,0,0.1,0,0.2,0.1c0.1,0,0.2,0.1,0.3,0.1c0.2,0.2,0.2,0.5,0,0.7c-0.2,0.2-0.5,0.2-0.7,0c-0.2-0.2-0.3-0.6-0.2-1
				c0.1-0.6,0.4-1.1,0.8-1.6c0.3-0.3,0.7-0.5,1-0.6c0.3-0.1,0.6,0,0.9,0.3l2.2,2.2c0.2,0.2,0.4,0.2,0.6,0.1c0.1-0.1,0.1-0.3,0.1-0.6
				l0.2,0c0.1,0.5,0,0.9-0.3,1.3c-0.4,0.4-0.8,0.5-1.3,0.2c0.1,0.5-0.1,1.1-0.5,1.5c-0.3,0.3-0.6,0.4-0.9,0.5
				c-0.3,0-0.6-0.1-0.9-0.4C189.9,103.3,190,102.6,190.5,101.5z M191.8,103.2c0.2,0,0.4-0.1,0.6-0.2c0.2-0.2,0.3-0.5,0.2-0.9
				l-1.4-1.4l-0.3,0.6c-0.3,0.6-0.2,1.2,0.2,1.6C191.3,103.1,191.5,103.2,191.8,103.2z"/>
			<path fill="#000111" d="M195.1,100.9l-0.2-0.2l0.2-0.2c0.2-0.2,0.2-0.4-0.1-0.7l-2.3-2.3c-0.3-0.3-0.5-0.3-0.7-0.1l-0.2,0.2
				l-0.2-0.2l0.2-0.2c0.1-0.1,0.2-0.2,0.3-0.3c0.1-0.1,0.2-0.2,0.3-0.3L193,96l0.4,0.4c0.1-0.8,0.4-1.4,0.8-1.8
				c0.6-0.6,1.2-0.6,1.8,0l2.1,2.1c0.3,0.3,0.5,0.3,0.7,0.1l0.2-0.2l0.2,0.2l-0.1,0.1c-0.1,0.1-0.2,0.2-0.3,0.3
				c-0.1,0.1-0.2,0.2-0.3,0.3l-0.6,0.6c-0.1,0.1-0.1,0.2-0.3,0.3c-0.1,0.1-0.2,0.2-0.3,0.3l-0.1,0.1l-0.2-0.2l0.1-0.1
				c0.2-0.2,0.2-0.4-0.1-0.7l-2.2-2.2c-0.3-0.3-0.6-0.4-0.9-0.1c-0.3,0.3-0.5,0.8-0.5,1.4l2.2,2.2c0.3,0.3,0.5,0.3,0.7,0.1l0.2-0.2
				L197,99l-0.1,0.1c-0.1,0.1-0.2,0.2-0.3,0.3c-0.1,0.1-0.2,0.2-0.3,0.3l-0.6,0.6c-0.1,0.1-0.1,0.2-0.3,0.3
				C195.3,100.6,195.3,100.7,195.1,100.9L195.1,100.9z"/>
			<path fill="#000111" d="M197.1,92.8c0-0.6,0.2-1.2,0.6-1.6c0.3-0.3,0.7-0.5,1.2-0.6l-1.3-1.3c-0.2-0.2-0.4-0.2-0.7,0l-0.2,0.2
				l-0.2-0.2l0.4-0.4c0.1-0.1,0.2-0.1,0.3-0.2c0.1-0.1,0.2-0.2,0.3-0.2l0.5-0.5l4.5,4.5c0.3,0.3,0.5,0.3,0.7,0.1l0.2-0.2l0.2,0.2
				l-0.1,0.1c-0.1,0.1-0.2,0.2-0.3,0.3c-0.1,0.1-0.2,0.2-0.3,0.3l-0.7,0.7l-0.3-0.3c0,0.2,0,0.4-0.1,0.6c-0.1,0.2-0.2,0.5-0.4,0.6
				c-0.5,0.5-1,0.7-1.6,0.6c-0.6,0-1.2-0.3-1.8-0.9C197.4,94,197.1,93.4,197.1,92.8z M198.9,93.6c0.9,0.9,1.9,1.3,2.4,0.7
				c0.2-0.2,0.3-0.4,0.2-0.7c0-0.3-0.2-0.6-0.4-0.8l-1.9-1.9c-0.2,0-0.4,0-0.6,0c-0.2,0.1-0.4,0.1-0.5,0.3c-0.3,0.3-0.3,0.6-0.2,1.1
				C198.1,92.7,198.4,93.1,198.9,93.6L198.9,93.6z"/>
			<path fill="#000111" d="M199.8,87.1c-0.1-0.1-0.2-0.3-0.2-0.5c0-0.2,0.1-0.4,0.2-0.5c0.1-0.1,0.3-0.2,0.5-0.2
				c0.2,0,0.4,0.1,0.5,0.2c0.1,0.1,0.2,0.3,0.2,0.5c0,0.2-0.1,0.4-0.2,0.5c-0.1,0.1-0.3,0.2-0.5,0.2C200.1,87.4,200,87.3,199.8,87.1
				z M203.9,92.1l-0.2-0.2l0.2-0.2c0.2-0.2,0.2-0.4-0.1-0.7l-2.3-2.3c-0.3-0.3-0.5-0.3-0.8,0l-0.2,0.2l-0.2-0.2l0.2-0.2
				c0.1-0.1,0.2-0.2,0.3-0.3c0.2-0.1,0.3-0.2,0.3-0.3l0.6-0.6l2.9,2.9c0.3,0.3,0.5,0.3,0.7,0.1l0.2-0.2l0.2,0.2l-0.2,0.2
				c-0.1,0.1-0.2,0.2-0.3,0.3c-0.1,0.1-0.2,0.2-0.3,0.3l-0.6,0.6c-0.1,0.1-0.1,0.2-0.3,0.3c-0.1,0.1-0.2,0.2-0.3,0.3L203.9,92.1z"/>
			<path fill="#000111" d="M206.3,89.7l-0.2-0.2l0.2-0.2c0.2-0.2,0.2-0.4-0.1-0.7l-2.3-2.3c-0.3-0.3-0.5-0.3-0.7-0.1l-0.2,0.2
				l-0.2-0.2l0.2-0.2c0.1-0.1,0.2-0.2,0.3-0.3c0.1-0.1,0.2-0.2,0.3-0.3l0.6-0.6l0.4,0.4c0.1-0.8,0.4-1.4,0.8-1.8
				c0.6-0.6,1.2-0.6,1.8,0l2.1,2.1c0.3,0.3,0.5,0.3,0.7,0.1l0.2-0.2l0.2,0.2l-0.1,0.1c-0.1,0.1-0.2,0.2-0.3,0.3
				c-0.1,0.1-0.2,0.2-0.3,0.3l-0.6,0.6c-0.1,0.1-0.1,0.2-0.3,0.3c-0.1,0.1-0.2,0.2-0.3,0.3l-0.1,0.1l-0.2-0.2l0.1-0.1
				c0.2-0.2,0.2-0.4-0.1-0.7l-2.2-2.2c-0.3-0.3-0.6-0.4-0.9-0.1c-0.3,0.3-0.5,0.8-0.5,1.4l2.2,2.2c0.3,0.3,0.5,0.3,0.7,0.1l0.2-0.2
				l0.2,0.2l-0.1,0.1c-0.1,0.1-0.2,0.2-0.3,0.3c-0.1,0.1-0.2,0.2-0.3,0.3l-0.6,0.6c-0.1,0.1-0.1,0.2-0.3,0.3
				C206.5,89.5,206.4,89.6,206.3,89.7L206.3,89.7z"/>
			<path fill="#000111" d="M211.3,84.6c-0.4,0.2-0.7,0.1-1.1-0.2c-0.4-0.4-0.3-0.9-0.1-1.6c-0.5,0.1-1-0.1-1.4-0.5
				c-0.4-0.4-0.5-0.8-0.5-1.2c0-0.5,0.3-0.9,0.7-1.3c0.3-0.3,0.6-0.5,0.9-0.6c0.1-0.4,0.3-0.8,0.6-1.1c0.3-0.3,0.5-0.3,0.7-0.1
				c0.2,0.2,0.2,0.4,0,0.6c-0.1,0.1-0.3,0.2-0.5,0.1c-0.2,0-0.3,0-0.4,0.1c-0.1,0.1-0.1,0.2-0.2,0.3c0.5-0.1,1,0,1.4,0.4
				c0.4,0.4,0.5,0.8,0.5,1.3c0,0.5-0.3,0.9-0.7,1.3c-0.3,0.3-0.6,0.5-0.9,0.6c-0.1,0.3-0.1,0.5,0.1,0.7c0.2,0.2,0.4,0.1,0.7-0.1
				l1.2-1.2c0.4-0.4,0.8-0.6,1.2-0.6s0.7,0.1,1,0.4c0.4,0.4,0.6,0.9,0.4,1.6c-0.1,0.7-0.4,1.3-1,1.8c-0.4,0.4-0.9,0.7-1.3,0.8
				c-0.4,0.1-0.8,0-1.1-0.3C211.3,85.5,211.2,85,211.3,84.6z M209.6,81.6c0.6,0.6,1.2,0.7,1.5,0.4s0.2-0.9-0.4-1.5l0,0
				c-0.6-0.6-1.1-0.7-1.5-0.4C208.9,80.5,209,81,209.6,81.6L209.6,81.6z M212.8,85.5c0.3,0,0.6-0.2,0.9-0.5c0.3-0.3,0.5-0.6,0.5-1
				c0-0.4-0.1-0.7-0.3-0.9c-0.3-0.3-0.8-0.3-1.2,0.1l-1,1c-0.1,0.1-0.1,0.1-0.1,0.1c0,0.3,0.1,0.5,0.3,0.8
				C212.2,85.5,212.5,85.6,212.8,85.5z"/>
			<path fill="#000111" d="M210.6,75.1c0.3-0.3,0.6-0.3,1,0.1c0.9,0.9,1.6,2.1,2.9,3.5c0.1,0.1,0.1,0.3,0,0.4
				c-0.1,0.1-0.2,0.1-0.4,0c-0.4-0.4-0.7-0.7-1-1c-0.4-0.3-0.6-0.5-0.9-0.7c-0.2-0.2-0.5-0.4-0.8-0.6c-0.3-0.2-0.5-0.5-0.8-0.7
				C210.3,75.8,210.3,75.4,210.6,75.1z M214.9,80.3c-0.1-0.1-0.2-0.3-0.2-0.4c0-0.2,0.1-0.3,0.2-0.5c0.1-0.1,0.3-0.2,0.5-0.2
				c0.2,0,0.3,0.1,0.4,0.2c0.1,0.1,0.2,0.3,0.2,0.5c0,0.2-0.1,0.3-0.2,0.4c-0.1,0.1-0.3,0.2-0.4,0.2C215.1,80.5,215,80.5,214.9,80.3
				z"/>
		</g>
	</g>
	<path fill="none" stroke="#FFFFFF" stroke-linecap="round" d="M346.4,37.2c0,10.8-8.8,19.6-19.6,19.6"/>
	<path fill="none" stroke="#FFFFFF" stroke-linecap="round" d="M326.8,17.6c10.8,0,19.6,8.8,19.6,19.6"/>
	<path fill="none" stroke="#FFFFFF" stroke-linecap="round" d="M311.4,33c0-8.5,6.9-15.4,15.4-15.4"/>
	<path fill="none" stroke="#FFFFFF" stroke-linecap="round" d="M326.8,48.3c-8.5,0-15.4-6.9-15.4-15.4"/>
	<path fill="none" stroke="#FFFFFF" stroke-linecap="round" d="M340.7,42.6c-3.6,3.6-8.5,5.7-13.9,5.7"/>
	<line fill="none" stroke="#FFFFFF" stroke-linecap="round" x1="340.7" y1="42.6" x2="371.9" y2="11.3"/>
</g>
</svg>
