<?xml version="1.0" encoding="utf-8"?>
<!-- Generator: Adobe Illustrator 17.1.0, SVG Export Plug-In . SVG Version: 6.00 Build 0)  -->
<!DOCTYPE svg PUBLIC "-//W3C//DTD SVG 1.1//EN" "http://www.w3.org/Graphics/SVG/1.1/DTD/svg11.dtd">
<svg version="1.1" id="Layer_1" xmlns="http://www.w3.org/2000/svg" xmlns:xlink="http://www.w3.org/1999/xlink" x="0px" y="0px"
	 viewBox="0 0 63.5 37.6" enable-background="new 0 0 63.5 37.6" xml:space="preserve">
<g>
	<path fill="#69EB7B" d="M21.9,18.9c-1.2,0.8-1.6,1.2-1.6,2.2l-0.2,0.2h-1.6l-0.2-0.2c0-1.4,0.4-2.2,1.6-3s2-1.4,2-2.6
		c0-1-0.6-2-2.4-2c-1.8,0-2.4,1-2.4,2.6l-0.2,0.2h-1.6l-0.2-0.2c0-2.6,1.4-4.4,4.4-4.4c2.6,0,4.4,1.4,4.4,3.8
		C23.9,17.3,23.1,18.1,21.9,18.9z M20.7,25.9h-2.8l-0.2-0.2v-2.8l0.2-0.2h2.8l0.2,0.2v2.8L20.7,25.9z"/>
	<path fill="#69EB7B" d="M34.1,18.9c-1.2,0.8-1.6,1.2-1.6,2.2l-0.2,0.2h-1.6l-0.2-0.2c0-1.4,0.4-2.2,1.6-3c1.2-0.8,2-1.4,2-2.6
		c0-1-0.6-2-2.4-2c-1.8,0-2.4,1-2.4,2.6l-0.2,0.2h-1.6l-0.2-0.2c0-2.6,1.4-4.4,4.4-4.4c2.6,0,4.4,1.4,4.4,3.8
		C36.1,17.3,35.3,18.1,34.1,18.9z M32.9,25.9h-2.8l-0.2-0.2v-2.8l0.2-0.2h2.8l0.2,0.2v2.8L32.9,25.9z"/>
	<path fill="#69EB7B" d="M46.3,18.9c-1.2,0.8-1.6,1.2-1.6,2.2l-0.2,0.2h-1.6l-0.2-0.2c0-1.4,0.4-2.2,1.6-3s2-1.4,2-2.6
		c0-1-0.6-2-2.4-2c-1.8,0-2.4,1-2.4,2.6l-0.2,0.2h-1.6l-0.2-0.2c0-2.6,1.4-4.4,4.4-4.4c2.6,0,4.4,1.4,4.4,3.8
		C48.3,17.3,47.5,18.1,46.3,18.9z M45.1,25.9h-2.8l-0.2-0.2v-2.8l0.2-0.2h2.8l0.2,0.2v2.8L45.1,25.9z"/>
</g>
</svg>
