<?xml version="1.0" encoding="utf-8"?>
<!-- Generator: Adobe Illustrator 17.1.0, SVG Export Plug-In . SVG Version: 6.00 Build 0)  -->
<!DOCTYPE svg PUBLIC "-//W3C//DTD SVG 1.1//EN" "http://www.w3.org/Graphics/SVG/1.1/DTD/svg11.dtd">
<svg version="1.1" id="Layer_1" xmlns="http://www.w3.org/2000/svg" xmlns:xlink="http://www.w3.org/1999/xlink" x="0px" y="0px"
	 viewBox="0 0 21.6 29.5" enable-background="new 0 0 21.6 29.5" xml:space="preserve">
<path fill="#222222" d="M6.8,6.1l4.3-4.3c0.4-0.4,0.4-1,0-1.4s-1-0.4-1.4,0l-6,6c-0.4,0.4-0.4,1,0,1.4l6,6c0.2,0.2,0.5,0.3,0.7,0.3
	s0.5-0.1,0.7-0.3c0.4-0.4,0.4-1,0-1.4L6.8,8.1c5.2,0.1,9.5,4.4,9.5,9.7c0,5.4-4.4,9.7-9.7,9.7c-0.6,0-1,0.4-1,1s0.4,1,1,1
	c6.5,0,11.7-5.3,11.7-11.7C18.2,11.4,13.1,6.2,6.8,6.1z"/>
</svg>
