<?xml version="1.0" encoding="utf-8"?>
<!-- Generator: Adobe Illustrator 17.1.0, SVG Export Plug-In . SVG Version: 6.00 Build 0)  -->
<!DOCTYPE svg PUBLIC "-//W3C//DTD SVG 1.1//EN" "http://www.w3.org/Graphics/SVG/1.1/DTD/svg11.dtd">
<svg version="1.1" id="Layer_1" xmlns="http://www.w3.org/2000/svg" xmlns:xlink="http://www.w3.org/1999/xlink" x="0px" y="0px"
	 viewBox="0 0 16.8 12.2" enable-background="new 0 0 16.8 12.2" xml:space="preserve">
<path fill="#FFFFFF" d="M16.7,6.5c0.1-0.2,0.1-0.5,0-0.8c-0.1-0.1-0.1-0.2-0.2-0.3l-5.1-5.1c-0.4-0.4-1-0.4-1.4,0s-0.4,1,0,1.4
	l3.4,3.4H1c-0.6,0-1,0.4-1,1s0.4,1,1,1h12.4L10,10.5c-0.4,0.4-0.4,1,0,1.4c0.2,0.2,0.5,0.3,0.7,0.3s0.5-0.1,0.7-0.3l5.1-5.1
	C16.6,6.7,16.7,6.6,16.7,6.5z"/>
</svg>
