<?xml version="1.0" encoding="utf-8"?>
<!-- Generator: Adobe Illustrator 17.1.0, SVG Export Plug-In . SVG Version: 6.00 Build 0)  -->
<!DOCTYPE svg PUBLIC "-//W3C//DTD SVG 1.1//EN" "http://www.w3.org/Graphics/SVG/1.1/DTD/svg11.dtd">
<svg version="1.1" id="Layer_1" xmlns="http://www.w3.org/2000/svg" xmlns:xlink="http://www.w3.org/1999/xlink" x="0px" y="0px"
	 viewBox="0 0 21.6 16.6" enable-background="new 0 0 21.6 16.6" xml:space="preserve">
<path d="M10.4,16.5c0.2,0.1,0.5,0.1,0.8,0c0.1-0.1,0.2-0.1,0.3-0.2l5.1-5.1c0.4-0.4,0.4-1,0-1.4s-1-0.4-1.4,0l-3.4,3.4V0.8
	c0-0.6-0.4-1-1-1s-1,0.4-1,1v12.4L6.4,9.7C6,9.4,5.4,9.4,5,9.7c-0.2,0.2-0.3,0.5-0.3,0.7S4.8,11,5,11.2l5.1,5.1
	C10.2,16.4,10.3,16.4,10.4,16.5z"/>
</svg>
