<?xml version="1.0" encoding="utf-8"?>
<!-- Generator: Adobe Illustrator 17.1.0, SVG Export Plug-In . SVG Version: 6.00 Build 0)  -->
<!DOCTYPE svg PUBLIC "-//W3C//DTD SVG 1.1//EN" "http://www.w3.org/Graphics/SVG/1.1/DTD/svg11.dtd">
<svg version="1.1" id="Layer_1" xmlns="http://www.w3.org/2000/svg" xmlns:xlink="http://www.w3.org/1999/xlink" x="0px" y="0px"
	 viewBox="0 0 21.6 46.1" enable-background="new 0 0 21.6 46.1" xml:space="preserve">
<g>
	<g>
		<g>
			<path fill="#FF786E" d="M8.4,46.1c-0.1,0-0.2,0-0.4-0.1c0,0,0,0,0,0c0,0,0,0,0,0c0,0,0,0,0,0h0c0,0,0,0,0,0h0c0,0,0,0,0,0h0
				c0,0,0,0,0,0c0,0,0,0,0,0c0,0,0,0,0,0h0c0,0,0,0,0,0l0,0c-0.1-0.1-0.2-0.1-0.3-0.2l-6-6c-0.4-0.4-0.4-1,0-1.4s1-0.4,1.4,0
				l4.3,4.3V12c0-6.5,5.3-11.7,11.7-11.7c0.6,0,1,0.4,1,1s-0.4,1-1,1c-5.4,0-9.7,4.4-9.7,9.7v30.7l4.3-4.3c0.4-0.4,1-0.4,1.4,0
				c0.2,0.2,0.3,0.5,0.3,0.7s-0.1,0.5-0.3,0.7l-6,6c0,0,0,0,0,0c0,0,0,0,0,0c0,0,0,0,0,0C9,45.9,8.9,46,8.7,46c0,0,0,0,0,0
				c0,0,0,0,0,0c-0.1,0-0.1,0-0.2,0l0,0c0,0,0,0,0,0s0,0,0,0c0,0,0,0,0,0l0,0C8.5,46.1,8.5,46.1,8.4,46.1z"/>
		</g>
	</g>
</g>
</svg>
