<?xml version="1.0" encoding="utf-8"?>
<!-- Generator: Adobe Illustrator 17.1.0, SVG Export Plug-In . SVG Version: 6.00 Build 0)  -->
<!DOCTYPE svg PUBLIC "-//W3C//DTD SVG 1.1//EN" "http://www.w3.org/Graphics/SVG/1.1/DTD/svg11.dtd">
<svg version="1.1" id="Layer_1" xmlns="http://www.w3.org/2000/svg" xmlns:xlink="http://www.w3.org/1999/xlink" x="0px" y="0px"
	 viewBox="0 0 12.2 16.8" enable-background="new 0 0 12.2 16.8" xml:space="preserve">
<path d="M6.5,0.1C6.2,0,6,0,5.7,0.1C5.6,0.1,5.5,0.2,5.4,0.3L0.3,5.4c-0.4,0.4-0.4,1,0,1.4s1,0.4,1.4,0l3.4-3.4v12.4
	c0,0.6,0.4,1,1,1s1-0.4,1-1V3.4l3.4,3.4c0.4,0.4,1,0.4,1.4,0c0.2-0.2,0.3-0.5,0.3-0.7s-0.1-0.5-0.3-0.7L6.8,0.3
	C6.7,0.2,6.6,0.1,6.5,0.1z"/>
</svg>
