<?xml version="1.0" encoding="utf-8"?>
<!-- Generator: Adobe Illustrator 17.1.0, SVG Export Plug-In . SVG Version: 6.00 Build 0)  -->
<!DOCTYPE svg PUBLIC "-//W3C//DTD SVG 1.1//EN" "http://www.w3.org/Graphics/SVG/1.1/DTD/svg11.dtd">
<svg version="1.1" id="Layer_1" xmlns="http://www.w3.org/2000/svg" xmlns:xlink="http://www.w3.org/1999/xlink" x="0px" y="0px"
	 viewBox="0 0 63.5 37.6" enable-background="new 0 0 63.5 37.6" xml:space="preserve">
<g>
	<circle fill="#FFFFFF" cx="27.8" cy="22.7" r="1.6"/>
	<circle fill="#FFFFFF" cx="32.2" cy="27" r="1.6"/>
	<circle fill="#FFFFFF" cx="23.5" cy="18.4" r="1.6"/>
	<ellipse fill="#FFFFFF" cx="35.8" cy="9.9" rx="1.6" ry="0.8"/>
	<ellipse fill="#FFFFFF" cx="28.5" cy="11.8" rx="1.6" ry="0.8"/>
	<ellipse fill="#FFFFFF" cx="39.6" cy="18.8" rx="0.8" ry="1.6"/>
	<path fill="#FFFFFF" d="M44.5,7c0,0,0-0.1,0-0.1c0,0,0-0.1,0-0.1c0,0,0,0,0,0c0,0,0-0.1,0-0.1c0,0,0-0.1-0.1-0.1
		c0,0-0.1-0.1-0.1-0.1c0,0-0.1-0.1-0.1-0.1c0,0-0.1-0.1-0.1-0.1c0,0-0.1,0-0.1,0c0,0,0,0,0,0c0,0-0.1,0-0.1,0c0,0-0.1,0-0.1,0
		c0,0,0,0,0,0H27.8c-0.3,0-0.5,0.1-0.7,0.3l-7.8,7.8c0,0,0,0,0,0c-0.1,0.1-0.1,0.2-0.2,0.3c0,0,0,0.1,0,0.1c0,0.1,0,0.2-0.1,0.3
		c0,0,0,0,0,0.1v15.6c0,0.6,0.4,1,1,1h15.6c0.1,0,0.3,0,0.4-0.1c0.1-0.1,0.2-0.1,0.3-0.2l7.8-7.8c0.2-0.2,0.3-0.4,0.3-0.7L44.5,7
		C44.5,7.1,44.5,7.1,44.5,7z M34.7,29.5H21V15.9h13.6V29.5z M35.2,13.9H22.4l5.8-5.8H41L35.2,13.9z M42.5,22.3l-5.8,5.8V15.3
		l5.8-5.8V22.3z"/>
</g>
</svg>
