<?xml version="1.0" encoding="utf-8"?>
<!-- Generator: Adobe Illustrator 17.1.0, SVG Export Plug-In . SVG Version: 6.00 Build 0)  -->
<!DOCTYPE svg PUBLIC "-//W3C//DTD SVG 1.1//EN" "http://www.w3.org/Graphics/SVG/1.1/DTD/svg11.dtd">
<svg version="1.1" id="Layer_1" xmlns="http://www.w3.org/2000/svg" xmlns:xlink="http://www.w3.org/1999/xlink" x="0px" y="0px"
	 viewBox="0 0 63.5 37.6" enable-background="new 0 0 63.5 37.6" xml:space="preserve">
<g>
	<path fill="#FFFFFF" d="M53.9,17.9c0-3.8-3.1-6.9-6.9-6.9h-5.1c-0.6,0-1,0.4-1,1s0.4,1,1,1H47c2.7,0,4.9,2.2,4.9,4.9
		s-2.2,4.9-4.9,4.9h-2.7l3.4-3.4c0.2-0.2,0.3-0.5,0.3-0.7s-0.1-0.5-0.3-0.7c-0.4-0.4-1-0.4-1.4,0l-5.1,5.1c0,0,0,0,0,0c0,0,0,0,0,0
		c0,0,0,0,0,0c0,0,0,0,0,0c0,0,0,0,0,0c0,0,0,0,0,0c-0.1,0.1-0.2,0.3-0.2,0.4c0,0,0,0,0,0c0,0,0,0,0,0c0,0,0,0.1,0,0.2c0,0,0,0,0,0
		c0,0,0,0,0,0c0,0.2,0,0.3,0.1,0.5c0.1,0.1,0.1,0.2,0.2,0.3l5.1,5.1c0.2,0.2,0.5,0.3,0.7,0.3s0.5-0.1,0.7-0.3c0.4-0.4,0.4-1,0-1.4
		l-3.4-3.4H47C50.8,24.8,53.9,21.7,53.9,17.9z"/>
	<path fill="#FFFFFF" d="M37.6,5.9h-27c-0.6,0-1,0.4-1,1v10.2c0,0.6,0.4,1,1,1h27c0.6,0,1-0.4,1-1V6.9C38.6,6.3,38.2,5.9,37.6,5.9z
		 M36.6,16.1h-25V7.9h25V16.1z"/>
	<path fill="#FFFFFF" d="M37.6,19.5h-27c-0.6,0-1,0.4-1,1v10.2c0,0.6,0.4,1,1,1h27c0.6,0,1-0.4,1-1V20.5
		C38.6,19.9,38.2,19.5,37.6,19.5z M36.6,29.7h-25v-8.2h25V29.7z"/>
</g>
</svg>
