<?xml version="1.0" encoding="utf-8"?>
<!-- Generator: Adobe Illustrator 17.1.0, SVG Export Plug-In . SVG Version: 6.00 Build 0)  -->
<!DOCTYPE svg PUBLIC "-//W3C//DTD SVG 1.1//EN" "http://www.w3.org/Graphics/SVG/1.1/DTD/svg11.dtd">
<svg version="1.1" id="Layer_1" xmlns="http://www.w3.org/2000/svg" xmlns:xlink="http://www.w3.org/1999/xlink" x="0px" y="0px"
	 viewBox="0 0 63.5 37.6" enable-background="new 0 0 63.5 37.6" xml:space="preserve">
<g>
	<path fill="#FFFFFF" d="M51.8,14.6c0-0.3-0.2-0.6-0.4-0.8L46,8.4c0,0,0,0,0,0c-0.1-0.1-0.2-0.1-0.3-0.2c0,0-0.1,0-0.1,0
		c-0.1,0-0.2,0-0.3-0.1c0,0,0,0-0.1,0H33.4V4c0-0.6-0.4-1-1-1c-0.6,0-1,0.4-1,1v4.1H14.1c-0.6,0-1,0.4-1,1v16.1c0,0.6,0.4,1,1,1
		h17.3v5l-3.4-3.4c-0.4-0.4-1-0.4-1.4,0s-0.4,1,0,1.4l5.1,5.1c0.1,0.1,0.2,0.2,0.3,0.2c0.1,0.1,0.3,0.1,0.4,0.1s0.3,0,0.4-0.1
		c0.1-0.1,0.2-0.1,0.3-0.2l5.1-5.1c0.4-0.4,0.4-1,0-1.4s-1-0.4-1.4,0l-3.4,3.4v-5h17.3c0.6,0,1-0.4,1-1L51.8,14.6
		C51.8,14.7,51.8,14.7,51.8,14.6z M46.3,11.5l2.1,2.1h-2.1V11.5z M15.1,24.2V10.1h29.2v4.5c0,0.6,0.4,1,1,1h4.5v8.6H15.1z"/>
	<polygon fill="#FFFFFF" points="17.4,19.3 17.2,19.4 17.2,21.3 17.4,21.4 19.2,21.4 19.3,21.3 19.3,19.4 19.2,19.3 	"/>
	<path fill="#FFFFFF" d="M24.5,12.3h-1.2l-0.1,0.1l-2.9,7.9v0.9l0.1,0.1h0.8l0.1-0.1l0.5-1.6l0.3-0.1h3.5l0.3,0.1l0.5,1.6l0.1,0.1
		h0.8l0.1-0.1v-0.9l-2.9-7.9L24.5,12.3z M25.3,18.4h-2.7l-0.1-0.1l1.4-4H24l1.4,4L25.3,18.4z"/>
	<path fill="#FFFFFF" d="M33.9,16.7v-0.1c0.6-0.3,1.2-0.9,1.2-1.8c0-1.8-1.3-2.5-2.7-2.5h-3.4l-0.1,0.1v8.8l0.1,0.1h3.6
		c1.4,0,2.7-0.7,2.7-2.6C35.3,17.6,34.7,17,33.9,16.7z M30.1,13.6l0.1-0.1h1.8c1.2,0,1.7,0.3,1.7,1.3s-0.5,1.3-1.6,1.3h-2l-0.1-0.1
		V13.6z M32.4,20.2h-2.2l-0.1-0.1v-2.7l0.1-0.1h2c1.3,0,1.8,0.4,1.8,1.6C34,19.8,33.5,20.2,32.4,20.2z"/>
	<path fill="#FFFFFF" d="M40,13.3c1.3,0,1.8,0.7,2,1.6l0.1,0.1h1l0.1-0.1c-0.1-1.7-1.3-2.7-3.2-2.7c-2.3,0-3.6,1.6-3.6,4.7
		s1.3,4.7,3.6,4.7c2.1,0,3.1-1.2,3.2-2.9l-0.1-0.1h-1l-0.1,0.1c-0.1,0.9-0.5,1.7-2,1.7c-1.6,0-2.3-1.2-2.3-3.5
		C37.6,14.5,38.4,13.3,40,13.3z"/>
</g>
</svg>
