<?xml version="1.0" encoding="utf-8"?>
<!-- Generator: Adobe Illustrator 17.1.0, SVG Export Plug-In . SVG Version: 6.00 Build 0)  -->
<!DOCTYPE svg PUBLIC "-//W3C//DTD SVG 1.1//EN" "http://www.w3.org/Graphics/SVG/1.1/DTD/svg11.dtd">
<svg version="1.1" id="Layer_1" xmlns="http://www.w3.org/2000/svg" xmlns:xlink="http://www.w3.org/1999/xlink" x="0px" y="0px"
	 viewBox="0 0 63.5 37.6" enable-background="new 0 0 63.5 37.6" xml:space="preserve">
<g>
	<path d="M63.2,15.9c-0.4-0.4-1-0.4-1.4,0l-2.4,2.4l-2-2l2.4-2.4c0.4-0.4,0.4-1,0-1.4s-1-0.4-1.4,0L56,14.9l-2-2l2.4-2.4
		c0.4-0.4,0.4-1,0-1.4s-1-0.4-1.4,0l-2.4,2.4l-2-2L53,7.1c0.4-0.4,0.4-1,0-1.4s-1-0.4-1.4,0l-2.4,2.4l-2-2l2.4-2.4
		c0.4-0.4,0.4-1,0-1.4s-1-0.4-1.4,0l-2.4,2.4l-0.7,0.7c-2.2,2.2-3.8,4.8-4.8,7.6c0,0,0,0,0,0.1c-0.2,0.5-0.3,0.9-0.4,1.4
		c-0.1,0.3-0.2,0.6-0.2,0.9c0,0.2-0.1,0.5-0.1,0.7c-0.1,0.5-0.2,1-0.2,1.5c0,0.1,0,0.2,0,0.3c-0.1,0.6-0.1,1.2-0.1,1.8
		c0,0.6,0,1.2,0.1,1.8c0,0.1,0,0.2,0,0.3c0.1,0.5,0.1,1,0.2,1.5c0,0.2,0.1,0.5,0.1,0.7c0.1,0.3,0.1,0.6,0.2,0.9
		c0.1,0.5,0.3,1,0.4,1.4c0,0,0,0,0,0.1c1,2.8,2.6,5.4,4.8,7.6l0.7,0.7l15-15l2.4-2.4C63.6,16.9,63.6,16.3,63.2,15.9z M42.6,12.6
		c3,1,5.1,3.9,5.1,7.1s-2.1,6.1-5.1,7.1c-0.5-1.1-0.8-2.3-1.1-3.4c0,0,0-0.1,0-0.1c-0.1-0.5-0.2-1-0.2-1.5c0-0.1,0-0.2,0-0.3
		c-0.1-0.6-0.1-1.2-0.1-1.8s0-1.2,0.1-1.8c0-0.1,0-0.2,0-0.3c0.1-0.5,0.1-1,0.2-1.5c0,0,0-0.1,0-0.1C41.8,14.8,42.1,13.7,42.6,12.6z
		 M45.8,31.9c-0.9-1-1.6-2.1-2.3-3.2c3.7-1.4,6.2-4.9,6.2-8.9s-2.5-7.6-6.2-8.9c0.6-1.1,1.4-2.2,2.3-3.2l6.1,6.1c0,0,0,0,0,0
		s0,0,0,0l6.1,6.1L45.8,31.9z"/>
	<path d="M21,18.7h-4c-0.6,0-1,0.4-1,1s0.4,1,1,1h4c0.6,0,1-0.4,1-1S21.6,18.7,21,18.7z"/>
	<path d="M29,18.7h-4c-0.6,0-1,0.4-1,1s0.4,1,1,1h4c0.6,0,1-0.4,1-1S29.6,18.7,29,18.7z"/>
	<path d="M13,18.7H9.9c-0.6,0-1,0.4-1,1s0.4,1,1,1H13c0.6,0,1-0.4,1-1S13.6,18.7,13,18.7z"/>
	<path d="M37,18.7h-4c-0.6,0-1,0.4-1,1s0.4,1,1,1h4c0.6,0,1-0.4,1-1S37.6,18.7,37,18.7z"/>
	<path d="M4.9,3.5H3.6L3.5,3.7l-3.1,8.5v1l0.1,0.1h0.8l0.1-0.1l0.6-1.7l0.3-0.1h3.8l0.3,0.1L7,13.2l0.1,0.1H8l0.1-0.1v-1L5,3.7
		L4.9,3.5z M5.7,10.1H2.8L2.7,10l1.5-4.3h0.1L5.9,10L5.7,10.1z"/>
	<path d="M6.4,19.3v-0.1c0.7-0.3,1.3-1,1.3-2c0-2-1.4-2.7-2.9-2.7H1.1L1,14.7v9.5l0.1,0.1H5c1.5,0,2.9-0.7,2.9-2.8
		C8,20.3,7.3,19.6,6.4,19.3z M2.4,15.9l0.1-0.1h2c1.3,0,1.8,0.3,1.8,1.4s-0.6,1.4-1.7,1.4H2.5l-0.1-0.1V15.9z M4.9,23.1H2.5
		l-0.1-0.1V20l0.1-0.1h2.1c1.4,0,2,0.4,2,1.7C6.6,22.7,6,23.1,4.9,23.1z"/>
	<path d="M4.5,26.7c1.4,0,2,0.7,2.1,1.7l0.1,0.1h1.1L8,28.3c-0.1-1.8-1.4-2.9-3.5-2.9c-2.5,0-3.9,1.7-3.9,5s1.4,5,3.9,5
		c2.2,0,3.4-1.3,3.5-3.1l-0.1-0.1H6.7l-0.1,0.1c-0.1,1-0.6,1.8-2.1,1.8C2.8,34.2,2,33,2,30.4C2,27.9,2.8,26.7,4.5,26.7z"/>
</g>
</svg>
