<?xml version="1.0" encoding="utf-8"?>
<!-- Generator: Adobe Illustrator 17.1.0, SVG Export Plug-In . SVG Version: 6.00 Build 0)  -->
<!DOCTYPE svg PUBLIC "-//W3C//DTD SVG 1.1//EN" "http://www.w3.org/Graphics/SVG/1.1/DTD/svg11.dtd">
<svg version="1.1" id="Layer_1" xmlns="http://www.w3.org/2000/svg" xmlns:xlink="http://www.w3.org/1999/xlink" x="0px" y="0px"
	 viewBox="0 0 63.5 37.6" enable-background="new 0 0 63.5 37.6" xml:space="preserve">
<g>
	<path fill="#FFFFFF" d="M42.1,22.3H40c-0.6,0-1,0.4-1,1s0.4,1,1,1h2.1c0.6,0,1-0.4,1-1S42.7,22.3,42.1,22.3z"/>
	<path fill="#FFFFFF" d="M35.3,24.3h2.1c0.6,0,1-0.4,1-1s-0.4-1-1-1h-2.1c-0.6,0-1,0.4-1,1S34.7,24.3,35.3,24.3z"/>
	<path fill="#FFFFFF" d="M30.6,24.3h2.1c0.6,0,1-0.4,1-1s-0.4-1-1-1h-2.1c-0.6,0-1,0.4-1,1S30,24.3,30.6,24.3z"/>
	<path fill="#FFFFFF" d="M42.1,26.7H20.5c-0.6,0-1,0.4-1,1s0.4,1,1,1h21.6c0.6,0,1-0.4,1-1S42.7,26.7,42.1,26.7z"/>
	<path fill="#FFFFFF" d="M25.8,24.3H28c0.6,0,1-0.4,1-1s-0.4-1-1-1h-2.1c-0.6,0-1,0.4-1,1S25.3,24.3,25.8,24.3z"/>
	<path fill="#FFFFFF" d="M21.1,24.3h2.1c0.6,0,1-0.4,1-1s-0.4-1-1-1h-2.1c-0.6,0-1,0.4-1,1S20.6,24.3,21.1,24.3z"/>
	<path fill="#FFFFFF" d="M18.5,22.3h-2.1c-0.6,0-1,0.4-1,1s0.4,1,1,1h2.1c0.6,0,1-0.4,1-1S19.1,22.3,18.5,22.3z"/>
	<path fill="#FFFFFF" d="M13.8,22.3h-2.1c-0.6,0-1,0.4-1,1s0.4,1,1,1h2.1c0.6,0,1-0.4,1-1S14.4,22.3,13.8,22.3z"/>
	<path fill="#FFFFFF" d="M50.5,17.8h-2.1c-0.6,0-1,0.4-1,1s0.4,1,1,1h2.1c0.6,0,1-0.4,1-1S51,17.8,50.5,17.8z"/>
	<path fill="#FFFFFF" d="M45.7,17.8h-2.1c-0.6,0-1,0.4-1,1s0.4,1,1,1h2.1c0.6,0,1-0.4,1-1S46.3,17.8,45.7,17.8z"/>
	<path fill="#FFFFFF" d="M41,19.8c0.6,0,1-0.4,1-1s-0.4-1-1-1h-2.1c-0.6,0-1,0.4-1,1s0.4,1,1,1H41z"/>
	<path fill="#FFFFFF" d="M36.3,19.8c0.6,0,1-0.4,1-1s-0.4-1-1-1h-2.1c-0.6,0-1,0.4-1,1s0.4,1,1,1H36.3z"/>
	<path fill="#FFFFFF" d="M31.6,19.8c0.6,0,1-0.4,1-1s-0.4-1-1-1h-2.1c-0.6,0-1,0.4-1,1s0.4,1,1,1H31.6z"/>
	<path fill="#FFFFFF" d="M26.9,19.8c0.6,0,1-0.4,1-1s-0.4-1-1-1h-2.1c-0.6,0-1,0.4-1,1s0.4,1,1,1H26.9z"/>
	<path fill="#FFFFFF" d="M23.1,18.8c0-0.6-0.4-1-1-1H20c-0.6,0-1,0.4-1,1s0.4,1,1,1h2.1C22.7,19.8,23.1,19.4,23.1,18.8z"/>
	<path fill="#FFFFFF" d="M18.4,18.8c0-0.6-0.4-1-1-1h-2.1c-0.6,0-1,0.4-1,1s0.4,1,1,1h2.1C18,19.8,18.4,19.4,18.4,18.8z"/>
	<path fill="#FFFFFF" d="M13.7,18.8c0-0.6-0.4-1-1-1h-2.1c-0.6,0-1,0.4-1,1s0.4,1,1,1h2.1C13.2,19.8,13.7,19.4,13.7,18.8z"/>
	<path fill="#FFFFFF" d="M54.1,13.3h-2.1c-0.6,0-1,0.4-1,1s0.4,1,1,1h2.1c0.6,0,1-0.4,1-1S54.6,13.3,54.1,13.3z"/>
	<path fill="#FFFFFF" d="M50.3,14.3c0-0.6-0.4-1-1-1h-2.1c-0.6,0-1,0.4-1,1s0.4,1,1,1h2.1C49.9,15.3,50.3,14.9,50.3,14.3z"/>
	<path fill="#FFFFFF" d="M41.5,14.3c0,0.6,0.4,1,1,1h2.1c0.6,0,1-0.4,1-1s-0.4-1-1-1h-2.1C41.9,13.3,41.5,13.8,41.5,14.3z"/>
	<path fill="#FFFFFF" d="M36.8,14.3c0,0.6,0.4,1,1,1h2.1c0.6,0,1-0.4,1-1s-0.4-1-1-1h-2.1C37.2,13.3,36.8,13.8,36.8,14.3z"/>
	<path fill="#FFFFFF" d="M32,14.3c0,0.6,0.4,1,1,1h2.1c0.6,0,1-0.4,1-1s-0.4-1-1-1H33C32.5,13.3,32,13.8,32,14.3z"/>
	<path fill="#FFFFFF" d="M27.3,14.3c0,0.6,0.4,1,1,1h2.1c0.6,0,1-0.4,1-1s-0.4-1-1-1h-2.1C27.8,13.3,27.3,13.8,27.3,14.3z"/>
	<path fill="#FFFFFF" d="M22.6,14.3c0,0.6,0.4,1,1,1h2.1c0.6,0,1-0.4,1-1s-0.4-1-1-1h-2.1C23,13.3,22.6,13.8,22.6,14.3z"/>
	<path fill="#FFFFFF" d="M17.9,14.3c0,0.6,0.4,1,1,1H21c0.6,0,1-0.4,1-1s-0.4-1-1-1h-2.1C18.3,13.3,17.9,13.8,17.9,14.3z"/>
	<path fill="#FFFFFF" d="M13.1,14.3c0,0.6,0.4,1,1,1h2.1c0.6,0,1-0.4,1-1s-0.4-1-1-1h-2.1C13.6,13.3,13.1,13.8,13.1,14.3z"/>
	<path fill="#FFFFFF" d="M12.6,14.3c0-0.6-0.4-1-1-1H9.4c-0.6,0-1,0.4-1,1s0.4,1,1,1h2.1C12.1,15.3,12.6,14.9,12.6,14.3z"/>
	<path fill="#FFFFFF" d="M50.8,10.9h2.1c0.6,0,1-0.4,1-1s-0.4-1-1-1h-2.1c-0.6,0-1,0.4-1,1S50.2,10.9,50.8,10.9z"/>
	<path fill="#FFFFFF" d="M46.1,10.9h2.1c0.6,0,1-0.4,1-1s-0.4-1-1-1h-2.1c-0.6,0-1,0.4-1,1S45.5,10.9,46.1,10.9z"/>
	<path fill="#FFFFFF" d="M41.4,10.9h2.1c0.6,0,1-0.4,1-1s-0.4-1-1-1h-2.1c-0.6,0-1,0.4-1,1S40.8,10.9,41.4,10.9z"/>
	<path fill="#FFFFFF" d="M36.6,10.9h2.1c0.6,0,1-0.4,1-1s-0.4-1-1-1h-2.1c-0.6,0-1,0.4-1,1S36.1,10.9,36.6,10.9z"/>
	<path fill="#FFFFFF" d="M31.9,10.9H34c0.6,0,1-0.4,1-1s-0.4-1-1-1h-2.1c-0.6,0-1,0.4-1,1S31.4,10.9,31.9,10.9z"/>
	<path fill="#FFFFFF" d="M27.2,10.9h2.1c0.6,0,1-0.4,1-1s-0.4-1-1-1h-2.1c-0.6,0-1,0.4-1,1S26.6,10.9,27.2,10.9z"/>
	<path fill="#FFFFFF" d="M22.5,10.9h2.1c0.6,0,1-0.4,1-1s-0.4-1-1-1h-2.1c-0.6,0-1,0.4-1,1S21.9,10.9,22.5,10.9z"/>
	<path fill="#FFFFFF" d="M17.7,10.9h2.1c0.6,0,1-0.4,1-1s-0.4-1-1-1h-2.1c-0.6,0-1,0.4-1,1S17.2,10.9,17.7,10.9z"/>
	<path fill="#FFFFFF" d="M13,10.9h2.1c0.6,0,1-0.4,1-1s-0.4-1-1-1H13c-0.6,0-1,0.4-1,1S12.5,10.9,13,10.9z"/>
	<path fill="#FFFFFF" d="M11.4,9.9c0-0.6-0.4-1-1-1H8.3c-0.6,0-1,0.4-1,1s0.4,1,1,1h2.1C11,10.9,11.4,10.4,11.4,9.9z"/>
	<path fill="#FFFFFF" d="M58.5,4.1H5c-1.4,0-2.6,1.2-2.6,2.6v24.2c0,1.4,1.2,2.6,2.6,2.6h53.5c1.4,0,2.6-1.2,2.6-2.6V6.7
		C61.1,5.3,59.9,4.1,58.5,4.1z M59.1,30.9c0,0.3-0.3,0.6-0.6,0.6H5c-0.3,0-0.6-0.3-0.6-0.6V6.7c0-0.3,0.3-0.6,0.6-0.6h53.5
		c0.3,0,0.6,0.3,0.6,0.6V30.9z"/>
</g>
</svg>
