<?xml version="1.0" encoding="utf-8"?>
<!-- Generator: Adobe Illustrator 17.1.0, SVG Export Plug-In . SVG Version: 6.00 Build 0)  -->
<!DOCTYPE svg PUBLIC "-//W3C//DTD SVG 1.1//EN" "http://www.w3.org/Graphics/SVG/1.1/DTD/svg11.dtd">
<svg version="1.1" id="Layer_1" xmlns="http://www.w3.org/2000/svg" xmlns:xlink="http://www.w3.org/1999/xlink" x="0px" y="0px"
	 viewBox="0 0 63.5 37.6" enable-background="new 0 0 63.5 37.6" xml:space="preserve">
<g>
	<path fill="#69EB7B" d="M37.6,18.4c-0.1-0.1-0.1-0.2-0.2-0.3L32.3,13c-0.4-0.4-1-0.4-1.4,0s-0.4,1,0,1.4l3.4,3.4h-7.5
		c-0.6,0-1,0.4-1,1s0.4,1,1,1h7.5l-3.4,3.4c-0.4,0.4-0.4,1,0,1.4c0.2,0.2,0.5,0.3,0.7,0.3s0.5-0.1,0.7-0.3l5.1-5.1
		c0.1-0.1,0.2-0.2,0.2-0.3c0.1-0.1,0.1-0.3,0.1-0.4S37.7,18.5,37.6,18.4z"/>
	<path fill="#69EB7B" d="M56.3,9.8H40.2c-0.6,0-1,0.4-1,1v16.1c0,0.6,0.4,1,1,1h16.1c0.6,0,1-0.4,1-1V10.8
		C57.3,10.2,56.9,9.8,56.3,9.8z M55.3,25.9H41.2V11.8h14.1V25.9z"/>
	<path fill="#69EB7B" d="M23.3,9.8H7.2c-0.6,0-1,0.4-1,1v16.1c0,0.6,0.4,1,1,1h16.1c0.6,0,1-0.4,1-1V10.8
		C24.3,10.2,23.8,9.8,23.3,9.8z M22.3,25.9H8.2V11.8h14.1V25.9z"/>
	<path fill="#69EB7B" d="M48.3,22.3c1.9,0,2.7-0.9,2.7-2c0-1.4-1-1.9-2.4-2.1c-1.4-0.2-1.9-0.4-1.9-1.2c0-0.6,0.5-1,1.4-1
		c1.3,0,1.7,0.4,1.7,1.2l0.1,0.1h0.8l0.1-0.1c0-1.5-1.1-2.1-2.6-2.1c-1.8,0-2.5,1-2.5,1.9c0,1.2,0.9,1.8,2.3,2c1.4,0.2,2,0.4,2,1.3
		c0,0.8-0.7,1.1-1.6,1.1c-1.2,0-1.9-0.4-1.9-1.4l-0.1-0.1h-0.8L45.5,20C45.5,21.5,46.6,22.3,48.3,22.3z"/>
	<path fill="#69EB7B" d="M13.2,22.2l0.1-0.1l0.4-1.2l0.2-0.1h2.7l0.2,0.1l0.4,1.2l0.1,0.1h0.6l0.1-0.1v-0.7l-2.2-6.1l-0.1-0.1h-0.9
		l-0.1,0.1l-2.2,6.1v0.7l0.1,0.1H13.2z M15.2,16.7L15.2,16.7l1.2,3.1l-0.1,0.1h-2.1l-0.1-0.1L15.2,16.7z"/>
</g>
</svg>
