<?xml version="1.0" encoding="utf-8"?>
<!-- Generator: Adobe Illustrator 17.1.0, SVG Export Plug-In . SVG Version: 6.00 Build 0)  -->
<!DOCTYPE svg PUBLIC "-//W3C//DTD SVG 1.1//EN" "http://www.w3.org/Graphics/SVG/1.1/DTD/svg11.dtd">
<svg version="1.1" id="Layer_1" xmlns="http://www.w3.org/2000/svg" xmlns:xlink="http://www.w3.org/1999/xlink" x="0px" y="0px"
	 viewBox="0 0 63.5 37.6" enable-background="new 0 0 63.5 37.6" xml:space="preserve">
<path fill="#FFFFFF" d="M42.5,18.3C42.5,18.3,42.5,18.3,42.5,18.3c-0.6,0-1,0.4-1,1c0,2.6-1,5-2.8,6.9C36.8,28,34.3,29,31.7,29
	s-5-1-6.9-2.8S22,21.9,22,19.3s1-5,2.8-6.9s4.3-2.8,6.9-2.8c2.5,0,4.9,1,6.7,2.7h-6c-0.6,0-1,0.4-1,1s0.4,1,1,1h8.5c0.6,0,1-0.4,1-1
	V4.7c0-0.6-0.4-1-1-1s-1,0.4-1,1v6.1c-2.2-2.1-5.1-3.3-8.1-3.3c-3.1,0-6.1,1.2-8.3,3.4c-2.2,2.2-3.4,5.2-3.4,8.3s1.2,6.1,3.4,8.3
	c2.2,2.2,5.2,3.4,8.3,3.4c3.1,0,6.1-1.2,8.3-3.4c2.2-2.2,3.4-5.2,3.4-8.3C43.5,18.7,43,18.3,42.5,18.3z"/>
</svg>
