<?xml version="1.0" encoding="utf-8"?>
<!-- Generator: Adobe Illustrator 17.1.0, SVG Export Plug-In . SVG Version: 6.00 Build 0)  -->
<!DOCTYPE svg PUBLIC "-//W3C//DTD SVG 1.1//EN" "http://www.w3.org/Graphics/SVG/1.1/DTD/svg11.dtd">
<svg version="1.1" id="Layer_1" xmlns="http://www.w3.org/2000/svg" xmlns:xlink="http://www.w3.org/1999/xlink" x="0px" y="0px"
	 viewBox="0 0 21.6 117.2" enable-background="new 0 0 21.6 117.2" xml:space="preserve">
<path fill="#FF786E" d="M11.2,0c-0.2-0.1-0.5-0.1-0.8,0c-0.1,0.1-0.2,0.1-0.3,0.2L5,5.3c-0.4,0.4-0.4,1,0,1.4s1,0.4,1.4,0l3.4-3.4
	v112.8c0,0.6,0.4,1,1,1s1-0.4,1-1V3.3l3.4,3.4c0.4,0.4,1,0.4,1.4,0c0.2-0.2,0.3-0.5,0.3-0.7s-0.1-0.5-0.3-0.7l-5.1-5.1
	C11.4,0.1,11.3,0.1,11.2,0z"/>
</svg>
