<?xml version="1.0" encoding="utf-8"?>
<!-- Generator: Adobe Illustrator 17.1.0, SVG Export Plug-In . SVG Version: 6.00 Build 0)  -->
<!DOCTYPE svg PUBLIC "-//W3C//DTD SVG 1.1//EN" "http://www.w3.org/Graphics/SVG/1.1/DTD/svg11.dtd">
<svg version="1.1" id="Layer_1" xmlns="http://www.w3.org/2000/svg" xmlns:xlink="http://www.w3.org/1999/xlink" x="0px" y="0px"
	 viewBox="0 0 63.5 37.6" enable-background="new 0 0 63.5 37.6" xml:space="preserve">
<g>
	<path fill="#69EB7B" d="M49.6,12.8H47l3.4-3.4c0.4-0.4,0.4-1,0-1.4c-0.4-0.4-1-0.4-1.4,0l-5.1,5.1c-0.1,0.1-0.2,0.2-0.2,0.3l0,0
		c0,0,0,0,0,0v0c0,0,0,0,0,0c0,0,0,0,0,0c0,0,0,0,0,0c-0.1,0.2-0.1,0.3-0.1,0.5c0,0,0,0,0,0c0,0,0,0,0,0c0,0,0,0,0,0s0,0,0,0v0
		c0,0,0,0.1,0,0.1c0,0,0,0,0,0c0,0,0,0,0,0c0,0,0,0,0,0c0,0,0,0,0,0c0,0,0,0,0,0c0,0.2,0.1,0.3,0.3,0.5c0,0,0,0,0,0c0,0,0,0,0,0
		l5.1,5.1c0.4,0.4,1,0.4,1.4,0c0.2-0.2,0.3-0.5,0.3-0.7s-0.1-0.5-0.3-0.7L47,14.8h2.7c2.7,0,4.9,2.2,4.9,4.9s-2.2,4.9-4.9,4.9h-5.1
		c-0.6,0-1,0.4-1,1s0.4,1,1,1h5.1c3.8,0,6.9-3.1,6.9-6.9S53.4,12.8,49.6,12.8z"/>
	<path fill="#69EB7B" d="M40.3,5.9h-27c-0.6,0-1,0.4-1,1v10.2c0,0.6,0.4,1,1,1h27c0.6,0,1-0.4,1-1V6.9C41.3,6.3,40.8,5.9,40.3,5.9z
		 M39.3,16.1h-25V7.9h25V16.1z"/>
	<path fill="#69EB7B" d="M40.3,19.5h-27c-0.6,0-1,0.4-1,1v10.2c0,0.6,0.4,1,1,1h27c0.6,0,1-0.4,1-1V20.5
		C41.3,19.9,40.8,19.5,40.3,19.5z M39.3,29.7h-25v-8.2h25V29.7z"/>
</g>
</svg>
