<?xml version="1.0" encoding="utf-8"?>
<!-- Generator: Adobe Illustrator 17.1.0, SVG Export Plug-In . SVG Version: 6.00 Build 0)  -->
<!DOCTYPE svg PUBLIC "-//W3C//DTD SVG 1.1//EN" "http://www.w3.org/Graphics/SVG/1.1/DTD/svg11.dtd">
<svg version="1.1" id="Layer_1" xmlns="http://www.w3.org/2000/svg" xmlns:xlink="http://www.w3.org/1999/xlink" x="0px" y="0px"
	 viewBox="0 0 21.6 14.4" enable-background="new 0 0 21.6 14.4" xml:space="preserve">
<path fill="#222222" d="M12.2,7.4L17.6,2c0.4-0.4,0.4-1,0-1.4s-1-0.4-1.4,0l-5.3,5.3L5.5,0.6c-0.4-0.4-1-0.4-1.4,0S3.7,1.6,4,2
	l5.3,5.3L4,12.7c-0.4,0.4-0.4,1,0,1.4c0.2,0.2,0.5,0.3,0.7,0.3s0.5-0.1,0.7-0.3l5.3-5.3l5.3,5.3c0.2,0.2,0.5,0.3,0.7,0.3
	s0.5-0.1,0.7-0.3c0.4-0.4,0.4-1,0-1.4L12.2,7.4z"/>
</svg>
