<?xml version="1.0" encoding="utf-8"?>
<!-- Generator: Adobe Illustrator 15.0.0, SVG Export Plug-In  -->
<!DOCTYPE svg PUBLIC "-//W3C//DTD SVG 1.1//EN" "http://www.w3.org/Graphics/SVG/1.1/DTD/svg11.dtd" [
	<!ENTITY ns_flows "http://ns.adobe.com/Flows/1.0/">
]>
<svg version="1.1"
	 xmlns="http://www.w3.org/2000/svg" xmlns:xlink="http://www.w3.org/1999/xlink" xmlns:a="http://ns.adobe.com/AdobeSVGViewerExtensions/3.0/"
	 x="0px" y="0px" width="200px" height="200px" viewBox="0 0 200 200" overflow="visible" enable-background="new 0 0 200 200"
	 xml:space="preserve">
<defs>
</defs>
<circle fill="#FFB85D" cx="100" cy="100" r="100"/>
<rect x="51.499" y="56.568" fill="#FFFFFF" width="97.002" height="64.67"/>
<polygon fill="#F1F2F2" points="51.499,56.568 116.17,121.239 148.501,121.24 148.501,56.568 "/>
<polygon fill="#FF6183" points="116.167,153.573 116.167,153.572 116.167,137.407 100,137.407 83.833,137.407 83.833,153.572 
	83.833,153.572 83.833,153.573 67.666,169.739 83.833,169.739 83.833,169.74 100,169.74 100,169.739 100,169.74 116.167,169.74 
	116.167,169.739 132.333,169.739 "/>
<path fill="#FF6183" d="M148.501,40.402L148.501,40.402L148.501,40.402l-16.167-0.001h-16.167H100H83.833H67.666H51.499v0.001
	L35.332,56.568h0v16.168v16.168v16.168v16.168l16.167,16.166v0l0,0.001h16.167h16.167H100h16.167h16.167h16.167v-0.001
	l16.167-16.166v-16.168V88.904V72.736V56.568h0L148.501,40.402z M148.501,72.736v16.168v16.168v16.167h-16.167h-16.167H100H83.833
	H67.666l-16.167,0.001v-16.168V88.904V72.736V56.568h0v0.001h16.167h16.167H100h16.167h16.167h16.167V72.736z"/>
<polyline fill="#EF4370" points="100,153.575 116.167,153.575 116.167,137.407 100,137.407 83.833,137.407 100,153.573 "/>
<path fill="#FFB85D" d="M82.93,99.504c-1.074-0.303-2.975-0.496-4.903-0.496l-3.883-7.767c-0.386-0.744-0.909-0.937-1.873-0.937
	l-1.377,5.619c-0.083,0.358-0.138,0.661-0.138,0.937c0,0.771,0.523,1.157,2.451,1.377c0.11,0.027,0.138,0.11,0.138,0.248
	c0,0.248-0.138,0.523-0.33,0.523c-1.818,0-2.727-0.166-4.214-0.166c-1.432,0-2.423,0.166-4.076,0.166
	c-0.055,0-0.138-0.028-0.138-0.248c0-0.248,0.166-0.496,0.331-0.523c2.754-0.303,2.837-0.909,3.195-2.313l3.085-12.973
	c0.083-0.358,0.138-0.661,0.138-0.936c0-0.771-0.523-1.157-2.451-1.405c-0.11,0-0.138-0.11-0.138-0.22
	c0-0.248,0.138-0.551,0.33-0.551c1.818,0,2.259,0.165,3.663,0.165c1.46,0,1.928-0.165,3.746-0.165c3.938,0,6.032,1.267,6.032,4.517
	c0,2.919-3.36,5.206-6.142,5.729l3.195,6.059c0.799,1.515,2.121,2.148,3.608,2.617c0.11,0.027,0.166,0.138,0.166,0.275
	C83.343,99.394,83.15,99.559,82.93,99.504z M76.43,80.775c-1.708,0-2.038,0.469-2.451,2.176l-1.515,6.473h1.598
	c3.856,0,5.536-3.195,5.536-5.288C79.597,81.657,78.275,80.775,76.43,80.775z"/>
<path fill="#FFB85D" d="M97.224,80.61c-2.727,0.331-2.837,0.909-3.167,2.341l-3.084,12.973c-0.083,0.358-0.166,0.661-0.166,0.937
	c0,0.771,0.523,1.157,2.452,1.377c0.11,0.027,0.138,0.11,0.138,0.248c0,0.248-0.138,0.523-0.303,0.523
	c-1.818,0-2.754-0.166-4.214-0.166c-1.46,0-2.451,0.166-4.076,0.166c-0.083,0-0.166-0.028-0.166-0.248
	c0-0.248,0.166-0.496,0.331-0.523c2.754-0.303,2.864-0.909,3.195-2.313l3.085-12.973c0.083-0.358,0.138-0.661,0.138-0.936
	c0-0.771-0.496-1.157-2.451-1.405c-0.083,0-0.138-0.11-0.138-0.22c0-0.248,0.165-0.551,0.331-0.551c1.817,0,2.754,0.165,4.214,0.165
	c1.432,0,2.424-0.165,4.076-0.165c0.083,0,0.138,0.055,0.138,0.275S97.417,80.61,97.224,80.61z"/>
<path fill="#FFB85D" d="M110.251,84.19c0,0.11-0.193,0.22-0.386,0.22c-0.22,0-0.358-0.055-0.385-0.22
	c-0.248-2.809-1.294-3.883-3.416-3.883c-2.01,0-2.836,1.267-2.836,3.084c0,4.242,5.949,5.591,5.949,10.466
	c0,3.36-2.809,5.591-6.527,5.591c-2.341,0-3.305-0.854-5.343-0.854c0.11-1.487,0.248-3.36,0.275-4.682c0-0.138,0.22-0.22,0.441-0.22
	c0.22,0,0.303,0.055,0.331,0.22c0.523,3.416,1.735,4.655,4.517,4.655c2.396,0,3.663-1.597,3.663-3.773
	c0-4.048-6.142-5.756-6.142-10.025c0-2.81,2.176-5.344,5.839-5.344c1.873,0,2.424,0.496,4.131,0.496
	C110.279,81.491,110.224,82.675,110.251,84.19z"/>
<path fill="#FFB85D" d="M119.699,98.953c-1.212,0-3.388-0.11-4.682-0.11c-1.267,0-3.498,0.11-4.737,0.166
	c-0.11,0-0.138-0.056-0.138-0.248c0-0.248,0.166-0.496,0.331-0.523c2.727-0.303,2.837-0.909,3.195-2.313l3.057-12.973
	c0.11-0.358,0.166-0.661,0.166-0.936c0-0.771-0.523-1.157-2.451-1.405c-0.11,0-0.138-0.11-0.138-0.22c0-0.386,0.11-0.551,0.33-0.551
	c1.185,0.083,2.947,0.055,4.242,0.055c1.267,0,3.277-0.083,4.517-0.083c4.847,0,8.758,2.562,8.758,7.629
	C132.148,93.114,126.75,98.953,119.699,98.953z M123.114,80.72l-1.46,0.055c-0.771,0.028-1.68,0.248-1.983,1.598l-3.333,14.019
	c-0.331,1.35,0.468,1.57,1.239,1.57l2.121,0.083c6.335,0,9.475-6.94,9.475-10.934C129.173,82.317,126.832,80.665,123.114,80.72z"/>
</svg>
