<?xml version="1.0" encoding="utf-8"?>
<!-- Generator: Adobe Illustrator 15.0.0, SVG Export Plug-In  -->
<!DOCTYPE svg PUBLIC "-//W3C//DTD SVG 1.1//EN" "http://www.w3.org/Graphics/SVG/1.1/DTD/svg11.dtd" [
	<!ENTITY ns_flows "http://ns.adobe.com/Flows/1.0/">
]>
<svg version="1.1"
	 xmlns="http://www.w3.org/2000/svg" xmlns:xlink="http://www.w3.org/1999/xlink" xmlns:a="http://ns.adobe.com/AdobeSVGViewerExtensions/3.0/"
	 x="0px" y="0px" width="910px" height="200px" viewBox="0.017 0 910 200"
	 overflow="visible" enable-background="new 0.017 0 910 200" xml:space="preserve">
<defs>
</defs>
<path fill="#ADF2EE" d="M0,10.008v156.17h910.033V10.008H0z M459.647,123.274H448.02h-12.333h-14.5h-15.674h-46.698v-76.95
	l-3.341-5.505h3.341v-8.515h100.834V123.274z"/>
<rect y="169.677" fill="#FFB85D" width="910.033" height="30.323"/>
<rect y="160.196" fill="#FFFFFF" width="910.033" height="18.963"/>
<circle fill="#FC7C9F" cx="42.276" cy="118.281" r="19.265"/>
<circle fill="#FFC565" cx="202.223" cy="19.266" r="19.265"/>
<rect x="24.802" y="118.281" fill="#FFC565" width="196.687" height="26.882"/>
<rect x="24.802" y="19.266" fill="#FC7C9F" width="196.687" height="26.881"/>
<rect x="18.082" y="6.721" fill="#4ABCB9" width="13.441" height="181.007"/>
<rect x="63.445" y="115.12" fill="#FC7C9F" width="145.164" height="12.571"/>
<rect x="151.597" y="39.427" fill="#5FD0D6" width="13.44" height="115.593"/>
<rect x="31.522" y="141.58" fill="#4ABCB9" width="181.007" height="13.44"/>
<rect x="31.522" y="39.427" fill="#4ABCB9" width="181.007" height="13.442"/>
<rect x="158.316" y="73.255" fill="#5FD0D6" width="60.935" height="13.441"/>
<rect x="158.316" y="108.341" fill="#5FD0D6" width="60.935" height="13.44"/>
<circle fill="#4ABCB9" cx="24.802" cy="6.721" r="6.72"/>
<circle fill="#4ABCB9" cx="219.25" cy="6.721" r="6.72"/>
<rect x="31.522" y="15.975" fill="#FFC565" width="145.164" height="6.322"/>
<polyline fill="#FFC565" points="31.522,22.297 59.412,56.789 111.161,19.266 39.923,19.266 "/>
<rect x="142.747" y="15.975" fill="#5ADAE0" width="33.939" height="6.322"/>
<rect x="63.445" y="115.12" fill="#5ADAE0" width="33.939" height="12.571"/>
<rect x="212.529" y="6.721" fill="#4ABCB9" width="13.441" height="181.007"/>
<g>
	<path fill="#FFB85D" d="M246.451,52.774c3.972-2.293,9.097-0.919,11.39,3.052l39.137,67.787c2.293,3.972,0.919,9.097-3.052,11.39
		l-16.394,9.465c-3.972,2.293-9.097,0.919-11.39-3.052L227.004,73.63c-2.293-3.972-0.919-9.097,3.052-11.39L246.451,52.774z"/>
</g>
<path fill="#FFC565" d="M286.223,140.592l9.837-5.679c3.247-1.875,4.369-6.063,2.495-9.309l-41.649-72.138
	c-1.874-3.247-6.062-4.369-9.309-2.495l-9.837,5.679L286.223,140.592z"/>
<rect x="241.684" y="63.417" transform="matrix(0.5 0.866 -0.866 0.5 179.0787 -179.4985)" fill="#FF6183" width="6.603" height="3.833"/>
<rect x="238.364" y="65.334" transform="matrix(0.4999 0.8661 -0.8661 0.4999 179.0878 -175.6675)" fill="#FC7094" width="6.603" height="3.833"/>
<rect x="250.883" y="53.62" transform="matrix(-0.5 -0.866 0.866 -0.5 326.633 310.165)" fill="#64E2E2" width="3.944" height="14.341"/>
<circle fill="#FFFFFF" cx="265.589" cy="96.545" r="1.916"/>
<ellipse transform="matrix(0.4999 0.8661 -0.8661 0.4999 179.088 -181.4173)" fill="#FF6183" cx="246.645" cy="64.375" rx="3.302" ry="1.917"/>
<circle fill="#FFFFFF" cx="244.985" cy="65.333" r="1.164"/>
<polygon fill="#FFFFFF" points="242.888,67.63 241.948,66.002 244.984,64.817 245.432,65.592 "/>
<rect x="231.985" y="64.716" transform="matrix(-0.5 -0.866 0.866 -0.5 288.8367 310.1647)" fill="#64E2E2" width="3.944" height="13.97"/>
<rect x="279.015" y="128.077" transform="matrix(0.5 0.866 -0.866 0.5 253.7231 -179.4957)" fill="#FF6183" width="6.603" height="3.833"/>
<rect x="275.696" y="129.993" transform="matrix(0.5 0.866 -0.866 0.5 253.7311 -175.6633)" fill="#FC7094" width="6.602" height="3.834"/>
<rect x="288.213" y="118.279" transform="matrix(-0.5 -0.866 0.866 -0.5 326.6264 439.4842)" fill="#64E2E2" width="3.946" height="14.341"/>
<ellipse transform="matrix(0.5001 0.866 -0.866 0.5001 253.7116 -181.4109)" fill="#FF6183" cx="283.977" cy="129.035" rx="3.301" ry="1.917"/>
<circle fill="#FFFFFF" cx="282.316" cy="129.993" r="1.163"/>
<polygon fill="#FFFFFF" points="280.219,132.29 279.278,130.661 282.315,129.477 282.763,130.251 "/>
<rect x="269.315" y="129.376" transform="matrix(-0.5 -0.866 0.866 -0.5 288.8307 439.4838)" fill="#64E2E2" width="3.946" height="13.97"/>
<rect x="213.355" y="97.951" transform="matrix(-0.5 -0.866 0.866 -0.5 305.2552 374.8233)" opacity="0.1" fill="#231F20" width="94.95" height="2.683"/>
<circle fill="#64E2E2" cx="271.519" cy="106.816" r="3.338"/>
<circle fill="#64E2E2" cx="259.66" cy="86.274" r="3.338"/>
<g>
	<path fill="none" stroke="#FF6183" stroke-width="4.6322" stroke-linecap="round" stroke-miterlimit="10" d="M271.519,106.816
		c0,0-2.086,1.205-4.636,2.676s-6.512-0.573-8.805-4.545l-3.521-6.099c-2.293-3.972-2.083-8.426,0.467-9.897
		s4.636-2.676,4.636-2.676"/>
</g>
<g>
	<path fill="#FC7C9F" d="M772.947,92.145c0-4.586,3.752-8.338,8.338-8.338h56.838c4.586,0,8.338,3.752,8.338,8.338v10.892
		c0,4.586-3.752,8.338-8.338,8.338h-56.838c-4.586,0-8.338-3.752-8.338-8.338V92.145z"/>
</g>
<path fill="#FA81A9" d="M847.227,97.591v-8.795c0-2.902-2.375-5.277-5.276-5.277h-64.493c-2.902,0-5.277,2.375-5.277,5.277v8.795
	H847.227z"/>
<rect x="778.245" y="94.623" fill="#FFAE53" width="5.113" height="2.968"/>
<rect x="778.245" y="97.591" fill="#FFA245" width="5.113" height="2.967"/>
<rect x="779.274" y="83.519" fill="#5FD0D6" width="3.054" height="11.104"/>
<circle fill="#FFFFFF" cx="809.704" cy="94.375" r="1.484"/>
<ellipse fill="#FFAE53" cx="780.801" cy="94.623" rx="2.556" ry="1.483"/>
<circle fill="#FFFFFF" cx="780.801" cy="96.106" r="0.901"/>
<polygon fill="#FFFFFF" points="781.53,98.402 780.073,98.402 780.454,95.907 781.148,95.907 "/>
<rect x="779.274" y="100.558" fill="#5FD0D6" width="3.054" height="10.816"/>
<rect x="836.051" y="94.623" fill="#FFAE53" width="5.112" height="2.968"/>
<rect x="836.051" y="97.591" fill="#FFA245" width="5.112" height="2.967"/>
<rect x="837.081" y="83.519" fill="#5FD0D6" width="3.054" height="11.104"/>
<ellipse fill="#FFAE53" cx="838.607" cy="94.623" rx="2.556" ry="1.483"/>
<circle fill="#FFFFFF" cx="838.607" cy="96.106" r="0.901"/>
<polygon fill="#FFFFFF" points="839.335,98.402 837.879,98.402 838.261,95.907 838.953,95.907 "/>
<rect x="837.081" y="100.558" fill="#5FD0D6" width="3.054" height="10.816"/>
<rect x="772.947" y="97.591" opacity="0.1" fill="#231F20" width="73.514" height="2.077"/>
<circle fill="#FFA245" cx="818.887" cy="94.375" r="2.584"/>
<circle fill="#FFA245" cx="800.522" cy="94.375" r="2.585"/>
<g>
	<path fill="none" stroke="#FFC68D" stroke-width="2.7793" stroke-linecap="round" stroke-miterlimit="10" d="M818.887,94.375
		c0,0,0,1.865,0,4.144s-3.752,4.144-8.338,4.144h-1.689c-4.586,0-8.338-1.865-8.338-4.144s0-4.144,0-4.144"/>
</g>
<polygon opacity="0.4" fill="#4ABCB9" points="358.813,32.305 358.813,40.819 371.147,40.819 421.186,123.274 435.686,123.274 
	385.647,40.819 397.98,40.819 448.02,123.274 459.647,123.274 459.647,32.305 "/>
<polygon opacity="0.4" fill="#4ABCB9" points="358.813,123.274 405.512,123.274 358.813,46.324 "/>
<polygon fill="#4ABCB9" points="608.809,47 575.647,53.18 542.476,47 575.638,93.477 "/>
<rect x="493.729" y="105.122" transform="matrix(0.7071 0.7071 -0.7071 0.7071 223.8115 -322.3716)" fill="#FFC565" width="14.653" height="7.731"/>
<circle fill="#FFC565" cx="496.825" cy="102.953" r="5.14"/>
<circle fill="#FFC565" cx="507.138" cy="113.266" r="5.14"/>
<rect x="512.32" y="46.574" transform="matrix(-0.7071 -0.7071 0.7071 -0.7071 840.618 514.6095)" fill="#4ABCB9" width="29.139" height="73.261"/>
<rect x="642.936" y="105.122" transform="matrix(-0.7071 0.7071 -0.7071 -0.7071 1187.1418 -273.7387)" fill="#FFC565" width="14.653" height="7.731"/>
<circle fill="#FFC565" cx="654.493" cy="102.953" r="5.141"/>
<circle fill="#FFC565" cx="644.18" cy="113.266" r="5.14"/>
<rect x="609.839" y="46.574" transform="matrix(0.7071 -0.7071 0.7071 0.7071 124.0598 465.905)" fill="#4ABCB9" width="29.139" height="73.261"/>
<rect x="550.993" y="142.156" fill="#FFC565" width="49.309" height="7.73"/>
<circle fill="#FFC565" cx="600.301" cy="144.746" r="5.14"/>
<circle fill="#FFC565" cx="550.993" cy="144.746" r="5.141"/>
<polygon fill="#5FD0D6" points="608.809,47 575.647,67.24 542.49,47 542.476,47 542.476,144.746 608.818,144.746 608.818,47 "/>
<line fill="none" stroke="#FF6183" stroke-width="2.8111" stroke-miterlimit="10" x1="575.647" y1="144.746" x2="575.647" y2="67.24"/>
<rect x="572.274" y="67.24" fill="#FA8DB8" width="6.747" height="11.245"/>
<path fill="#FFC565" d="M515.496,82.982c4.965,0,8.989-4.025,8.989-8.989c0-2.482-1.006-4.73-2.633-6.356L509.14,80.35
	C510.767,81.976,513.014,82.982,515.496,82.982z"/>
<path fill="#FFC565" d="M629.548,67.74c-1.569,1.619-2.54,3.821-2.54,6.254c0,4.963,4.025,8.989,8.989,8.989
	c2.433,0,4.636-0.97,6.254-2.54L629.548,67.74z"/>
<rect x="585.205" y="76.531" fill="#FFC565" width="15.097" height="4.392"/>
<polygon fill="#4ABCB9" points="585.205,91.584 592.752,95.522 600.301,91.584 600.301,80.923 585.205,80.923 "/>
<polygon fill="#FFC565" points="575.647,67.24 608.809,47 614.436,67.24 "/>
<polygon fill="#FFC565" points="575.638,67.24 542.476,47 536.85,67.24 "/>
<rect x="349.694" y="123.274" fill="#FFFFFF" width="119.072" height="8.515"/>
<rect x="349.694" y="131.789" opacity="0.1" fill="#231F20" width="119.072" height="8.515"/>
<rect x="407.23" y="32.305" fill="#FFFFFF" width="4" height="99.639"/>
<rect x="451.133" y="32.305" fill="#FFFFFF" width="8.515" height="94.028"/>
<rect x="358.814" y="80.125" fill="#FFFFFF" width="100.833" height="4"/>
<rect x="358.814" y="32.305" fill="#FFFFFF" width="100.833" height="8.515"/>
<rect x="31.522" y="172.683" opacity="0.1" fill="#231F20" width="186.883" height="15.045"/>
<g>
	<path fill="#4ABCB9" d="M207.379,154.291c0-4.586,3.752-8.338,8.338-8.338h101.91c4.586,0,8.338,3.752,8.338,8.338v27.793
		c0,4.586-3.752,8.338-8.338,8.338h-101.91c-4.586,0-8.338-3.752-8.338-8.338V154.291z"/>
</g>
<path fill="#5FD0D6" d="M327.199,168.188v-14.187c0-4.682-3.83-8.512-8.511-8.512H214.656c-4.682,0-8.512,3.83-8.512,8.512v14.187
	H327.199z"/>
<rect x="215.925" y="163.401" fill="#FFAE53" width="8.246" height="4.787"/>
<rect x="215.925" y="168.188" fill="#FFA245" width="8.246" height="4.787"/>
<rect x="217.585" y="145.49" fill="#FFCD97" width="4.927" height="17.911"/>
<circle fill="#FFFFFF" cx="266.671" cy="163" r="2.394"/>
<ellipse fill="#FFAE53" cx="220.048" cy="163.401" rx="4.123" ry="2.394"/>
<circle fill="#FFFFFF" cx="220.047" cy="165.794" r="1.453"/>
<polygon fill="#FFFFFF" points="221.223,169.497 218.874,169.497 219.489,165.472 220.606,165.472 "/>
<rect x="217.585" y="172.975" fill="#FFC68D" width="4.927" height="17.447"/>
<rect x="309.172" y="163.401" fill="#FFAE53" width="8.246" height="4.787"/>
<rect x="309.172" y="168.188" fill="#FFA245" width="8.246" height="4.787"/>
<rect x="310.832" y="145.49" fill="#FFCD97" width="4.927" height="17.911"/>
<ellipse fill="#FFAE53" cx="313.295" cy="163.401" rx="4.123" ry="2.394"/>
<circle fill="#FFFFFF" cx="313.295" cy="165.794" r="1.453"/>
<polygon fill="#FFFFFF" points="314.47,169.497 312.121,169.497 312.736,165.472 313.853,165.472 "/>
<rect x="310.832" y="172.975" fill="#FFC68D" width="4.927" height="17.447"/>
<rect x="207.379" y="168.188" opacity="0.1" fill="#231F20" width="118.585" height="3.351"/>
<circle fill="#FFA245" cx="281.484" cy="163" r="4.169"/>
<circle fill="#FFA245" cx="251.86" cy="163" r="4.169"/>
<g>
	<path fill="none" stroke="#FFC68D" stroke-width="5.5587" stroke-linecap="round" stroke-miterlimit="10" d="M281.484,163
		c0,0,0,3.008,0,6.685c0,3.676-3.752,6.684-8.338,6.684h-12.948c-4.586,0-8.338-3.008-8.338-6.684c0-3.677,0-6.685,0-6.685"/>
</g>
<polyline fill="none" stroke="#FFFFFF" stroke-width="3" stroke-miterlimit="10" points="604.063,51.119 575.638,33.033 
	547.235,51.119 "/>
<path fill="none" stroke="#FFFFFF" stroke-width="3" stroke-miterlimit="10" d="M567.388,17.282c0-4.557,3.694-8.25,8.25-8.25
	s8.25,3.694,8.25,8.25s-3.694,8.25-8.25,8.25v7.5"/>
<polygon fill="#FFC565" points="575.647,67.24 608.809,47 614.436,67.24 "/>
<polygon fill="#FFC565" points="575.638,67.24 542.476,47 536.85,67.24 "/>
<circle fill="#FFB85D" cx="575.647" cy="13.866" r="3.167"/>
<rect x="743.557" y="122.562" fill="#D87727" width="98.667" height="65.167"/>
<rect x="735.683" y="111.375" fill="#D87727" width="114.416" height="12.037"/>
<rect x="750.557" y="127.569" fill="#FFA245" width="84.667" height="14.587"/>
<rect x="750.557" y="147.852" fill="#FFA245" width="84.667" height="14.587"/>
<rect x="750.557" y="168.134" fill="#FFA245" width="84.667" height="14.587"/>
<rect x="743.557" y="123.411" opacity="0.1" fill="#231F20" width="98.667" height="7.122"/>
<circle fill="#FFFFFF" cx="792.891" cy="175.428" r="3.105"/>
<circle fill="#FFFFFF" cx="792.891" cy="155.145" r="3.105"/>
<circle fill="#FFFFFF" cx="792.891" cy="135.448" r="3.105"/>
<rect x="352.813" y="34.291" fill="#ADF2EE" width="8.375" height="17.5"/>
<rect x="358.814" y="32.305" fill="#FFFFFF" width="8.515" height="94.028"/>
<polygon fill="#FFFFFF" points="741.717,96.58 753.032,107.895 778.267,80.199 769.413,71.345 "/>
<polygon fill="#FFB85D" points="763.864,76.402 769.413,71.345 778.267,80.199 773.21,85.749 "/>
<rect x="737.634" y="101.517" transform="matrix(-0.7071 -0.7071 0.7071 -0.7071 1199.3427 704.7534)" fill="#FFB85D" width="16.002" height="4.921"/>
<rect x="738.806" y="98.688" transform="matrix(-0.7071 -0.7071 0.7071 -0.7071 1196.5011 697.9336)" opacity="0.1" fill="#231F20" width="8.001" height="4.921"/>
<circle fill="#FFB85D" cx="760.607" cy="89.005" r="4.04"/>
<rect x="770.679" y="74.165" transform="matrix(0.7071 0.7071 -0.7071 0.7071 279.956 -525.6597)" fill="#D1D3D4" width="7.652" height="1.883"/>
<rect x="771.24" y="72.813" transform="matrix(0.7071 0.7071 -0.7071 0.7071 278.6035 -525.0994)" opacity="0.1" fill="#231F20" width="3.826" height="1.883"/>
<rect x="771.009" y="72.033" transform="matrix(0.7071 0.7071 -0.7071 0.7071 279.2525 -527.2927)" fill="#FFFFFF" width="10.291" height="2.849"/>
<rect x="771.763" y="70.213" transform="matrix(0.7072 0.7071 -0.7071 0.7072 277.4132 -526.5224)" opacity="0.1" fill="#231F20" width="5.146" height="2.849"/>
<polygon opacity="0.1" fill="#231F20" points="741.717,96.58 769.413,71.345 773.84,75.772 747.375,102.237 "/>
<rect x="666.859" y="128.349" fill="#4ABCB9" width="47.246" height="59.801"/>
<rect x="690.482" y="128.349" fill="#3EADA8" width="23.623" height="59.801"/>
<rect x="666.859" y="182.617" fill="#64E2E2" width="47.246" height="5.533"/>
<rect x="690.482" y="182.617" fill="#5ADAE0" width="23.623" height="5.533"/>
<rect x="666.859" y="128.349" fill="#64E2E2" width="47.246" height="5.533"/>
<rect x="690.482" y="128.349" fill="#5ADAE0" width="23.623" height="5.533"/>
<line fill="none" stroke="#64E2E2" stroke-width="3.3461" stroke-linecap="round" stroke-miterlimit="10" x1="709.955" y1="140.479" x2="709.955" y2="174.956"/>
<line fill="none" stroke="#64E2E2" stroke-width="3.3461" stroke-linecap="round" stroke-miterlimit="10" x1="703.464" y1="140.479" x2="703.464" y2="174.956"/>
<line fill="none" stroke="#64E2E2" stroke-width="3.3461" stroke-linecap="round" stroke-miterlimit="10" x1="696.974" y1="140.479" x2="696.974" y2="174.956"/>
<line fill="none" stroke="#64E2E2" stroke-width="3.3461" stroke-linecap="round" stroke-miterlimit="10" x1="690.482" y1="140.479" x2="690.482" y2="174.956"/>
<line fill="none" stroke="#64E2E2" stroke-width="3.3461" stroke-linecap="round" stroke-miterlimit="10" x1="683.991" y1="140.479" x2="683.991" y2="174.956"/>
<line fill="none" stroke="#64E2E2" stroke-width="3.3461" stroke-linecap="round" stroke-miterlimit="10" x1="677.5" y1="140.479" x2="677.5" y2="174.956"/>
<line fill="none" stroke="#64E2E2" stroke-width="3.3461" stroke-linecap="round" stroke-miterlimit="10" x1="671.01" y1="140.479" x2="671.01" y2="174.956"/>
<g>
	<path fill="none" stroke="#FFFFFF" stroke-width="4.0153" stroke-linecap="round" stroke-miterlimit="10" d="M700.69,137.225
		c0,0,0,2.073,0,4.607s-2.71,4.607-6.023,4.607h-8.37c-3.312,0-6.023-2.073-6.023-4.607s0-4.607,0-4.607"/>
</g>
<polygon fill="#E6E7E8" points="894.021,171.891 894.021,186.428 860.021,184.847 860.021,173.472 "/>
<polygon fill="#FC7C9F" points="866.834,173.155 860.021,173.472 860.021,184.847 866.834,185.164 "/>
<rect x="894.021" y="171.891" fill="#FC7C9F" width="4.47" height="14.537"/>
<rect x="894.021" y="171.891" opacity="0.1" fill="#231F20" width="4.47" height="7.269"/>
<circle fill="#FC7C9F" cx="877.021" cy="179.159" r="3.67"/>
<rect x="858.311" y="175.684" fill="#D1D3D4" width="1.71" height="6.951"/>
<rect x="858.311" y="175.684" opacity="0.1" fill="#231F20" width="1.71" height="3.476"/>
<rect x="855.752" y="174.485" fill="#E6E7E8" width="2.589" height="9.349"/>
<rect x="855.752" y="174.485" opacity="0.1" fill="#231F20" width="2.589" height="4.674"/>
<polygon opacity="0.1" fill="#231F20" points="894.021,171.891 860.021,173.472 860.021,179.159 894.021,179.159 "/>
</svg>
