<?xml version="1.0" encoding="utf-8"?>
<!-- Generator: Adobe Illustrator 15.0.0, SVG Export Plug-In  -->
<!DOCTYPE svg PUBLIC "-//W3C//DTD SVG 1.1//EN" "http://www.w3.org/Graphics/SVG/1.1/DTD/svg11.dtd" [
	<!ENTITY ns_flows "http://ns.adobe.com/Flows/1.0/">
]>
<svg version="1.1"
	 xmlns="http://www.w3.org/2000/svg" xmlns:xlink="http://www.w3.org/1999/xlink" xmlns:a="http://ns.adobe.com/AdobeSVGViewerExtensions/3.0/"
	 x="0px" y="0px" width="200px" height="200px" viewBox="0 0 200 200" overflow="visible" enable-background="new 0 0 200 200"
	 xml:space="preserve">
<defs>
</defs>
<circle opacity="0.2" fill="#64E2E2" cx="100" cy="100" r="100"/>
<g>
	<path fill="#4ABCB9" d="M36,116.291c0-4.95,4.05-9,9-9h110c4.95,0,9,4.05,9,9v30c0,4.95-4.05,9-9,9H45c-4.95,0-9-4.05-9-9V116.291z
		"/>
</g>
<path fill="#5FD0D6" d="M165.333,131.291v-15.312c0-5.053-4.134-9.188-9.187-9.188H43.854c-5.054,0-9.188,4.134-9.188,9.188v15.312
	H165.333z"/>
<rect x="45.225" y="126.124" fill="#FFAE53" width="8.9" height="5.167"/>
<rect x="45.225" y="131.291" fill="#FFA245" width="8.9" height="5.167"/>
<rect x="47.016" y="106.791" fill="#FFCD97" width="5.318" height="19.333"/>
<circle fill="#FFFFFF" cx="100" cy="125.691" r="2.584"/>
<ellipse fill="#FFAE53" cx="49.675" cy="126.124" rx="4.45" ry="2.584"/>
<circle fill="#FFFFFF" cx="49.674" cy="128.708" r="1.569"/>
<polygon fill="#FFFFFF" points="50.942,132.704 48.407,132.704 49.071,128.36 50.277,128.36 "/>
<rect x="47.016" y="136.458" fill="#FFC68D" width="5.318" height="18.833"/>
<rect x="145.875" y="126.124" fill="#FFAE53" width="8.9" height="5.167"/>
<rect x="145.875" y="131.291" fill="#FFA245" width="8.9" height="5.167"/>
<rect x="147.666" y="106.791" fill="#FFCD97" width="5.318" height="19.333"/>
<ellipse fill="#FFAE53" cx="150.325" cy="126.124" rx="4.45" ry="2.584"/>
<circle fill="#FFFFFF" cx="150.325" cy="128.708" r="1.569"/>
<polygon fill="#FFFFFF" points="151.593,132.704 149.058,132.704 149.722,128.36 150.928,128.36 "/>
<rect x="147.666" y="136.458" fill="#FFC68D" width="5.318" height="18.833"/>
<rect x="36" y="131.291" opacity="0.1" fill="#231F20" width="128" height="3.617"/>
<circle fill="#FFA245" cx="115.988" cy="125.691" r="4.5"/>
<circle fill="#FFA245" cx="84.013" cy="125.691" r="4.5"/>
<g>
	<path fill="none" stroke="#FFC68D" stroke-width="6" stroke-linecap="round" stroke-miterlimit="10" d="M115.988,125.691
		c0,0,0,3.247,0,7.216c0,3.968-4.05,7.215-9,7.215H93.013c-4.95,0-9-3.247-9-7.215c0-3.969,0-7.216,0-7.216"/>
</g>
<g>
	<path fill="#FFB85D" d="M48.756,77.358c0-4.95,4.05-9,9-9h84.488c4.95,0,9,4.05,9,9v20.433c0,4.95-4.05,9-9,9H57.756
		c-4.95,0-9-4.05-9-9V77.358z"/>
</g>
<path fill="#FFC565" d="M152.312,87.574v-12.26c0-4.046-3.31-7.356-7.355-7.356H55.045c-4.047,0-7.356,3.31-7.356,7.356v12.26
	H152.312z"/>
<rect x="56.142" y="83.438" fill="#FF6183" width="7.127" height="4.137"/>
<rect x="56.142" y="87.574" fill="#FC7094" width="7.127" height="4.137"/>
<rect x="57.576" y="67.958" fill="#64E2E2" width="4.258" height="15.48"/>
<circle fill="#FFFFFF" cx="100" cy="83.09" r="2.069"/>
<ellipse fill="#FF6183" cx="59.705" cy="83.438" rx="3.563" ry="2.069"/>
<circle fill="#FFFFFF" cx="59.705" cy="85.506" r="1.256"/>
<polygon fill="#FFFFFF" points="60.72,88.706 58.69,88.706 59.222,85.228 60.188,85.228 "/>
<rect x="57.576" y="91.711" fill="#64E2E2" width="4.258" height="15.08"/>
<rect x="136.731" y="83.438" fill="#FF6183" width="7.127" height="4.137"/>
<rect x="136.731" y="87.574" fill="#FC7094" width="7.127" height="4.137"/>
<rect x="138.166" y="67.958" fill="#64E2E2" width="4.258" height="15.48"/>
<ellipse fill="#FF6183" cx="140.295" cy="83.438" rx="3.563" ry="2.069"/>
<circle fill="#FFFFFF" cx="140.294" cy="85.506" r="1.256"/>
<polygon fill="#FFFFFF" points="141.31,88.706 139.28,88.706 139.812,85.228 140.777,85.228 "/>
<rect x="138.166" y="91.711" fill="#64E2E2" width="4.258" height="15.08"/>
<rect x="48.756" y="87.574" opacity="0.1" fill="#231F20" width="102.488" height="2.896"/>
<circle fill="#64E2E2" cx="112.802" cy="83.09" r="3.603"/>
<circle fill="#64E2E2" cx="87.199" cy="83.09" r="3.603"/>
<g>
	<path fill="none" stroke="#FF6183" stroke-width="5" stroke-linecap="round" stroke-miterlimit="10" d="M112.802,83.09
		c0,0,0,2.6,0,5.777c0,3.178-4.05,5.778-9,5.778h-7.603c-4.95,0-9-2.6-9-5.778c0-3.177,0-5.777,0-5.777"/>
</g>
<g>
	<path fill="#FC7C9F" d="M60.325,47.201c0-4.95,4.05-9,9-9h61.351c4.95,0,9,4.05,9,9v11.756c0,4.95-4.05,9-9,9H69.325
		c-4.95,0-9-4.05-9-9V47.201z"/>
</g>
<path fill="#FA81A9" d="M140.501,53.079v-9.492c0-3.133-2.563-5.696-5.695-5.696H65.194c-3.133,0-5.696,2.562-5.696,5.696v9.492
	H140.501z"/>
<rect x="66.043" y="49.876" fill="#FFAE53" width="5.518" height="3.203"/>
<rect x="66.043" y="53.079" fill="#FFA245" width="5.518" height="3.203"/>
<rect x="67.153" y="37.891" fill="#5FD0D6" width="3.297" height="11.985"/>
<circle fill="#FFFFFF" cx="100" cy="49.607" r="1.602"/>
<ellipse fill="#FFAE53" cx="68.802" cy="49.876" rx="2.759" ry="1.602"/>
<circle fill="#FFFFFF" cx="68.802" cy="51.478" r="0.973"/>
<polygon fill="#FFFFFF" points="69.588,53.955 68.016,53.955 68.428,51.262 69.176,51.262 "/>
<rect x="67.153" y="56.282" fill="#5FD0D6" width="3.297" height="11.675"/>
<rect x="128.439" y="49.876" fill="#FFAE53" width="5.518" height="3.203"/>
<rect x="128.439" y="53.079" fill="#FFA245" width="5.518" height="3.203"/>
<rect x="129.549" y="37.891" fill="#5FD0D6" width="3.297" height="11.985"/>
<ellipse fill="#FFAE53" cx="131.198" cy="49.876" rx="2.759" ry="1.602"/>
<circle fill="#FFFFFF" cx="131.197" cy="51.478" r="0.973"/>
<polygon fill="#FFFFFF" points="131.983,53.955 130.412,53.955 130.824,51.262 131.571,51.262 "/>
<rect x="129.549" y="56.282" fill="#5FD0D6" width="3.297" height="11.675"/>
<rect x="60.325" y="53.079" opacity="0.1" fill="#231F20" width="79.351" height="2.243"/>
<circle fill="#FFA245" cx="109.911" cy="49.607" r="2.79"/>
<circle fill="#FFA245" cx="90.089" cy="49.607" r="2.79"/>
<g>
	<path fill="none" stroke="#FFC68D" stroke-width="3" stroke-linecap="round" stroke-miterlimit="10" d="M109.912,49.607
		c0,0,0,2.013,0,4.473c0,2.46-4.05,4.474-9,4.474h-1.823c-4.95,0-9-2.013-9-4.474c0-2.46,0-4.473,0-4.473"/>
</g>
</svg>
