<?xml version="1.0" encoding="utf-8"?>
<!-- Generator: Adobe Illustrator 15.0.0, SVG Export Plug-In  -->
<!DOCTYPE svg PUBLIC "-//W3C//DTD SVG 1.1//EN" "http://www.w3.org/Graphics/SVG/1.1/DTD/svg11.dtd" [
	<!ENTITY ns_flows "http://ns.adobe.com/Flows/1.0/">
]>
<svg version="1.1"
	 xmlns="http://www.w3.org/2000/svg" xmlns:xlink="http://www.w3.org/1999/xlink" xmlns:a="http://ns.adobe.com/AdobeSVGViewerExtensions/3.0/"
	 x="0px" y="0px" width="200px" height="200px" viewBox="0 0 200 200" overflow="visible" enable-background="new 0 0 200 200"
	 xml:space="preserve">
<defs>
</defs>
<circle fill="#FFFFFF" cx="100" cy="100" r="100"/>
<rect x="75.685" y="64.367" fill="#FFB85D" width="20.182" height="35.935"/>
<polyline fill="none" stroke="#FFFFFF" stroke-width="2" stroke-linecap="square" stroke-miterlimit="10" points="85.775,91.968 
	85.775,96.482 81.262,96.482 81.262,91.968 "/>
<polyline fill="none" stroke="#FFFFFF" stroke-width="2" stroke-linecap="square" stroke-miterlimit="10" points="85.775,96.482 
	85.775,91.968 90.288,91.968 90.288,96.482 "/>
<line fill="none" stroke="#FFFFFF" stroke-width="2" stroke-linecap="square" stroke-miterlimit="10" x1="81.262" y1="94.225" x2="78.382" y2="94.225"/>
<line fill="none" stroke="#FFFFFF" stroke-width="2" stroke-linecap="square" stroke-miterlimit="10" x1="93.168" y1="94.225" x2="90.288" y2="94.225"/>
<polyline fill="none" stroke="#FFFFFF" stroke-width="2" stroke-linecap="square" stroke-miterlimit="10" points="85.775,68.187 
	85.775,72.699 81.262,72.699 81.262,68.187 "/>
<polyline fill="none" stroke="#FFFFFF" stroke-width="2" stroke-linecap="square" stroke-miterlimit="10" points="85.775,72.699 
	85.775,68.187 90.288,68.187 90.288,72.699 "/>
<line fill="none" stroke="#FFFFFF" stroke-width="2" stroke-linecap="square" stroke-miterlimit="10" x1="81.262" y1="70.443" x2="78.382" y2="70.443"/>
<line fill="none" stroke="#FFFFFF" stroke-width="2" stroke-linecap="square" stroke-miterlimit="10" x1="93.168" y1="70.443" x2="90.288" y2="70.443"/>
<ellipse fill="#FFFFFF" cx="85.775" cy="82.334" rx="7.393" ry="5.479"/>
<rect x="75.685" y="19.528" fill="#FFB85D" width="20.182" height="35.935"/>
<polyline fill="none" stroke="#FFFFFF" stroke-width="2" stroke-linecap="square" stroke-miterlimit="10" points="85.775,47.13 
	85.775,51.643 81.262,51.643 81.262,47.13 "/>
<polyline fill="none" stroke="#FFFFFF" stroke-width="2" stroke-linecap="square" stroke-miterlimit="10" points="85.775,51.643 
	85.775,47.13 90.288,47.13 90.288,51.643 "/>
<line fill="none" stroke="#FFFFFF" stroke-width="2" stroke-linecap="square" stroke-miterlimit="10" x1="81.262" y1="49.387" x2="78.382" y2="49.387"/>
<line fill="none" stroke="#FFFFFF" stroke-width="2" stroke-linecap="square" stroke-miterlimit="10" x1="93.168" y1="49.387" x2="90.288" y2="49.387"/>
<polyline fill="none" stroke="#FFFFFF" stroke-width="2" stroke-linecap="square" stroke-miterlimit="10" points="85.775,23.348 
	85.775,27.86 81.262,27.86 81.262,23.348 "/>
<polyline fill="none" stroke="#FFFFFF" stroke-width="2" stroke-linecap="square" stroke-miterlimit="10" points="85.775,27.86 
	85.775,23.348 90.288,23.348 90.288,27.86 "/>
<line fill="none" stroke="#FFFFFF" stroke-width="2" stroke-linecap="square" stroke-miterlimit="10" x1="81.262" y1="25.604" x2="78.382" y2="25.604"/>
<line fill="none" stroke="#FFFFFF" stroke-width="2" stroke-linecap="square" stroke-miterlimit="10" x1="93.168" y1="25.604" x2="90.288" y2="25.604"/>
<ellipse fill="#FFFFFF" cx="85.775" cy="37.496" rx="7.393" ry="5.479"/>
<rect x="102.874" y="40.92" fill="#FFB85D" width="20.182" height="35.935"/>
<polyline fill="none" stroke="#FFFFFF" stroke-width="2" stroke-linecap="square" stroke-miterlimit="10" points="112.965,68.521 
	112.965,73.035 108.451,73.035 108.451,68.521 "/>
<polyline fill="none" stroke="#FFFFFF" stroke-width="2" stroke-linecap="square" stroke-miterlimit="10" points="112.965,73.035 
	112.965,68.521 117.478,68.521 117.478,73.035 "/>
<line fill="none" stroke="#FFFFFF" stroke-width="2" stroke-linecap="square" stroke-miterlimit="10" x1="108.451" y1="70.778" x2="105.571" y2="70.778"/>
<line fill="none" stroke="#FFFFFF" stroke-width="2" stroke-linecap="square" stroke-miterlimit="10" x1="120.357" y1="70.778" x2="117.478" y2="70.778"/>
<polyline fill="none" stroke="#FFFFFF" stroke-width="2" stroke-linecap="square" stroke-miterlimit="10" points="112.965,44.739 
	112.965,49.252 108.451,49.252 108.451,44.739 "/>
<polyline fill="none" stroke="#FFFFFF" stroke-width="2" stroke-linecap="square" stroke-miterlimit="10" points="112.965,49.252 
	112.965,44.739 117.478,44.739 117.478,49.252 "/>
<line fill="none" stroke="#FFFFFF" stroke-width="2" stroke-linecap="square" stroke-miterlimit="10" x1="108.451" y1="46.996" x2="105.571" y2="46.996"/>
<line fill="none" stroke="#FFFFFF" stroke-width="2" stroke-linecap="square" stroke-miterlimit="10" x1="120.357" y1="46.996" x2="117.478" y2="46.996"/>
<ellipse fill="#FFFFFF" cx="112.965" cy="58.887" rx="7.393" ry="5.48"/>
<rect x="64.701" y="83.129" fill="#4ABCB9" width="70.598" height="89.359"/>
<rect x="100" y="83.129" fill="#3EADA8" width="35.299" height="89.359"/>
<rect x="64.701" y="164.22" fill="#64E2E2" width="70.598" height="8.269"/>
<rect x="100" y="164.22" fill="#5ADAE0" width="35.299" height="8.269"/>
<rect x="64.701" y="83.129" fill="#64E2E2" width="70.598" height="8.268"/>
<rect x="100" y="83.129" fill="#5ADAE0" width="35.299" height="8.268"/>
<line fill="none" stroke="#64E2E2" stroke-width="5" stroke-linecap="round" stroke-miterlimit="10" x1="129.097" y1="101.255" x2="129.097" y2="152.772"/>
<line fill="none" stroke="#64E2E2" stroke-width="5" stroke-linecap="round" stroke-miterlimit="10" x1="119.398" y1="101.255" x2="119.398" y2="152.772"/>
<line fill="none" stroke="#64E2E2" stroke-width="5" stroke-linecap="round" stroke-miterlimit="10" x1="109.7" y1="101.255" x2="109.7" y2="152.772"/>
<line fill="none" stroke="#64E2E2" stroke-width="5" stroke-linecap="round" stroke-miterlimit="10" x1="100" y1="101.255" x2="100" y2="152.772"/>
<line fill="none" stroke="#64E2E2" stroke-width="5" stroke-linecap="round" stroke-miterlimit="10" x1="90.3" y1="101.255" x2="90.3" y2="152.772"/>
<line fill="none" stroke="#64E2E2" stroke-width="5" stroke-linecap="round" stroke-miterlimit="10" x1="80.602" y1="101.255" x2="80.602" y2="152.772"/>
<line fill="none" stroke="#64E2E2" stroke-width="5" stroke-linecap="round" stroke-miterlimit="10" x1="70.903" y1="101.255" x2="70.903" y2="152.772"/>
<g>
	<path fill="none" stroke="#FFFFFF" stroke-width="6" stroke-linecap="round" stroke-miterlimit="10" d="M115.253,96.392
		c0,0,0,3.098,0,6.884s-4.05,6.884-9,6.884H93.747c-4.95,0-9-3.098-9-6.884s0-6.884,0-6.884"/>
</g>
<polygon fill="#FFB85D" points="83.251,19.528 85.775,15.156 88.299,19.528 "/>
<polygon fill="#FFB85D" points="83.251,64.367 85.775,59.995 88.299,64.367 "/>
<polygon fill="#FFB85D" points="110.44,40.92 112.965,36.547 115.489,40.92 "/>
</svg>
