<?xml version="1.0" encoding="utf-8"?>
<!-- Generator: Adobe Illustrator 15.0.0, SVG Export Plug-In  -->
<!DOCTYPE svg PUBLIC "-//W3C//DTD SVG 1.1//EN" "http://www.w3.org/Graphics/SVG/1.1/DTD/svg11.dtd" [
	<!ENTITY ns_flows "http://ns.adobe.com/Flows/1.0/">
]>
<svg version="1.1"
	 xmlns="http://www.w3.org/2000/svg" xmlns:xlink="http://www.w3.org/1999/xlink" xmlns:a="http://ns.adobe.com/AdobeSVGViewerExtensions/3.0/"
	 x="0px" y="0px" width="200px" height="200px" viewBox="0 0 200 200" overflow="visible" enable-background="new 0 0 200 200"
	 xml:space="preserve">
<defs>
</defs>
<circle fill="#FFFFFF" cx="100" cy="100" r="100"/>
<rect x="50.813" y="38.553" fill="#FA81A9" width="98.54" height="124.779"/>
<rect x="50.813" y="60.71" fill="#E56385" width="98.54" height="10.496"/>
<rect x="50.813" y="135.636" fill="#E56385" width="98.54" height="27.696"/>
<rect x="50.813" y="145.839" fill="#FA81A9" width="98.54" height="17.493"/>
<rect x="74.136" y="154.586" fill="#E56385" width="51.894" height="8.746"/>
<rect x="47.023" y="143.507" fill="#E6E7E8" width="106.12" height="4.664"/>
<rect x="47.023" y="133.304" fill="#E6E7E8" width="106.12" height="4.664"/>
<rect x="47.023" y="68.874" fill="#E6E7E8" width="106.12" height="4.664"/>
<rect x="47.023" y="58.378" fill="#E6E7E8" width="106.12" height="4.664"/>
<rect x="47.023" y="36.221" fill="#E6E7E8" width="106.12" height="4.665"/>
<rect x="65.681" y="79.66" fill="#FFC565" width="68.804" height="4.665"/>
<path fill="#FFFFFF" d="M128.654,114.354c0,3.207-2.624,5.831-5.831,5.831H77.343c-3.207,0-5.831-2.624-5.831-5.831V95.695
	c0-3.207,2.624-5.831,5.831-5.831h45.479c3.207,0,5.831,2.624,5.831,5.831V114.354z"/>
<path opacity="0.2" fill="#FA8DB8" d="M89.004,120.185h23.615l-30.32-30.32h-4.956c-3.207,0-5.831,2.624-5.831,5.831v6.997
	L89.004,120.185z"/>
<path opacity="0.2" fill="#FA8DB8" d="M96.293,89.864H88.19l30.32,30.32h4.313c1.083,0,2.095-0.305,2.966-0.824L96.293,89.864z"/>
<g>
	<path fill="#FFFFFF" d="M62.378,54.879c-2.947,0-5.345-2.397-5.345-5.344c0-2.947,2.398-5.346,5.345-5.346s5.345,2.398,5.345,5.346
		C67.723,52.481,65.325,54.879,62.378,54.879z"/>
	<path fill="#FF6183" d="M62.378,44.772c2.63,0,4.762,2.133,4.762,4.763s-2.132,4.761-4.762,4.761c-2.63,0-4.762-2.131-4.762-4.761
		S59.748,44.772,62.378,44.772 M62.378,43.606c-3.269,0-5.928,2.659-5.928,5.929c0,3.268,2.659,5.927,5.928,5.927
		c3.269,0,5.928-2.659,5.928-5.927C68.306,46.266,65.646,43.606,62.378,43.606L62.378,43.606z"/>
</g>
<polygon fill="#FFC565" points="60.598,49.535 62.378,45.501 64.157,49.535 "/>
<g>
	<path fill="#FFFFFF" d="M77.826,54.881c-0.846,0-1.66-0.195-2.419-0.582c-1.273-0.646-2.217-1.75-2.66-3.108
		c-0.442-1.357-0.33-2.806,0.317-4.079c0.918-1.803,2.745-2.923,4.769-2.923c0.846,0,1.66,0.196,2.418,0.582
		c1.272,0.646,2.217,1.75,2.66,3.108c0.442,1.357,0.329,2.806-0.318,4.079C81.677,53.761,79.85,54.881,77.826,54.881z"/>
	<path fill="#FF6183" d="M77.833,44.771c0.726,0,1.462,0.167,2.154,0.519c2.344,1.191,3.278,4.059,2.086,6.403
		c-0.84,1.652-2.513,2.604-4.248,2.604c-0.726,0-1.463-0.167-2.155-0.519c-2.345-1.191-3.278-4.059-2.086-6.403
		C74.425,45.724,76.098,44.771,77.833,44.771 M77.834,43.605L77.834,43.605c-2.245,0-4.271,1.242-5.289,3.241
		c-0.718,1.413-0.843,3.019-0.353,4.524c0.49,1.506,1.538,2.73,2.95,3.447c0.83,0.423,1.757,0.646,2.683,0.646
		c2.245,0,4.271-1.242,5.288-3.242c0.718-1.411,0.843-3.019,0.353-4.523c-0.491-1.506-1.538-2.73-2.95-3.448
		C79.687,43.828,78.759,43.605,77.834,43.605L77.834,43.605z"/>
</g>
<polygon fill="#FFC565" points="77.022,51.121 74.234,47.706 78.636,47.949 "/>
<g>
	<path fill="#FFFFFF" d="M100.078,54.881c-1.056,0-2.081-0.312-2.963-0.899c-2.45-1.637-3.113-4.963-1.477-7.414
		c0.994-1.489,2.657-2.379,4.449-2.379c1.057,0,2.082,0.312,2.963,0.9c1.188,0.793,1.996,2,2.275,3.4s-0.004,2.825-0.796,4.013
		C103.535,53.991,101.871,54.881,100.078,54.881z"/>
	<path fill="#FF6183" d="M100.087,44.771c0.909,0,1.827,0.26,2.64,0.803c2.188,1.46,2.777,4.417,1.317,6.604
		c-0.918,1.375-2.428,2.119-3.966,2.119c-0.909,0-1.827-0.26-2.64-0.802c-2.187-1.461-2.776-4.417-1.316-6.605
		C97.04,45.516,98.549,44.771,100.087,44.771 M100.087,43.605L100.087,43.605c-1.987,0-3.832,0.986-4.934,2.638
		c-1.814,2.719-1.079,6.407,1.638,8.223c0.979,0.653,2.116,0.998,3.288,0.998c1.988,0,3.833-0.986,4.936-2.638
		c0.879-1.317,1.193-2.897,0.883-4.451c-0.31-1.553-1.206-2.892-2.523-3.771C102.396,43.951,101.259,43.605,100.087,43.605
		L100.087,43.605z"/>
</g>
<polygon fill="#FFC565" points="99.095,51.015 96.729,47.295 101.071,48.056 "/>
<g>
	<path fill="#FFFFFF" d="M124.183,54.881c-0.625,0-1.243-0.109-1.835-0.326c-2.768-1.013-4.197-4.088-3.185-6.855
		c0.769-2.101,2.787-3.512,5.021-3.512c0.625,0,1.243,0.109,1.835,0.326c1.341,0.49,2.411,1.474,3.012,2.769
		c0.602,1.296,0.663,2.747,0.172,4.088C128.436,53.47,126.418,54.881,124.183,54.881z"/>
	<path fill="#FF6183" d="M124.185,44.771c0.543,0,1.095,0.094,1.635,0.291c2.47,0.903,3.741,3.639,2.837,6.108
		c-0.706,1.93-2.53,3.128-4.473,3.128c-0.543,0-1.095-0.094-1.635-0.291c-2.47-0.903-3.741-3.637-2.837-6.107
		C120.417,45.969,122.242,44.771,124.185,44.771 M124.185,43.604L124.185,43.604c-2.479,0-4.717,1.565-5.569,3.895
		c-1.123,3.069,0.462,6.48,3.532,7.603c0.657,0.24,1.341,0.362,2.035,0.362c2.479,0,4.717-1.564,5.568-3.894
		c0.544-1.486,0.477-3.097-0.191-4.533c-0.667-1.437-1.854-2.527-3.341-3.07C125.563,43.727,124.878,43.604,124.185,43.604
		L124.185,43.604z"/>
</g>
<polygon fill="#FFC565" points="122.513,48.924 125.569,45.747 125.855,50.146 "/>
<g>
	<path fill="#FFFFFF" d="M139.631,54.881c-1.056,0-2.08-0.312-2.961-0.899c-1.188-0.793-1.996-2-2.276-3.4
		c-0.28-1.399,0.002-2.824,0.795-4.012c0.994-1.49,2.657-2.38,4.45-2.38c1.057,0,2.081,0.311,2.963,0.899
		c1.187,0.792,1.995,2,2.275,3.399c0.279,1.4-0.003,2.825-0.795,4.012C143.088,53.99,141.424,54.881,139.631,54.881z"/>
	<path fill="#FF6183" d="M139.639,44.772c0.909,0,1.827,0.259,2.64,0.802c2.187,1.459,2.778,4.416,1.319,6.603
		c-0.918,1.376-2.428,2.12-3.966,2.12c-0.908,0-1.826-0.259-2.638-0.801c-2.188-1.46-2.779-4.416-1.32-6.604
		C136.591,45.517,138.101,44.772,139.639,44.772 M139.639,43.605L139.639,43.605c-1.988,0-3.833,0.987-4.936,2.641
		c-0.878,1.316-1.192,2.896-0.881,4.449c0.31,1.553,1.207,2.892,2.524,3.771c0.978,0.652,2.113,0.997,3.285,0.997
		c1.988,0,3.834-0.987,4.937-2.64c0.878-1.316,1.191-2.897,0.881-4.45c-0.311-1.553-1.207-2.892-2.523-3.771
		C141.947,43.951,140.811,43.605,139.639,43.605L139.639,43.605z"/>
</g>
<polygon fill="#FFC565" points="140.623,48.056 142.99,51.772 138.648,51.015 "/>
<rect x="65.681" y="84.325" opacity="0.1" fill="#231F20" width="68.804" height="2.624"/>
<rect x="50.813" y="73.538" opacity="0.1" fill="#231F20" width="98.54" height="2.624"/>
<rect x="50.813" y="40.886" opacity="0.1" fill="#231F20" width="98.54" height="2.624"/>
<rect x="50.813" y="148.171" opacity="0.1" fill="#231F20" width="98.54" height="2.625"/>
<rect x="58.693" y="31.751" fill="#4ABCB9" width="31.486" height="4.47"/>
<rect x="109.986" y="31.751" fill="#4ABCB9" width="31.486" height="4.47"/>
</svg>
