<?xml version="1.0" encoding="utf-8"?>
<!-- Generator: Adobe Illustrator 15.0.0, SVG Export Plug-In  -->
<!DOCTYPE svg PUBLIC "-//W3C//DTD SVG 1.1//EN" "http://www.w3.org/Graphics/SVG/1.1/DTD/svg11.dtd" [
	<!ENTITY ns_flows "http://ns.adobe.com/Flows/1.0/">
]>
<svg version="1.1"
	 xmlns="http://www.w3.org/2000/svg" xmlns:xlink="http://www.w3.org/1999/xlink" xmlns:a="http://ns.adobe.com/AdobeSVGViewerExtensions/3.0/"
	 x="0px" y="0px" width="200px" height="200px" viewBox="0 0 200 200" overflow="visible" enable-background="new 0 0 200 200"
	 xml:space="preserve">
<defs>
</defs>
<circle fill="#FFFFFF" cx="100" cy="100" r="100"/>
<circle fill="#FA81A9" cx="69.629" cy="125.767" r="15.015"/>
<circle fill="#FA81A9" cx="100" cy="112.517" r="15.015"/>
<path fill="#FC7094" d="M150.236,156.673c0.58-2.289,0.891-4.686,0.891-7.156c0-12.153-7.466-22.559-18.06-26.893
	c0.001-0.074,0.005-0.146,0.005-0.219c0-11.719-9.5-21.219-21.22-21.219c-5.466,0-10.448,2.068-14.21,5.463
	c-2.194-0.769-4.552-1.19-7.009-1.19c-10.891,0-19.861,8.207-21.074,18.772c-14.504,1.626-25.779,13.926-25.779,28.863
	c0,1.213,0.083,2.405,0.228,3.578H150.236z"/>
<g>
	<path fill="none" stroke="#FFB85D" stroke-width="5" stroke-linecap="round" stroke-miterlimit="10" d="M100.453,29.672
		c0,4.799-6,4.799-6,9.597c0,4.8,6,4.8,6,9.6c0,4.798-6,4.798-6,9.597c0,4.802,6,4.802,6,9.604s-6,4.802-6,9.604"/>
</g>
<g>
	<path fill="none" stroke="#FFB85D" stroke-width="5" stroke-linecap="round" stroke-miterlimit="10" d="M130.28,43.736
		c0,4.799-6,4.799-6,9.597c0,4.8,6,4.8,6,9.6c0,4.798-6,4.798-6,9.597c0,4.802,6,4.802,6,9.604s-6,4.802-6,9.604"/>
</g>
<g>
	<path fill="none" stroke="#FFB85D" stroke-width="5" stroke-linecap="round" stroke-miterlimit="10" d="M74.614,43.736
		c0,4.799-6,4.799-6,9.597c0,4.8,6,4.8,6,9.6c0,4.798-6,4.798-6,9.597c0,4.802,6,4.802,6,9.604s-6,4.802-6,9.604"/>
</g>
</svg>
