<?xml version="1.0" encoding="utf-8"?>
<!-- Generator: Adobe Illustrator 15.0.0, SVG Export Plug-In  -->
<!DOCTYPE svg PUBLIC "-//W3C//DTD SVG 1.1//EN" "http://www.w3.org/Graphics/SVG/1.1/DTD/svg11.dtd" [
	<!ENTITY ns_flows "http://ns.adobe.com/Flows/1.0/">
]>
<svg version="1.1"
	 xmlns="http://www.w3.org/2000/svg" xmlns:xlink="http://www.w3.org/1999/xlink" xmlns:a="http://ns.adobe.com/AdobeSVGViewerExtensions/3.0/"
	 x="0px" y="0px" width="200px" height="200px" viewBox="0 0.001 200 200"
	 overflow="visible" enable-background="new 0 0.001 200 200" xml:space="preserve">
<defs>
</defs>
<circle fill="#FFFFFF" cx="100" cy="100" r="100"/>
<rect x="69.165" y="22.702" fill="#4ABCB9" width="44.457" height="51.334"/>
<rect x="73.316" y="27.495" fill="#FC7C9F" width="36.154" height="41.748"/>
<rect x="73.316" y="27.495" opacity="0.1" fill="#231F20" width="36.154" height="3.48"/>
<rect x="73.316" y="34.453" opacity="0.1" fill="#231F20" width="36.154" height="3.48"/>
<rect x="73.316" y="41.411" opacity="0.1" fill="#231F20" width="36.154" height="3.479"/>
<rect x="73.316" y="48.369" opacity="0.1" fill="#231F20" width="36.154" height="3.479"/>
<rect x="73.316" y="55.327" opacity="0.1" fill="#231F20" width="36.154" height="3.479"/>
<rect x="73.316" y="62.284" opacity="0.1" fill="#231F20" width="36.154" height="3.479"/>
<rect x="80.275" y="35.341" fill="#FFFFFF" width="6.684" height="29.916"/>
<rect x="95.828" y="35.341" fill="#FFFFFF" width="6.683" height="29.916"/>
<rect x="80.275" y="31.481" fill="#FFFFFF" width="22.236" height="7.717"/>
<rect x="80.275" y="46.438" fill="#FFFFFF" width="22.236" height="7.719"/>
<rect x="113.622" y="22.702" fill="#FC7C9F" width="25.667" height="51.334"/>
<rect x="116.019" y="27.495" fill="#5FD0D6" width="20.873" height="41.748"/>
<rect x="116.019" y="27.495" opacity="0.1" fill="#231F20" width="20.873" height="3.48"/>
<rect x="116.019" y="34.453" opacity="0.1" fill="#231F20" width="20.873" height="3.48"/>
<rect x="116.019" y="41.411" opacity="0.1" fill="#231F20" width="20.873" height="3.479"/>
<rect x="116.019" y="48.369" opacity="0.1" fill="#231F20" width="20.873" height="3.479"/>
<rect x="116.019" y="55.327" opacity="0.1" fill="#231F20" width="20.873" height="3.479"/>
<rect x="116.019" y="62.284" opacity="0.1" fill="#231F20" width="20.873" height="3.479"/>
<rect x="124.526" y="35.341" fill="#FFFFFF" width="3.858" height="29.916"/>
<polygon fill="#FFFFFF" points="123.564,31.481 121.965,39.198 128.384,39.198 128.384,31.481 "/>
<rect x="51.409" y="74.036" fill="#FC7C9F" width="36.299" height="51.333"/>
<rect x="54.798" y="78.83" fill="#5FD0D6" width="29.52" height="41.746"/>
<rect x="54.798" y="78.83" opacity="0.1" fill="#231F20" width="29.52" height="3.478"/>
<rect x="54.798" y="85.788" opacity="0.1" fill="#231F20" width="29.52" height="3.478"/>
<rect x="54.798" y="92.745" opacity="0.1" fill="#231F20" width="29.52" height="3.478"/>
<rect x="54.798" y="99.703" opacity="0.1" fill="#231F20" width="29.52" height="3.478"/>
<rect x="54.798" y="106.66" opacity="0.1" fill="#231F20" width="29.52" height="3.479"/>
<rect x="54.798" y="113.618" opacity="0.1" fill="#231F20" width="29.52" height="3.479"/>
<rect x="60.48" y="86.674" fill="#FFFFFF" width="5.457" height="29.916"/>
<rect x="87.708" y="74.036" fill="#4ABCB9" width="36.298" height="51.333"/>
<rect x="91.097" y="78.83" fill="#FC7C9F" width="29.52" height="41.746"/>
<rect x="91.097" y="78.83" opacity="0.1" fill="#231F20" width="29.52" height="3.478"/>
<rect x="91.097" y="85.788" opacity="0.1" fill="#231F20" width="29.52" height="3.478"/>
<rect x="91.097" y="92.745" opacity="0.1" fill="#231F20" width="29.52" height="3.478"/>
<rect x="91.097" y="99.703" opacity="0.1" fill="#231F20" width="29.52" height="3.478"/>
<rect x="91.097" y="106.66" opacity="0.1" fill="#231F20" width="29.52" height="3.479"/>
<rect x="91.097" y="113.618" opacity="0.1" fill="#231F20" width="29.52" height="3.479"/>
<rect x="96.779" y="100.551" fill="#FFFFFF" width="5.457" height="16.039"/>
<rect x="109.478" y="86.674" fill="#FFFFFF" width="5.457" height="16.54"/>
<rect x="96.779" y="82.815" fill="#FFFFFF" width="18.156" height="7.715"/>
<rect x="96.779" y="108.873" fill="#FFFFFF" width="18.156" height="7.717"/>
<rect x="96.779" y="96.692" fill="#FFFFFF" width="18.156" height="7.718"/>
<polygon fill="#FFFFFF" points="78.636,95.845 78.636,90.53 73.179,82.815 60.48,82.815 60.48,90.53 73.179,90.53 73.179,95.845 
	60.48,95.845 60.48,103.562 73.179,103.562 73.179,108.873 60.48,108.873 60.48,116.59 73.179,116.59 78.636,108.873 
	78.636,103.562 75.907,99.703 "/>
<rect x="87.708" y="74.036" opacity="0.2" fill="#FFFFFF" width="36.298" height="51.333"/>
<rect x="63.755" y="125.369" fill="#4ABCB9" width="25.667" height="51.334"/>
<rect x="66.153" y="130.162" fill="#FC7C9F" width="20.874" height="41.748"/>
<rect x="66.153" y="130.162" opacity="0.1" fill="#231F20" width="20.874" height="3.48"/>
<rect x="66.153" y="137.12" opacity="0.1" fill="#231F20" width="20.874" height="3.48"/>
<rect x="66.153" y="144.077" opacity="0.1" fill="#231F20" width="20.874" height="3.48"/>
<rect x="66.153" y="151.036" opacity="0.1" fill="#231F20" width="20.874" height="3.479"/>
<rect x="66.153" y="157.993" opacity="0.1" fill="#231F20" width="20.874" height="3.479"/>
<rect x="66.153" y="164.952" opacity="0.1" fill="#231F20" width="20.874" height="3.479"/>
<rect x="70.17" y="138.008" fill="#FFFFFF" width="3.859" height="29.916"/>
<rect x="70.17" y="134.148" fill="#FFFFFF" width="12.838" height="7.717"/>
<polygon fill="#FFFFFF" points="70.17,160.207 70.17,167.924 81.41,167.924 83.008,160.207 "/>
<rect x="89.423" y="125.369" fill="#FC7C9F" width="44.458" height="51.334"/>
<rect x="93.574" y="130.162" fill="#5FD0D6" width="36.155" height="41.748"/>
<rect x="93.574" y="130.162" opacity="0.1" fill="#231F20" width="36.155" height="3.48"/>
<rect x="93.574" y="137.12" opacity="0.1" fill="#231F20" width="36.155" height="3.48"/>
<rect x="93.574" y="144.077" opacity="0.1" fill="#231F20" width="36.155" height="3.48"/>
<rect x="93.574" y="151.036" opacity="0.1" fill="#231F20" width="36.155" height="3.479"/>
<rect x="93.574" y="157.993" opacity="0.1" fill="#231F20" width="36.155" height="3.479"/>
<rect x="93.574" y="164.952" opacity="0.1" fill="#231F20" width="36.155" height="3.479"/>
<rect x="116.087" y="138.008" fill="#FFFFFF" width="6.683" height="29.916"/>
<rect x="100.533" y="134.148" fill="#FFFFFF" width="22.237" height="7.717"/>
<rect x="100.533" y="160.207" fill="#FFFFFF" width="22.237" height="7.717"/>
<rect x="105.941" y="148.469" fill="#FFFFFF" width="16.829" height="7.716"/>
<rect x="89.423" y="125.369" opacity="0.2" fill="#FFFFFF" width="44.458" height="51.334"/>
<polygon opacity="0.2" fill="#231F20" points="87.708,74.036 124.006,110.335 124.006,74.036 "/>
<polygon opacity="0.2" fill="#231F20" points="87.708,125.369 63.755,149.321 63.755,125.369 "/>
</svg>
