<?xml version="1.0" encoding="utf-8"?>
<!-- Generator: Adobe Illustrator 15.0.0, SVG Export Plug-In  -->
<!DOCTYPE svg PUBLIC "-//W3C//DTD SVG 1.1//EN" "http://www.w3.org/Graphics/SVG/1.1/DTD/svg11.dtd" [
	<!ENTITY ns_flows "http://ns.adobe.com/Flows/1.0/">
]>
<svg version="1.1"
	 xmlns="http://www.w3.org/2000/svg" xmlns:xlink="http://www.w3.org/1999/xlink" xmlns:a="http://ns.adobe.com/AdobeSVGViewerExtensions/3.0/"
	 x="0px" y="0px" width="910px" height="200px" viewBox="0 -24.815 910 200"
	 overflow="visible" enable-background="new 0 -24.815 910 200" xml:space="preserve">
<defs>
</defs>
<rect y="140.29" fill="#64E2E2" width="960" height="34.896"/>
<rect y="31.941" fill="#FFFFFF" width="960" height="108.658"/>
<rect x="0.033" y="136.17" fill="#FFAE53" width="960" height="9.611"/>
<rect x="868.987" y="107.775" fill="#FC7094" width="20.907" height="5.913"/>
<rect x="868.987" y="89.314" fill="#FC7094" width="20.907" height="5.914"/>
<polygon fill="#FC7094" points="889.894,95.231 871.436,113.688 868.987,107.775 885.712,91.049 "/>
<polygon opacity="0.1" fill="#231F20" points="879.789,96.972 888.152,96.972 889.894,95.231 889.891,95.229 881.534,95.229 "/>
<rect x="824.102" y="87.379" fill="#5FD0D6" width="30.126" height="8.521"/>
<rect x="824.102" y="60.779" fill="#5FD0D6" width="30.126" height="8.523"/>
<polygon fill="#5FD0D6" points="854.228,69.305 827.632,95.901 824.102,87.379 848.203,63.281 "/>
<polygon opacity="0.1" fill="#231F20" points="839.668,71.813 851.718,71.813 854.228,69.305 854.224,69.302 842.182,69.302 "/>
<rect x="778.269" y="38.015" fill="#FFB85D" width="43.056" height="12.178"/>
<rect x="778.269" fill="#FFB85D" width="43.056" height="12.178"/>
<polygon fill="#FFB85D" points="821.325,12.183 783.314,50.193 778.269,38.015 812.714,3.573 "/>
<polygon opacity="0.1" fill="#231F20" points="800.516,15.769 817.738,15.769 821.325,12.183 821.32,12.178 804.108,12.178 "/>
<rect x="185.081" y="131.38" fill="#E56385" width="43.869" height="29.006"/>
<rect x="228.95" y="131.38" fill="#FC7C9F" width="14.949" height="29.006"/>
<rect x="207.554" y="81.308" fill="#E56385" width="27.107" height="29.006"/>
<rect x="218.643" y="81.308" fill="#FC7C9F" width="25.256" height="29.006"/>
<rect x="185.081" y="39.479" fill="#E56385" width="27.108" height="20.762"/>
<rect x="201.392" y="39.479" fill="#FC7C9F" width="20.035" height="20.762"/>
<rect x="196.531" y="110.313" fill="#54C6C6" width="39.72" height="21.066"/>
<rect x="224.139" y="110.313" fill="#5ADAE0" width="25.646" height="21.066"/>
<rect x="197.511" y="60.241" fill="#54C6C6" width="25.18" height="21.066"/>
<rect x="215.013" y="60.241" fill="#5ADAE0" width="16.258" height="21.066"/>
<rect x="33.263" y="23.679" fill="#FA81A9" width="98.54" height="124.779"/>
<rect x="33.263" y="45.836" fill="#E56385" width="98.54" height="10.496"/>
<rect x="33.263" y="120.762" fill="#E56385" width="98.54" height="27.696"/>
<rect x="33.263" y="130.965" fill="#FA81A9" width="98.54" height="17.493"/>
<rect x="56.586" y="139.712" fill="#E56385" width="51.894" height="8.746"/>
<rect x="29.473" y="128.633" fill="#E6E7E8" width="106.12" height="4.664"/>
<rect x="29.473" y="118.43" fill="#E6E7E8" width="106.12" height="4.664"/>
<rect x="29.473" y="54" fill="#E6E7E8" width="106.12" height="4.664"/>
<rect x="29.473" y="43.504" fill="#E6E7E8" width="106.12" height="4.664"/>
<rect x="29.473" y="21.347" fill="#E6E7E8" width="106.12" height="4.665"/>
<rect x="48.131" y="64.787" fill="#FFC565" width="68.804" height="4.665"/>
<path fill="#FFFFFF" d="M111.104,99.48c0,3.207-2.624,5.831-5.831,5.831H59.793c-3.207,0-5.831-2.624-5.831-5.831V80.822
	c0-3.207,2.624-5.831,5.831-5.831h45.479c3.207,0,5.831,2.624,5.831,5.831V99.48z"/>
<path opacity="0.2" fill="#FA8DB8" d="M71.454,105.311h23.615l-30.32-30.32h-4.956c-3.207,0-5.831,2.624-5.831,5.831v6.997
	L71.454,105.311z"/>
<path opacity="0.2" fill="#FA8DB8" d="M78.743,74.991H70.64l30.32,30.32h4.313c1.083,0,2.095-0.305,2.966-0.824L78.743,74.991z"/>
<g>
	<path fill="#FFFFFF" d="M44.828,40.005c-2.947,0-5.345-2.397-5.345-5.344c0-2.948,2.398-5.346,5.345-5.346s5.345,2.398,5.345,5.346
		C50.172,37.608,47.775,40.005,44.828,40.005z"/>
	<path fill="#FF6183" d="M44.828,29.899c2.63,0,4.762,2.133,4.762,4.763s-2.132,4.761-4.762,4.761c-2.63,0-4.762-2.131-4.762-4.761
		S42.197,29.899,44.828,29.899 M44.828,28.733c-3.269,0-5.928,2.66-5.928,5.929c0,3.268,2.659,5.927,5.928,5.927
		c3.269,0,5.928-2.659,5.928-5.927C50.755,31.393,48.096,28.733,44.828,28.733L44.828,28.733z"/>
</g>
<polygon fill="#FFC565" points="43.048,34.662 44.828,30.627 46.606,34.662 "/>
<g>
	<path fill="#FFFFFF" d="M60.275,40.007c-0.846,0-1.66-0.196-2.419-0.582c-1.273-0.646-2.217-1.75-2.66-3.108
		s-0.33-2.806,0.317-4.079c0.918-1.803,2.745-2.923,4.769-2.923c0.846,0,1.66,0.196,2.418,0.582c1.272,0.646,2.217,1.75,2.66,3.108
		c0.442,1.358,0.329,2.807-0.318,4.079C64.126,38.887,62.3,40.007,60.275,40.007z"/>
	<path fill="#FF6183" d="M60.283,29.898c0.726,0,1.462,0.167,2.154,0.519c2.344,1.191,3.278,4.059,2.086,6.403
		c-0.84,1.653-2.513,2.604-4.248,2.604c-0.726,0-1.463-0.167-2.155-0.519c-2.345-1.191-3.278-4.059-2.086-6.403
		C56.875,30.85,58.548,29.898,60.283,29.898 M60.284,28.732L60.284,28.732c-2.245,0-4.271,1.242-5.289,3.242
		c-0.718,1.412-0.843,3.019-0.353,4.524c0.491,1.506,1.539,2.73,2.95,3.447c0.829,0.422,1.757,0.645,2.683,0.645
		c2.245,0,4.271-1.242,5.288-3.242c0.718-1.412,0.843-3.018,0.353-4.524c-0.491-1.505-1.538-2.73-2.95-3.447
		C62.136,28.955,61.208,28.732,60.284,28.732L60.284,28.732z"/>
</g>
<polygon fill="#FFC565" points="59.472,36.248 56.684,32.833 61.085,33.076 "/>
<g>
	<path fill="#FFFFFF" d="M82.528,40.007c-1.056,0-2.081-0.311-2.963-0.9c-2.45-1.637-3.113-4.962-1.477-7.414
		c0.994-1.489,2.657-2.378,4.449-2.378c1.057,0,2.082,0.311,2.963,0.9c1.188,0.792,1.996,2,2.275,3.4
		c0.279,1.4-0.004,2.825-0.796,4.013C85.984,39.118,84.32,40.007,82.528,40.007z"/>
	<path fill="#FF6183" d="M82.537,29.898c0.909,0,1.827,0.26,2.64,0.802c2.188,1.46,2.777,4.417,1.317,6.604
		c-0.918,1.375-2.428,2.119-3.966,2.119c-0.908,0-1.827-0.26-2.64-0.802c-2.187-1.461-2.776-4.417-1.316-6.605
		C79.49,30.642,80.999,29.898,82.537,29.898 M82.537,28.732L82.537,28.732c-1.987,0-3.832,0.986-4.935,2.637
		c-1.813,2.719-1.079,6.408,1.638,8.223c0.979,0.653,2.116,0.998,3.288,0.998c1.988,0,3.833-0.986,4.936-2.638
		c0.879-1.317,1.193-2.898,0.883-4.451c-0.31-1.553-1.206-2.893-2.523-3.771C84.846,29.078,83.709,28.732,82.537,28.732
		L82.537,28.732z"/>
</g>
<polygon fill="#FFC565" points="81.544,36.141 79.178,32.421 83.521,33.182 "/>
<g>
	<path fill="#FFFFFF" d="M106.633,40.007c-0.625,0-1.243-0.11-1.835-0.326c-2.768-1.013-4.197-4.088-3.185-6.855
		c0.769-2.101,2.787-3.512,5.021-3.512c0.625,0,1.243,0.11,1.835,0.326c1.341,0.491,2.411,1.474,3.012,2.769
		s0.663,2.747,0.172,4.087C110.886,38.597,108.868,40.007,106.633,40.007z"/>
	<path fill="#FF6183" d="M106.634,29.897c0.543,0,1.095,0.094,1.635,0.291c2.47,0.903,3.741,3.639,2.837,6.108
		c-0.706,1.93-2.53,3.128-4.473,3.128c-0.543,0-1.096-0.094-1.635-0.291c-2.47-0.903-3.741-3.637-2.837-6.107
		C102.867,31.095,104.692,29.897,106.634,29.897 M106.634,28.731L106.634,28.731c-2.479,0-4.717,1.565-5.569,3.894
		c-1.123,3.07,0.462,6.481,3.532,7.604c0.657,0.24,1.341,0.362,2.036,0.362c2.479,0,4.716-1.564,5.568-3.894
		c0.544-1.487,0.477-3.097-0.191-4.533c-0.667-1.437-1.854-2.527-3.341-3.071C108.013,28.853,107.328,28.731,106.634,28.731
		L106.634,28.731z"/>
</g>
<polygon fill="#FFC565" points="104.962,34.05 108.019,30.874 108.305,35.272 "/>
<g>
	<path fill="#FFFFFF" d="M122.081,40.007c-1.056,0-2.08-0.311-2.961-0.899c-1.188-0.792-1.996-2-2.276-3.399
		s0.002-2.825,0.795-4.013c0.994-1.49,2.657-2.38,4.45-2.38c1.057,0,2.081,0.312,2.963,0.9c1.187,0.792,1.995,1.999,2.275,3.399
		c0.279,1.4-0.003,2.825-0.795,4.012C125.538,39.117,123.874,40.007,122.081,40.007z"/>
	<path fill="#FF6183" d="M122.088,29.898c0.909,0,1.827,0.26,2.64,0.802c2.187,1.459,2.778,4.416,1.319,6.603
		c-0.918,1.376-2.428,2.121-3.966,2.121c-0.908,0-1.826-0.259-2.638-0.801c-2.188-1.46-2.779-4.416-1.32-6.604
		C119.041,30.643,120.55,29.898,122.088,29.898 M122.088,28.732L122.088,28.732c-1.988,0-3.833,0.987-4.936,2.64
		c-0.879,1.317-1.192,2.897-0.881,4.45c0.31,1.552,1.207,2.892,2.524,3.771c0.978,0.652,2.114,0.997,3.285,0.997
		c1.988,0,3.834-0.986,4.937-2.64c0.878-1.316,1.191-2.896,0.881-4.449s-1.207-2.892-2.523-3.771
		C124.397,29.078,123.261,28.732,122.088,28.732L122.088,28.732z"/>
</g>
<polygon fill="#FFC565" points="123.073,33.182 125.44,36.899 121.098,36.141 "/>
<rect x="48.131" y="69.452" opacity="0.1" fill="#231F20" width="68.804" height="2.624"/>
<rect x="33.263" y="58.665" opacity="0.1" fill="#231F20" width="98.54" height="2.624"/>
<rect x="33.263" y="26.012" opacity="0.1" fill="#231F20" width="98.54" height="2.624"/>
<rect x="33.263" y="133.297" opacity="0.1" fill="#231F20" width="98.54" height="2.625"/>
<rect x="41.143" y="16.877" fill="#4ABCB9" width="31.486" height="4.47"/>
<rect x="92.436" y="16.877" fill="#4ABCB9" width="31.486" height="4.47"/>
<rect x="564.293" y="116.107" fill="#4ABCB9" width="44.457" height="51.334"/>
<rect x="568.445" y="120.9" fill="#FC7C9F" width="36.154" height="41.748"/>
<rect x="568.445" y="120.9" opacity="0.1" fill="#231F20" width="36.154" height="3.48"/>
<rect x="568.445" y="127.858" opacity="0.1" fill="#231F20" width="36.154" height="3.48"/>
<rect x="568.445" y="134.816" opacity="0.1" fill="#231F20" width="36.154" height="3.479"/>
<rect x="568.445" y="141.774" opacity="0.1" fill="#231F20" width="36.154" height="3.479"/>
<rect x="568.445" y="148.732" opacity="0.1" fill="#231F20" width="36.154" height="3.479"/>
<rect x="568.445" y="155.689" opacity="0.1" fill="#231F20" width="36.154" height="3.479"/>
<rect x="575.404" y="128.746" fill="#FFFFFF" width="6.684" height="29.916"/>
<rect x="590.957" y="128.746" fill="#FFFFFF" width="6.683" height="29.916"/>
<rect x="575.404" y="124.886" fill="#FFFFFF" width="22.236" height="7.717"/>
<rect x="575.404" y="139.843" fill="#FFFFFF" width="22.236" height="7.719"/>
<rect x="608.75" y="116.107" fill="#FC7C9F" width="25.667" height="51.334"/>
<rect x="611.148" y="120.9" fill="#5FD0D6" width="20.873" height="41.748"/>
<rect x="611.148" y="120.9" opacity="0.1" fill="#231F20" width="20.873" height="3.48"/>
<rect x="611.148" y="127.858" opacity="0.1" fill="#231F20" width="20.873" height="3.48"/>
<rect x="611.148" y="134.816" opacity="0.1" fill="#231F20" width="20.873" height="3.479"/>
<rect x="611.148" y="141.774" opacity="0.1" fill="#231F20" width="20.873" height="3.479"/>
<rect x="611.148" y="148.732" opacity="0.1" fill="#231F20" width="20.873" height="3.479"/>
<rect x="611.148" y="155.689" opacity="0.1" fill="#231F20" width="20.873" height="3.479"/>
<rect x="619.655" y="128.746" fill="#FFFFFF" width="3.858" height="29.916"/>
<polygon fill="#FFFFFF" points="618.693,124.886 617.094,132.603 623.513,132.603 623.513,124.886 "/>
<rect x="545.789" y="64.774" fill="#FC7C9F" width="36.299" height="51.333"/>
<rect x="549.178" y="69.568" fill="#5FD0D6" width="29.52" height="41.746"/>
<rect x="549.178" y="69.568" opacity="0.1" fill="#231F20" width="29.52" height="3.478"/>
<rect x="549.178" y="76.526" opacity="0.1" fill="#231F20" width="29.52" height="3.478"/>
<rect x="549.178" y="83.483" opacity="0.1" fill="#231F20" width="29.52" height="3.478"/>
<rect x="549.178" y="90.441" opacity="0.1" fill="#231F20" width="29.52" height="3.478"/>
<rect x="549.178" y="97.398" opacity="0.1" fill="#231F20" width="29.52" height="3.479"/>
<rect x="549.178" y="104.356" opacity="0.1" fill="#231F20" width="29.52" height="3.479"/>
<rect x="554.86" y="77.412" fill="#FFFFFF" width="5.457" height="29.916"/>
<rect x="582.088" y="64.774" fill="#4ABCB9" width="36.298" height="51.333"/>
<rect x="585.477" y="69.568" fill="#FC7C9F" width="29.52" height="41.746"/>
<rect x="585.477" y="69.568" opacity="0.1" fill="#231F20" width="29.52" height="3.478"/>
<rect x="585.477" y="76.526" opacity="0.1" fill="#231F20" width="29.52" height="3.478"/>
<rect x="585.477" y="83.483" opacity="0.1" fill="#231F20" width="29.52" height="3.478"/>
<rect x="585.477" y="90.441" opacity="0.1" fill="#231F20" width="29.52" height="3.478"/>
<rect x="585.477" y="97.398" opacity="0.1" fill="#231F20" width="29.52" height="3.479"/>
<rect x="585.477" y="104.356" opacity="0.1" fill="#231F20" width="29.52" height="3.479"/>
<rect x="591.159" y="91.289" fill="#FFFFFF" width="5.457" height="16.039"/>
<rect x="603.858" y="77.412" fill="#FFFFFF" width="5.457" height="16.54"/>
<rect x="591.159" y="73.553" fill="#FFFFFF" width="18.156" height="7.715"/>
<rect x="591.159" y="99.611" fill="#FFFFFF" width="18.156" height="7.717"/>
<rect x="591.159" y="87.43" fill="#FFFFFF" width="18.156" height="7.718"/>
<polygon fill="#FFFFFF" points="573.016,86.583 573.016,81.268 567.559,73.553 554.86,73.553 554.86,81.268 567.559,81.268 
	567.559,86.583 554.86,86.583 554.86,94.299 567.559,94.299 567.559,99.611 554.86,99.611 554.86,107.328 567.559,107.328 
	573.016,99.611 573.016,94.299 570.287,90.441 "/>
<rect x="582.088" y="64.774" opacity="0.2" fill="#FFFFFF" width="36.298" height="51.333"/>
<rect x="349.428" y="120.125" fill="#FC7C9F" width="9.545" height="30.146"/>
<rect x="455.875" y="120.125" fill="#FC7C9F" width="9.545" height="30.146"/>
<rect x="349.428" y="120.125" opacity="0.1" fill="#231F20" width="9.545" height="6.629"/>
<rect x="455.875" y="120.125" opacity="0.1" fill="#231F20" width="9.545" height="6.629"/>
<polygon fill="#FC7C9F" points="317.007,11.115 317.007,110.978 324.83,120.125 490.019,120.125 497.841,110.978 497.841,11.115 "/>
<rect x="323.635" y="17.21" fill="#D3295E" width="167.577" height="90.984"/>
<rect x="337.688" y="100.236" fill="#5FD0D6" width="16.512" height="7.958"/>
<rect x="337.688" y="105.409" fill="#FFFFFF" width="16.512" height="2.785"/>
<polygon opacity="0.15" fill="#231F20" points="354.2,100.236 362.158,108.194 354.2,108.194 "/>
<rect x="321.217" y="108.194" fill="#FFB85D" width="172.414" height="2.784"/>
<rect x="321.217" y="110.978" opacity="0.15" fill="#231F20" width="172.414" height="2.781"/>
<rect x="486.047" y="95.353" transform="matrix(0.9337 0.3581 -0.3581 0.9337 68.7698 -167.8625)" fill="#FFFFFF" width="2.983" height="12.728"/>
<path fill="none" stroke="#FFFFFF" stroke-width="2" stroke-miterlimit="10" d="M390.264,67.108c0,7.762-6.292,14.054-14.053,14.054
	c-7.761,0-14.053-6.292-14.053-14.054c0-7.759,6.292-14.052,14.053-14.052C383.972,53.056,390.264,59.349,390.264,67.108z"/>
<g>
	<path fill="none" stroke="#FFFFFF" stroke-width="2" stroke-miterlimit="10" d="M399.47,51.616c3.539,0,3.539,2.88,7.077,2.88
		c3.537,0,3.537-2.88,7.073-2.88c3.54,0,3.54,2.88,7.079,2.88c3.542,0,3.542-2.88,7.084-2.88s3.542,2.88,7.084,2.88"/>
</g>
<g>
	<path fill="none" stroke="#FFFFFF" stroke-width="2" stroke-miterlimit="10" d="M407.424,62.473c3.539,0,3.539,2.88,7.077,2.88
		c3.537,0,3.537-2.88,7.073-2.88c3.54,0,3.54,2.88,7.079,2.88c3.542,0,3.542-2.88,7.084-2.88s3.542,2.88,7.084,2.88"/>
</g>
<rect x="672.389" y="109.442" fill="#4ABCB9" width="22.986" height="45.972"/>
<rect x="674.536" y="113.734" fill="#FC7C9F" width="18.693" height="37.387"/>
<rect x="674.536" y="113.734" opacity="0.1" fill="#231F20" width="18.693" height="3.117"/>
<rect x="674.536" y="119.965" opacity="0.1" fill="#231F20" width="18.693" height="3.117"/>
<rect x="674.536" y="126.196" opacity="0.1" fill="#231F20" width="18.693" height="3.117"/>
<rect x="674.536" y="132.428" opacity="0.1" fill="#231F20" width="18.693" height="3.116"/>
<rect x="674.536" y="138.658" opacity="0.1" fill="#231F20" width="18.693" height="3.116"/>
<rect x="674.536" y="144.89" opacity="0.1" fill="#231F20" width="18.693" height="3.115"/>
<rect x="678.133" y="120.76" fill="#FFFFFF" width="3.456" height="26.791"/>
<rect x="678.133" y="117.304" fill="#FFFFFF" width="11.498" height="6.911"/>
<polygon fill="#FFFFFF" points="678.133,140.641 678.133,147.551 688.199,147.551 689.631,140.641 "/>
<rect x="695.375" y="109.442" fill="#FC7C9F" width="39.813" height="45.972"/>
<rect x="699.093" y="113.734" fill="#5FD0D6" width="32.378" height="37.387"/>
<rect x="699.093" y="113.734" opacity="0.1" fill="#231F20" width="32.378" height="3.117"/>
<rect x="699.093" y="119.965" opacity="0.1" fill="#231F20" width="32.378" height="3.117"/>
<rect x="699.093" y="126.196" opacity="0.1" fill="#231F20" width="32.378" height="3.117"/>
<rect x="699.093" y="132.428" opacity="0.1" fill="#231F20" width="32.378" height="3.116"/>
<rect x="699.093" y="138.658" opacity="0.1" fill="#231F20" width="32.378" height="3.116"/>
<rect x="699.093" y="144.89" opacity="0.1" fill="#231F20" width="32.378" height="3.115"/>
<rect x="719.254" y="120.76" fill="#FFFFFF" width="5.985" height="26.791"/>
<rect x="705.325" y="117.304" fill="#FFFFFF" width="19.914" height="6.911"/>
<rect x="705.325" y="140.641" fill="#FFFFFF" width="19.914" height="6.911"/>
<rect x="710.168" y="130.128" fill="#FFFFFF" width="15.071" height="6.91"/>
<rect x="695.375" y="109.442" opacity="0.2" fill="#FFFFFF" width="39.813" height="45.972"/>
</svg>
