<?xml version="1.0" encoding="utf-8"?>
<!-- Generator: Adobe Illustrator 15.0.0, SVG Export Plug-In  -->
<!DOCTYPE svg PUBLIC "-//W3C//DTD SVG 1.1//EN" "http://www.w3.org/Graphics/SVG/1.1/DTD/svg11.dtd" [
	<!ENTITY ns_flows "http://ns.adobe.com/Flows/1.0/">
]>
<svg version="1.1"
	 xmlns="http://www.w3.org/2000/svg" xmlns:xlink="http://www.w3.org/1999/xlink" xmlns:a="http://ns.adobe.com/AdobeSVGViewerExtensions/3.0/"
	 x="0px" y="0px" width="200px" height="200px" viewBox="0 0 200 200" overflow="visible" enable-background="new 0 0 200 200"
	 xml:space="preserve">
<defs>
</defs>
<circle opacity="0.9" fill="#FC7094" cx="100" cy="100" r="100"/>
<rect x="40.506" y="51.417" fill="#FFB85D" width="119.215" height="103.984"/>
<rect x="77.188" y="149.997" fill="#FFFFFF" width="45.852" height="5.404"/>
<rect x="81.118" y="144.593" fill="#FFFFFF" width="37.992" height="5.405"/>
<rect x="85.375" y="139.188" fill="#FFFFFF" width="29.476" height="5.404"/>
<rect x="85.375" y="113.445" fill="#5ADAE0" width="29.476" height="25.743"/>
<rect x="85.375" y="113.445" fill="#54C6C6" width="14.738" height="25.743"/>
<path fill="#FFFFFF" d="M71.075,103.147c-3.376,0-6.114,2.737-6.114,6.113v27.939h12.227V109.26
	C77.188,105.884,74.451,103.147,71.075,103.147z"/>
<path fill="#5ADAE0" d="M53.17,103.147c-3.376,0-6.113,2.737-6.113,6.113v27.939h12.227V109.26
	C59.284,105.884,56.547,103.147,53.17,103.147z"/>
<path fill="#FFFFFF" d="M71.075,56.859c-3.376,0-6.114,2.737-6.114,6.113v27.939h12.227V62.972
	C77.188,59.596,74.451,56.859,71.075,56.859z"/>
<path fill="#5ADAE0" d="M53.17,56.859c-3.376,0-6.113,2.737-6.113,6.113v27.939h12.227V62.972
	C59.284,59.596,56.547,56.859,53.17,56.859z"/>
<path fill="#FFFFFF" d="M146.621,103.147c-3.377,0-6.114,2.737-6.114,6.113v27.939h12.227V109.26
	C152.734,105.884,149.997,103.147,146.621,103.147z"/>
<path fill="#5ADAE0" d="M128.717,103.147c-3.377,0-6.114,2.737-6.114,6.113v27.939h12.228V109.26
	C134.831,105.884,132.093,103.147,128.717,103.147z"/>
<path fill="#5ADAE0" d="M146.621,56.859c-3.377,0-6.114,2.737-6.114,6.113v27.939h12.227V62.972
	C152.734,59.596,149.997,56.859,146.621,56.859z"/>
<path fill="#FFFFFF" d="M128.717,56.859c-3.377,0-6.114,2.737-6.114,6.113v27.939h12.228V62.972
	C134.831,59.596,132.093,56.859,128.717,56.859z"/>
<path fill="#54C6C6" d="M85.215,109.109c0-8.197,6.646-14.843,14.844-14.843c8.197,0,14.843,6.646,14.843,14.843H85.215z"/>
<rect x="37.395" y="43.197" fill="#FFFFFF" width="125.328" height="8.135"/>
<circle fill="#5ADAE0" cx="100.113" cy="71.702" r="14.843"/>
</svg>
