<?xml version="1.0" encoding="utf-8"?>
<!-- Generator: Adobe Illustrator 15.0.0, SVG Export Plug-In  -->
<!DOCTYPE svg PUBLIC "-//W3C//DTD SVG 1.1//EN" "http://www.w3.org/Graphics/SVG/1.1/DTD/svg11.dtd" [
	<!ENTITY ns_flows "http://ns.adobe.com/Flows/1.0/">
]>
<svg version="1.1"
	 xmlns="http://www.w3.org/2000/svg" xmlns:xlink="http://www.w3.org/1999/xlink" xmlns:a="http://ns.adobe.com/AdobeSVGViewerExtensions/3.0/"
	 x="0px" y="0px" width="910px" height="200px" viewBox="0 0.115 910 200"
	 overflow="visible" enable-background="new 0 0.115 910 200" xml:space="preserve">
<defs>
</defs>
<rect x="72.457" y="164.637" fill="#C9661C" width="27.785" height="35.478"/>
<rect x="798.873" y="164.637" fill="#C9661C" width="27.785" height="35.478"/>
<rect y="24.536" opacity="0.1" fill="#231F20" width="899.115" height="154.839"/>
<rect y="9.798" fill="#C9661C" width="899.115" height="154.839"/>
<rect x="130.852" y="36.555" fill="#FFFFFF" width="83.36" height="108.059"/>
<rect x="816.969" y="27.536" transform="matrix(0.9811 -0.1936 0.1936 0.9811 0.4538 167.7737)" fill="#FFFFFF" width="83.36" height="108.058"/>
<rect x="113.167" y="53.432" transform="matrix(0.8226 0.5686 -0.5686 0.8226 73.7125 -48.8096)" fill="#FFB85D" width="3.851" height="80.632"/>
<rect x="105.415" y="48.075" transform="matrix(0.8227 0.5685 -0.5685 0.8227 69.2777 -45.3478)" fill="#FFB85D" width="3.851" height="80.632"/>
<rect x="108.43" y="50.753" transform="matrix(0.8227 0.5684 -0.5684 0.8227 71.479 -47.0744)" fill="#FFA245" width="5.573" height="80.632"/>
<rect x="78.315" y="123.194" transform="matrix(-0.8227 -0.5685 0.5685 -0.8227 81.4656 283.5668)" fill="#3A8DAA" width="13.275" height="11.77"/>
<rect x="86.904" y="125.873" transform="matrix(0.8226 0.5686 -0.5686 0.8226 90.6651 -27.1363)" fill="#57ADC4" width="3.851" height="11.77"/>
<rect x="79.15" y="120.516" transform="matrix(0.8227 0.5685 -0.5685 0.8227 86.2335 -23.6787)" fill="#57ADC4" width="3.851" height="11.77"/>
<g>
	<path fill="#FA8DB8" d="M83.302,143.145c-0.747,1.081-2.243,1.354-3.324,0.607l-6.991-4.83c-1.081-0.747-1.354-2.242-0.607-3.323
		l2.409-3.485c0.747-1.081,2.242-1.354,3.323-0.607l6.991,4.831c1.081,0.747,1.354,2.242,0.607,3.323L83.302,143.145z"/>
</g>
<rect x="73.689" y="133.522" transform="matrix(0.8227 0.5685 -0.5685 0.8227 91.4332 -21.5901)" fill="#FA8DB8" width="13.275" height="4.507"/>
<polygon fill="#FFC565" points="139.596,61.674 128.674,54.128 143.282,44.663 "/>
<polygon fill="#231F20" points="141.855,51.247 143.282,44.663 137.628,48.326 "/>
<polygon fill="#3A8DAA" points="796.2,53.808 823.416,38.484 799.364,63.276 793.846,57.922 "/>
<polygon fill="#6CCFE5" points="796.2,53.808 794.917,56.049 820.168,41.832 823.416,38.484 "/>
<circle fill="#FFFFFF" cx="796.605" cy="60.599" r="3.844"/>
<path fill="#FFFFFF" d="M782.098,70.03l-55.387,57.09c-1.478,1.524-1.442,3.958,0.082,5.436c1.524,1.478,3.958,1.441,5.437-0.082
	l55.387-57.09L782.098,70.03z"/>
<path fill="#E6E7E8" d="M726.793,132.556c1.524,1.478,3.958,1.441,5.437-0.082l55.387-57.09l-2.76-2.677L726.793,132.556z"/>
<rect x="771.916" y="80.978" transform="matrix(0.7178 0.6962 -0.6962 0.7178 276.067 -516.955)" fill="#57ADC4" width="7.689" height="2.214"/>
<rect x="772.458" y="79.639" transform="matrix(0.7178 0.6963 -0.6963 0.7178 274.7603 -516.3843)" fill="#6CCFE5" width="3.845" height="2.214"/>
<rect x="784.079" y="55.521" transform="matrix(-0.7178 -0.6963 0.6963 -0.7178 1304.3086 663.3215)" fill="#57ADC4" width="5.019" height="23.597"/>
<rect x="787.682" y="59.016" transform="matrix(-0.7177 -0.6964 0.6964 -0.7177 1307.9832 671.9014)" fill="#3A8DAA" width="5.018" height="23.596"/>
<rect x="635.67" y="36.3" transform="matrix(-0.9718 -0.236 0.236 -0.9718 1261.439 233.3185)" fill="#FF6183" width="18.026" height="9.729"/>
<rect x="635.831" y="34.959" transform="matrix(0.9718 0.236 -0.236 0.9718 27.449 -149.7112)" opacity="0.1" fill="#231F20" width="6.658" height="9.713"/>
<rect x="669.849" y="109.199" transform="matrix(0.236 -0.9718 0.9718 0.236 419.3354 761.4924)" fill="#FA8DB8" width="48.203" height="9.729"/>
<path fill="#FFC565" d="M712.773,96.797c-0.499,2.052-2.585,3.324-4.638,2.826l-67.179-16.315c-2.051-0.498-3.324-2.586-2.824-4.638
	l11.058-45.531c0.499-2.053,2.586-3.325,4.637-2.827l67.179,16.315c2.052,0.499,3.323,2.587,2.826,4.638L712.773,96.797z"/>
<path opacity="0.1" fill="#231F20" d="M705.685,56.108L670.654,77.45l9.345,15.339l28.136,6.833c2.053,0.498,4.14-0.773,4.638-2.826
	l5.045-20.772L705.685,56.108z"/>
<circle fill="#6CCFE5" cx="668.978" cy="63.097" r="4.639"/>
<circle fill="#FFA245" cx="688.909" cy="67.938" r="20.51"/>
<circle fill="#FFFFFF" cx="688.909" cy="67.938" r="15.79"/>
<rect x="644.009" y="25.716" transform="matrix(0.9718 0.236 -0.236 0.9718 31.4743 -152.2207)" fill="#FFAE53" width="15.362" height="59.336"/>
<rect x="654.016" y="23.903" transform="matrix(0.9718 0.2359 -0.2359 0.9718 24.5618 -154.772)" fill="#57ADC4" width="9.986" height="2.688"/>
<circle fill="#6CCFE5" cx="670.347" cy="42.031" r="3.648"/>
<circle fill="#6CCFE5" cx="697.595" cy="60.793" r="2.687"/>
<rect x="711.29" y="49.259" transform="matrix(-0.9718 -0.236 0.236 -0.9718 1397.5806 273.076)" fill="#6CCFE5" width="7.682" height="7.297"/>
<rect x="712.64" y="50.539" transform="matrix(-0.9718 -0.236 0.236 -0.9718 1397.587 273.0638)" fill="#57ADC4" width="4.985" height="4.736"/>
<rect x="690.657" y="37.928" transform="matrix(0.9718 0.2359 -0.2359 0.9718 28.8926 -163.0643)" fill="#FFA245" width="10.458" height="2.561"/>
<rect x="684.708" y="3.193" transform="matrix(0.9718 0.236 -0.236 0.9718 24.6989 -164.6969)" fill="#FF6183" width="31.284" height="35.27"/>
<rect x="687.329" y="3.507" transform="matrix(-0.9717 -0.236 0.236 -0.9717 1383.7128 185.7024)" fill="#FC7C9F" width="31.283" height="13.058"/>
<rect x="658.555" y="32.533" transform="matrix(0.9718 0.2359 -0.2359 0.9718 32.7258 -153.9374)" opacity="0.1" fill="#231F20" width="2.305" height="54.536"/>
<rect x="689.769" y="6.258" transform="matrix(0.9718 0.236 -0.236 0.9718 22.2388 -165.6089)" fill="#FFFFFF" width="26.372" height="7.681"/>
<rect x="685.145" y="16.304" transform="matrix(-0.9718 -0.236 0.236 -0.9718 1377.292 202.8877)" opacity="0.1" fill="#231F20" width="31.284" height="5.441"/>
<rect x="636.858" y="114.123" transform="matrix(0.2361 -0.9717 0.9717 0.2361 376.7301 717.1837)" fill="#FA8DB8" width="15.289" height="9.728"/>
<polygon fill="#FA8DB8" points="634.785,43.759 634.779,43.758 637.072,34.318 625.339,41.465 625.332,41.463 612.721,93.389 
	612.728,93.391 619.874,105.122 622.167,95.684 622.175,95.685 "/>
<polygon fill="#FF6183" points="643.89,100.959 643.89,100.959 622.167,95.684 619.871,105.138 641.595,110.414 641.598,110.398 
	651.037,112.69 "/>
<polygon fill="#FF6183" points="647.424,127.563 637.986,125.271 645.132,137.003 645.13,137.011 681.247,145.782 683.545,136.327 
	647.426,127.555 "/>
<polygon fill="#FF6183" points="683.545,136.336 681.251,145.774 692.982,138.628 "/>
<rect x="620.926" y="96.332" transform="matrix(0.9718 0.236 -0.236 0.9718 41.5156 -144.4703)" opacity="0.1" fill="#231F20" width="6.658" height="9.713"/>
<rect x="642.193" y="109.937" transform="matrix(0.236 -0.9717 0.9717 0.236 381.5975 714.9759)" opacity="0.1" fill="#231F20" width="6.657" height="9.713"/>
<rect x="262.169" y="52.855" transform="matrix(0.9362 -0.3514 0.3514 0.9362 -16.3198 121.3985)" fill="#FFC565" width="128.236" height="105.61"/>
<rect x="262.169" y="52.855" transform="matrix(0.9362 -0.3514 0.3514 0.9362 -16.3198 121.3985)" fill="#FFAE53" width="128.236" height="105.61"/>
<rect x="255.146" y="54.13" transform="matrix(0.9362 -0.3514 0.3514 0.9362 -10.1924 117.7346)" fill="#E59042" width="128.237" height="65.636"/>
<rect x="281.725" y="49.783" transform="matrix(0.3514 0.9362 -0.9362 0.3514 310.5477 -236.9485)" fill="#64E2E2" width="89.126" height="111.752"/>
<polygon fill="#F4A04D" points="404.872,132.565 394.261,127.745 362.941,44.303 367.761,33.691 "/>
<rect x="317.163" y="67.704" transform="matrix(0.9362 -0.3514 0.3514 0.9362 -9.2138 123.9248)" opacity="0.1" fill="#231F20" width="39.287" height="39.286"/>
<rect x="313.282" y="76.249" transform="matrix(0.9362 -0.3514 0.3514 0.9362 -12.4641 123.1093)" fill="#F4A04D" width="39.286" height="39.286"/>
<polygon fill="#F4A04D" points="247.702,78.754 258.316,83.574 289.636,167.015 284.815,177.628 "/>
<rect x="317.111" y="97.348" transform="matrix(-0.9362 0.3514 -0.3514 -0.9362 664.7505 96.3077)" opacity="0.1" fill="#231F20" width="13.051" height="22.254"/>
<rect x="281.872" y="124.24" transform="matrix(0.9362 -0.3514 0.3514 0.9362 -26.3179 127.3739)" fill="#FFCD85" width="111.753" height="23.902"/>
<rect x="291.892" y="107.605" transform="matrix(0.9362 -0.3514 0.3514 0.9362 -24.8474 117.5966)" fill="#E59042" width="39.287" height="39.287"/>
<rect x="291.892" y="107.605" transform="matrix(0.9362 -0.3514 0.3514 0.9362 -24.8474 117.5966)" fill="#D8823A" width="39.287" height="39.287"/>
<polyline opacity="0.1" fill="#231F20" points="336.794,138.646 331.905,125.619 344.932,120.73 "/>
<rect x="330.085" y="115.594" transform="matrix(-0.9362 0.3514 -0.3514 -0.9362 694.5864 112.9713)" opacity="0.1" fill="#231F20" width="13.915" height="7.83"/>
<rect x="153.906" y="44.627" fill="#FFAE53" width="51.284" height="7.022"/>
<rect x="142.929" y="60.75" fill="#FFAE53" width="62.261" height="7.022"/>
<rect x="142.929" y="76.873" fill="#FFAE53" width="62.261" height="7.022"/>
<rect x="142.929" y="92.996" fill="#FFAE53" width="62.261" height="7.022"/>
<rect x="142.929" y="109.12" fill="#FFAE53" width="62.261" height="7.022"/>
<rect x="142.929" y="125.243" fill="#FFAE53" width="62.261" height="7.022"/>
<polygon fill="#FF6183" points="66.172,42.742 66.172,42.743 66.172,42.742 66.172,42.742 57.062,37.23 49.751,39.028 
	44.239,48.137 35.13,42.624 35.13,42.624 35.13,42.624 27.82,44.422 22.307,53.531 16.794,62.641 18.592,69.951 18.594,69.951 
	18.592,69.951 20.391,77.262 22.188,84.573 31.297,90.085 31.297,90.084 31.3,90.084 31.297,90.085 40.407,95.598 49.516,101.111 
	55.027,92.002 64.136,97.515 64.136,97.515 64.136,97.515 69.649,88.406 69.649,88.406 69.649,88.405 69.649,88.406 75.163,79.297 
	75.158,79.298 75.161,79.296 75.163,79.297 80.675,70.188 78.876,62.877 77.079,55.566 75.28,48.256 "/>
<polyline fill="#FFFFFF" points="29.618,51.733 31.417,59.044 24.104,60.843 "/>
<polygon fill="#FA8DB8" points="29.618,51.733 31.417,59.044 24.104,60.843 25.902,68.153 33.214,66.354 38.728,57.246 
	36.929,49.935 "/>
<polygon fill="#4ABCB9" points="53.465,22.608 51.667,15.298 46.155,24.407 46.155,24.407 46.156,24.407 46.155,24.407 
	40.643,33.516 40.643,33.516 42.441,40.826 44.239,48.137 49.751,39.028 55.264,29.919 53.465,22.608 "/>
<path fill="#E6E7E8" d="M367.054,48.221l87.959,64.598c0.63,0.463,0.766,1.351,0.302,1.981c-0.441,0.603-1.276,0.751-1.9,0.359
	l-92.216-58.359c-2.425-1.534-3.147-4.745-1.612-7.17c1.534-2.426,4.744-3.147,7.17-1.612
	C366.855,48.08,366.962,48.153,367.054,48.221z"/>
<path fill="#FFFFFF" d="M359.691,49.484l95.65,65.274c0.428-0.627,0.29-1.485-0.328-1.939l-87.959-64.598
	c-0.092-0.068-0.198-0.141-0.296-0.203C364.383,46.516,361.261,47.18,359.691,49.484z"/>
<polygon fill="#3A8DAA" points="390.641,75.433 395.136,68.845 373.966,53.297 368.445,61.386 "/>
<polygon fill="#3A8DAA" points="390.641,75.433 395.136,68.845 373.966,53.297 368.445,61.386 "/>
<polygon fill="#57ADC4" points="392.889,72.139 395.136,68.845 373.966,53.297 371.206,57.342 "/>
<polygon fill="#57ADC4" points="393.423,67.587 391.9,66.468 387.248,73.286 388.844,74.296 "/>
<polygon fill="#6CCFE5" points="391.133,70.942 393.423,67.587 391.9,66.468 389.574,69.876 "/>
<polygon fill="#57ADC4" points="377.202,55.674 375.68,54.555 370.242,62.523 371.839,63.534 "/>
<polygon fill="#6CCFE5" points="374.52,59.604 377.202,55.674 375.68,54.555 372.961,58.539 "/>
<path fill="#58595B" d="M355.189,35.986c4.793,3.485,4.602,7.49,2.104,11.15c-2.498,3.66-7.489,4.602-11.148,2.104
	c-14.002-9.554-5.308-20.815,0.359-29.119C345.767,33.767,351.03,32.963,355.189,35.986z"/>
<polygon fill="#FF6183" points="504.081,37.465 526.035,31.083 527.751,44.303 "/>
<polygon fill="#FF6183" points="479.925,41.151 500.51,31.198 504.404,43.948 "/>
<polygon opacity="0.1" fill="#231F20" points="479.925,41.151 500.51,31.198 504.404,43.948 "/>
<rect x="499.585" y="19.563" transform="matrix(0.9971 0.0764 -0.0764 0.9971 7.1411 -41.0036)" fill="#E6E7E8" width="80.273" height="106.62"/>
<rect x="493.912" y="25.113" transform="matrix(0.9996 -0.0282 0.0282 0.9996 -1.996 15.065)" fill="#FFFFFF" width="80.274" height="106.619"/>
<rect x="488.252" y="33.713" transform="matrix(0.986 -0.1667 0.1667 0.986 -7.1133 89.3138)" fill="#FA81A9" width="80.273" height="106.62"/>
<circle fill="#FFFFFF" cx="526.391" cy="75.21" r="27.443"/>
<path fill="#FF6183" d="M517.617,83.19c-0.719-0.078-1.951,0.004-3.179,0.212l-3.313-4.533c-0.326-0.433-0.681-0.499-1.295-0.395
	l-0.271,3.731c-0.015,0.236-0.017,0.436,0.012,0.611c0.085,0.491,0.459,0.681,1.712,0.613c0.074,0.006,0.101,0.055,0.115,0.144
	c0.026,0.158-0.032,0.348-0.154,0.369c-1.159,0.196-1.757,0.189-2.704,0.349c-0.914,0.155-1.527,0.367-2.582,0.544
	c-0.035,0.006-0.091-0.002-0.115-0.143c-0.026-0.158,0.052-0.334,0.155-0.369c1.723-0.49,1.71-0.885,1.788-1.819l0.567-8.603
	c0.014-0.236,0.017-0.436-0.013-0.612c-0.083-0.491-0.458-0.681-1.714-0.631c-0.07,0.012-0.1-0.056-0.112-0.126
	c-0.027-0.158,0.028-0.366,0.15-0.386c1.16-0.196,1.458-0.139,2.354-0.29c0.931-0.157,1.211-0.313,2.371-0.509
	c2.51-0.424,3.981,0.158,4.332,2.23c0.315,1.862-1.581,3.681-3.299,4.314l2.69,3.519c0.672,0.88,1.585,1.141,2.583,1.279
	c0.073,0.006,0.119,0.07,0.135,0.157C517.868,83.075,517.763,83.201,517.617,83.19z M511.454,71.951
	c-1.089,0.185-1.249,0.518-1.328,1.652l-0.268,4.29l1.019-0.172c2.457-0.416,3.185-2.634,2.959-3.968
	C513.568,72.171,512.629,71.752,511.454,71.951z"/>
<path fill="#FF6183" d="M524.693,69.604c-1.703,0.504-1.711,0.885-1.767,1.833l-0.568,8.603c-0.014,0.237-0.034,0.439-0.005,0.615
	c0.083,0.492,0.458,0.681,1.711,0.614c0.073,0.006,0.099,0.055,0.115,0.143c0.026,0.158-0.032,0.348-0.137,0.366
	c-1.159,0.197-1.774,0.192-2.705,0.349c-0.931,0.157-1.545,0.37-2.581,0.545c-0.053,0.009-0.109,0-0.133-0.141
	c-0.026-0.158,0.052-0.333,0.154-0.368c1.723-0.491,1.729-0.889,1.787-1.82l0.569-8.603c0.015-0.237,0.017-0.436-0.014-0.612
	c-0.083-0.492-0.44-0.684-1.714-0.631c-0.053,0.009-0.1-0.055-0.112-0.125c-0.027-0.158,0.046-0.369,0.152-0.387
	c1.158-0.196,1.773-0.192,2.704-0.349c0.912-0.154,1.526-0.367,2.581-0.545c0.053-0.009,0.092,0.021,0.116,0.161
	C524.874,69.393,524.816,69.583,524.693,69.604z"/>
<path fill="#FF6183" d="M533.385,70.482c0.012,0.071-0.099,0.161-0.223,0.182c-0.14,0.023-0.233,0.004-0.27-0.099
	c-0.461-1.764-1.243-2.336-2.595-2.107c-1.282,0.217-1.672,1.113-1.476,2.272c0.457,2.704,4.396,2.923,4.921,6.031
	c0.362,2.142-1.189,3.867-3.559,4.268c-1.493,0.252-2.2-0.188-3.499,0.031c-0.089-0.96-0.204-2.169-0.329-3.015
	c-0.016-0.088,0.116-0.164,0.256-0.187c0.142-0.024,0.199,0.002,0.235,0.104c0.702,2.121,1.608,2.78,3.381,2.481
	c1.527-0.258,2.164-1.413,1.93-2.801c-0.436-2.581-4.536-3.008-4.997-5.729c-0.302-1.79,0.812-3.641,3.146-4.036
	c1.194-0.202,1.599,0.055,2.687-0.129C533.111,68.758,533.204,69.519,533.385,70.482z"/>
<path fill="#FF6183" d="M540.999,78.875c-0.772,0.13-2.171,0.295-2.997,0.435c-0.808,0.137-2.218,0.447-3.002,0.616
	c-0.069,0.012-0.094-0.02-0.115-0.144c-0.026-0.157,0.053-0.333,0.154-0.368c1.706-0.488,1.71-0.885,1.788-1.82l0.55-8.599
	c0.032-0.24,0.035-0.439,0.004-0.615c-0.083-0.491-0.458-0.681-1.713-0.631c-0.071,0.012-0.1-0.056-0.111-0.125
	c-0.042-0.246,0.01-0.363,0.151-0.387c0.764-0.075,1.885-0.282,2.71-0.422c0.808-0.137,2.081-0.406,2.871-0.54
	c3.09-0.523,5.86,0.689,6.406,3.92C548.307,73.811,545.495,78.115,540.999,78.875z M541.211,66.883l-0.924,0.193
	c-0.489,0.1-1.044,0.339-1.092,1.232l-0.613,9.297c-0.065,0.896,0.467,0.95,0.958,0.867l1.361-0.176
	c4.04-0.683,5.292-5.446,4.862-7.992C545.246,67.249,543.576,66.447,541.211,66.883z"/>
<circle fill="#D87727" cx="855.252" cy="64.354" r="17.542"/>
<circle fill="#FFFFFF" cx="781.964" cy="128.296" r="17.542"/>
</svg>
