<?xml version="1.0" encoding="utf-8"?>
<!-- Generator: Adobe Illustrator 15.0.0, SVG Export Plug-In  -->
<!DOCTYPE svg PUBLIC "-//W3C//DTD SVG 1.1//EN" "http://www.w3.org/Graphics/SVG/1.1/DTD/svg11.dtd" [
	<!ENTITY ns_flows "http://ns.adobe.com/Flows/1.0/">
]>
<svg version="1.1"
	 xmlns="http://www.w3.org/2000/svg" xmlns:xlink="http://www.w3.org/1999/xlink" xmlns:a="http://ns.adobe.com/AdobeSVGViewerExtensions/3.0/"
	 x="0px" y="0px" width="200px" height="200px" viewBox="0 0 200 200" overflow="visible" enable-background="new 0 0 200 200"
	 xml:space="preserve">
<defs>
</defs>
<circle opacity="0.2" fill="#FFB85D" cx="100" cy="100" r="100"/>
<path fill="#FFAE53" d="M94.721,147.706L99.105,21.08c0.031-0.908,0.794-1.619,1.701-1.587c0.868,0.03,1.556,0.733,1.588,1.587
	l4.385,126.626c0.116,3.33-2.49,6.123-5.82,6.239c-3.33,0.115-6.124-2.491-6.238-5.821
	C94.716,147.989,94.716,147.839,94.721,147.706z"/>
<path fill="#FFC565" d="M100.75,153.941V19.496c-0.883,0-1.614,0.695-1.645,1.584l-4.385,126.626c-0.005,0.133-0.005,0.283,0,0.417
	C94.833,151.384,97.514,153.942,100.75,153.941z"/>
<polygon fill="#3A8DAA" points="105.38,107.278 96.12,107.278 95.065,137.756 106.436,137.756 "/>
<polygon fill="#3A8DAA" points="105.38,107.278 96.12,107.278 95.065,137.756 106.436,137.756 "/>
<polygon fill="#57ADC4" points="100.75,107.278 96.12,107.278 95.065,137.756 100.75,137.756 "/>
<polygon fill="#57ADC4" points="96.035,109.745 95.959,111.938 105.541,111.938 105.465,109.745 "/>
<polygon fill="#6CCFE5" points="100.75,109.745 96.035,109.745 95.959,111.938 100.75,111.938 "/>
<polygon fill="#57ADC4" points="95.227,133.096 95.15,135.289 106.35,135.289 106.273,133.096 "/>
<polygon fill="#6CCFE5" points="100.75,133.096 95.227,133.096 95.15,135.289 100.75,135.289 "/>
<path fill="#3A8DAA" d="M90.752,167.091c0.205-6.878,4.171-9.315,9.314-9.315c5.146,0,9.315,4.17,9.315,9.315
	c0,19.68-16.488,18.712-28.16,18.712C94.791,177.581,90.575,173.058,90.752,167.091z"/>
<rect x="60.002" y="46.73" fill="#FFB85D" width="4.586" height="96.018"/>
<rect x="48.78" y="46.73" fill="#FFB85D" width="4.586" height="96.018"/>
<rect x="53.366" y="46.73" fill="#FFA245" width="6.636" height="96.018"/>
<rect x="48.78" y="142.747" fill="#3A8DAA" width="15.808" height="14.016"/>
<rect x="60.002" y="142.747" fill="#57ADC4" width="4.586" height="14.016"/>
<rect x="48.78" y="142.747" fill="#57ADC4" width="4.586" height="14.016"/>
<g>
	<path fill="#FA8DB8" d="M64.588,163.937c0,1.958-1.602,3.56-3.56,3.56H52.34c-1.958,0-3.56-1.602-3.56-3.56v-3.613
		c0-1.958,1.602-3.56,3.56-3.56h8.688c1.958,0,3.56,1.602,3.56,3.56V163.937z"/>
</g>
<rect x="48.78" y="156.763" fill="#FA8DB8" width="15.808" height="5.367"/>
<polygon fill="#FFC565" points="64.588,46.729 48.78,46.729 56.685,27.569 "/>
<polygon fill="#3A8DAA" points="59.744,34.985 56.685,27.569 53.625,34.985 "/>
<polygon fill="#3A8DAA" points="139.952,58.987 149.901,25.366 149.901,64.141 141.271,64.141 "/>
<polygon fill="#6CCFE5" points="139.952,58.987 140.671,61.795 149.901,30.601 149.901,25.366 "/>
<circle fill="#FFB85D" cx="145.586" cy="64.141" r="4.315"/>
<path fill="#FFB85D" d="M141.271,83.079v84.399c0,2.383,1.932,4.315,4.314,4.315s4.315-1.932,4.315-4.315V83.079H141.271z"/>
<path fill="#FFA245" d="M145.586,171.794c2.383,0,4.315-1.932,4.315-4.315V83.079h-4.315V171.794z"/>
<rect x="141.271" y="96.504" fill="#EF903A" width="8.63" height="2.486"/>
<rect x="141.271" y="96.504" fill="#FFA245" width="4.314" height="2.486"/>
<rect x="139.952" y="64.141" fill="#FFA245" width="5.634" height="26.49"/>
<rect x="145.586" y="64.141" fill="#EF903A" width="5.634" height="26.49"/>
</svg>
