<?xml version="1.0" encoding="utf-8"?>
<!-- Generator: Adobe Illustrator 15.0.0, SVG Export Plug-In  -->
<!DOCTYPE svg PUBLIC "-//W3C//DTD SVG 1.1//EN" "http://www.w3.org/Graphics/SVG/1.1/DTD/svg11.dtd" [
	<!ENTITY ns_flows "http://ns.adobe.com/Flows/1.0/">
]>
<svg version="1.1"
	 xmlns="http://www.w3.org/2000/svg" xmlns:xlink="http://www.w3.org/1999/xlink" xmlns:a="http://ns.adobe.com/AdobeSVGViewerExtensions/3.0/"
	 x="0px" y="0px" width="200px" height="200px" viewBox="0 0 200 200" overflow="visible" enable-background="new 0 0 200 200"
	 xml:space="preserve">
<defs>
</defs>
<circle fill="#FFFFFF" cx="100" cy="100" r="100"/>
<polyline fill="none" stroke="#FF6183" stroke-width="7" stroke-linejoin="round" stroke-miterlimit="10" points="54.441,75.887 
	81.757,48.571 109.074,75.887 "/>
<rect x="31.662" y="72.875" fill="#FFC565" width="100.191" height="82.513"/>
<rect x="31.662" y="72.875" fill="#FFAE53" width="100.191" height="82.513"/>
<rect x="31.662" y="72.875" fill="#E59042" width="100.191" height="51.282"/>
<rect x="38.102" y="79.314" fill="#64E2E2" width="87.312" height="69.635"/>
<polygon fill="#F4A04D" points="131.854,155.388 125.414,148.949 125.414,79.314 131.854,72.875 "/>
<rect x="79.132" y="88.277" opacity="0.1" fill="#231F20" width="30.695" height="30.694"/>
<rect x="73.947" y="93.462" fill="#F4A04D" width="30.695" height="30.695"/>
<polygon fill="#F4A04D" points="31.662,72.875 38.102,79.314 38.102,148.949 31.662,155.388 "/>
<rect x="73.947" y="106.77" opacity="0.1" fill="#231F20" width="10.196" height="17.387"/>
<circle fill="#FFAE53" cx="81.758" cy="49.674" r="4.615"/>
<rect x="38.102" y="130.274" fill="#FFCD85" width="87.312" height="18.675"/>
<rect x="49.692" y="110.526" fill="#E59042" width="30.695" height="30.694"/>
<rect x="49.692" y="110.526" fill="#D8823A" width="30.695" height="30.694"/>
<polygon fill="#FF6183" stroke="#FA8DB8" stroke-width="7" stroke-miterlimit="10" points="162.323,64.123 168.338,49.603 
	153.817,43.587 147.802,29.067 133.282,35.082 118.761,29.067 112.747,43.587 98.226,49.603 104.241,64.123 98.226,78.643 
	112.746,84.658 118.761,99.178 133.281,93.164 147.802,99.179 153.816,84.658 168.337,78.643 "/>
<path fill="#FFFFFF" d="M113.031,64.558l2.891-1.198l3.957,5.436c0.303,0.427,0.777,1.208,1.239,2.021
	c-0.289-1.06-0.637-2.144-0.904-3.213l-1.293-5.486l2.441-1.011l3.517,15.277l-2.27,0.94l-4.882-6.759
	c-0.481-0.679-0.974-1.504-1.325-2.11c0.301,1.029,0.786,2.384,0.982,3.281l1.606,7.087l-2.42,1.002L113.031,64.558z"/>
<path fill="#FFFFFF" d="M130.999,57.115l0.625,2.601l-4.561,1.889l0.848,3.562l3.726-1.543l0.547,2.533l-3.704,1.534l0.908,3.889
	l4.689-1.943l0.588,2.692l-7.516,3.113l-3.539-15.268L130.999,57.115z"/>
<path fill="#FFFFFF" d="M131.728,56.813l2.934-1.215l2.605,6.472c0.408,0.985,0.628,1.697,1.042,2.755
	c-0.16-1.113-0.286-1.839-0.351-2.665l-0.576-7.689l2.656-1.1l2.798,6.392c0.403,0.912,0.754,1.82,1.126,2.72
	c-0.294-1.86-0.367-2.281-0.469-3.193l-0.693-7.064l2.634-1.091l1.055,16.297l-2.484,1.029l-3.392-7.401
	c-0.234-0.505-0.683-1.649-0.893-2.214c0.142,0.945,0.248,1.629,0.292,2.338l0.566,8.697l-2.419,1.002L131.728,56.813z"/>
<path fill="#FFFFFF" d="M150.703,48.954l1.661,10.978l-1.605,0.665l-3.29-10.303L150.703,48.954z M153.199,60.915l0.765,3.421
	l-2.699,1.118l-0.764-3.422L153.199,60.915z"/>
<polyline opacity="0.1" fill="#231F20" points="80.387,141.145 80.387,130.274 91.258,130.274 "/>
<rect x="80.387" y="124.157" opacity="0.1" fill="#231F20" width="10.871" height="6.117"/>
</svg>
