<?xml version="1.0" encoding="utf-8"?>
<!-- Generator: Adobe Illustrator 15.0.0, SVG Export Plug-In  -->
<!DOCTYPE svg PUBLIC "-//W3C//DTD SVG 1.1//EN" "http://www.w3.org/Graphics/SVG/1.1/DTD/svg11.dtd" [
	<!ENTITY ns_flows "http://ns.adobe.com/Flows/1.0/">
]>
<svg version="1.1"
	 xmlns="http://www.w3.org/2000/svg" xmlns:xlink="http://www.w3.org/1999/xlink" xmlns:a="http://ns.adobe.com/AdobeSVGViewerExtensions/3.0/"
	 x="0px" y="0px" width="200px" height="200px" viewBox="0 0 200 200" overflow="visible" enable-background="new 0 0 200 200"
	 xml:space="preserve">
<defs>
</defs>
<circle fill="#FFFFFF" cx="100" cy="100" r="100"/>
<polygon fill="#FF6183" points="138.423,77.475 138.423,77.476 138.423,77.475 138.423,77.475 125.127,64.18 111.832,64.18 
	98.537,77.475 85.241,64.18 85.241,64.18 85.241,64.18 71.945,64.18 58.65,77.475 45.354,90.771 45.354,104.066 45.356,104.066 
	45.354,104.066 45.354,117.363 45.354,130.658 58.65,143.952 58.65,143.951 58.653,143.951 58.65,143.952 71.945,157.249 
	85.241,170.544 98.536,157.249 111.832,170.544 111.832,170.543 111.832,170.544 125.127,157.249 125.127,157.249 125.127,157.248 
	125.127,157.249 138.423,143.952 138.415,143.952 138.421,143.951 138.423,143.952 151.719,130.658 151.719,117.363 
	151.719,104.066 151.719,90.771 "/>
<rect x="107.568" y="90.772" fill="#FFFFFF" width="9.745" height="48.723"/>
<rect x="107.568" y="90.771" fill="#FFFFFF" width="27.61" height="9.744"/>
<rect x="108.665" y="110.261" fill="#FFFFFF" width="22.25" height="9.744"/>
<polyline fill="#FFFFFF" points="71.945,77.475 71.945,90.771 58.65,90.771 "/>
<polygon fill="#FA8DB8" points="71.945,77.475 71.945,90.771 58.65,90.771 58.65,104.066 71.945,104.066 85.241,90.771 
	85.241,77.475 "/>
<polygon fill="#4ABCB9" points="125.127,37.589 125.127,24.294 111.832,37.589 111.832,37.589 111.832,37.59 111.832,37.589 
	98.536,50.885 98.537,50.885 98.537,64.18 98.537,77.475 111.832,64.18 125.127,50.885 125.127,37.589 "/>
</svg>
