<?xml version="1.0" encoding="utf-8"?>
<!-- Generator: Adobe Illustrator 15.0.0, SVG Export Plug-In  -->
<!DOCTYPE svg PUBLIC "-//W3C//DTD SVG 1.1//EN" "http://www.w3.org/Graphics/SVG/1.1/DTD/svg11.dtd" [
	<!ENTITY ns_flows "http://ns.adobe.com/Flows/1.0/">
]>
<svg version="1.1"
	 xmlns="http://www.w3.org/2000/svg" xmlns:xlink="http://www.w3.org/1999/xlink" xmlns:a="http://ns.adobe.com/AdobeSVGViewerExtensions/3.0/"
	 x="0px" y="0px" width="200px" height="200px" viewBox="0 0 200 200" overflow="visible" enable-background="new 0 0 200 200"
	 xml:space="preserve">
<defs>
</defs>
<circle fill="#FFFFFF" cx="100" cy="100" r="100"/>
<rect x="37.474" y="59.029" fill="#FFA245" width="129.079" height="101.884"/>
<rect x="37.474" y="59.029" opacity="0.1" fill="#231F20" width="129.079" height="101.884"/>
<rect x="33.448" y="54.186" fill="#FFA245" width="129.079" height="101.884"/>
<rect x="37.474" y="67.887" opacity="0.6" fill="#FFFFFF" width="14.749" height="14.749"/>
<rect x="55.187" y="67.887" opacity="0.6" fill="#FFFFFF" width="14.749" height="14.749"/>
<rect x="72.899" y="67.887" opacity="0.6" fill="#FFFFFF" width="14.749" height="14.749"/>
<rect x="90.612" y="67.887" fill="#FFFFFF" width="14.749" height="14.749"/>
<rect x="108.326" y="67.887" fill="#FFFFFF" width="14.749" height="14.749"/>
<rect x="126.039" y="67.887" fill="#FFFFFF" width="14.749" height="14.749"/>
<rect x="143.752" y="67.887" fill="#FFFFFF" width="14.749" height="14.749"/>
<rect x="37.474" y="85.242" fill="#FFFFFF" width="14.749" height="14.75"/>
<rect x="55.187" y="85.242" fill="#FFFFFF" width="14.749" height="14.75"/>
<rect x="72.899" y="85.242" fill="#FFFFFF" width="14.749" height="14.75"/>
<rect x="90.612" y="85.242" fill="#FFFFFF" width="14.749" height="14.75"/>
<rect x="108.326" y="85.242" fill="#FFFFFF" width="14.749" height="14.75"/>
<rect x="126.039" y="85.242" fill="#FFFFFF" width="14.749" height="14.75"/>
<rect x="143.752" y="85.242" fill="#FFFFFF" width="14.749" height="14.75"/>
<rect x="37.474" y="102.597" fill="#FFFFFF" width="14.749" height="14.749"/>
<rect x="55.187" y="102.597" fill="#FFFFFF" width="14.749" height="14.749"/>
<rect x="72.899" y="102.597" fill="#FFFFFF" width="14.749" height="14.749"/>
<rect x="90.612" y="102.597" fill="#FFFFFF" width="14.749" height="14.749"/>
<rect x="108.326" y="102.597" fill="#FFFFFF" width="14.749" height="14.749"/>
<rect x="126.039" y="102.597" fill="#FFFFFF" width="14.749" height="14.749"/>
<rect x="143.752" y="102.597" fill="#FFFFFF" width="14.749" height="14.749"/>
<rect x="37.474" y="119.953" fill="#FFFFFF" width="14.749" height="14.749"/>
<rect x="55.187" y="119.953" fill="#FFFFFF" width="14.749" height="14.749"/>
<rect x="72.899" y="119.953" fill="#FFFFFF" width="14.749" height="14.749"/>
<rect x="90.612" y="119.953" fill="#FFFFFF" width="14.749" height="14.749"/>
<rect x="108.326" y="119.953" fill="#FFFFFF" width="14.749" height="14.749"/>
<rect x="126.039" y="119.953" fill="#FFFFFF" width="14.749" height="14.749"/>
<rect x="143.752" y="119.953" fill="#FFFFFF" width="14.749" height="14.749"/>
<rect x="37.474" y="137.308" fill="#FFFFFF" width="14.749" height="14.749"/>
<rect x="55.187" y="137.308" fill="#FFFFFF" width="14.749" height="14.749"/>
<rect x="72.899" y="137.308" fill="#FFFFFF" width="14.749" height="14.749"/>
<rect x="90.612" y="137.308" fill="#FFFFFF" width="14.749" height="14.749"/>
<rect x="108.326" y="137.308" fill="#FFFFFF" width="14.749" height="14.749"/>
<rect x="126.039" y="137.308" opacity="0.6" fill="#FFFFFF" width="14.749" height="14.749"/>
<rect x="143.752" y="137.308" opacity="0.6" fill="#FFFFFF" width="14.749" height="14.749"/>
<circle fill="none" stroke="#4ABCB9" stroke-width="5" stroke-miterlimit="10" cx="80.274" cy="92.616" r="15.28"/>
<line fill="none" stroke="#4ABCB9" stroke-width="5" stroke-linecap="round" stroke-miterlimit="10" x1="120.753" y1="114.667" x2="146.074" y2="139.987"/>
<line fill="none" stroke="#4ABCB9" stroke-width="5" stroke-linecap="round" stroke-miterlimit="10" x1="120.753" y1="139.987" x2="146.074" y2="114.667"/>
<line fill="none" stroke="#FF6183" stroke-width="5" stroke-linecap="round" stroke-miterlimit="10" x1="151.126" y1="49.144" x2="151.126" y2="59.227"/>
<line fill="none" stroke="#FF6183" stroke-width="5" stroke-linecap="round" stroke-miterlimit="10" x1="133.413" y1="49.144" x2="133.413" y2="59.227"/>
<line fill="none" stroke="#FF6183" stroke-width="5" stroke-linecap="round" stroke-miterlimit="10" x1="115.7" y1="49.144" x2="115.7" y2="59.227"/>
<line fill="none" stroke="#FF6183" stroke-width="5" stroke-linecap="round" stroke-miterlimit="10" x1="97.987" y1="49.144" x2="97.987" y2="59.227"/>
<line fill="none" stroke="#FF6183" stroke-width="5" stroke-linecap="round" stroke-miterlimit="10" x1="80.274" y1="49.144" x2="80.274" y2="59.227"/>
<line fill="none" stroke="#FF6183" stroke-width="5" stroke-linecap="round" stroke-miterlimit="10" x1="62.561" y1="49.144" x2="62.561" y2="59.227"/>
<line fill="none" stroke="#FF6183" stroke-width="5" stroke-linecap="round" stroke-miterlimit="10" x1="44.848" y1="49.144" x2="44.848" y2="59.227"/>
</svg>
