<?xml version="1.0" encoding="utf-8"?>
<!-- Generator: Adobe Illustrator 17.1.0, SVG Export Plug-In . SVG Version: 6.00 Build 0)  -->
<!DOCTYPE svg PUBLIC "-//W3C//DTD SVG 1.1//EN" "http://www.w3.org/Graphics/SVG/1.1/DTD/svg11.dtd">
<svg version="1.1" id="Layer_1" xmlns="http://www.w3.org/2000/svg" xmlns:xlink="http://www.w3.org/1999/xlink" x="0px" y="0px"
	 viewBox="0 0 288 430.3" enable-background="new 0 0 288 430.3" xml:space="preserve">
<text transform="matrix(1 0 0 1 -477.5492 -215.8246)"><tspan x="0" y="0" font-family="'GTPressuraTrial-Bold'" font-size="98.2853">RISD</tspan><tspan x="0" y="117.9" font-family="'GTPressuraTrial-Bold'" font-size="98.2853">OR</tspan><tspan x="112.2" y="117.9" font-family="'GTPressuraTrial-Light'" font-size="98.2853">ientation 2015</tspan><tspan x="0" y="235.9" font-family="'GTPressuraTrial-Bold'" font-size="98.2853">BUST</tspan></text>
<g>
	<path fill="none" stroke="#FFFFFF" stroke-width="0.2" d="M8.6,24.7v-7.6h6.3v7.6l1.1,1.1h2v-1.1l-1-0.5V12.7
		c0-1.7-0.7-3.4-1.9-4.6c-0.6-0.7-1.6-1.5-3.4-1.8C10,6.6,9,7.4,8.3,8.1C7.1,9.3,6.4,11,6.4,12.7v11.4l-1,0.5v1.1h2L8.6,24.7z
		 M11.8,8.5c1.8,0.5,3.2,2.2,3.2,4.2v2.2H8.6v-2.2C8.6,10.7,10,9,11.8,8.5z"/>
	<polygon fill="none" stroke="#FFFFFF" stroke-width="0.2" points="34.4,2.6 34.7,1.1 34.1,0.2 33.2,0.8 29.7,4.6 30.3,5.5 	"/>
	<path fill="none" stroke="#FFFFFF" stroke-width="0.2" d="M28.9,24.7v-7.6h6.3v7.6l1.1,1.1h2v-1.1l-1-0.5V12.7
		c0-1.7-0.7-3.4-1.9-4.6c-0.6-0.7-1.6-1.5-3.4-1.8c-1.8,0.3-2.8,1.2-3.4,1.8c-1.2,1.2-1.9,2.9-1.9,4.6v11.4l-1,0.5v1.1h2L28.9,24.7z
		 M32.1,8.5c1.8,0.5,3.2,2.2,3.2,4.2v2.2h-6.3v-2.2C28.9,10.7,30.2,9,32.1,8.5z"/>
	<path fill="none" stroke="#FFFFFF" stroke-width="0.2" d="M52.3,5.1c1.6,0,2.9-1.4,2.9-3h-2.2c0,0.5-0.3,0.8-0.7,0.8
		c-0.4,0-0.7-0.4-0.7-0.8h-2.2C49.4,3.8,50.7,5.1,52.3,5.1z"/>
	<path fill="none" stroke="#FFFFFF" stroke-width="0.2" d="M49.2,24.7v-7.6h6.3v7.6l1.1,1.1h2v-1.1l-1-0.5V12.7
		c0-1.7-0.7-3.4-1.9-4.6c-0.7-0.7-1.6-1.5-3.4-1.8c-1.8,0.3-2.8,1.2-3.4,1.8C47.7,9.3,47,11,47,12.7v11.4l-1,0.5v1.1h2L49.2,24.7z
		 M52.4,8.5c1.8,0.5,3.2,2.2,3.2,4.2v2.2h-6.3v-2.2C49.2,10.7,50.5,9,52.4,8.5z"/>
	<polygon fill="none" stroke="#FFFFFF" stroke-width="0.2" points="72.6,2.6 76.4,5.2 77,4.4 73.5,0.6 72.6,0.6 71.8,0.6 68.2,4.4 
		68.8,5.2 	"/>
	<path fill="none" stroke="#FFFFFF" stroke-width="0.2" d="M69.5,24.7v-7.6h6.3v7.6l1.1,1.1h2v-1.1l-1-0.5V12.7
		c0-1.7-0.7-3.4-1.9-4.6c-0.7-0.7-1.6-1.5-3.4-1.8c-1.8,0.3-2.8,1.2-3.4,1.8c-1.2,1.2-1.9,2.9-1.9,4.6v11.4l-1,0.5v1.1h2L69.5,24.7z
		 M72.6,8.5c1.8,0.5,3.2,2.2,3.2,4.2v2.2h-6.3v-2.2C69.5,10.7,70.8,9,72.6,8.5z"/>
	<polygon fill="none" stroke="#FFFFFF" stroke-width="0.2" points="97.4,2.9 96.3,1.9 94.3,1.9 94.3,4.8 97.4,4.8 	"/>
	<polygon fill="none" stroke="#FFFFFF" stroke-width="0.2" points="91.5,2.9 90.4,1.9 88.4,1.9 88.4,4.8 91.5,4.8 	"/>
	<path fill="none" stroke="#FFFFFF" stroke-width="0.2" d="M89.7,24.7v-7.6h6.3v7.6l1.1,1.1h2v-1.1l-1-0.5V12.7
		c0-1.7-0.7-3.4-1.9-4.6c-0.6-0.7-1.6-1.5-3.4-1.8c-1.8,0.3-2.8,1.2-3.4,1.8c-1.2,1.2-1.9,2.9-1.9,4.6v11.4l-1,0.5v1.1h2L89.7,24.7z
		 M92.9,8.5c1.8,0.5,3.2,2.2,3.2,4.2v2.2h-6.3v-2.2C89.7,10.7,91.1,9,92.9,8.5z"/>
	<path fill="none" stroke="#FFFFFF" stroke-width="0.2" d="M110,24.7v-7.6h6.3v7.6l1.1,1.1h2v-1.1l-1-0.5V12.7
		c0-1.7-0.7-3.4-1.9-4.6c-0.6-0.7-1.6-1.5-3.4-1.8c-1.8,0.3-2.8,1.2-3.4,1.8c-1.2,1.2-1.9,2.9-1.9,4.6v11.4l-1,0.5v1.1h2L110,24.7z
		 M113.2,8.5c1.8,0.5,3.2,2.2,3.2,4.2v2.2H110v-2.2C110,10.7,111.4,9,113.2,8.5z"/>
	<polygon fill="none" stroke="#FFFFFF" stroke-width="0.2" points="115,5.5 115.6,4.6 112.1,0.8 111.2,0.2 110.6,1.1 110.9,2.6 	"/>
	<path fill="none" stroke="#FFFFFF" stroke-width="0.2" d="M130.3,24.7v-7.6h6.3v7.6l1.1,1.1h2v-1.1l-1-0.5V12.7
		c0-1.7-0.7-3.4-1.9-4.6c-0.6-0.7-1.6-1.5-3.4-1.8c-1.8,0.3-2.8,1.2-3.4,1.8c-1.2,1.2-1.9,2.9-1.9,4.6v11.4l-1,0.5v1.1h2L130.3,24.7
		z M133.5,8.5c1.8,0.5,3.2,2.2,3.2,4.2v2.2h-6.3v-2.2C130.3,10.7,131.6,9,133.5,8.5z"/>
	<polygon fill="none" stroke="#FFFFFF" stroke-width="0.2" points="132.3,2.8 134.2,4.9 135,4.9 135.9,4.9 138.3,2.1 137.7,1.3 
		135,2.9 132.3,1.3 129.2,3.1 129.2,4.9 130.4,4.9 	"/>
	<path fill="none" stroke="#FFFFFF" stroke-width="0.2" d="M150.5,23.7l1.6,2.1h1.4c1.7,0,3.4-0.6,4.6-1.7c0.6-0.6,1.1-1.2,1.4-1.9
		c0.4-0.8,0.5-1.5,0.5-2.4s-0.2-1.6-0.5-2.4c-0.3-0.7-0.8-1.4-1.4-1.9c-0.2-0.2-0.5-0.4-0.8-0.6l0.4-0.3c0.6-0.4,1-0.9,1.4-1.5
		c0.4-0.6,0.5-1.3,0.5-2s-0.2-1.4-0.5-2c-0.3-0.6-0.8-1.1-1.4-1.5c-1.1-0.8-2.5-1.3-4-1.3h-0.2h-1.3h-4.8v1.1l1,0.5v16.3l-1,0.5v1.1
		h3.1V23.7z M150.5,8.4h2.2h0.8c1.1,0,2.2,0.3,2.9,0.9c0.7,0.5,1,1.1,1,1.8c0,0.7-0.4,1.3-1,1.8c-0.7,0.5-1.7,0.9-2.8,0.9h-0.2h-3
		V8.4z M150.5,15.9h3h0.2c2.3,0.1,4.2,1.8,4.2,3.8c0,2.1-2,3.8-4.3,3.8h-0.6l-2.4-1.5V15.9z"/>
	<path fill="none" stroke="#FFFFFF" stroke-width="0.2" d="M171.5,24.9c0.8,0.6,1.8,0.9,2.7,0.9h2.1l4.1-3.5v-2.3l-4.9,3.7h-1.2
		c-1.1,0-2.1-0.7-2.9-2.1c-0.9-1.5-1.4-3.4-1.4-5.6c0-2.1,0.5-4.1,1.4-5.6c0.8-1.3,1.8-2,2.9-2h1.2l4.9,3.7V9.7l-4.1-3.5h-2.1
		c-0.9,0-1.9,0.3-2.7,0.9c-0.8,0.5-1.5,1.3-2.1,2.2c-1.1,1.8-1.7,4.2-1.7,6.7s0.6,4.9,1.7,6.7C170,23.6,170.7,24.3,171.5,24.9z"/>
	<path fill="none" stroke="#FFFFFF" stroke-width="0.2" d="M192.7,25.7h1.4c1,0,1.9-0.3,2.7-0.9c0.8-0.5,1.5-1.3,2-2.2
		c1.1-1.8,1.7-4.2,1.7-6.7c0-2.5-0.6-4.9-1.7-6.7c-0.6-0.9-1.2-1.7-2-2.2c-0.9-0.6-1.8-0.9-2.7-0.9h-1.3l-2.8,0h-2v1.1l1,0.5v16.3
		l-1,0.5v1.1h3.1H192.7z M191.1,8.4h2.2h0.8c1,0,2.1,0.7,2.9,2c0.9,1.5,1.4,3.5,1.4,5.6c0,2.1-0.5,4.1-1.4,5.6
		c-0.8,1.3-1.8,2.1-2.9,2.1h-0.6h-2.4V8.4z"/>
	<polygon fill="none" stroke="#FFFFFF" stroke-width="0.2" points="220.9,24.7 219.8,23.6 211.4,23.9 211.4,15.9 217.2,15.9 
		218.3,14.8 218.3,13.8 211.4,13.8 211.4,8.1 219.8,8.4 220.9,7.3 220.9,6.2 208.2,6.2 208.2,7.3 209.2,7.8 209.2,24.2 208.2,24.7 
		208.2,25.7 220.9,25.7 	"/>
	<polygon fill="none" stroke="#FFFFFF" stroke-width="0.2" points="237.2,2.6 237.5,1.1 236.8,0.2 236,0.8 232.5,4.6 233.1,5.5 	"/>
	<polygon fill="none" stroke="#FFFFFF" stroke-width="0.2" points="241.2,24.7 240.1,23.6 231.6,23.9 231.6,15.9 237.5,15.9 
		238.6,14.8 238.6,13.8 231.6,13.8 231.6,8.1 240.1,8.4 241.2,7.3 241.2,6.2 228.5,6.2 228.5,7.3 229.5,7.8 229.5,24.2 228.5,24.7 
		228.5,25.7 241.2,25.7 	"/>
	<polygon fill="none" stroke="#FFFFFF" stroke-width="0.2" points="261.4,24.7 260.4,23.6 251.9,23.9 251.9,15.9 257.8,15.9 
		258.9,14.8 258.9,13.8 251.9,13.8 251.9,8.1 260.4,8.4 261.4,7.3 261.4,6.2 248.8,6.2 248.8,7.3 249.8,7.8 249.8,24.2 248.8,24.7 
		248.8,25.7 261.4,25.7 	"/>
	<polygon fill="none" stroke="#FFFFFF" stroke-width="0.2" points="255.1,2.6 258.9,5.2 259.5,4.4 256,0.6 255.1,0.6 254.3,0.6 
		250.7,4.4 251.4,5.2 	"/>
	<polygon fill="none" stroke="#FFFFFF" stroke-width="0.2" points="281.7,24.7 280.7,23.6 272.2,23.9 272.2,15.9 278.1,15.9 
		279.1,14.8 279.1,13.8 272.2,13.8 272.2,8.1 280.7,8.4 281.7,7.3 281.7,6.2 269.1,6.2 269.1,7.3 270,7.8 270,24.2 269.1,24.7 
		269.1,25.7 281.7,25.7 	"/>
	<polygon fill="none" stroke="#FFFFFF" stroke-width="0.2" points="274,2.7 272.9,1.6 270.9,1.6 270.9,4.6 274,4.6 	"/>
	<polygon fill="none" stroke="#FFFFFF" stroke-width="0.2" points="280,2.7 278.8,1.6 276.8,1.6 276.8,4.6 280,4.6 	"/>
	<polygon fill="none" stroke="#FFFFFF" stroke-width="0.2" points="9.2,30.1 9.5,31.6 13.6,34.5 14.2,33.6 10.7,29.8 9.8,29.2 	"/>
	<polygon fill="none" stroke="#FFFFFF" stroke-width="0.2" points="18.1,53.7 17,52.6 8.6,52.9 8.6,44.9 14.4,44.9 15.5,43.8 
		15.5,42.8 8.6,42.8 8.6,37.1 17,37.4 18.1,36.3 18.1,35.2 5.5,35.2 5.5,36.3 6.4,36.8 6.4,53.2 5.5,53.7 5.5,54.7 18.1,54.7 	"/>
	<polygon fill="none" stroke="#FFFFFF" stroke-width="0.2" points="28.9,44.9 36.9,44.9 38,43.8 38,42.8 28.9,42.8 28.9,37.1 
		37.3,37.4 38.4,36.3 38.4,35.2 25.7,35.2 25.7,36.3 26.7,36.8 26.7,53.2 25.7,53.7 25.7,54.7 28.9,54.7 	"/>
	<path fill="none" stroke="#FFFFFF" stroke-width="0.2" d="M49.8,53.9c0.8,0.6,1.8,0.9,2.7,0.9h2.1l4.1-3.5v-5.8l-1.1-1.1h-6.6v1
		l1.1,1.1l4.4-0.4v4.2l-2.7,2.4h-1.2c-1.1,0-2.1-0.7-2.9-2.1c-0.9-1.5-1.4-3.4-1.4-5.6c0-2.1,0.5-4.1,1.4-5.6c0.8-1.3,1.8-2,2.9-2
		h1.2l3.4,2.9l1.5-1.6l-4.1-3.5h-2.1c-0.9,0-1.9,0.3-2.7,0.9c-0.8,0.5-1.5,1.3-2.1,2.2C46.6,40.1,46,42.5,46,45s0.6,4.9,1.7,6.7
		C48.4,52.6,49,53.3,49.8,53.9z"/>
	<polygon fill="none" stroke="#FFFFFF" stroke-width="0.2" points="69.4,53.7 69.4,44.9 75.8,44.9 75.8,53.7 76.9,54.7 78.9,54.7 
		78.9,53.7 78,53.2 78,36.8 78.9,36.3 78.9,35.2 76.9,35.2 75.8,36.3 75.8,42.8 69.4,42.8 69.4,36.3 68.3,35.2 66.3,35.2 66.3,36.3 
		67.3,36.8 67.3,53.2 66.3,53.7 66.3,54.7 68.3,54.7 	"/>
	<polygon fill="none" stroke="#FFFFFF" stroke-width="0.2" points="99.2,53.7 98.1,52.6 94.1,52.6 94.1,37.4 98.1,37.4 99.2,36.3 
		99.2,35.2 86.6,35.2 86.6,36.3 88.6,37.4 92,37.4 92,52.6 88.6,52.6 86.6,53.7 86.6,54.7 99.2,54.7 	"/>
	<polygon fill="none" stroke="#FFFFFF" stroke-width="0.2" points="119.5,53.7 118.4,52.6 114.4,52.6 114.4,37.4 118.4,37.4 
		119.5,36.3 119.5,35.2 106.9,35.2 106.9,36.3 108.9,37.4 112.3,37.4 112.3,52.6 108.9,52.6 106.9,53.7 106.9,54.7 119.5,54.7 	"/>
	<polygon fill="none" stroke="#FFFFFF" stroke-width="0.2" points="110.8,33.6 111.4,34.5 115.5,31.6 115.8,30.1 115.2,29.2 
		114.3,29.8 	"/>
	<polygon fill="none" stroke="#FFFFFF" stroke-width="0.2" points="139.8,53.7 138.7,52.6 134.7,52.6 134.7,37.4 138.7,37.4 
		139.8,36.3 139.8,35.2 127.1,35.2 127.1,36.3 129.2,37.4 132.5,37.4 132.5,52.6 129.2,52.6 127.1,53.7 127.1,54.7 139.8,54.7 	"/>
	<polygon fill="none" stroke="#FFFFFF" stroke-width="0.2" points="133.7,29.3 132.9,29.3 129.3,33.1 129.9,34 133.7,31.3 137.5,34 
		138.1,33.1 134.6,29.3 	"/>
	<polygon fill="none" stroke="#FFFFFF" stroke-width="0.2" points="160,53.7 159,52.6 155,52.6 155,37.4 159,37.4 160,36.3 
		160,35.2 147.4,35.2 147.4,36.3 149.4,37.4 152.8,37.4 152.8,52.6 149.4,52.6 147.4,53.7 147.4,54.7 160,54.7 	"/>
	<polygon fill="none" stroke="#FFFFFF" stroke-width="0.2" points="155.2,30.3 155.2,33.3 158.3,33.3 158.3,31.4 157.2,30.3 	"/>
	<polygon fill="none" stroke="#FFFFFF" stroke-width="0.2" points="149.2,30.3 149.2,33.3 152.4,33.3 152.4,31.4 151.2,30.3 	"/>
	<polygon fill="none" stroke="#FFFFFF" stroke-width="0.2" points="180.3,53.7 179.3,52.6 175.3,52.6 175.3,37.4 179.3,37.4 
		180.3,36.3 180.3,35.2 167.7,35.2 167.7,36.3 169.7,37.4 173.1,37.4 173.1,52.6 169.7,52.6 167.7,53.7 167.7,54.7 180.3,54.7 	"/>
	<polygon fill="none" stroke="#FFFFFF" stroke-width="0.2" points="172.1,29.2 171.4,30.1 171.7,31.6 175.8,34.5 176.5,33.6 
		172.9,29.8 	"/>
	<path fill="none" stroke="#FFFFFF" stroke-width="0.2" d="M194.1,54.7c0.9,0,1.7-0.3,2.4-0.9c0.7-0.5,1.2-1.3,1.7-2.2
		c0.9-1.8,1.4-4.1,1.4-6.6v-7.6l1-1.1v-1h-2.1l-1.1,1.1V45c0,2.2-0.4,4.2-1.2,5.7c-0.6,1.2-1.4,2-2.2,2h-1.2l-3.1-2.7l0.4-4.5
		l-1.1-1.1H188v6.9l4.1,3.5H194.1z"/>
	<polygon fill="none" stroke="#FFFFFF" stroke-width="0.2" points="211.4,53.7 211.4,47.6 219.5,54.7 220.9,53.1 211.6,45 
		220.9,36.9 219.5,35.2 211.4,42.3 211.4,36.3 210.3,35.2 208.2,35.2 208.2,36.3 209.2,36.8 209.2,53.2 208.2,53.7 208.2,54.7 
		210.3,54.7 	"/>
	<polygon fill="none" stroke="#FFFFFF" stroke-width="0.2" points="241.2,53.7 240.1,52.6 231.6,52.9 231.6,36.3 230.6,35.2 
		228.5,35.2 228.5,36.3 229.5,36.8 229.5,53.2 228.5,53.7 228.5,54.7 241.2,54.7 	"/>
	<path fill="none" stroke="#FFFFFF" stroke-width="0.2" d="M251.9,53.7V39.1l1.4-1.7h0.1c0.4,0,1.3,1.2,1.3,3.4l-0.8,5.2h2.2
		l0.8-5.2c0-0.7-0.1-1.4-0.2-2l1.2-1.5c0.2,0.2,0.5,0.8,0.9,2.3c0.3,1.5,0.5,3.4,0.5,5.3c0,2-0.2,3.8-0.5,5.3
		c-0.3,1.2-0.6,1.8-0.8,2.1v2.3c0.9,0,1.5-0.7,1.8-1.2c0.3-0.5,0.7-1.2,0.9-2.2c0.5-1.7,0.7-4,0.7-6.4c0-2.4-0.3-4.7-0.7-6.4
		c-0.2-0.9-0.5-1.6-0.9-2.2c-0.6-1-1.4-1.2-1.8-1.2h-1.4l-0.5,1.9c-0.3-0.5-0.6-1-1-1.3c-0.5-0.4-1-0.6-1.6-0.6h-1.4l-0.3,0.9
		l-0.9-0.9h-2v1.1l1,0.5v16.3l-1,0.5v1.1h2L251.9,53.7z"/>
	<polygon fill="none" stroke="#FFFFFF" stroke-width="0.2" points="272.2,53.7 272.2,41.5 278.8,54.7 280.8,54.7 280.8,36.8 
		281.7,36.3 281.7,35.2 279.7,35.2 278.6,36.3 278.6,49.3 271.7,35.2 269.1,35.2 269.1,36.3 270,36.8 270,53.2 269.1,53.7 
		269.1,54.7 271.1,54.7 	"/>
	<polygon fill="none" stroke="#FFFFFF" stroke-width="0.2" points="10.6,58.7 7.5,60.6 7.5,62.4 8.7,62.4 10.6,60.3 12.5,62.4 
		13.3,62.4 14.2,62.4 16.7,59.6 16,58.7 13.3,60.4 	"/>
	<polygon fill="none" stroke="#FFFFFF" stroke-width="0.2" points="8.6,82.7 8.6,70.5 15.1,83.7 17.1,83.7 17.1,65.8 18.1,65.3 
		18.1,64.2 16.1,64.2 15,65.3 15,78.3 8,64.2 5.5,64.2 5.5,65.3 6.4,65.8 6.4,82.2 5.5,82.7 5.5,83.7 7.5,83.7 	"/>
	<path fill="none" stroke="#FFFFFF" stroke-width="0.2" d="M28.6,83c0.7,0.5,1.4,0.8,2.2,0.8h2.5c0.8,0,1.5-0.3,2.2-0.8
		c0.6-0.4,1.1-1,1.6-1.8c0.9-1.5,1.3-3.4,1.3-5.4v-3.7c0-2-0.5-3.9-1.3-5.4c-0.4-0.8-1-1.4-1.6-1.8c-0.7-0.5-1.4-0.8-2.2-0.8h-2.5
		c-0.8,0-1.5,0.3-2.2,0.8c-0.6,0.4-1.1,1-1.6,1.8c-0.9,1.5-1.3,3.4-1.3,5.4v3.7c0,2,0.5,3.9,1.3,5.4C27.5,82,28,82.6,28.6,83z
		 M27.9,72.2c0-1.6,0.4-3.2,1-4.3c0.5-0.9,1.2-1.5,1.9-1.5h2.5c0.6,0,1.3,0.5,1.9,1.5c0.7,1.1,1,2.7,1,4.3v3.7c0,1.6-0.4,3.2-1,4.3
		c-0.5,0.9-1.2,1.5-1.9,1.5h-2.5c-0.7,0-1.3-0.5-1.9-1.5c-0.7-1.1-1-2.7-1-4.3V72.2z"/>
	<path fill="none" stroke="#FFFFFF" stroke-width="0.2" d="M48.9,83c0.7,0.5,1.4,0.8,2.2,0.8h2.5c0.8,0,1.5-0.3,2.2-0.8
		c0.6-0.4,1.1-1,1.6-1.8c0.9-1.5,1.3-3.4,1.3-5.4v-3.7c0-2-0.5-3.9-1.3-5.4c-0.4-0.8-1-1.4-1.6-1.8c-0.7-0.5-1.4-0.8-2.2-0.8h-2.5
		c-0.8,0-1.5,0.3-2.2,0.8c-0.6,0.4-1.1,1-1.6,1.8c-0.9,1.5-1.3,3.4-1.3,5.4v3.7c0,2,0.5,3.9,1.3,5.4C47.8,82,48.3,82.6,48.9,83z
		 M48.2,72.2c0-1.6,0.4-3.2,1-4.3c0.5-0.9,1.2-1.5,1.9-1.5h2.5c0.6,0,1.3,0.5,1.9,1.5c0.7,1.1,1,2.7,1,4.3v3.7c0,1.6-0.4,3.2-1,4.3
		c-0.5,0.9-1.2,1.5-1.9,1.5h-2.5c-0.7,0-1.3-0.5-1.9-1.5c-0.7-1.1-1-2.7-1-4.3V72.2z"/>
	<polygon fill="none" stroke="#FFFFFF" stroke-width="0.2" points="53.5,58.8 49.9,62.6 50.6,63.5 54.7,60.6 55,59.1 54.3,58.2 	"/>
	<polygon fill="none" stroke="#FFFFFF" stroke-width="0.2" points="72.6,58.6 71.8,58.6 68.2,62.4 68.8,63.2 72.6,60.6 76.4,63.2 
		77,62.4 73.5,58.6 	"/>
	<path fill="none" stroke="#FFFFFF" stroke-width="0.2" d="M69.2,83c0.7,0.5,1.4,0.8,2.2,0.8h2.5c0.8,0,1.5-0.3,2.2-0.8
		c0.6-0.4,1.1-1,1.6-1.8c0.9-1.5,1.3-3.4,1.3-5.4v-3.7c0-2-0.5-3.9-1.3-5.4c-0.4-0.8-1-1.4-1.6-1.8c-0.7-0.5-1.4-0.8-2.2-0.8h-2.5
		c-0.8,0-1.5,0.3-2.2,0.8c-0.6,0.4-1.1,1-1.6,1.8c-0.9,1.5-1.3,3.4-1.3,5.4v3.7c0,2,0.5,3.9,1.3,5.4C68.1,82,68.6,82.6,69.2,83z
		 M68.5,72.2c0-1.6,0.4-3.2,1-4.3c0.5-0.9,1.2-1.5,1.9-1.5h2.5c0.6,0,1.3,0.5,1.9,1.5c0.7,1.1,1,2.7,1,4.3v3.7c0,1.6-0.4,3.2-1,4.3
		c-0.5,0.9-1.2,1.5-1.9,1.5h-2.5c-0.7,0-1.3-0.5-1.9-1.5c-0.7-1.1-1-2.7-1-4.3V72.2z"/>
	<path fill="none" stroke="#FFFFFF" stroke-width="0.2" d="M96.3,65c-0.7-0.5-1.4-0.8-2.2-0.8h-2.5c-0.8,0-1.5,0.3-2.2,0.8
		c-0.6,0.4-1.1,1-1.6,1.8c-0.9,1.5-1.3,3.4-1.3,5.4v3.7c0,2,0.5,3.9,1.3,5.4c0.4,0.8,1,1.4,1.6,1.8c0.7,0.5,1.4,0.8,2.2,0.8h2.5
		c0.8,0,1.5-0.3,2.2-0.8c0.6-0.4,1.1-1,1.6-1.8c0.9-1.5,1.3-3.4,1.3-5.4v-3.7c0-2-0.5-3.9-1.3-5.4C97.5,66,96.9,65.4,96.3,65z
		 M97.1,75.8c0,1.6-0.4,3.2-1,4.3c-0.5,0.9-1.2,1.5-1.9,1.5h-2.5c-0.7,0-1.3-0.5-1.9-1.5c-0.7-1.1-1-2.7-1-4.3v-3.7
		c0-1.6,0.4-3.2,1-4.3c0.5-0.9,1.2-1.5,1.9-1.5h2.5c0.6,0,1.3,0.5,1.9,1.5c0.7,1.1,1,2.7,1,4.3V75.8z"/>
	<polygon fill="none" stroke="#FFFFFF" stroke-width="0.2" points="94.3,62.3 97.4,62.3 97.4,60.4 96.3,59.3 94.3,59.3 	"/>
	<polygon fill="none" stroke="#FFFFFF" stroke-width="0.2" points="88.4,62.3 91.5,62.3 91.5,60.4 90.4,59.3 88.4,59.3 	"/>
	<path fill="none" stroke="#FFFFFF" stroke-width="0.2" d="M109.7,83c0.7,0.5,1.4,0.8,2.2,0.8h2.5c0.8,0,1.5-0.3,2.2-0.8
		c0.6-0.4,1.1-1,1.6-1.8c0.9-1.5,1.3-3.4,1.3-5.4v-3.7c0-2-0.5-3.9-1.3-5.4c-0.4-0.8-1-1.4-1.6-1.8c-0.7-0.5-1.4-0.8-2.2-0.8h-2.5
		c-0.8,0-1.5,0.3-2.2,0.8c-0.6,0.4-1.1,1-1.6,1.8c-0.9,1.5-1.3,3.4-1.3,5.4v3.7c0,2,0.5,3.9,1.3,5.4C108.6,82,109.1,82.6,109.7,83z
		 M109,72.2c0-1.6,0.4-3.2,1-4.3c0.5-0.9,1.2-1.5,1.9-1.5h2.5c0.6,0,1.3,0.5,1.9,1.5c0.7,1.1,1,2.7,1,4.3v3.7c0,1.6-0.4,3.2-1,4.3
		c-0.5,0.9-1.2,1.5-1.9,1.5h-2.5c-0.7,0-1.3-0.5-1.9-1.5c-0.7-1.1-1-2.7-1-4.3V72.2z"/>
	<polygon fill="none" stroke="#FFFFFF" stroke-width="0.2" points="110.6,59.1 110.9,60.6 115,63.5 115.6,62.6 112.1,58.8 
		111.2,58.2 	"/>
	<polygon fill="none" stroke="#FFFFFF" stroke-width="0.2" points="132.3,59 129.2,60.9 129.2,62.6 130.4,62.6 132.3,60.6 
		134.2,62.6 135,62.6 135.9,62.6 138.3,59.9 137.7,59 135,60.6 	"/>
	<path fill="none" stroke="#FFFFFF" stroke-width="0.2" d="M130,83c0.7,0.5,1.4,0.8,2.2,0.8h2.5c0.8,0,1.5-0.3,2.2-0.8
		c0.6-0.4,1.1-1,1.6-1.8c0.9-1.5,1.3-3.4,1.3-5.4v-3.7c0-2-0.5-3.9-1.3-5.4c-0.4-0.8-1-1.4-1.6-1.8c-0.7-0.5-1.4-0.8-2.2-0.8h-2.5
		c-0.8,0-1.5,0.3-2.2,0.8c-0.6,0.4-1.1,1-1.6,1.8c-0.9,1.5-1.3,3.4-1.3,5.4v3.7c0,2,0.5,3.9,1.3,5.4C128.9,82,129.4,82.6,130,83z
		 M129.3,72.2c0-1.6,0.4-3.2,1-4.3c0.5-0.9,1.2-1.5,1.9-1.5h2.5c0.6,0,1.3,0.5,1.9,1.5c0.7,1.1,1,2.7,1,4.3v3.7c0,1.6-0.4,3.2-1,4.3
		c-0.5,0.9-1.2,1.5-1.9,1.5h-2.5c-0.7,0-1.3-0.5-1.9-1.5c-0.7-1.1-1-2.7-1-4.3V72.2z"/>
	<path fill="none" stroke="#FFFFFF" stroke-width="0.2" d="M150.5,76.5h3c1.7,0,3.4-0.6,4.6-1.8c1.2-1.2,1.9-2.7,1.9-4.4
		s-0.7-3.2-1.9-4.4c-1.2-1.1-2.7-1.7-4.3-1.8h-0.2h-1.3l-1.7,1.1l-1.1-1.1h-2v1.1l1,0.5v16.3l-1,0.5v1.1h3.1V76.5z M150.5,66.8
		l2.2-0.4h0.8c2.4,0,4.3,1.8,4.3,4s-2,4-4.3,4h-3V66.8z"/>
	<path fill="none" stroke="#FFFFFF" stroke-width="0.2" d="M170.6,83c0.7,0.5,1.4,0.8,2.2,0.8h2.5c0.7,0,1.4-0.2,2.1-0.7l0.7,0.7
		h1.5l0.8-0.8l-0.8-0.8l-0.8-0.6l0.3-0.4c0.9-1.5,1.3-3.4,1.3-5.4v-3.7c0-2-0.5-3.9-1.3-5.4c-0.4-0.8-1-1.4-1.6-1.8
		c-0.7-0.5-1.4-0.8-2.2-0.8h-2.5c-0.8,0-1.5,0.3-2.2,0.8c-0.6,0.4-1.1,1-1.6,1.8c-0.9,1.5-1.3,3.4-1.3,5.4v3.7c0,2,0.5,3.9,1.3,5.4
		C169.5,82,170,82.6,170.6,83z M169.8,72.2c0-1.6,0.4-3.2,1-4.3c0.5-0.9,1.2-1.5,1.9-1.5h2.5c0.7,0,1.3,0.5,1.9,1.5
		c0.6,1.1,1,2.7,1,4.3v3.7c0,1.6-0.4,3.2-1,4.3l-0.1,0.2l-3.4-2.6l-0.8,0.8l3,3c-0.2,0.1-0.3,0.1-0.5,0.1h-2.5
		c-0.7,0-1.3-0.5-1.9-1.5c-0.7-1.1-1-2.7-1-4.3V72.2z"/>
	<path fill="none" stroke="#FFFFFF" stroke-width="0.2" d="M191.1,76.9h1.6h1.5c0.9,0,1.7,1,2.3,1.9c0.7,1,1.1,2.5,1.1,4l1.1,1.1
		h1.8v-1.1l-0.8-0.4c0-1.8-0.5-3.5-1.5-4.8c-0.5-0.6-1-1.1-1.5-1.4c0.7-0.3,1.3-0.7,1.9-1.2c1.2-1.2,1.9-2.7,1.9-4.4
		s-0.7-3.2-1.9-4.4c-1.2-1.1-2.7-1.7-4.3-1.8h-1.5l-4.8,0v1.1l1,0.5v16.3l-1,0.5v1.1h3.1V76.9z M191.1,66.4h2.2h0.8
		c2.4,0,4.3,1.8,4.3,4s-2,4-4.3,4h-3V66.4z"/>
	<path fill="none" stroke="#FFFFFF" stroke-width="0.2" d="M216.3,83.7c2.5,0,4.6-2.1,4.6-4.5v-0.8l-10.6-10.1
		c0.3-1,1.5-2.3,2.5-2.2l6,0.3l1.1,2.2h1.1v-2.2l-1.1-2.2h-7c-2.5,0-4.5,2-4.5,4.6v0.8l10.6,10.1c-0.3,1-1.5,2.2-2.5,2.2l-6-0.3
		l-1.1-2.1h-1.1v2.2l1.1,2.2H216.3z"/>
	<polygon fill="none" stroke="#FFFFFF" stroke-width="0.2" points="230.6,66.4 233.8,66.4 233.8,81.6 231.6,82.7 231.6,83.7 
		238.1,83.7 238.1,82.7 236,81.6 236,66.4 236.1,66.4 239,66.4 240.1,68.6 241.2,68.6 241.2,66.4 240.1,64.2 229.6,64.2 228.5,66.4 
		228.5,68.6 229.6,68.6 	"/>
	<path fill="none" stroke="#FFFFFF" stroke-width="0.2" d="M258.4,65.3l0,10.5c0,1.6-0.4,3.2-1,4.3c-0.5,0.9-1.2,1.5-1.9,1.5h-0.6
		c-0.6,0-1.3-0.5-1.9-1.5c-0.6-1.1-1-2.7-1-4.3V65.3l-1.1-1.1h-2.1v1.1l1,0.5v10c0,2,0.5,4,1.3,5.4c0.4,0.8,1,1.4,1.6,1.8
		c0.7,0.5,1.4,0.7,2.2,0.7h0.6c0.8,0,1.5-0.3,2.2-0.7c0.6-0.4,1.1-1,1.6-1.8c0.9-1.5,1.3-3.4,1.3-5.4l0-10l1-0.5v-1.1h-2.1
		L258.4,65.3z"/>
	<path fill="none" stroke="#FFFFFF" stroke-width="0.2" d="M270,75.8c0,2,0.5,4,1.3,5.4c0.4,0.8,1,1.4,1.6,1.8
		c0.7,0.5,1.4,0.7,2.2,0.7h0.6c0.8,0,1.5-0.3,2.2-0.7c0.6-0.4,1.1-1,1.6-1.8c0.9-1.5,1.3-3.4,1.3-5.4l0-10l1-0.5v-1.1h-2.1l-1.1,1.1
		l0,10.5c0,1.6-0.4,3.2-1,4.3c-0.5,0.9-1.2,1.5-1.9,1.5h-0.6c-0.7,0-1.3-0.5-1.9-1.5c-0.7-1.1-1-2.7-1-4.3V65.3l-1.1-1.1h-2.1v1.1
		l1,0.5V75.8z"/>
	<polygon fill="none" stroke="#FFFFFF" stroke-width="0.2" points="273,62.6 273.6,63.5 277.8,60.6 278,59.1 277.4,58.2 276.5,58.8 
			"/>
	<path fill="none" stroke="#FFFFFF" stroke-width="0.2" d="M6.4,104.8c0,2,0.5,4,1.3,5.4c0.4,0.8,1,1.4,1.6,1.8
		c0.7,0.5,1.4,0.7,2.2,0.7h0.6c0.8,0,1.5-0.3,2.2-0.7c0.6-0.4,1.1-1,1.6-1.8c0.9-1.5,1.3-3.4,1.3-5.4l0-10l1-0.5v-1.1H16L15,94.3
		l0,10.5c0,1.6-0.4,3.2-1,4.3c-0.5,0.9-1.2,1.5-1.9,1.5h-0.6c-0.7,0-1.3-0.5-1.9-1.5c-0.7-1.1-1-2.7-1-4.3V94.3l-1.1-1.1H5.5v1.1
		l1,0.5V104.8z"/>
	<polygon fill="none" stroke="#FFFFFF" stroke-width="0.2" points="11.8,87.6 10.9,87.6 7.4,91.4 8,92.2 11.8,89.6 15.5,92.2 
		16.2,91.4 12.6,87.6 	"/>
	<polygon fill="none" stroke="#FFFFFF" stroke-width="0.2" points="33.5,88.3 33.5,91.3 36.6,91.3 36.6,89.4 35.5,88.3 	"/>
	<polygon fill="none" stroke="#FFFFFF" stroke-width="0.2" points="27.6,91.3 30.7,91.3 30.7,89.4 29.6,88.3 27.6,88.3 	"/>
	<path fill="none" stroke="#FFFFFF" stroke-width="0.2" d="M26.7,104.8c0,2,0.5,4,1.3,5.4c0.4,0.8,1,1.4,1.6,1.8
		c0.7,0.5,1.4,0.7,2.2,0.7h0.6c0.8,0,1.5-0.3,2.2-0.7c0.6-0.4,1.1-1,1.6-1.8c0.9-1.5,1.3-3.4,1.3-5.4l0-10l1-0.5v-1.1h-2.1l-1.1,1.1
		l0,10.5c0,1.6-0.4,3.2-1,4.3c-0.5,0.9-1.2,1.5-1.9,1.5h-0.6c-0.7,0-1.3-0.5-1.9-1.5c-0.7-1.1-1-2.7-1-4.3V94.3l-1.1-1.1h-2.1v1.1
		l1,0.5V104.8z"/>
	<path fill="none" stroke="#FFFFFF" stroke-width="0.2" d="M47,104.8c0,2,0.5,4,1.3,5.4c0.4,0.8,1,1.4,1.6,1.8
		c0.7,0.5,1.4,0.7,2.2,0.7h0.6c0.8,0,1.5-0.3,2.2-0.7c0.6-0.4,1.1-1,1.6-1.8c0.9-1.5,1.3-3.4,1.3-5.4l0-10l1-0.5v-1.1h-2.1l-1.1,1.1
		l0,10.5c0,1.6-0.4,3.2-1,4.3c-0.5,0.9-1.2,1.5-1.9,1.5H52c-0.7,0-1.3-0.5-1.9-1.5c-0.7-1.1-1-2.7-1-4.3V94.3l-1.1-1.1H46v1.1l1,0.5
		V104.8z"/>
	<polygon fill="none" stroke="#FFFFFF" stroke-width="0.2" points="50.4,87.2 49.8,88.1 50,89.6 54.2,92.5 54.8,91.6 51.2,87.8 	"/>
	<path fill="none" stroke="#FFFFFF" stroke-width="0.2" d="M67.3,109.6c1.8,0,4.3,1.1,4.3,3.2h2.2c0-2.1,2.5-3.2,4.3-3.2V94.8l1-0.5
		v-1.1h-2l-1.1,1.1v14.1c-1.2,0.3-2.4,0.9-3.2,1.8c-0.8-0.9-2-1.6-3.2-1.8V94.3l-1.1-1.1h-2v1.1l1,0.5V109.6z"/>
	<path fill="none" stroke="#FFFFFF" stroke-width="0.2" d="M96.1,94.3v14.3c0,0-0.1,0-0.1,0c-0.2,0.1-0.3,0.2-0.4,0.3
		c-0.3,0.2-0.5,0.5-0.7,0.8c-0.2-0.3-0.4-0.5-0.6-0.8l-0.2-0.2l-0.1-0.1v-7.9l-1.1-1.1h-1.1v8.9c0,0,0,0.1,0,0.1
		c-0.4,0.3-0.6,0.6-0.9,1c-0.2-0.3-0.4-0.5-0.6-0.8c-0.1-0.1-0.2-0.2-0.4-0.3c0,0-0.2-0.1-0.2-0.1V94.3l-1.1-1.1h-2v1.1l0.9,0.5
		v14.2c1.8,0.7,2.3,2,2.3,3.7H92l0-0.5c0-0.5,0.1-1,0.3-1.5c0.1-0.2,0.2-0.4,0.3-0.6c0.1-0.1,0.2-0.3,0.3-0.3c0,0,0.1,0.1,0.2,0.1
		c0.1,0.1,0.2,0.2,0.2,0.3c0.1,0.3,0.2,0.5,0.3,0.9c0.1,0.3,0.2,0.6,0.2,0.9l0,0.4l0,0.2v0.1H96c0-1.7,0.5-3,2.3-3.7V94.8l1-0.5
		v-1.1h-2.1L96.1,94.3z"/>
	<polygon fill="none" stroke="#FFFFFF" stroke-width="0.2" points="108.7,112.7 113.2,105.2 117.6,112.7 119.5,111.7 114.4,103 
		119.5,94.3 117.6,93.2 113.2,100.8 108.7,93.2 106.9,94.3 111.9,103 106.9,111.7 	"/>
	<path fill="none" stroke="#FFFFFF" stroke-width="0.2" d="M135.4,102.4c0.5-0.6,1.3-0.8,2.1-0.9l1.4-1.8v-4.9l1-0.5v-1.1h-2
		l-1.1,1.1v5.8c-1.2,0-2.4,0.9-3.2,1.8c-0.8-0.9-2-1.8-3.2-1.8v-5.8l-1.1-1.1h-2v1.1l1,0.5v4.9l1.4,1.8h0.3c0.2,0,0.3,0,0.5,0.1
		c0.4,0.1,0.8,0.3,1.1,0.6c0.7,0.6,1,1.4,1,2.2v6.1l-2.1,1.1v1.1h2.1l1.1-0.5l1.1,0.5h2.1v-1.1l-2.1-1.1v-6.1
		C134.6,103.6,134.9,103,135.4,102.4z"/>
	<polygon fill="none" stroke="#FFFFFF" stroke-width="0.2" points="156.4,88.1 155.7,87.2 154.9,87.8 151.3,91.6 152,92.5 
		156.1,89.6 	"/>
	<path fill="none" stroke="#FFFFFF" stroke-width="0.2" d="M155.7,102.4c0.5-0.6,1.3-0.8,2.1-0.9l1.4-1.8v-4.9l1-0.5v-1.1h-2
		l-1.1,1.1v5.8c-1.2,0-2.4,0.9-3.2,1.8c-0.8-0.9-1.9-1.8-3.2-1.8v-5.8l-1.1-1.1h-2v1.1l1,0.5v4.9l1.4,1.8h0.3c0.2,0,0.3,0,0.5,0.1
		c0.4,0.1,0.8,0.3,1.1,0.6c0.7,0.6,1,1.4,1,2.2v6.1l-2.1,1.1v1.1h2.1l1.1-0.5l1.1,0.5h2.1v-1.1l-2.1-1.1v-6.1
		C154.9,103.7,155.1,103,155.7,102.4z"/>
	<polygon fill="none" stroke="#FFFFFF" stroke-width="0.2" points="172.6,89.4 171.5,88.3 169.5,88.3 169.5,91.3 172.6,91.3 	"/>
	<polygon fill="none" stroke="#FFFFFF" stroke-width="0.2" points="178.6,89.4 177.4,88.3 175.4,88.3 175.4,91.3 178.6,91.3 	"/>
	<path fill="none" stroke="#FFFFFF" stroke-width="0.2" d="M179.4,94.8l1-0.5v-1.1h-2l-1.1,1.1v5.8c-1.2,0-2.4,0.9-3.2,1.8
		c-0.8-0.9-1.9-1.8-3.2-1.8v-5.8l-1.1-1.1h-2v1.1l1,0.5v4.9l1.4,1.8h0.3c0.2,0,0.3,0,0.5,0.1c0.4,0.1,0.8,0.3,1.1,0.6
		c0.7,0.6,1,1.4,1,2.2v6.1l-2.1,1.1v1.1h2.1l1.1-0.5l1.1,0.5h2.1v-1.1l-2.1-1.1v-6.1c0-0.8,0.3-1.5,0.8-2.1s1.3-0.8,2.1-0.9l1.4-1.8
		V94.8z"/>
	<polygon fill="none" stroke="#FFFFFF" stroke-width="0.2" points="199.5,112.7 200.6,110.6 200.6,108.4 199.5,108.4 198.4,110.6 
		189.5,110.7 200.6,96.4 200.6,95.3 199.5,93.2 189,93.2 188,95.4 188,97.6 189,97.6 190.2,95.3 199.1,95.3 188,109.5 188,110.7 
		189,112.7 	"/>
	<path fill="none" stroke="#FFFFFF" stroke-width="0.2" d="M210.4,111.6c1.2,0.7,2.8,1.1,4.4,1.1h1.8l1.2-1.1l1.1,1.1h2v-1.1l-1-0.5
		V104c0-0.7-0.2-1.3-0.5-1.9c-0.3-0.5-0.8-1-1.3-1.4c-1.1-0.7-2.5-1-4-1c-1.5,0-2.9,0.4-4,1.1c-0.3,0.2-0.5,0.4-0.7,0.6l1.5,1.6
		c0.1-0.1,0.3-0.2,0.4-0.3c0.7-0.5,1.7-0.8,2.7-0.8s2,0.2,2.7,0.7c0.8,0.5,0.9,1.1,0.9,1.4v1.6l-1.7-1.5h-1.3
		c-1.6,0-3.2,0.4-4.4,1.1c-0.6,0.4-1.1,0.8-1.5,1.3c-0.4,0.6-0.6,1.2-0.6,1.9c0,0.7,0.2,1.3,0.6,1.9
		C209.2,110.8,209.8,111.3,210.4,111.6z M211.5,107.1c0.9-0.5,2.1-0.8,3.3-0.8h0.8l2.2,0.8v2.7l-2.2,0.8h-0.8
		c-1.2,0-2.4-0.3-3.3-0.8c-0.7-0.4-1.1-0.9-1.1-1.3C210.4,108,210.8,107.5,211.5,107.1z"/>
	<polygon fill="none" stroke="#FFFFFF" stroke-width="0.2" points="232.5,95.5 233.1,96.4 237.2,93.5 237.5,92 236.8,91.1 236,91.7 
			"/>
	<path fill="none" stroke="#FFFFFF" stroke-width="0.2" d="M230.7,111.6c1.2,0.7,2.8,1.1,4.4,1.1h1.8l1.2-1.1l1.1,1.1h2v-1.1l-1-0.5
		V104c0-0.7-0.2-1.3-0.5-1.9c-0.3-0.5-0.8-1-1.3-1.4c-1.1-0.7-2.5-1-4-1c-1.5,0-2.9,0.4-4,1.1c-0.3,0.2-0.5,0.4-0.7,0.6l1.5,1.6
		c0.1-0.1,0.3-0.2,0.4-0.3c0.7-0.5,1.7-0.8,2.7-0.8s2,0.2,2.7,0.7c0.8,0.5,0.9,1.1,0.9,1.4v1.6l-1.7-1.5h-1.3
		c-1.6,0-3.2,0.4-4.4,1.1c-0.6,0.4-1.1,0.8-1.5,1.3c-0.4,0.6-0.6,1.2-0.6,1.9c0,0.7,0.2,1.3,0.6,1.9
		C229.5,110.8,230,111.3,230.7,111.6z M231.8,107.1c0.9-0.5,2.1-0.8,3.3-0.8h0.8l2.2,0.8v2.7l-2.2,0.8h-0.8c-1.2,0-2.4-0.3-3.3-0.8
		c-0.7-0.4-1.1-0.9-1.1-1.3C230.7,108,231.1,107.5,231.8,107.1z"/>
	<path fill="none" stroke="#FFFFFF" stroke-width="0.2" d="M250.9,111.6c1.2,0.7,2.8,1.1,4.4,1.1h1.8l1.2-1.1l1.1,1.1h2v-1.1l-1-0.5
		V104c0-0.7-0.2-1.3-0.5-1.9c-0.3-0.5-0.8-1-1.3-1.4c-1.1-0.7-2.5-1-4-1c-1.5,0-2.9,0.4-4,1.1c-0.3,0.2-0.5,0.4-0.7,0.6l1.5,1.6
		c0.1-0.1,0.3-0.2,0.4-0.3c0.7-0.5,1.7-0.8,2.7-0.8s2,0.2,2.7,0.7c0.8,0.5,0.9,1.1,0.9,1.4v1.6l-1.7-1.5h-1.3
		c-1.6,0-3.2,0.4-4.4,1.1c-0.6,0.4-1.1,0.8-1.5,1.3c-0.4,0.6-0.6,1.2-0.6,1.9c0,0.7,0.2,1.3,0.6,1.9
		C249.8,110.8,250.3,111.3,250.9,111.6z M252.1,107.1c0.9-0.5,2.1-0.8,3.3-0.8h0.8l2.2,0.8v2.7l-2.2,0.8h-0.8
		c-1.2,0-2.4-0.3-3.3-0.8c-0.7-0.4-1.1-0.9-1.1-1.3C251,108,251.4,107.5,252.1,107.1z"/>
	<path fill="none" stroke="#FFFFFF" stroke-width="0.2" d="M258,92.5h-2.2c0,0.5-0.3,0.8-0.7,0.8c-0.4,0-0.7-0.4-0.7-0.8h-2.2
		c0,1.7,1.3,3,2.9,3C256.7,95.5,258,94.1,258,92.5z"/>
	<polygon fill="none" stroke="#FFFFFF" stroke-width="0.2" points="275.4,92 274.5,92 271,95.8 271.6,96.7 275.4,94 279.2,96.7 
		279.8,95.8 276.3,92 	"/>
	<path fill="none" stroke="#FFFFFF" stroke-width="0.2" d="M271.2,111.6c1.2,0.7,2.8,1.1,4.4,1.1h1.8l1.2-1.1l1.1,1.1h2v-1.1l-1-0.5
		V104c0-0.7-0.2-1.3-0.5-1.9c-0.3-0.5-0.8-1-1.3-1.4c-1.1-0.7-2.5-1-4-1c-1.5,0-2.9,0.4-4,1.1c-0.3,0.2-0.5,0.4-0.7,0.6l1.5,1.6
		c0.1-0.1,0.3-0.2,0.4-0.3c0.7-0.5,1.7-0.8,2.7-0.8s2,0.2,2.7,0.7c0.8,0.5,0.9,1.1,0.9,1.4v1.6l-1.7-1.5h-1.3
		c-1.6,0-3.2,0.4-4.4,1.1c-0.6,0.4-1.1,0.8-1.5,1.3c-0.4,0.6-0.6,1.2-0.6,1.9c0,0.7,0.2,1.3,0.6,1.9
		C270.1,110.8,270.6,111.3,271.2,111.6z M272.3,107.1c0.9-0.5,2.1-0.8,3.3-0.8h0.8l2.2,0.8v2.7l-2.2,0.8h-0.8
		c-1.2,0-2.4-0.3-3.3-0.8c-0.7-0.4-1.1-0.9-1.1-1.3C271.2,108,271.6,107.5,272.3,107.1z"/>
	<polygon fill="none" stroke="#FFFFFF" stroke-width="0.2" points="7.3,122.5 7.3,125.5 10.4,125.5 10.4,123.6 9.3,122.5 	"/>
	<path fill="none" stroke="#FFFFFF" stroke-width="0.2" d="M17.2,133c0-0.7-0.2-1.3-0.5-1.9c-0.3-0.5-0.8-1-1.3-1.4
		c-1.1-0.7-2.5-1-4-1c-1.5,0-2.9,0.4-4,1.1c-0.3,0.2-0.5,0.4-0.7,0.6l1.5,1.6c0.1-0.1,0.3-0.2,0.4-0.3c0.7-0.5,1.7-0.8,2.7-0.8
		s2,0.2,2.7,0.7c0.8,0.5,0.9,1.1,0.9,1.4v1.6l-1.7-1.5H12c-1.6,0-3.2,0.4-4.4,1.1c-0.6,0.4-1.1,0.8-1.5,1.3
		c-0.4,0.6-0.6,1.2-0.6,1.9c0,0.7,0.2,1.3,0.6,1.9c0.4,0.5,0.9,1,1.5,1.3c1.2,0.7,2.8,1.1,4.4,1.1h1.8l1.2-1.1l1.1,1.1h2v-1.1
		l-1-0.5V133z M15,138.8l-2.2,0.8H12c-1.2,0-2.4-0.3-3.3-0.8c-0.7-0.4-1.1-0.9-1.1-1.3c0-0.5,0.4-1,1.1-1.4c0.9-0.5,2.1-0.8,3.3-0.8
		h0.8l2.2,0.8V138.8z"/>
	<polygon fill="none" stroke="#FFFFFF" stroke-width="0.2" points="13.2,122.5 13.2,125.5 16.3,125.5 16.3,123.6 15.2,122.5 	"/>
	<path fill="none" stroke="#FFFFFF" stroke-width="0.2" d="M27.9,140.6c1.2,0.7,2.8,1.1,4.4,1.1h1.8l1.2-1.1l1.1,1.1h2v-1.1l-1-0.5
		V133c0-0.7-0.2-1.3-0.5-1.9c-0.3-0.5-0.8-1-1.3-1.4c-1.1-0.7-2.5-1-4-1c-1.5,0-2.9,0.4-4,1.1c-0.3,0.2-0.5,0.4-0.7,0.6l1.5,1.6
		c0.1-0.1,0.3-0.2,0.4-0.3c0.7-0.5,1.7-0.8,2.7-0.8s2,0.2,2.7,0.7c0.8,0.5,0.9,1.1,0.9,1.4v1.6l-1.7-1.5h-1.3
		c-1.6,0-3.2,0.4-4.4,1.1c-0.6,0.4-1.1,0.8-1.5,1.3c-0.4,0.6-0.6,1.2-0.6,1.9c0,0.7,0.2,1.3,0.6,1.9
		C26.7,139.8,27.2,140.3,27.9,140.6z M29,136.1c0.9-0.5,2.1-0.8,3.3-0.8H33l2.2,0.8v2.7l-2.2,0.8h-0.8c-1.2,0-2.4-0.3-3.3-0.8
		c-0.7-0.4-1.1-0.9-1.1-1.3C27.9,137,28.3,136.5,29,136.1z"/>
	<polygon fill="none" stroke="#FFFFFF" stroke-width="0.2" points="30.1,120.1 29.5,121 29.7,122.5 33.9,125.4 34.5,124.5 31,120.7 
			"/>
	<path fill="none" stroke="#FFFFFF" stroke-width="0.2" d="M48.1,140.6c1.2,0.7,2.8,1.1,4.4,1.1h1.8l1.2-1.1l1.1,1.1h2v-1.1l-1-0.5
		V133c0-0.7-0.2-1.3-0.5-1.9c-0.3-0.5-0.8-1-1.3-1.4c-1.1-0.7-2.5-1-4-1c-1.5,0-2.9,0.4-4,1.1c-0.3,0.2-0.5,0.4-0.7,0.6l1.5,1.6
		c0.1-0.1,0.3-0.2,0.4-0.3c0.7-0.5,1.7-0.8,2.7-0.8s2,0.2,2.7,0.7c0.8,0.5,0.9,1.1,0.9,1.4v1.6l-1.7-1.5h-1.3
		c-1.6,0-3.2,0.4-4.4,1.1c-0.6,0.4-1.1,0.8-1.5,1.3c-0.4,0.6-0.6,1.2-0.6,1.9c0,0.7,0.2,1.3,0.6,1.9C47,139.8,47.5,140.3,48.1,140.6
		z M49.3,136.1c0.9-0.5,2.1-0.8,3.3-0.8h0.8l2.2,0.8v2.7l-2.2,0.8h-0.8c-1.2,0-2.4-0.3-3.3-0.8c-0.7-0.4-1.1-0.9-1.1-1.3
		C48.2,137,48.6,136.5,49.3,136.1z"/>
	<polygon fill="none" stroke="#FFFFFF" stroke-width="0.2" points="51.1,121.7 48.1,123.5 48.1,125.3 49.3,125.3 51.1,123.3 
		53,125.3 53.9,125.3 54.8,125.3 57.2,122.6 56.6,121.7 53.9,123.3 	"/>
	<path fill="none" stroke="#FFFFFF" stroke-width="0.2" d="M69.4,139.6l1.6,2.2h1.4c1.7,0,3.4-0.7,4.6-1.9c1.2-1.2,1.9-2.9,1.9-4.6
		s-0.7-3.4-1.9-4.6c-1.2-1.2-2.7-1.8-4.4-1.9H71l-0.2,0.3l-1.3,1.8v-7.6l-1.1-1.1h-2v1.1l1,0.5v16.3l-1,0.5v1.1h3.1V139.6z
		 M69.4,132.6l2.4-1.7h0.6c2.4,0,4.3,2,4.3,4.3c0,2.4-2,4.3-4.3,4.3h-0.6l-2.4-1.7V132.6z"/>
	<path fill="none" stroke="#FFFFFF" stroke-width="0.2" d="M93.1,128.7c-1.7,0-3.4,0.7-4.6,1.9c-1.2,1.2-1.9,2.9-1.9,4.6
		c0,1.7,0.7,3.4,1.9,4.6c1.2,1.2,2.9,1.9,4.6,1.9h4.4l1.7-2.4v-1.6l-2.5,1.8h-3.6c-2.4,0-4.3-2-4.3-4.3c0-2.4,2-4.3,4.3-4.3h3.6
		l2.5,1.8v-1.7l-1.7-2.3H93.1z"/>
	<path fill="none" stroke="#FFFFFF" stroke-width="0.2" d="M113.4,141.7h1.4l1.6-2.2v1.1l1.1,1.1h2v-1.1l-1-0.5v-16.8l-2.2-1.1h-2.2
		v1.1l2.2,1.1v6.5l-1.6-2.2h-1.4c-3.6,0-6.5,2.9-6.5,6.5C106.9,138.8,109.8,141.7,113.4,141.7z M113.4,130.9h0.5l2.4,1.7v5.2
		l-2.4,1.7h-0.6c-2.4,0-4.3-2-4.3-4.3C109,132.9,111,130.9,113.4,130.9z"/>
	<path fill="none" stroke="#FFFFFF" stroke-width="0.2" d="M133.6,141.7h4.4l1.7-2.4v-1.6l-2.5,1.8h-3.6c-2,0-3.7-1.4-4.2-3.2h10.3
		v-5.3l-1.7-2.3h-4.4c-1.7,0-3.4,0.7-4.6,1.9c-1.2,1.2-1.9,2.9-1.9,4.6s0.7,3.4,1.9,4.6C130.3,141.1,131.9,141.7,133.6,141.7z
		 M133.6,130.9h3.6l0.7,0.5v2.8h-8.4C129.9,132.3,131.6,130.9,133.6,130.9z"/>
	<path fill="none" stroke="#FFFFFF" stroke-width="0.2" d="M153.9,141.7h4.4l1.7-2.4v-1.6l-2.5,1.8h-3.6c-2,0-3.7-1.4-4.2-3.2H160
		v-5.3l-1.7-2.3h-4.4c-1.7,0-3.4,0.7-4.6,1.9c-1.2,1.2-1.9,2.9-1.9,4.6s0.7,3.4,1.9,4.6C150.6,141.1,152.2,141.7,153.9,141.7z
		 M153.9,130.9h3.6l0.7,0.5v2.8h-8.4C150.2,132.3,151.9,130.9,153.9,130.9z"/>
	<polygon fill="none" stroke="#FFFFFF" stroke-width="0.2" points="151.3,124.5 152,125.4 156.1,122.5 156.4,121 155.7,120.1 
		154.9,120.7 	"/>
	<polygon fill="none" stroke="#FFFFFF" stroke-width="0.2" points="174,121 173.1,121 169.6,124.8 170.2,125.7 174,123 177.8,125.7 
		178.4,124.8 174.9,121 	"/>
	<path fill="none" stroke="#FFFFFF" stroke-width="0.2" d="M174.2,141.7h4.4l1.7-2.4v-1.6l-2.5,1.8h-3.6c-2,0-3.7-1.4-4.2-3.2h10.3
		v-5.3l-1.7-2.3h-4.4c-1.7,0-3.4,0.7-4.6,1.9c-1.2,1.2-1.9,2.9-1.9,4.6s0.7,3.4,1.9,4.6C170.8,141.1,172.5,141.7,174.2,141.7z
		 M174.2,130.9h3.6l0.7,0.5v2.8H170C170.5,132.3,172.2,130.9,174.2,130.9z"/>
	<path fill="none" stroke="#FFFFFF" stroke-width="0.2" d="M194.5,141.7h4.4l1.7-2.4v-1.6l-2.5,1.8h-3.6c-2,0-3.7-1.4-4.2-3.2h10.3
		v-5.3l-1.7-2.3h-4.4c-1.7,0-3.4,0.7-4.6,1.9c-1.2,1.2-1.9,2.9-1.9,4.6s0.7,3.4,1.9,4.6C191.1,141.1,192.8,141.7,194.5,141.7z
		 M194.5,130.9h3.6l0.7,0.5v2.8h-8.4C190.8,132.3,192.5,130.9,194.5,130.9z"/>
	<polygon fill="none" stroke="#FFFFFF" stroke-width="0.2" points="189.8,125.5 192.9,125.5 192.9,123.6 191.8,122.5 189.8,122.5 	
		"/>
	<polygon fill="none" stroke="#FFFFFF" stroke-width="0.2" points="195.7,125.5 198.8,125.5 198.8,123.6 197.7,122.5 195.7,122.5 	
		"/>
	<polygon fill="none" stroke="#FFFFFF" stroke-width="0.2" points="212.6,120.1 212,121 212.3,122.5 216.4,125.4 217,124.5 
		213.5,120.7 	"/>
	<path fill="none" stroke="#FFFFFF" stroke-width="0.2" d="M214.7,141.7h4.4l1.7-2.4v-1.6l-2.5,1.8h-3.6c-2,0-3.7-1.4-4.2-3.2h10.3
		v-5.3l-1.7-2.3h-4.4c-1.7,0-3.4,0.7-4.6,1.9c-1.2,1.2-1.9,2.9-1.9,4.6s0.7,3.4,1.9,4.6C211.4,141.1,213,141.7,214.7,141.7z
		 M214.7,130.9h3.6l0.7,0.5v2.8h-8.4C211,132.3,212.7,130.9,214.7,130.9z"/>
	<path fill="none" stroke="#FFFFFF" stroke-width="0.2" d="M232.5,139.6l-2.1,1.1v1.1h2.1l1.1-0.5l1.1,0.5h2.1v-1.1l-2.1-1.1V132
		h4.4l1.1-1.1v-1.1h-1.1l-4.4,0.3v-2.8l2.5-2.9h0.5c1.5,0,2.8,0.7,3.5,1.8v-3c-1-0.7-2.3-1.1-3.5-1.1h-1.4l-0.2,0.3l-3.5,4.8v3
		l-4,0.3v1.4h4V139.6z"/>
	<path fill="none" stroke="#FFFFFF" stroke-width="0.2" d="M255.3,148.2h1.4l3.7-5.1v-12.8l1-0.5v-1.1h-2l-1.1,1.1v1.1l-1.6-2.2
		h-1.4c-1.7,0-3.4,0.7-4.6,1.9c-1.2,1.2-1.9,2.9-1.9,4.6s0.7,3.4,1.9,4.6c1.2,1.2,2.9,1.9,4.6,1.9h1.4l1.6-2.1v3.5l-2.4,2.9h-0.5
		c-2.4,0-4.4-2-4.4-4.4h-2.2c0,1.7,0.7,3.4,1.9,4.6C252,147.6,253.6,148.2,255.3,148.2z M255.9,139.6h-0.5c-2.4,0-4.3-2-4.3-4.3
		c0-2.4,2-4.3,4.3-4.3h0.5l2.4,1.7v5.2L255.9,139.6z"/>
	<path fill="none" stroke="#FFFFFF" stroke-width="0.2" d="M272.2,140.7v-8l2.4-1.7h0.6c1.9,0,3.4,1.5,3.4,3.4v6.3l1.1,1.1h2v-1.1
		l-0.9-0.5v-5.8c0-1.5-0.6-2.9-1.6-4c-1-1-2.3-1.6-3.7-1.6h-1.7l-1.6,2.1v-7.6l-1.1-1.1h-2v1.1l1,0.5v16.3l-1,0.5v1.1h2L272.2,140.7
		z"/>
	<polygon fill="none" stroke="#FFFFFF" stroke-width="0.2" points="15,169.1 14,168.6 14,158.9 12.9,157.7 6.8,157.7 6.8,159.1 
		11.8,159.6 11.8,168.6 10.6,169.2 6.5,168.6 5.5,169.7 5.5,170.7 11.8,170.7 12.9,170.2 14,170.7 18.1,170.7 18.1,169.7 17,168.6 	
		"/>
	<polygon fill="none" stroke="#FFFFFF" stroke-width="0.2" points="14,152.3 12.9,151.2 10.8,151.2 10.8,152.3 12.9,153.4 14,153.4 
			"/>
	<polygon fill="none" stroke="#FFFFFF" stroke-width="0.2" points="29.9,170.7 32.1,170.7 33.2,170.2 34.3,170.7 36.4,170.7 
		37.3,170.7 38.4,170.7 38.4,169.7 37.3,168.6 35.3,169.1 34.3,168.6 34.3,158.9 33.2,157.7 27,157.7 27,159.1 32.1,159.6 
		32.1,168.6 30.9,169.2 26.8,168.6 25.7,169.7 25.7,170.7 26.8,170.7 	"/>
	<polygon fill="none" stroke="#FFFFFF" stroke-width="0.2" points="53.5,149.7 49.9,153.5 50.6,154.4 54.7,151.5 55,150 54.3,149.1 
			"/>
	<polygon fill="none" stroke="#FFFFFF" stroke-width="0.2" points="50.2,170.7 52.4,170.7 53.5,170.2 54.5,170.7 56.7,170.7 
		57.6,170.7 58.7,170.7 58.7,169.7 57.6,168.6 55.6,169.1 54.5,168.6 54.5,158.9 53.5,157.7 47.3,157.7 47.3,159.1 52.4,159.6 
		52.4,168.6 51.2,169.2 47.1,168.6 46,169.7 46,170.7 47.1,170.7 	"/>
	<polygon fill="none" stroke="#FFFFFF" stroke-width="0.2" points="71.8,150 68.2,153.8 68.8,154.7 72.6,152 76.4,154.7 77,153.8 
		73.5,150 72.6,150 	"/>
	<polygon fill="none" stroke="#FFFFFF" stroke-width="0.2" points="70.5,170.7 72.6,170.7 73.7,170.2 74.8,170.7 77,170.7 
		77.9,170.7 79,170.7 79,169.7 77.9,168.6 75.8,169.1 74.8,168.6 74.8,158.9 73.7,157.7 67.6,157.7 67.6,159.1 72.6,159.6 
		72.6,168.6 71.5,169.2 67.4,168.6 66.3,169.7 66.3,170.7 67.4,170.7 	"/>
	<polygon fill="none" stroke="#FFFFFF" stroke-width="0.2" points="96.1,169.1 95.1,168.6 95.1,158.9 94,157.7 87.9,157.7 
		87.9,159.1 92.9,159.6 92.9,168.6 91.7,169.2 87.7,168.6 86.6,169.7 86.6,170.7 87.7,170.7 90.8,170.7 92.9,170.7 94,170.2 
		95.1,170.7 97.2,170.7 98.1,170.7 99.2,170.7 99.2,169.7 98.1,168.6 	"/>
	<polygon fill="none" stroke="#FFFFFF" stroke-width="0.2" points="97.4,152.6 96.3,151.5 94.3,151.5 94.3,154.5 97.4,154.5 	"/>
	<polygon fill="none" stroke="#FFFFFF" stroke-width="0.2" points="90.4,151.5 88.4,151.5 88.4,154.5 91.5,154.5 91.5,152.6 	"/>
	<polygon fill="none" stroke="#FFFFFF" stroke-width="0.2" points="111.1,170.7 113.2,170.7 114.3,170.2 115.4,170.7 117.5,170.7 
		118.4,170.7 119.5,170.7 119.5,169.7 118.4,168.6 116.4,169.1 115.4,168.6 115.4,158.9 114.3,157.7 108.2,157.7 108.2,159.1 
		113.2,159.6 113.2,168.6 112,169.2 107.9,168.6 106.9,169.7 106.9,170.7 107.9,170.7 	"/>
	<polygon fill="none" stroke="#FFFFFF" stroke-width="0.2" points="111.2,149.1 110.6,150 110.9,151.5 115,154.4 115.6,153.5 
		112.1,149.7 	"/>
	<path fill="none" stroke="#FFFFFF" stroke-width="0.2" d="M133.7,177.2h1.4l3.7-5.1v-12.8l1-0.5v-1.1h-10.5v1.3l7.3,0.9v12.2
		l-2.4,2.9h-0.5c-2.4,0-4.4-2-4.4-4.4h-2.2c0,1.7,0.7,3.4,1.9,4.6C130.3,176.6,131.9,177.2,133.7,177.2z"/>
	<polygon fill="none" stroke="#FFFFFF" stroke-width="0.2" points="135.7,151.2 135.7,152.3 137.7,153.4 138.8,153.4 138.8,152.3 
		137.7,151.2 	"/>
	<polygon fill="none" stroke="#FFFFFF" stroke-width="0.2" points="150.5,169.7 150.5,165 158.9,170.7 160.2,168.9 152.4,163.8 
		160.2,159.4 159.1,157.5 150.5,162.3 150.5,152.3 149.4,151.2 147.4,151.2 147.4,152.3 148.4,152.8 148.4,169.1 147.4,169.7 
		147.4,170.7 149.4,170.7 	"/>
	<polygon fill="none" stroke="#FFFFFF" stroke-width="0.2" points="175.1,170.2 176.2,170.7 180.4,170.7 180.4,169.7 179.3,168.6 
		177.2,169.1 176.2,168.6 176.2,152.3 175.1,151.2 169,151.2 169,152.6 174,153.1 174,168.6 172.9,169.2 168.8,168.6 167.7,169.7 
		167.7,170.7 174,170.7 	"/>
	<path fill="none" stroke="#FFFFFF" stroke-width="0.2" d="M191.1,169.7v-8.1l1.4-1.7h0.1c0.4,0,1.3,1.2,1.3,3.4l-0.4,3.1l1.8-0.4
		l0.8-2.7c0-0.7-0.1-1.4-0.2-2l1.2-1.5h0.1c0.1,0,0.4,0.2,0.8,1.1c0.3,0.9,0.5,2.1,0.5,3.3c0,1.2-0.2,2.4-0.5,3.3
		c-0.3,0.8-0.7,1.1-0.8,1.1v2.2c0.6,0,1.8-0.3,2.7-2.2c0.5-1.2,0.8-2.7,0.8-4.3c0-1.6-0.3-3.1-0.8-4.3c-0.9-2-2-2.2-2.7-2.2h-1.4
		l-0.5,1.9c-0.3-0.5-0.6-1-1-1.3c-0.5-0.4-1-0.6-1.6-0.6h-1.4l-0.3,0.9l-0.9-0.9h-2v1.1l1,0.5v9.9l-1,0.5v1.1h2L191.1,169.7z"/>
	<path fill="none" stroke="#FFFFFF" stroke-width="0.2" d="M211.4,169.7v-8l2.4-1.7h0.6c1.9,0,3.4,1.5,3.4,3.4v6.3l1.1,1.1h2v-1.1
		l-0.9-0.5v-5.8c0-1.5-0.6-2.9-1.6-4c-1-1-2.3-1.6-3.7-1.6h-1.7l-1.6,2.1v-1.1l-1.1-1.1h-2v1.1l1,0.5v9.9l-1,0.5v1.1h2L211.4,169.7z
		"/>
	<polygon fill="none" stroke="#FFFFFF" stroke-width="0.2" points="233.6,150.7 230.6,152.5 230.6,154.3 231.8,154.3 233.7,152.3 
		235.5,154.3 236.4,154.3 237.3,154.3 239.7,151.6 239.1,150.7 236.4,152.3 	"/>
	<path fill="none" stroke="#FFFFFF" stroke-width="0.2" d="M231.6,169.7v-8l2.4-1.7h0.6c1.9,0,3.4,1.5,3.4,3.4v6.3l1.1,1.1h2v-1.1
		l-0.9-0.5v-5.8c0-1.5-0.6-2.9-1.6-4c-1-1-2.3-1.6-3.7-1.6h-1.7l-1.6,2.1v-1.1l-1.1-1.1h-2v1.1l1,0.5v9.9l-1,0.5v1.1h2L231.6,169.7z
		"/>
	<path fill="none" stroke="#FFFFFF" stroke-width="0.2" d="M251.7,170c0.7,0.5,1.4,0.8,2.2,0.8h2.5c0.8,0,1.5-0.3,2.2-0.8
		c0.6-0.4,1.1-1,1.6-1.8c0.9-1.5,1.3-2.3,1.3-3.8v-0.3c0-1.5-0.5-2.4-1.3-3.8c-0.4-0.8-1-1.4-1.6-1.8c-0.7-0.5-1.4-0.8-2.2-0.8h-2.5
		c-0.8,0-1.5,0.3-2.2,0.8c-0.6,0.4-1.1,1-1.6,1.8c-0.9,1.5-1.3,2.3-1.3,3.8v0.3c0,1.5,0.5,2.4,1.3,3.8
		C250.6,169,251.1,169.6,251.7,170z M251,164.1c0-1.1,0.4-1.6,1-2.7c0.5-0.9,1.2-1.5,1.9-1.5h2.5c0.7,0,1.3,0.5,1.9,1.5
		c0.6,1.1,1,1.6,1,2.7v0.3c0,1.1-0.4,1.6-1,2.7c-0.5,0.9-1.2,1.5-1.9,1.5h-2.5c-0.7,0-1.3-0.5-1.9-1.5c-0.7-1.1-1-1.6-1-2.7V164.1z"
		/>
	<polygon fill="none" stroke="#FFFFFF" stroke-width="0.2" points="276.5,149.7 273,153.5 273.6,154.4 277.8,151.5 278,150 
		277.4,149.1 	"/>
	<path fill="none" stroke="#FFFFFF" stroke-width="0.2" d="M272,170c0.7,0.5,1.4,0.8,2.2,0.8h2.5c0.8,0,1.5-0.3,2.2-0.8
		c0.6-0.4,1.1-1,1.6-1.8c0.9-1.5,1.3-2.3,1.3-3.8v-0.3c0-1.5-0.5-2.4-1.3-3.8c-0.4-0.8-1-1.4-1.6-1.8c-0.7-0.5-1.4-0.8-2.2-0.8h-2.5
		c-0.8,0-1.5,0.3-2.2,0.8c-0.6,0.4-1.1,1-1.6,1.8c-0.9,1.5-1.3,2.3-1.3,3.8v0.3c0,1.5,0.5,2.4,1.3,3.8
		C270.9,169,271.4,169.6,272,170z M271.2,164.1c0-1.1,0.4-1.6,1-2.7c0.5-0.9,1.2-1.5,1.9-1.5h2.5c0.7,0,1.3,0.5,1.9,1.5
		c0.6,1.1,1,1.6,1,2.7v0.3c0,1.1-0.4,1.6-1,2.7c-0.5,0.9-1.2,1.5-1.9,1.5h-2.5c-0.7,0-1.3-0.5-1.9-1.5c-0.7-1.1-1-1.6-1-2.7V164.1z"
		/>
	<polygon fill="none" stroke="#FFFFFF" stroke-width="0.2" points="11.8,181 15.5,183.7 16.2,182.8 12.6,179 11.8,179 10.9,179 
		7.4,182.8 8,183.7 	"/>
	<path fill="none" stroke="#FFFFFF" stroke-width="0.2" d="M15.2,187.5c-0.7-0.5-1.4-0.8-2.2-0.8h-2.5c-0.8,0-1.5,0.3-2.2,0.8
		c-0.6,0.4-1.1,1-1.6,1.8c-0.9,1.5-1.3,2.3-1.3,3.8v0.3c0,1.5,0.5,2.4,1.3,3.8c0.4,0.8,1,1.4,1.6,1.8c0.7,0.5,1.4,0.8,2.2,0.8H13
		c0.8,0,1.5-0.3,2.2-0.8c0.6-0.4,1.1-1,1.6-1.8c0.9-1.5,1.3-2.3,1.3-3.8v-0.3c0-1.5-0.5-2.4-1.3-3.8
		C16.4,188.5,15.8,187.9,15.2,187.5z M16,193.4c0,1.1-0.4,1.6-1,2.7c-0.5,0.9-1.2,1.5-1.9,1.5h-2.5c-0.7,0-1.3-0.5-1.9-1.5
		c-0.7-1.1-1-1.6-1-2.7v-0.3c0-1.1,0.4-1.6,1-2.7c0.5-0.9,1.2-1.5,1.9-1.5H13c0.6,0,1.3,0.5,1.9,1.5c0.7,1.1,1,1.6,1,2.7V193.4z"/>
	<path fill="none" stroke="#FFFFFF" stroke-width="0.2" d="M28.6,199c0.7,0.5,1.4,0.8,2.2,0.8h2.5c0.8,0,1.5-0.3,2.2-0.8
		c0.6-0.4,1.1-1,1.6-1.8c0.9-1.5,1.3-2.3,1.3-3.8v-0.3c0-1.5-0.5-2.4-1.3-3.8c-0.4-0.8-1-1.4-1.6-1.8c-0.7-0.5-1.4-0.8-2.2-0.8h-2.5
		c-0.8,0-1.5,0.3-2.2,0.8c-0.6,0.4-1.1,1-1.6,1.8c-0.9,1.5-1.3,2.3-1.3,3.8v0.3c0,1.5,0.5,2.4,1.3,3.8C27.5,198,28,198.6,28.6,199z
		 M27.9,193.1c0-1.1,0.4-1.6,1-2.7c0.5-0.9,1.2-1.5,1.9-1.5h2.5c0.6,0,1.3,0.5,1.9,1.5c0.7,1.1,1,1.6,1,2.7v0.3c0,1.1-0.4,1.6-1,2.7
		c-0.5,0.9-1.2,1.5-1.9,1.5h-2.5c-0.7,0-1.3-0.5-1.9-1.5c-0.7-1.1-1-1.6-1-2.7V193.1z"/>
	<polygon fill="none" stroke="#FFFFFF" stroke-width="0.2" points="27.6,180.5 27.6,183.5 30.7,183.5 30.7,181.6 29.6,180.5 	"/>
	<polygon fill="none" stroke="#FFFFFF" stroke-width="0.2" points="33.5,180.5 33.5,183.5 36.6,183.5 36.6,181.6 35.5,180.5 	"/>
	<polygon fill="none" stroke="#FFFFFF" stroke-width="0.2" points="50.4,178.1 49.8,179 50,180.5 54.2,183.4 54.8,182.5 51.2,178.7 
			"/>
	<path fill="none" stroke="#FFFFFF" stroke-width="0.2" d="M48.9,199c0.7,0.5,1.4,0.8,2.2,0.8h2.5c0.8,0,1.5-0.3,2.2-0.8
		c0.6-0.4,1.1-1,1.6-1.8c0.9-1.5,1.3-2.3,1.3-3.8v-0.3c0-1.5-0.5-2.4-1.3-3.8c-0.4-0.8-1-1.4-1.6-1.8c-0.7-0.5-1.4-0.8-2.2-0.8h-2.5
		c-0.8,0-1.5,0.3-2.2,0.8c-0.6,0.4-1.1,1-1.6,1.8c-0.9,1.5-1.3,2.3-1.3,3.8v0.3c0,1.5,0.5,2.4,1.3,3.8C47.8,198,48.3,198.6,48.9,199
		z M48.2,193.1c0-1.1,0.4-1.6,1-2.7c0.5-0.9,1.2-1.5,1.9-1.5h2.5c0.6,0,1.3,0.5,1.9,1.5c0.7,1.1,1,1.6,1,2.7v0.3
		c0,1.1-0.4,1.6-1,2.7c-0.5,0.9-1.2,1.5-1.9,1.5h-2.5c-0.7,0-1.3-0.5-1.9-1.5c-0.7-1.1-1-1.6-1-2.7V193.1z"/>
	<path fill="none" stroke="#FFFFFF" stroke-width="0.2" d="M69.2,199c0.7,0.5,1.4,0.8,2.2,0.8h2.5c0.8,0,1.5-0.3,2.2-0.8
		c0.6-0.4,1.1-1,1.6-1.8c0.9-1.5,1.3-2.3,1.3-3.8v-0.3c0-1.5-0.5-2.4-1.3-3.8c-0.4-0.8-1-1.4-1.6-1.8c-0.7-0.5-1.4-0.8-2.2-0.8h-2.5
		c-0.8,0-1.5,0.3-2.2,0.8c-0.6,0.4-1.1,1-1.6,1.8c-0.9,1.5-1.3,2.3-1.3,3.8v0.3c0,1.5,0.5,2.4,1.3,3.8C68.1,198,68.6,198.6,69.2,199
		z M68.5,193.1c0-1.1,0.4-1.6,1-2.7c0.5-0.9,1.2-1.5,1.9-1.5h2.5c0.6,0,1.3,0.5,1.9,1.5c0.7,1.1,1,1.6,1,2.7v0.3
		c0,1.1-0.4,1.6-1,2.7c-0.5,0.9-1.2,1.5-1.9,1.5h-2.5c-0.7,0-1.3-0.5-1.9-1.5c-0.7-1.1-1-1.6-1-2.7V193.1z"/>
	<polygon fill="none" stroke="#FFFFFF" stroke-width="0.2" points="74.2,181.3 71.4,179.7 68.3,181.5 68.3,183.3 69.6,183.3 
		71.4,181.3 73.3,183.3 74.2,183.3 75,183.3 77.5,180.6 76.9,179.7 	"/>
	<path fill="none" stroke="#FFFFFF" stroke-width="0.2" d="M87.5,205.2l1.1,1.1h1v-1.1l0-7.6l1.6,2.2h1.4c1.7,0,3.4-0.7,4.6-1.9
		c1.2-1.2,1.9-2.9,1.9-4.6c0-1.7-0.7-3.4-1.9-4.6c-1.2-1.2-2.9-1.9-4.6-1.9h-1.4l-1.6,2.2v-1.1l-1.1-1.1h-2v1.1l1,0.5V205.2z
		 M89.7,190.6l2.4-1.7h0.5c2.4,0,4.3,1.9,4.3,4.3c0,2.4-2,4.3-4.3,4.3h-0.5l-2.4-1.7V190.6z"/>
	<path fill="none" stroke="#FFFFFF" stroke-width="0.2" d="M113.4,199.7h1.4l1.6-2.1v7.6l1.1,1.1h2v-1.1l-0.9-0.5v-16.3l0.9-0.5
		v-1.1h-2l-1.1,1.1v1.1l-1.5-2.2h-1.4c-1.7,0-3.4,0.7-4.6,1.9c-1.2,1.2-1.9,2.9-1.9,4.6s0.7,3.4,1.9,4.6
		C110,199.1,111.6,199.7,113.4,199.7z M113.4,188.9h0.5l2.4,1.7v5.2l-2.4,1.7h-0.5c-2.4,0-4.3-2-4.3-4.3
		C109,190.9,111,188.9,113.4,188.9z"/>
	<path fill="none" stroke="#FFFFFF" stroke-width="0.2" d="M135.3,186.8h-2.4l-1.5,2v-1l-2.1-1.1h-2.2v1.1l2.1,1.1v8.7l-2.1,1.1v1.1
		h2.1l1.1-0.5l1.1,0.5h2.2v-1.1l-2.2-1.1v-7l2.3-1.7h1.5c1.3,0,2.4,1.1,2.4,2.4h2.2C139.8,188.8,137.8,186.8,135.3,186.8z"/>
	<path fill="none" stroke="#FFFFFF" stroke-width="0.2" d="M152,188.6l6,0.3l1.1,2.2h1.1v-2.2l-1.1-2.2h-7c-2.5,0-4.6,2-4.6,4.6v0.8
		l10.3,3.8c-0.3,1-1.2,2-2.3,1.9l-6-0.3l-1.1-2.1h-1.1v2.2l1.1,2.2h7c2.5,0,4.5-2.1,4.5-4.5v-0.8l-10.3-3.8
		C150,189.6,150.9,188.6,152,188.6z"/>
	<path fill="none" stroke="#FFFFFF" stroke-width="0.2" d="M174,188.2v-4.1l-1.1-2.2h-1.1v6.4l-4.1,0.3v1.3h4.1v5.2l3.7,4.6h1.4
		c1.2,0,2.4-0.3,3.4-0.9V196c-0.8,1-2,1.6-3.4,1.6h-0.5l-2.5-2.4V190h5.3l1.1-1.1v-1.1h-1.1L174,188.2z"/>
	<path fill="none" stroke="#FFFFFF" stroke-width="0.2" d="M197.5,187.8v8l-2.4,1.7h-0.6c-1.9,0-3.4-1.5-3.4-3.4v-6.3l-1.1-1.1l-2,0
		v1.1l0.9,0.5v5.9c0,1.5,0.6,2.9,1.6,4c1,1,2.3,1.6,3.7,1.6h1.7l1.6-2.2v1.1l1.1,1.1h2v-1.1l-1-0.5v-9.8l1-0.5v-1.1h-2L197.5,187.8z
		"/>
	<path fill="none" stroke="#FFFFFF" stroke-width="0.2" d="M217.8,187.8v8l-2.4,1.7h-0.6c-1.9,0-3.4-1.5-3.4-3.4v-6.3l-1.1-1.1l-2,0
		v1.1l0.9,0.5v5.9c0,1.5,0.6,2.9,1.6,4c1,1,2.3,1.6,3.7,1.6h1.7l1.6-2.2v1.1l1.1,1.1h2v-1.1l-1-0.5v-9.8l1-0.5v-1.1h-2L217.8,187.8z
		"/>
	<polygon fill="none" stroke="#FFFFFF" stroke-width="0.2" points="215.7,178.7 212.2,182.5 212.8,183.4 216.9,180.5 217.2,179 
		216.6,178.1 	"/>
	<path fill="none" stroke="#FFFFFF" stroke-width="0.2" d="M241.2,187.8v-1.1h-2l-1.1,1.1v8l-2.4,1.7h-0.6c-1.9,0-3.4-1.5-3.4-3.4
		v-6.3l-1.1-1.1l-2,0v1.1l0.9,0.5v5.9c0,1.5,0.6,2.9,1.6,4c1,1,2.3,1.6,3.7,1.6h1.7l1.6-2.2v1.1l1.1,1.1h2v-1.1l-1-0.5v-9.8
		L241.2,187.8z"/>
	<polygon fill="none" stroke="#FFFFFF" stroke-width="0.2" points="234.8,181 238.6,183.7 239.2,182.8 235.7,179 234.8,179 234,179 
		230.5,182.8 231.1,183.7 	"/>
	<path fill="none" stroke="#FFFFFF" stroke-width="0.2" d="M258.4,187.8v8l-2.4,1.7h-0.6c-1.9,0-3.4-1.5-3.4-3.4v-6.3l-1.1-1.1l-2,0
		v1.1l0.9,0.5v5.9c0,1.5,0.6,2.9,1.6,4c1,1,2.3,1.6,3.7,1.6h1.7l1.6-2.2v1.1l1.1,1.1h2v-1.1l-1-0.5v-9.8l1-0.5v-1.1h-2L258.4,187.8z
		"/>
	<polygon fill="none" stroke="#FFFFFF" stroke-width="0.2" points="256.6,180.5 256.6,183.5 259.7,183.5 259.7,181.6 258.6,180.5 	
		"/>
	<polygon fill="none" stroke="#FFFFFF" stroke-width="0.2" points="250.6,183.5 253.7,183.5 253.7,181.6 252.6,180.5 250.6,180.5 	
		"/>
	<polygon fill="none" stroke="#FFFFFF" stroke-width="0.2" points="277.8,182.5 274.3,178.7 273.5,178.1 272.8,179 273.1,180.5 
		277.2,183.4 	"/>
	<path fill="none" stroke="#FFFFFF" stroke-width="0.2" d="M281.8,187.8v-1.1h-2l-1.1,1.1v8l-2.4,1.7h-0.6c-1.9,0-3.4-1.5-3.4-3.4
		v-6.3l-1.1-1.1l-2,0v1.1l0.9,0.5v5.9c0,1.5,0.6,2.9,1.6,4c1,1,2.3,1.6,3.7,1.6h1.7l1.6-2.2v1.1l1.1,1.1h2v-1.1l-1-0.5v-9.8
		L281.8,187.8z"/>
	<path fill="none" stroke="#FFFFFF" stroke-width="0.2" d="M15,216.8v7.6c-1.2,0.3-2.4,0.9-3.2,1.8c-0.8-0.9-2-1.6-3.2-1.8v-7.6
		l-1.1-1.1h-2v1.1l1,0.5v8.5c2.1,0,4.3,0.7,4.3,2.9h2.2c0-2.1,2.2-2.9,4.3-2.9v-8.5l1-0.5v-1.1h-2L15,216.8z"/>
	<path fill="none" stroke="#FFFFFF" stroke-width="0.2" d="M33,228.7c0,0,0.1,0,0.2,0h2c0-1.8,0.5-2.8,2.3-3.4v-8l1-0.5v-1.1h-2.1
		l-1.1,1.1v7.8c0,0-0.1,0-0.1,0c-0.2,0.1-0.3,0.2-0.4,0.3c-0.3,0.2-0.5,0.5-0.7,0.8c-0.2-0.3-0.4-0.5-0.6-0.8l-0.2-0.2l-0.1-0.1
		v-5.6l-1.1-1.1H31v6.6c0,0,0,0.1,0,0.1c-0.4,0.3-0.6,0.6-0.9,1c-0.2-0.3-0.4-0.5-0.6-0.8c-0.1-0.1-0.2-0.2-0.4-0.3
		c0,0-0.2-0.1-0.2-0.1v-7.8l-1.1-1.1h-2v1.1l0.9,0.5v8c1.8,0.4,2.3,1.7,2.3,3.4c0,0,0,0,0,0h2.1l0-0.5c0-0.5,0.1-1,0.3-1.5
		c0.1-0.2,0.2-0.4,0.3-0.6c0.1-0.1,0.2-0.3,0.3-0.3c0,0,0.1,0.1,0.2,0.1c0.1,0.1,0.2,0.2,0.2,0.3c0.1,0.3,0.2,0.5,0.3,0.9
		c0.1,0.3,0.2,0.6,0.2,0.9l0,0.4l0,0.2C33,228.7,33,228.7,33,228.7z"/>
	<polygon fill="none" stroke="#FFFFFF" stroke-width="0.2" points="47.6,228.7 52.4,223.8 57.2,228.7 58.7,227.2 53.9,222.2 
		58.7,217.2 57.2,215.7 52.4,220.7 47.6,215.7 46,217.2 50.9,222.2 46,227.2 	"/>
	<path fill="none" stroke="#FFFFFF" stroke-width="0.2" d="M67.2,223.2c0,1.5,0.6,2.9,1.6,4c1,1,2.3,1.6,3.7,1.6h1.7l1.6-2.1v4.7
		l-2.4,1.7h-0.6c-1.9,0-3.4-1.5-3.4-3.4h-2.2c0,1.5,0.6,2.9,1.6,4c1,1,2.3,1.6,3.7,1.6h1.7l0.2-0.3l3.5-3.6v-14l1-0.5v-1.1h-2
		l-1.1,1.1v8l-2.4,1.7h-0.6c-1.9,0-3.4-1.5-3.4-3.4v-6.3l-1.1-1.1h-2v1.1l0.9,0.5V223.2z"/>
	<path fill="none" stroke="#FFFFFF" stroke-width="0.2" d="M96.1,216.8v8l-2.4,1.7h-0.6c-1.9,0-3.4-1.5-3.4-3.4v-6.3l-1.1-1.1h-2
		v1.1l0.9,0.5v5.8c0,1.5,0.6,2.9,1.6,4c1,1,2.3,1.6,3.7,1.6h1.7l1.6-2.1v4.7l-2.4,1.7h-0.6c-1.9,0-3.4-1.5-3.4-3.4h-2.2
		c0,1.5,0.6,2.9,1.6,4c1,1,2.3,1.6,3.7,1.6h1.7l0.2-0.3l3.5-3.6v-14l1-0.5v-1.1h-2L96.1,216.8z"/>
	<polygon fill="none" stroke="#FFFFFF" stroke-width="0.2" points="90.5,211.5 91.1,212.4 95.3,209.5 95.5,208 94.9,207.1 94,207.7 
			"/>
	<path fill="none" stroke="#FFFFFF" stroke-width="0.2" d="M107.8,223.2c0,1.5,0.6,2.9,1.6,4c1,1,2.3,1.6,3.7,1.6h1.7l1.6-2.1v4.7
		l-2.4,1.7h-0.6c-1.9,0-3.4-1.5-3.4-3.4h-2.2c0,1.5,0.6,2.9,1.6,4c1,1,2.3,1.6,3.7,1.6h1.7l0.2-0.3l3.5-3.6v-14l1-0.5v-1.1h-2
		l-1.1,1.1v8l-2.4,1.7h-0.6c-1.9,0-3.4-1.5-3.4-3.4v-6.3l-1.1-1.1h-2v1.1l0.9,0.5V223.2z"/>
	<polygon fill="none" stroke="#FFFFFF" stroke-width="0.2" points="114.6,209.5 114.6,212.5 117.7,212.5 117.7,210.6 116.6,209.5 	
		"/>
	<polygon fill="none" stroke="#FFFFFF" stroke-width="0.2" points="108.7,212.5 111.8,212.5 111.8,210.6 110.7,209.5 108.7,209.5 	
		"/>
	<polygon fill="none" stroke="#FFFFFF" stroke-width="0.2" points="138.7,228.7 139.8,226.6 139.8,224.4 138.7,224.4 137.6,226.6 
		128.8,226.6 139.8,219.2 139.8,218 139.8,217.9 138.7,215.7 128.2,215.7 127.1,217.9 127.1,220.1 128.2,220.1 129.3,217.8 
		138,217.9 127.1,225.3 127.1,226.6 128.2,228.7 	"/>
	<path fill="none" stroke="#FFFFFF" stroke-width="0.2" d="M151.1,227.9c0.8,0.6,1.7,0.9,2.7,0.9c0.9,0,1.8-0.3,2.7-0.9
		c0.7-0.5,1.4-1.3,1.9-2.2c1.1-1.8,1.7-4.2,1.7-6.7c0-2.5-0.6-4.9-1.7-6.7c-0.5-0.9-1.2-1.7-1.9-2.2c-0.8-0.6-1.7-0.9-2.7-0.9
		c-0.9,0-1.8,0.3-2.7,0.9c-0.7,0.5-1.4,1.2-2,2.2c-1.1,1.8-1.7,4.2-1.7,6.7c0,2.5,0.6,4.9,1.7,6.7
		C149.6,226.6,150.3,227.3,151.1,227.9z M150.9,213.4c1.1-1.7,2.2-2,2.8-2c0.6,0,1.7,0.3,2.8,2c0.9,1.5,1.4,3.5,1.4,5.6
		c0,2.1-0.5,4.1-1.4,5.6c-1.1,1.8-2.2,2-2.8,2c-0.6,0-1.7-0.3-2.8-2c-0.9-1.5-1.4-3.5-1.4-5.6C149.6,216.8,150.1,214.9,150.9,213.4z
		"/>
	<polygon fill="none" stroke="#FFFFFF" stroke-width="0.2" points="175.3,226.6 175.3,211.4 175.3,210.3 173.1,209.2 167.7,210.1 
		167.7,211.4 173.1,211.4 173.1,226.6 169.7,226.6 167.7,227.7 167.7,228.7 180.3,228.7 180.3,227.7 179.3,226.6 	"/>
	<path fill="none" stroke="#FFFFFF" stroke-width="0.2" d="M192.9,211.4h1.2c2.4,0,4.3,1.8,4.3,4s-2,4-4.3,4c-0.9,0-1.8,0.3-2.6,0.9
		c-0.7,0.5-1.4,1.2-1.9,2.1c-1,1.7-1.6,4-1.6,6.4h12.6v-1.1l-1.1-1.1h-9.2c0.2-1.2,0.6-2.3,1.1-3.1c0.4-0.7,1.3-1.9,2.6-1.9
		c1.7,0,3.4-0.6,4.6-1.8c1.2-1.2,1.9-2.7,1.9-4.4s-0.7-3.2-1.9-4.4c-1.2-1.1-2.8-1.8-4.5-1.8h-2.1l-4.1,3.6l1.4,1.6L192.9,211.4z"/>
	<path fill="none" stroke="#FFFFFF" stroke-width="0.2" d="M220.9,214.7c0-1.5-0.6-2.8-1.7-3.8c-1.1-1-2.5-1.6-4-1.6h-2.4l-4.5,4
		l1.4,1.6l3.9-3.4h1.6c2,0,3.5,1.5,3.5,3.2s-1.6,3.2-3.5,3.2l-3.5,0v1.1l1.1,1.1h2.7c1.8,0.1,3.3,1.5,3.3,3.2c0,1.8-1.6,3.2-3.5,3.2
		h-1.6l-3.9-3.5l-1.4,1.6l4.5,4h2.4c1.5,0,2.9-0.5,4-1.6c1.1-1,1.7-2.4,1.7-3.8s-0.6-2.8-1.7-3.9c-0.2-0.2-0.4-0.3-0.6-0.5
		c0.2-0.2,0.4-0.3,0.6-0.5C220.3,217.5,220.9,216.1,220.9,214.7z"/>
	<polygon fill="none" stroke="#FFFFFF" stroke-width="0.2" points="229.5,219 230.6,220.1 238,220.1 238,227.2 237.1,227.7 
		237.1,228.7 241.2,228.7 241.2,227.7 240.2,227.2 240.2,210.8 241.2,210.3 241.2,209.2 239.1,209.2 238,210.3 238,217.9 
		231.6,217.9 231.6,210.3 230.6,209.2 228.5,209.2 228.5,210.3 229.5,210.8 	"/>
	<path fill="none" stroke="#FFFFFF" stroke-width="0.2" d="M254.9,226.6h-1.2l-3.5-3l-1.4,1.6l4.1,3.6h2.1c1.7,0,3.3-0.7,4.5-1.8
		c1.2-1.2,1.9-2.7,1.9-4.4c0-1.6-0.7-3.2-1.9-4.4c-1.2-1.1-2.8-1.8-4.6-1.8h-4v-5h9.4l1.1-1.1v-1h-11.5l-1.1,1.1v7.2l1.1,1.1h5
		c2.4,0,4.3,1.8,4.3,4C259.3,224.8,257.3,226.6,254.9,226.6z"/>
	<path fill="none" stroke="#FFFFFF" stroke-width="0.2" d="M272.7,227.9c0.8,0.6,1.7,0.9,2.7,0.9c1.7,0,3.3-0.7,4.5-1.8
		c1.2-1.2,1.8-2.7,1.8-4.4c0-1.7-0.6-3.2-1.8-4.4c-1.2-1.1-2.8-1.8-4.5-1.8c-1.4,0-2.7,0.7-3.7,1.8c-0.1,0.2-0.3,0.3-0.4,0.5
		c0.1-2,0.5-3.9,1.4-5.4c1-1.7,2.2-2,2.8-2h1.5l3.4,3l1.4-1.6l-4.1-3.5h-2.3c-0.9,0-1.8,0.3-2.7,0.9c-0.8,0.5-1.4,1.3-2,2.2
		c-1.1,1.8-1.7,4.2-1.7,6.7c0,2.5,0.6,4.9,1.7,6.7C271.3,226.6,272,227.3,272.7,227.9z M275.4,218.6c2.3,0,4.2,1.8,4.2,4
		c0,2.2-1.9,4-4.2,4c-0.6,0-1.7-0.3-2.8-2c-0.3-0.6-0.7-1.2-0.9-2C272.5,220.2,273.9,218.6,275.4,218.6z"/>
	<polygon fill="none" stroke="#FFFFFF" stroke-width="0.2" points="5.5,256.5 7.2,257.7 18.1,241.9 18.1,239.3 17,238.2 5.5,238.2 
		5.5,239.3 6.5,240.4 15.9,240.4 15.9,241.3 	"/>
	<path fill="none" stroke="#FFFFFF" stroke-width="0.2" d="M26.3,250.1c-0.3,0.7-0.5,1.4-0.5,2.2c0,0.8,0.2,1.5,0.5,2.2
		c0.3,0.6,0.8,1.2,1.4,1.7c1.2,1,2.7,1.5,4.4,1.5c1.6,0,3.2-0.5,4.4-1.5c0.6-0.5,1.1-1.1,1.4-1.7c0.3-0.7,0.5-1.4,0.5-2.2
		c0-0.8-0.2-1.5-0.5-2.2c-0.3-0.7-0.8-1.2-1.4-1.7c-0.3-0.2-0.5-0.4-0.8-0.6c0.3-0.2,0.5-0.3,0.8-0.5c0.6-0.5,1.1-1,1.4-1.7
		c0.4-0.7,0.5-1.4,0.5-2.2c0-0.7-0.2-1.5-0.5-2.1c-0.3-0.6-0.8-1.2-1.4-1.7c-1.2-0.9-2.7-1.5-4.4-1.5c-1.7,0-3.2,0.5-4.4,1.5
		c-0.6,0.5-1.1,1-1.4,1.7c-0.4,0.7-0.5,1.4-0.5,2.1c0,0.8,0.2,1.5,0.5,2.2c0.3,0.6,0.8,1.2,1.4,1.7c0.3,0.2,0.5,0.4,0.8,0.5
		c-0.3,0.2-0.5,0.4-0.8,0.6C27.1,248.9,26.6,249.5,26.3,250.1z M27.9,243.5c0-0.8,0.4-1.5,1.1-2.1c0.8-0.6,1.8-1,3-1
		c1.1,0,2.2,0.4,3,1c0.7,0.6,1.1,1.3,1.1,2.1c0,0.8-0.4,1.5-1.1,2.1c-0.8,0.6-1.9,1-3,1c-1.2,0-2.2-0.4-3-1
		C28.3,245,27.9,244.3,27.9,243.5z M29,250.1c0.8-0.7,1.9-1,3-1c1.1,0,2.2,0.4,3,1c0.7,0.6,1.1,1.4,1.1,2.2s-0.4,1.6-1.1,2.2
		c-0.8,0.7-1.9,1-3,1c-1.1,0-2.2-0.4-3-1c-0.7-0.6-1.1-1.4-1.1-2.2S28.3,250.7,29,250.1z"/>
	<path fill="none" stroke="#FFFFFF" stroke-width="0.2" d="M52.4,255.6h-1.5l-3.4-3l-1.4,1.6l4.1,3.5h2.3c0.9,0,1.8-0.3,2.7-0.9
		c0.7-0.5,1.4-1.2,2-2.2c1.1-1.8,1.7-4.2,1.7-6.7c0-2.5-0.6-4.9-1.7-6.7c-0.5-0.9-1.2-1.7-2-2.2c-0.8-0.6-1.7-0.9-2.7-0.9
		c-1.7,0-3.3,0.6-4.5,1.8s-1.9,2.7-1.9,4.4s0.7,3.2,1.9,4.4s2.8,1.8,4.5,1.8c1.4,0,2.6-0.6,3.7-1.8c0.1-0.2,0.3-0.3,0.4-0.5
		c0,2-0.5,3.9-1.4,5.3C54,255.3,52.9,255.6,52.4,255.6z M52.4,248.4c-2.3,0-4.2-1.8-4.2-4s1.9-4,4.2-4c0.6,0,1.7,0.3,2.7,2
		c0.4,0.6,0.7,1.2,0.9,2C55.2,246.8,53.8,248.4,52.4,248.4z"/>
	<polygon fill="none" stroke="#FFFFFF" stroke-width="0.2" points="79,238.7 77.1,237.7 66.3,257.2 68.2,258.2 	"/>
	<polygon fill="none" stroke="#FFFFFF" stroke-width="0.2" points="89.1,246.8 91.9,245.2 91.9,248.4 94,248.4 94,245.2 96.8,246.8 
		97.9,244.9 95.1,243.3 97.9,241.7 96.8,239.8 94,241.4 94,238.2 91.9,238.2 91.9,241.4 89.1,239.8 88,241.7 90.8,243.3 88,244.9 	
		"/>
	<polygon fill="none" stroke="#FFFFFF" stroke-width="0.2" points="106.9,238.7 117.6,258.2 119.5,257.2 108.8,237.7 	"/>
	<polygon fill="none" stroke="#FFFFFF" stroke-width="0.2" points="130.9,252 136.1,252 136.1,249.1 133.9,247 130.9,247 	"/>
	<polygon fill="none" stroke="#FFFFFF" stroke-width="0.2" points="155.3,245.8 154.2,244.7 152.2,244.7 152.2,247.7 155.3,247.7 	
		"/>
	<polygon fill="none" stroke="#FFFFFF" stroke-width="0.2" points="152.2,257.7 155.3,257.7 155.3,255.9 154.2,254.8 152.2,254.8 	
		"/>
	<polygon fill="none" stroke="#FFFFFF" stroke-width="0.2" points="176.2,254.4 175.1,253.3 174.3,254 171.9,258 173.1,259.2 
		176.2,256 	"/>
	<polygon fill="none" stroke="#FFFFFF" stroke-width="0.2" points="199.8,255.9 198.7,254.8 197.2,254.8 197.2,257.7 199.8,257.7 	
		"/>
	<polygon fill="none" stroke="#FFFFFF" stroke-width="0.2" points="188.9,254.8 188.9,257.7 191.5,257.7 191.5,255.9 190.3,254.8 	
		"/>
	<polygon fill="none" stroke="#FFFFFF" stroke-width="0.2" points="195.6,255.9 194.5,254.8 193,254.8 193,257.7 195.6,257.7 	"/>
	<polygon fill="none" stroke="#FFFFFF" stroke-width="0.2" points="213.1,254.8 213.1,257.7 216.2,257.7 216.2,255.9 215.1,254.8 	
		"/>
	<polygon fill="none" stroke="#FFFFFF" stroke-width="0.2" points="213,239.3 213,252.1 215,252.1 216.2,239.3 216.2,238.2 
		214.2,238.2 	"/>
	<polygon fill="none" stroke="#FFFFFF" stroke-width="0.2" points="233.3,263.2 234.4,264.2 236.4,264.2 236.4,263.2 235.3,250.4 
		233.3,250.4 	"/>
	<polygon fill="none" stroke="#FFFFFF" stroke-width="0.2" points="236.4,246.2 236.4,244.7 233.3,244.7 233.3,247.7 235.3,247.7 	
		"/>
	<path fill="none" stroke="#FFFFFF" stroke-width="0.2" d="M257.8,244.3h-2.8l1.4-4.8l-2.1-0.6l-1.6,5.4H250v2.2h2.1l-1.2,3.9h-2
		v2.2h1.4l-1.4,4.5l2.1,0.6l1.6-5.1h2.8l-1.4,4.5l2.1,0.6l1.6-5.1h2.8v-2.2h-2.1l1.2-3.9h2.1v-2.2H260l1.4-4.8l-2.1-0.6L257.8,244.3
		z M255.9,250.4h-2.8l1.2-3.9h2.8L255.9,250.4z"/>
	<polygon fill="none" stroke="#FFFFFF" stroke-width="0.2" points="277.2,255.4 275.9,254.3 273.6,254.3 273.6,257.7 277.2,257.7 	
		"/>
	<polygon fill="none" stroke="#FFFFFF" stroke-width="0.2" points="12.5,277.3 10,277.3 10,280.7 13.6,280.7 13.6,278.4 	"/>
	<path fill="none" stroke="#FFFFFF" stroke-width="0.2" d="M31.8,269.4c2.4,0,4.3,1.8,4.3,4c0,1.8-1.3,3.4-3.1,3.8h-1.2l-1.3,1.2
		v2.6h2.3v-1.6c1.3-0.2,2.6-0.8,3.6-1.7c1.2-1.2,1.9-2.7,1.9-4.4s-0.7-3.2-1.9-4.4c-1.2-1.1-2.8-1.8-4.5-1.8h-2.1l-4.1,3.5v2.9
		l4.9-4.3H31.8z"/>
	<polygon fill="none" stroke="#FFFFFF" stroke-width="0.2" points="32.5,283.8 30.5,283.8 30.5,286.7 33.6,286.7 33.6,284.9 	"/>
	<polygon fill="none" stroke="#FFFFFF" stroke-width="0.2" points="53.9,275.2 53.9,273.7 50.8,273.7 50.8,276.7 52.8,276.7 	"/>
	<path fill="none" stroke="#FFFFFF" stroke-width="0.2" d="M58.7,286.8l-4.9,4.3h-1.2c-2.4,0-4.3-1.8-4.3-4c0-1.8,1.4-3.4,3.2-3.8
		h1.2l1.1-1.1v-2.6h-2.2v1.5c-1.4,0.2-2.6,0.8-3.6,1.7c-1.2,1.2-1.9,2.7-1.9,4.4s0.7,3.2,1.9,4.4c1.2,1.1,2.8,1.8,4.5,1.8h2.1
		l4.1-3.5V286.8z"/>
	<polygon fill="none" stroke="#FFFFFF" stroke-width="0.2" points="69,272.2 70.5,272.2 71.6,271.1 71.6,266.7 69,266.7 	"/>
	<polygon fill="none" stroke="#FFFFFF" stroke-width="0.2" points="76.3,271.1 76.3,266.7 73.7,266.7 73.7,272.2 75.2,272.2 	"/>
	<polygon fill="none" stroke="#FFFFFF" stroke-width="0.2" points="94,272.4 94,267.2 91.4,267.2 91.4,273.7 92.6,273.7 	"/>
	<polygon fill="none" stroke="#FFFFFF" stroke-width="0.2" points="115,274.8 113.8,273.7 111.8,273.7 111.8,276.7 115,276.7 	"/>
	<polygon fill="none" stroke="#FFFFFF" stroke-width="0.2" points="112.3,288.2 115.4,285 115.4,283.4 114.2,282.3 113.5,283 
		111.1,287 	"/>
	<polygon fill="none" stroke="#FFFFFF" stroke-width="0.2" points="127.1,286.2 129,287.2 139.8,267.7 137.9,266.7 	"/>
	<polygon fill="none" stroke="#FFFFFF" stroke-width="0.2" points="159.9,289.9 159.9,288.8 158.9,288.8 147.6,289.9 147.6,291 
		158.9,291 	"/>
	<polygon fill="none" stroke="#FFFFFF" stroke-width="0.2" points="169.7,276.8 170.8,277.9 173.3,277.9 173.3,286.7 174.4,287.8 
		177.9,287.8 179,286.7 179,285.7 175.5,285.7 175.5,277.9 174.4,276.8 175.5,275.7 175.5,268.3 179,268.3 179,267.2 177.9,266.2 
		174.4,266.2 173.3,267.2 173.4,267.2 173.3,267.3 173.3,275.7 170.8,275.7 	"/>
	<polygon fill="none" stroke="#FFFFFF" stroke-width="0.2" points="190,267.2 190,268.3 193.5,268.3 193.5,275.7 194.6,276.8 
		193.5,277.9 193.5,285.7 190,285.7 190,286.7 191.1,287.8 194.6,287.8 195.7,286.7 195.7,277.9 198.2,277.9 199.3,276.8 
		198.2,275.7 195.7,275.7 195.7,267.3 195.6,267.2 195.7,267.2 194.6,266.2 191.1,266.2 	"/>
	<polygon fill="none" stroke="#FFFFFF" stroke-width="0.2" points="211.5,267.2 211.5,286.7 212.6,287.8 217.6,287.8 218.7,286.7 
		218.7,285.7 213.7,285.7 213.7,268.3 218.7,268.3 218.7,267.2 217.6,266.2 212.6,266.2 	"/>
	<polygon fill="none" stroke="#FFFFFF" stroke-width="0.2" points="230.7,285.7 230.7,286.7 231.8,287.8 236.8,287.8 237.9,286.7 
		237.9,267.2 236.8,266.2 231.8,266.2 230.7,267.2 230.7,268.3 235.8,268.3 235.8,285.7 	"/>
	<path fill="none" stroke="#FFFFFF" stroke-width="0.2" d="M255.9,270.6c0.9-1.5,2.1-2.3,3.4-2.3v-2.2c-1,0-2.1,0.3-3,0.9
		c-0.9,0.6-1.6,1.4-2.3,2.4c-1.2,2-2,4.7-2,7.5s0.7,5.5,2,7.5c0.6,1,1.4,1.8,2.3,2.4c0.9,0.6,1.9,1,3,1v-2.2c-1.2,0-2.4-0.8-3.4-2.3
		c-0.5-0.8-0.9-1.7-1.2-2.8c-0.3-1.1-0.4-2.3-0.4-3.5s0.1-2.4,0.4-3.5C255,272.4,255.4,271.4,255.9,270.6z"/>
	<path fill="none" stroke="#FFFFFF" stroke-width="0.2" d="M274.7,283.3c-0.9,1.5-2.1,2.3-3.4,2.3v2.2c1,0,2.1-0.3,3-1
		c0.8-0.6,1.6-1.4,2.2-2.4c1.3-2,2-4.7,2-7.5s-0.7-5.5-2-7.5c-0.6-1-1.4-1.8-2.2-2.4c-0.9-0.6-2-0.9-3-0.9v2.2
		c1.2,0,2.4,0.8,3.4,2.3c0.5,0.8,0.9,1.8,1.2,2.8c0.3,1.1,0.4,2.3,0.4,3.5s-0.2,2.4-0.4,3.5C275.6,281.5,275.2,282.5,274.7,283.3z"
		/>
	<polygon fill="none" stroke="#FFFFFF" stroke-width="0.2" points="5.9,310.1 16.7,310.1 17.7,309 17.7,308 16.7,308 5.9,309 	"/>
	<polygon fill="none" stroke="#FFFFFF" stroke-width="0.2" points="29,310.1 34.1,310.1 35.1,309 35.1,308 34.1,308 29,309 	"/>
	<polygon fill="none" stroke="#FFFFFF" stroke-width="0.2" points="56.2,309 56.2,308 55.1,308 48.5,309 48.5,310.1 55.1,310.1 	"/>
	<polygon fill="none" stroke="#FFFFFF" stroke-width="0.2" points="70.3,308.6 70.3,309.4 74,313 74.9,312.4 72.3,308.6 75,304.8 
		74.1,304.2 70.3,307.7 	"/>
	<polygon fill="none" stroke="#FFFFFF" stroke-width="0.2" points="91.5,313.1 95.3,309.6 95.3,308.7 95.3,307.8 91.5,304.3 
		90.6,304.9 93.2,308.7 90.6,312.4 	"/>
	<polygon fill="none" stroke="#FFFFFF" stroke-width="0.2" points="115.7,316.8 116.9,315.7 116.8,311.3 114.2,311.3 114.3,316.8 	
		"/>
	<polygon fill="none" stroke="#FFFFFF" stroke-width="0.2" points="109.6,316.8 111.1,316.8 112.2,315.7 112.2,311.3 109.6,311.3 	
		"/>
	<polygon fill="none" stroke="#FFFFFF" stroke-width="0.2" points="137.1,295.9 135.7,295.9 134.5,297 134.5,301.4 137.1,301.4 	"/>
	<polygon fill="none" stroke="#FFFFFF" stroke-width="0.2" points="129.9,297 129.9,301.4 132.5,301.4 132.5,295.9 131,295.9 	"/>
	<polygon fill="none" stroke="#FFFFFF" stroke-width="0.2" points="150.1,301.2 151.6,301.2 152.7,300.1 152.7,295.7 150.1,295.7 	
		"/>
	<polygon fill="none" stroke="#FFFFFF" stroke-width="0.2" points="154.8,301.2 156.3,301.2 157.4,300.1 157.4,295.7 154.8,295.7 	
		"/>
	<polygon fill="none" stroke="#FFFFFF" stroke-width="0.2" points="172.7,297.6 172.7,302.7 175.3,302.7 175.3,296.2 174.1,296.2 	
		"/>
	<polygon fill="none" stroke="#FFFFFF" stroke-width="0.2" points="193,302.7 194.3,302.7 195.6,301.4 195.6,296.2 193,296.2 	"/>
	<polygon fill="none" stroke="#FFFFFF" stroke-width="0.2" points="214.5,317 215.9,315.7 215.9,310.6 213.3,310.6 213.3,317 	"/>
	<path fill="none" stroke="#FFFFFF" stroke-width="0.2" d="M257.2,302.7v-2.2H255v2.2c-1.6,0.1-3.1,0.7-4.3,1.9
		c-1.2,1.2-1.9,2.9-1.9,4.6c0,1.7,0.7,3.4,1.9,4.6c1.2,1.1,2.7,1.8,4.3,1.9v2.1h2.2v-2.1h2.6l1.7-2.4v-1.6l-2.5,1.8h-1.7v-8.7h1.7
		l2.5,1.8v-1.7l-1.7-2.3H257.2z M251,309.2c0-2.3,1.8-4.1,4-4.3v8.6C252.8,313.4,251,311.5,251,309.2z"/>
	<path fill="none" stroke="#FFFFFF" stroke-width="0.2" d="M280.8,306.6v-0.2c0-1.1-0.3-1.8-0.8-2.8l1.9-2l-1.6-1.5l-1.7,1.7
		c-0.1-0.1-0.1-0.1-0.2-0.2c-0.6-0.4-1.2-0.7-1.9-0.7h-2c-0.7,0-1.4,0.2-1.9,0.7c-0.1,0.1-0.1,0.1-0.2,0.2l-1.7-1.8l-1.6,1.5l1.9,2
		c-0.5,0.9-0.9,1.7-0.9,2.8v0.2c0,1.2,0.4,1.9,1,3l-2,2.1l1.6,1.5l1.8-1.9c0,0,0,0,0.1,0c0.5,0.4,1.2,0.7,1.9,0.7h2
		c0.7,0,1.4-0.2,1.9-0.7c0,0,0,0,0,0l1.8,1.9l1.6-1.5l-2-2.1C280.4,308.5,280.8,307.8,280.8,306.6z M276.4,309.7h-2
		c-0.4,0-0.9-0.4-1.3-1.1c-0.5-0.9-0.8-1.2-0.8-2.1v-0.2c0-0.8,0.3-1.1,0.8-2.1c0.4-0.7,0.8-1,1.3-1h2c0.4,0,0.9,0.3,1.3,1
		c0.5,0.9,0.8,1.2,0.8,2.1v0.2c0,0.8-0.3,1.1-0.8,2.1C277.3,309.4,276.9,309.7,276.4,309.7z"/>
	<path fill="none" stroke="#FFFFFF" stroke-width="0.2" d="M10.7,344.7v1.6h2.2v-1.6h0.7c2.5,0,4.6-2.1,4.6-4.5v-0.8l-5.2-5v-7.2
		l3.1,0.1l1.1,2.2h1.1v-2.2l-1.1-2.2h-4.2v-1.3h-2.2v1.3H10c-2.5,0-4.5,2-4.5,4.6v0.8l5.2,5v7.2l-3.1-0.1l-1.1-2.1H5.5v2.2l1.1,2.2
		H10.7z M7.5,329.4c0.3-1,1.5-2.3,2.5-2.2l0.7,0v5.2L7.5,329.4z M12.9,337.6l3.2,3c-0.3,1-1.5,2.2-2.5,2.2l-0.7,0V337.6z"/>
	<path fill="none" stroke="#FFFFFF" stroke-width="0.2" d="M33.6,327.4h1.2l3.6,2.7v-2.5l-2.8-2.4h-2.1c-0.9,0-1.9,0.3-2.7,0.9
		c-0.8,0.5-1.5,1.3-2.1,2.2c-0.8,1.3-1.3,2.9-1.6,4.6l-1.4,0.1v1.1h1.3c0,0.3,0,0.6,0,0.9c0,0.6,0,1.2,0.1,1.8l-1.4,0.2v1.1h1.6
		c0.3,1.4,0.8,2.6,1.4,3.7c0.6,0.9,1.3,1.6,2.1,2.2c0.8,0.6,1.8,0.9,2.7,0.9h2.1l2.8-2.5v-2.4l-3.6,2.7h-1.2c-1.1,0-2.1-0.7-2.9-2.1
		c-0.5-0.7-0.8-1.6-1.1-2.5H35l1.1-1.1v-1.1H35l-5.7,0.7c-0.1-0.5-0.1-1-0.1-1.5c0-0.3,0-0.6,0.1-0.9h7.5l1.1-1.1V332h-1.1l-7.3,0.7
		c0.2-1.2,0.6-2.3,1.2-3.3C31.5,328.1,32.5,327.4,33.6,327.4z"/>
	<path fill="none" stroke="#FFFFFF" stroke-width="0.2" d="M58.3,343.6l-7.7-0.7c0.1-0.2,0.3-0.4,0.4-0.6c0.9-1.5,1.3-3.4,1.3-5.4
		V335c0,0,0,0,0-0.1h3.3l1.1-1.1v-1.1h-1.1l-3.1,0.4c0.2-1.4,0.6-2.7,1.3-3.8c0.8-1.3,1.8-2,2.9-2v-2.2c-0.9,0-1.9,0.3-2.7,0.9
		c-0.8,0.5-1.5,1.3-2.1,2.2c-0.9,1.5-1.5,3.3-1.7,5.2l-2.5,0.3v1.1h2.4c0,0,0,0,0,0.1v1.9c0,1.6-0.4,3.2-1,4.3
		c-0.5,0.8-1.1,1.3-1.6,1.4l-1-0.1v1.2l1.1,1.1h10.8V343.6z"/>
	<path fill="none" stroke="#FFFFFF" stroke-width="0.2" d="M73.7,344.7V342H77l1.1-1.1v-1.1H77l-3.2,0.4v-2.4H77l1.1-1.1v-1.1H77
		l-3.2,0.3c0.1-0.6,0.3-1.1,0.8-1.6c0.5-0.6,1.3-0.8,2.1-0.9l1.4-1.8v-4.9l1-0.5v-1.1h-2l-1.1,1.1v6.1c-1.2,0-2.4,0.7-3.2,1.6
		c-0.8-0.9-2-1.6-3.2-1.6v-6.1l-1.1-1.1h-2v1.1l1,0.5v4.9l1.4,1.8h0.3c0.2,0,0.3,0,0.5,0.1c0.4,0.1,0.8,0.3,1.1,0.6
		c0.6,0.5,0.9,1.2,1,2l-4.3,0.5v1.1h4.3v2.6l-4.3,0.5v1.1h4.3v2.8H73.7z"/>
	<polygon fill="none" stroke="#FFFFFF" stroke-width="0.2" points="94.8,337.6 90.8,335.9 86.7,337.7 86.7,339.5 87.9,339.5 
		90.8,337.2 94,339.5 94.8,339.5 95.7,339.5 99.2,336.7 98.6,335.9 	"/>
	<polygon fill="none" stroke="#FFFFFF" stroke-width="0.2" points="94.8,333.5 90.8,331.7 86.7,333.6 86.7,335.4 87.9,335.4 
		90.8,333.1 94,335.4 94.8,335.4 95.7,335.4 99.2,332.6 98.6,331.7 	"/>
	<polygon fill="none" stroke="#FFFFFF" stroke-width="0.2" points="108.6,337.9 109.8,337.9 111.7,335.8 113.6,337.9 114.4,337.9 
		115.3,337.9 117.8,335.2 117.1,334.3 114.4,335.9 111.7,334.3 108.6,336.1 	"/>
	<polygon fill="none" stroke="#FFFFFF" stroke-width="0.2" points="127.5,339.1 138.3,339.1 139.4,338 139.4,337 138.3,337 
		127.5,338 	"/>
	<polygon fill="none" stroke="#FFFFFF" stroke-width="0.2" points="132.2,344.7 134.8,344.7 134.8,342.9 133.7,341.8 132.2,341.8 	
		"/>
	<polygon fill="none" stroke="#FFFFFF" stroke-width="0.2" points="132.2,331.7 132.2,334.7 134.8,334.7 134.8,332.8 133.7,331.7 	
		"/>
	<path fill="none" stroke="#FFFFFF" stroke-width="0.2" d="M158.9,331.7l-1.2,1.2c-0.2-0.1-0.3-0.3-0.5-0.4
		c-0.7-0.5-1.4-0.8-2.2-0.8h-2.5c-0.8,0-1.5,0.3-2.2,0.8c-0.6,0.4-1.1,1-1.6,1.8c-0.9,1.5-1.3,2.3-1.3,3.8v0.3
		c0,1.4,0.4,2.2,1.1,3.5l-1.3,1.3l1.4,1.6l1.2-1.1c0.2,0.1,0.3,0.3,0.5,0.4c0.7,0.5,1.4,0.8,2.2,0.8h2.5c0.8,0,1.5-0.3,2.2-0.8
		c0.6-0.4,1.1-1,1.6-1.8c0.9-1.5,1.3-2.3,1.3-3.8v-0.3c0-1.3-0.4-2.2-1.1-3.5l1.3-1.3L158.9,331.7z M149.6,338.4v-0.3
		c0-1.1,0.4-1.6,1-2.7c0.5-0.9,1.2-1.5,1.9-1.5h2.5c0.4,0,0.7,0.2,1.1,0.5l-6,5.9C149.8,339.7,149.6,339.2,149.6,338.4z
		 M157.9,338.1v0.3c0,1.1-0.4,1.6-1,2.7c-0.5,0.9-1.2,1.5-1.9,1.5h-2.5c-0.4,0-0.7-0.2-1.1-0.5l6-5.9
		C157.7,336.8,157.9,337.3,157.9,338.1z"/>
	<polygon fill="none" stroke="#FFFFFF" stroke-width="0.2" points="167.8,338 167.8,339.1 179.2,339.1 180.2,338 180.2,337 
		179.2,337 	"/>
	<polygon fill="none" stroke="#FFFFFF" stroke-width="0.2" points="167.8,333.9 167.8,334.9 179.2,334.9 180.2,333.9 180.2,332.8 
		179.2,332.8 	"/>
	<polygon fill="none" stroke="#FFFFFF" stroke-width="0.2" points="189.2,341 199.6,336.6 199.9,335.8 199.9,335.1 199.6,334.3 
		189.2,329.9 188.7,330.8 197.2,335.4 188.7,340 	"/>
	<polygon fill="none" stroke="#FFFFFF" stroke-width="0.2" points="208.7,343.7 208.7,344.7 219.5,344.7 220.5,343.7 220.5,342.6 
		219.5,342.6 	"/>
	<polygon fill="none" stroke="#FFFFFF" stroke-width="0.2" points="209.5,340.2 219.8,335.8 220.2,335 220.2,334.3 219.8,333.5 
		209.5,329.1 209,330 217.4,334.7 209,339.2 	"/>
	<path fill="none" stroke="#FFFFFF" stroke-width="0.2" d="M235.4,338.1c0-0.9-0.1-1.4-0.5-2.2c-0.4,0.8-0.5,1.3-0.5,2.2v0.3
		c0,0.9,0.1,1.4,0.5,2.2c0.4-0.8,0.5-1.3,0.5-2.2V338.1z"/>
	<path fill="none" stroke="#FFFFFF" stroke-width="0.2" d="M238.9,332.5c-0.7-0.5-1.4-0.8-2.2-0.8c-0.6,0-1.3,0.4-1.9,0.8
		c-0.6-0.4-1.2-0.8-1.9-0.8c-0.8,0-1.5,0.3-2.2,0.8c-0.6,0.4-0.9,1-1.3,1.8c-0.9,1.5-1.1,2.3-1.1,3.8v0.3c0,1.5,0.2,2.4,1.1,3.8
		c0.4,0.8,0.7,1.4,1.3,1.8c0.7,0.5,1.4,0.8,2.2,0.8c0.6,0,1.3-0.4,1.9-0.8c0.6,0.4,1.2,0.8,1.9,0.8c0.8,0,1.5-0.3,2.2-0.8
		c0.6-0.4,0.9-1,1.3-1.8c0.9-1.5,1.1-2.3,1.1-3.8v-0.3c0-1.5-0.2-2.4-1.1-3.8C239.8,333.5,239.5,332.9,238.9,332.5z M239.1,338.4
		c0,1.1-0.1,1.6-0.8,2.7c-0.5,0.9-1,1.5-1.6,1.5c-0.7,0-1.1-0.5-1.6-1.5c-0.1-0.2-0.2-0.3-0.3-0.5c-0.1,0.2-0.2,0.3-0.3,0.5
		c-0.5,0.9-1,1.5-1.6,1.5c-0.7,0-1.1-0.5-1.6-1.5c-0.7-1.1-0.8-1.6-0.8-2.7v-0.3c0-1.1,0.1-1.6,0.8-2.7c0.5-0.9,1-1.5,1.6-1.5
		c0.6,0,1.1,0.5,1.6,1.5c0.1,0.2,0.2,0.3,0.3,0.5c0.1-0.2,0.2-0.3,0.3-0.5c0.5-0.9,1-1.5,1.6-1.5c0.6,0,1.1,0.5,1.6,1.5
		c0.6,1.1,0.8,1.6,0.8,2.7V338.4z"/>
	<polygon fill="none" stroke="#FFFFFF" stroke-width="0.2" points="260.2,329.9 249.9,334.3 249.5,335.1 249.5,335.8 249.9,336.6 
		260.2,341 260.8,340.1 252.3,335.5 260.8,330.9 	"/>
	<polygon fill="none" stroke="#FFFFFF" stroke-width="0.2" points="280.5,329.1 270.2,333.5 269.8,334.3 269.8,335 270.2,335.8 
		280.5,340.1 281,339.3 272.6,334.7 281,330.1 	"/>
	<polygon fill="none" stroke="#FFFFFF" stroke-width="0.2" points="269.5,343.7 270.6,344.7 281.4,344.7 281.4,343.7 270.6,342.6 
		269.5,342.6 	"/>
	<polygon fill="none" stroke="#FFFFFF" stroke-width="0.2" points="5.6,368.1 16.9,368.1 18,367 18,366 16.9,366 5.6,367 	"/>
	<polygon fill="none" stroke="#FFFFFF" stroke-width="0.2" points="36.9,360.7 32.1,365.7 27.3,360.7 25.7,362.2 30.6,367.2 
		25.7,372.2 27.3,373.7 32.1,368.8 36.9,373.7 38.5,372.2 33.6,367.2 38.5,362.2 	"/>
	<polygon fill="none" stroke="#FFFFFF" stroke-width="0.2" points="57.2,363.9 58.3,362.9 58.3,361.8 57.2,361.8 54.7,362 
		56.7,358.4 55,357.3 52.3,362.3 46.4,362.9 46.4,363.9 51.4,363.9 49.9,366.7 46.4,367 46.4,368.1 49.1,368.1 47.5,371.1 
		49.1,372.1 51.3,368.1 57.2,368.1 58.3,367 58.3,366 57.2,366 52.2,366.4 53.6,363.9 	"/>
	<path fill="none" stroke="#FFFFFF" stroke-width="0.2" d="M69,360.8c1.7,0,3.1-1.4,3.1-3.1s-1.4-3.1-3.1-3.1s-3.1,1.4-3.1,3.1
		S67.3,360.8,69,360.8z M69,356.4c0.7,0,1.3,0.6,1.3,1.3c0,0.7-0.6,1.3-1.3,1.3c-0.7,0-1.3-0.6-1.3-1.3
		C67.7,356.9,68.3,356.4,69,356.4z"/>
	<path fill="none" stroke="#FFFFFF" stroke-width="0.2" d="M76.3,367.2c-1.7,0-3.1,1.4-3.1,3.1c0,1.7,1.4,3.1,3.1,3.1
		s3.1-1.4,3.1-3.1C79.4,368.7,78,367.2,76.3,367.2z M76.3,371.7c-0.7,0-1.3-0.6-1.3-1.3c0-0.7,0.6-1.3,1.3-1.3
		c0.7,0,1.3,0.6,1.3,1.3C77.6,371.1,77,371.7,76.3,371.7z"/>
	<polygon fill="none" stroke="#FFFFFF" stroke-width="0.2" points="68.2,374.2 79,354.7 77.1,353.7 66.3,373.2 	"/>
	<polygon fill="none" stroke="#FFFFFF" stroke-width="0.2" points="94,362.4 94,356.8 91.8,356.8 91.8,362.6 86.7,363.1 86.7,364.2 
		91.8,364.2 91.8,369.8 94,369.8 94,364.2 98,364.2 99.1,363.1 99.1,362 98,362 	"/>
	<polygon fill="none" stroke="#FFFFFF" stroke-width="0.2" points="114.3,362.4 114.3,356.8 112.1,356.8 112.1,362.6 107,363.1 
		107,364.2 112.1,364.2 112.1,369.8 114.3,369.8 114.3,364.2 118.3,364.2 119.4,363.1 119.4,362 118.3,362 	"/>
	<polygon fill="none" stroke="#FFFFFF" stroke-width="0.2" points="107.3,372.7 107.3,373.7 118.1,373.7 119.1,372.7 119.1,371.6 
		118.1,371.6 	"/>
	<path fill="none" stroke="#FFFFFF" stroke-width="0.2" d="M137.6,369.2l-3.5-5.3c2.5-0.2,4.5-2.3,4.5-4.8c0-2.7-2.2-4.9-5-4.9
		c-2,0-3.2,0.8-3.8,1.4c-0.8,0.9-1.3,2.1-1.3,3.4v0.3l2,3.1c-0.5,0.3-1,0.6-1.5,1c-0.6,0.5-1.1,1.2-1.4,1.9
		c-0.3,0.8-0.5,1.6-0.5,2.4c0,0.8,0.2,1.6,0.5,2.4c0.3,0.7,0.8,1.4,1.4,1.9c1.2,1.1,2.8,1.7,4.5,1.7h2.1l1.5-1.3l0.8,1.2l1.8-1.2
		l-1-1.5l1-0.8v-5.3h-2.2V369.2z M133.7,356.4c1.6,0,2.8,1.2,2.8,2.7c0,1.5-1.3,2.7-2.8,2.7c-0.3,0-0.6,0-0.9,0.1l-2-3
		C130.8,357.6,131.5,356.4,133.7,356.4z M134.9,371.6h-1.2c-2.4,0-4.3-1.7-4.3-3.8c0-1.5,1-2.8,2.4-3.4l4.2,6.3L134.9,371.6z"/>
	<path fill="none" stroke="#FFFFFF" stroke-width="0.2" d="M153.9,375.9c-1.3,0-2.4-0.4-3.3-1.1c-0.8-0.7-1-1.4-1-1.8v-6.9
		c0-0.7,0.3-1.5,0.9-2.1c0.4-0.5,1.2-1.1,2.3-1.1c1,0,1.8,0.2,2.3,0.7c0.4,0.4,0.7,0.9,0.7,1.4v1.1l-0.6-1H154c-1.1,0-2,0.5-2.8,1.3
		c-0.7,0.8-1.1,1.9-1.1,3s0.4,2.2,1.1,3c0.7,0.9,1.7,1.3,2.8,1.3h1.1l0.6-1.1l1.1,1.1h1.1V365c0-1.2-0.5-2.3-1.5-3.1
		c-0.9-0.8-2.2-1.2-3.7-1.2c-1.5,0-2.9,0.7-3.9,1.8c-0.9,1-1.4,2.3-1.4,3.5v6.9c0,0.6,0.2,1.3,0.5,1.9c0.3,0.6,0.8,1.1,1.3,1.6
		c1.2,1,2.9,1.6,4.7,1.6s3.3-0.4,4.4-1.1c1.1-0.8,1.8-1.9,1.8-3.2h-2.2C157.9,375,156.3,375.9,153.9,375.9z M155.8,370.9l-1.4,0.7
		H154c-0.4,0-0.8-0.2-1.1-0.6c-0.3-0.4-0.5-1-0.5-1.6c0-0.6,0.2-1.2,0.5-1.6c0.3-0.4,0.7-0.5,1.1-0.5h0.3l1.4,0.8V370.9z"/>
	<rect x="172.9" y="352.9" fill="none" stroke="#FFFFFF" stroke-width="0.2" width="2.2" height="22.4"/>
	<path fill="none" stroke="#FFFFFF" stroke-width="0.2" d="M194,363.9c-0.9,0-1.7,0.3-2.3,1c-0.6,0.6-1,1.4-1,2.3
		c0,0.9,0.3,1.7,1,2.3s1.4,1,2.3,1h2.2l0.9-1.2v-0.8l-1.3,0.9H194c-1.2,0-2.2-1-2.2-2.2s1-2.2,2.2-2.2h1.8l1.3,0.9v-0.9l-0.9-1.2
		H194z"/>
	<path fill="none" stroke="#FFFFFF" stroke-width="0.2" d="M197.7,361.5c-0.7-0.5-1.4-0.8-2.2-0.8H193c-0.8,0-1.5,0.3-2.2,0.8
		c-0.6,0.4-1.1,1-1.6,1.8c-0.9,1.5-1.3,2.3-1.3,3.8v0.3c0,1.5,0.5,2.4,1.3,3.8c0.4,0.8,1,1.4,1.6,1.8c0.7,0.5,1.4,0.8,2.2,0.8h2.5
		c0.8,0,1.5-0.3,2.2-0.8c0.6-0.4,1.1-1,1.6-1.8c0.9-1.5,1.3-2.3,1.3-3.8v-0.3c0-1.5-0.5-2.4-1.3-3.8
		C198.9,362.5,198.3,361.9,197.7,361.5z M198.9,367.4c0,1.2-0.4,1.8-1.1,2.9c-0.6,1-1.4,1.7-2.2,1.7H193c-0.8,0-1.6-0.7-2.2-1.7
		c-0.7-1.1-1.1-1.7-1.1-2.9v-0.3c0-1.2,0.4-1.8,1.1-2.9c0.6-1,1.4-1.6,2.2-1.6h2.5c0.8,0,1.6,0.6,2.2,1.6c0.6,1.1,1.1,1.7,1.1,2.9
		V367.4z"/>
	<polygon fill="none" stroke="#FFFFFF" stroke-width="0.2" points="215.7,361.1 215.7,354.2 213.5,354.2 213.5,361.3 209.2,361.8 
		209.2,362.9 213.5,362.9 213.5,375.3 215.7,375.3 215.7,362.9 218.9,362.9 220,361.8 220,360.7 218.9,360.7 	"/>
	<polygon fill="none" stroke="#FFFFFF" stroke-width="0.2" points="235.9,361.1 235.9,354.2 233.8,354.2 233.8,361.3 229.5,361.8 
		229.5,362.9 233.8,362.9 233.8,367.8 229.5,368.3 229.5,369.4 233.8,369.4 233.8,375.3 235.9,375.3 235.9,369.4 239.2,369.4 
		240.3,368.3 240.3,367.2 239.2,367.2 235.9,367.6 235.9,362.9 239.2,362.9 240.3,361.8 240.3,360.7 239.2,360.7 	"/>
	<path fill="none" stroke="#FFFFFF" stroke-width="0.2" d="M252,357.1c0,1.7,1.4,3.1,3.1,3.1s3.1-1.4,3.1-3.1s-1.4-3.1-3.1-3.1
		S252,355.4,252,357.1z M256.4,357.1c0,0.7-0.6,1.3-1.3,1.3c-0.7,0-1.3-0.6-1.3-1.3s0.6-1.3,1.3-1.3
		C255.9,355.8,256.4,356.4,256.4,357.1z"/>
	<path fill="none" stroke="#FFFFFF" stroke-width="0.2" d="M279.5,355.6c-0.2-0.2-0.4-0.4-0.7-0.6c-0.6-0.5-1.3-0.7-2.1-0.7v0h-0.1
		h-2.1h-0.5c-0.8,0-1.5,0.3-2.2,0.8c-0.6,0.4-1.1,1-1.6,1.8c-0.9,1.5-1.3,2.3-1.3,3.8v0.3c0,1.5,0.5,2.4,1.3,3.8
		c0.4,0.8,1,1.4,1.6,1.8c0.7,0.5,1.4,0.8,2.2,0.8h0.5v9.5h2.2v-20.3c0.6,0.1,1.2,0.6,1.7,1.4c0.5,0.8,0.8,1.5,1,2.2v16.6h2.2v-22.5
		h-2.2V355.6z"/>
	<path fill="none" stroke="#FFFFFF" stroke-width="0.2" d="M15.2,390.5c-0.7-0.5-1.4-0.8-2.2-0.8h-2.5c-0.8,0-1.5,0.3-2.2,0.8
		c-0.6,0.4-1.1,1-1.6,1.8c-0.9,1.5-1.3,2.3-1.3,3.8v0.3c0,1.5,0.5,2.4,1.3,3.8c0.4,0.8,1,1.4,1.6,1.8c0.7,0.5,1.4,0.8,2.2,0.8H13
		c0.8,0,1.5-0.3,2.2-0.8c0.6-0.4,1.1-1,1.6-1.8c0.9-1.5,1.3-2.3,1.3-3.8v-0.3c0-1.5-0.5-2.4-1.3-3.8
		C16.4,391.5,15.8,390.9,15.2,390.5z M16.4,396.4c0,1.2-0.4,1.8-1.1,2.9c-0.6,1-1.4,1.7-2.2,1.7h-2.5c-0.8,0-1.6-0.7-2.2-1.7
		c-0.7-1.1-1.1-1.7-1.1-2.9v-0.3c0-1.2,0.4-1.8,1.1-2.9c0.6-1,1.4-1.6,2.2-1.6H13c0.8,0,1.6,0.6,2.2,1.6c0.6,1.1,1.1,1.7,1.1,2.9
		V396.4z"/>
	<path fill="none" stroke="#FFFFFF" stroke-width="0.2" d="M14.5,394.8c0-0.7-0.3-1.4-0.8-1.9c-0.5-0.4-1.1-0.7-1.8-0.7h-0.6l-2.1,0
		v0.6l0.4,0.2v6.4l-0.4,0.2v0.7h1.5v-2.8h0.5h0.6c0.3,0,0.6,0.3,0.8,0.7c0.3,0.4,0.4,1,0.4,1.6l0.5,0.5h0.9v-0.7l-0.3-0.2
		c0-0.7-0.2-1.4-0.6-1.9c-0.2-0.2-0.3-0.4-0.5-0.5c0.2-0.1,0.4-0.2,0.6-0.4C14.2,396.2,14.5,395.5,14.5,394.8z M11.8,396.3h-1.1v-3
		h0.8h0.3c0.9,0,1.6,0.7,1.6,1.5S12.7,396.3,11.8,396.3z"/>
	<path fill="none" stroke="#FFFFFF" stroke-width="0.2" d="M30.3,384.9c-2.5,0-4.6,2-4.6,4.5v0.8l4.5,1.7c-2.5,0-4.5,2-4.5,4.5v0.8
		l10.3,3.8c-0.3,1-1.2,2-2.3,1.9l-6-0.3l-1.1-2.1h-1.1v2.2l1.1,2.2h7c2.5,0,4.5-2.1,4.5-4.6v-0.8l-4.5-1.7c2.5,0,4.5-2.1,4.5-4.5
		v-0.8l-10.3-3.8c0.3-1,1.2-2,2.3-2l6,0.3l1.1,2.2h1.1v-2.2l-1.1-2.2H30.3z M33.9,396l-5.8-0.3c0.3-1,1.2-2,2.3-1.9l5.8,0.3l0,0
		C35.8,395.1,34.9,396.1,33.9,396z"/>
	<polygon fill="none" stroke="#FFFFFF" stroke-width="0.2" points="47.1,391.4 47.1,392.3 48.4,392.3 48.8,392.1 49.3,392.3 
		50.6,392.3 50.6,391.4 49.6,390.9 49.6,384.5 50.6,384.5 51,385.5 51.9,385.5 51.9,384.2 51.3,383 46.3,383 45.7,384.2 45.7,385.5 
		46.6,385.5 47.1,384.5 48.1,384.5 48.1,390.9 	"/>
	<path fill="none" stroke="#FFFFFF" stroke-width="0.2" d="M58.2,383.6c-0.3-0.5-0.8-0.6-1-0.6h-0.8l-0.1,0.5
		c-0.1-0.1-0.1-0.2-0.2-0.2c-0.3-0.2-0.6-0.3-0.9-0.3h-0.8l-0.1,0.2L54,383h-1.3v0.9l0.4,0.2v7.1l-0.4,0.2v0.9H54l0.7-0.7v-6.6
		l0.4-0.5c0.1,0.1,0.3,0.5,0.3,1.2l-0.4,2.8l0.6,0.7h0.9l0.4-0.9l-0.4-0.2l0.4-2.4c0-0.3,0-0.6-0.1-0.9l0.2-0.3
		c0.1,0.1,0.1,0.3,0.2,0.6c0.1,0.7,0.2,1.5,0.2,2.4c0,0.9-0.1,1.7-0.2,2.3c-0.1,0.6-0.3,0.8-0.4,0.9v1.4c0.6,0.2,1.1-0.3,1.3-0.6
		c0.2-0.3,0.3-0.7,0.4-1.1c0.2-0.8,0.3-1.8,0.3-2.9c0-1.1-0.1-2.2-0.3-3C58.5,384.3,58.4,383.9,58.2,383.6z"/>
	<polygon fill="none" stroke="#FFFFFF" stroke-width="0.2" points="72.7,383.2 71.8,383.2 65.9,394.8 67.1,395.4 72.7,385.7 
		78.3,395.4 79.4,394.8 73.5,383.2 	"/>
	<polygon fill="none" stroke="#FFFFFF" stroke-width="0.2" points="94,381.7 90.5,385.5 91.1,386.4 95.3,383.5 95.5,382 94.9,381.1 
			"/>
	<path fill="none" stroke="#FFFFFF" stroke-width="0.2" d="M113.2,383.3c-0.4,0-0.7-0.4-0.7-0.8h-2.2c0,1.7,1.3,3,2.9,3
		c1.6,0,2.9-1.4,2.9-3h-2.2C113.9,382.9,113.6,383.3,113.2,383.3z"/>
	<polygon fill="none" stroke="#FFFFFF" stroke-width="0.2" points="133.4,384.3 129.7,381.6 129,382.5 132.6,386.3 133.5,386.3 
		134.3,386.3 137.8,382.5 137.2,381.6 	"/>
	<polygon fill="none" stroke="#FFFFFF" stroke-width="0.2" points="153.7,382 152.9,382 149.3,385.8 150,386.7 153.7,384 
		157.5,386.7 158.1,385.8 154.6,382 	"/>
	<polygon fill="none" stroke="#FFFFFF" stroke-width="0.2" points="175.4,383.5 175.4,386.5 178.6,386.5 178.6,384.6 177.4,383.5 	
		"/>
	<polygon fill="none" stroke="#FFFFFF" stroke-width="0.2" points="169.5,383.5 169.5,386.5 172.6,386.5 172.6,384.6 171.5,383.5 	
		"/>
	<polygon fill="none" stroke="#FFFFFF" stroke-width="0.2" points="192.8,383.5 192.8,386.5 195.9,386.5 195.9,384.6 194.8,383.5 	
		"/>
	<polygon fill="none" stroke="#FFFFFF" stroke-width="0.2" points="212.6,381.1 212,382 212.3,383.5 216.4,386.4 217,385.5 
		213.5,381.7 	"/>
	<polygon fill="none" stroke="#FFFFFF" stroke-width="0.2" points="238.2,381.7 234.6,385.5 235.3,386.4 239.4,383.5 239.7,382 
		239,381.1 	"/>
	<polygon fill="none" stroke="#FFFFFF" stroke-width="0.2" points="235.4,382 234.8,381.1 233.9,381.7 230.4,385.5 231,386.4 
		235.1,383.5 	"/>
	<polygon fill="none" stroke="#FFFFFF" stroke-width="0.2" points="249.2,383.2 249.2,384.3 260,384.3 261.1,383.2 261.1,382.2 
		260,382.2 	"/>
	<polygon fill="none" stroke="#FFFFFF" stroke-width="0.2" points="276.2,402.7 275.1,402.7 272.7,406 273.2,406.7 273.7,407.4 
		277.7,408 278.1,407 275,405.6 	"/>
	<path fill="none" stroke="#FFFFFF" stroke-width="0.2" d="M11.8,409.6c-1.7,0-3.1,1.4-3.1,3.1s1.4,3.1,3.1,3.1s3.1-1.4,3.1-3.1
		S13.5,409.6,11.8,409.6z M11.8,414.1c-0.7,0-1.3-0.6-1.3-1.3c0-0.7,0.6-1.3,1.3-1.3c0.7,0,1.3,0.6,1.3,1.3
		C13.1,413.5,12.5,414.1,11.8,414.1z"/>
	<polygon fill="none" stroke="#FFFFFF" stroke-width="0.2" points="33.6,413.3 30.9,411.7 27.8,413.5 27.8,415.3 29,415.3 
		30.9,413.3 32.8,415.3 33.6,415.3 34.5,415.3 36.9,412.6 36.3,411.7 	"/>
	<polygon fill="none" stroke="#FFFFFF" stroke-width="0.2" points="55.9,420.2 52.1,423.7 52.1,424.6 52.1,425.4 55.8,429 
		56.7,428.4 54.1,424.6 56.8,420.8 	"/>
	<polygon fill="none" stroke="#FFFFFF" stroke-width="0.2" points="52.6,420.8 51.7,420.2 47.9,423.7 47.9,424.6 47.9,425.4 
		51.7,429 52.6,428.4 50,424.6 	"/>
	<polygon fill="none" stroke="#FFFFFF" stroke-width="0.2" points="72.4,420.9 75,424.7 72.4,428.4 73.3,429.1 77.1,425.6 
		77.1,424.7 77.1,423.8 73.3,420.3 	"/>
	<polygon fill="none" stroke="#FFFFFF" stroke-width="0.2" points="72.9,424.7 72.9,423.8 69.2,420.3 68.3,420.9 70.9,424.7 
		68.2,428.4 69.1,429.1 72.9,425.6 	"/>
</g>
</svg>
